<svg width="1004" height="456" viewBox="0 0 1004 456" fill="none" xmlns="http://www.w3.org/2000/svg">
<path d="M545.135 17.5C551.035 16.5 560.035 18.9 561.935 25.1C567.435 21.2 571.935 27.9999 577.435 29.7999C581.535 31.1999 587.435 23.0999 589.935 28.1999C593.635 30.4999 601.835 25.9999 603.835 30.7999C605.835 31.2999 608.935 30.7 611.035 31.1C608.635 31.4 606.135 33.9 603.635 34.5C594.935 36.6 585.735 41.2 579.735 48.1C572.435 53.5 558.035 62.4 577.935 57.7C579.435 57.3 581.735 55.8 582.935 55C584.035 56 586.435 54.1 587.335 53.6C592.635 52.6 588.635 56.8 588.335 59.4C584.935 62.4 591.535 59.9999 590.535 59.2999C590.735 58.6999 592.735 60.5 592.935 60.4C599.635 63.9 605.535 54.9 612.335 55.5C615.835 55 618.435 52.1 621.835 51.4C623.335 49.6 627.135 45.4999 627.735 49.2999C629.735 49.5999 628.835 51.3 630.235 52.1C630.835 53.5 629.535 55.4 630.535 56.7C632.935 52.3 638.035 53.6 642.235 54.6C645.235 55.5 646.535 59.3 648.835 61C649.235 64.2 654.135 61.5999 656.035 62.2999C657.035 64.0999 658.835 63.2 660.335 63.2C662.235 65.1 664.035 61.8 665.935 61.1C669.835 58.6 674.935 58.2 679.535 58.9C682.935 58.9 686.535 56.8 689.935 57C691.335 57.3 689.935 58.1 689.935 59.1C689.835 60.2 690.135 61.3 689.435 62.1C689.435 64.1 695.335 63.3 696.535 63.4C700.135 66.6 701.335 58.5 704.035 67.7C701.735 72.1 707.235 67.7999 706.735 71.7999C713.735 76.9999 701.535 72.6 699.435 73.9C698.335 74.4 698.135 73.2 697.435 72.9C695.635 72 694.335 74.9999 695.035 76.2999C694.335 77.9999 691.335 74.5 690.635 74.1C688.135 72.6 684.735 71.4 681.835 71.6C677.735 75.2 677.135 73.2 674.335 75.1C672.735 75 670.935 74.2 669.235 74.7C667.535 75.1 667.135 77.1 665.935 78C664.435 78.7 662.135 79.9 662.035 81.7C658.235 80.5 663.735 78.3 663.335 76.7C662.835 75.3 660.935 77.6 659.835 76.7C658.735 77.2 658.435 78.9 657.535 79.6C654.935 81.1 656.135 76.5 655.935 75.5C653.335 80.2 650.235 85.1 646.735 89.5C645.235 90.8 644.935 92.1 644.635 94C641.935 95.4 640.335 96.7 639.035 99.5C636.335 104.2 638.435 104.8 641.935 101.8C643.335 100.8 643.835 97.6 645.935 97.7C647.335 96.7 649.135 97.7 649.635 99.2C648.835 101.8 646.735 104.4 646.335 107.2C647.535 112.3 642.935 113.2 642.835 118.1C644.435 122.8 638.835 127.1 639.935 132C639.435 135.2 642.335 138.3 641.435 141.6C640.835 146.4 640.935 151.3 644.135 155C645.535 165 654.835 162.5 660.735 157.8C670.835 145.8 670.535 135.8 663.335 122.3C665.135 119.6 665.435 116.3 663.535 113.4C666.635 110.4 669.335 105.6 668.035 101.2C669.335 98.3 670.635 101.7 671.435 96.1C672.935 96.3 673.435 94.2 674.935 95.2C676.635 94.3 677.635 91.6 679.135 90.5C681.235 89.6 678.935 91.6999 679.735 92.7999C679.235 93.9999 677.735 101.3 680.135 97.1C681.135 91.9 682.035 96.2 680.435 98.5C680.335 98.8 680.135 99.2 680.435 99.4C682.335 97.1 683.635 93.6999 683.035 90.7999C683.135 86.7999 688.635 87.4 691.235 86.2C687.935 85.6 687.435 81.8 690.435 80.1C690.635 79.9 691.035 78.8999 690.335 78.7999C690.835 78.2999 691.835 78.8 692.335 78.7C694.135 77.9 695.935 78.7 697.535 79.9C699.435 81.1 702.435 80.4 704.035 82.1C706.535 85.5 712.635 85.6999 716.535 87.7999C717.335 88.5999 718.235 88.9 717.935 90.2C719.035 91.3 719.135 92.6 719.935 93.7C715.635 92.5 716.535 95.5 719.035 97.4C719.835 100.4 720.235 109.7 716.335 109.5C714.435 111.3 715.335 114.3 712.035 115.2C708.935 115 708.635 118.3 708.535 120.6C710.135 123.5 713.835 123.7 715.635 121.1C717.235 120.9 719.235 117.7 718.135 116.9C721.435 116.1 725.135 112.4 728.535 115.3C732.335 119.9 735.435 135.3 733.635 140.8C731.835 144.8 726.735 148.2 723.035 149.9C722.435 151.2 721.335 153.1 721.835 154.6C720.835 155.2 720.335 155.9 720.135 156.8C719.635 156.6 718.935 157.5 718.635 157.8C715.535 161.8 718.135 160.1 720.635 162C722.235 162.5 724.735 164.2 726.335 164.4C726.835 164.5 727.235 163.5 727.635 163.7C727.835 164.4 729.735 164.4 729.835 164.9C728.435 165.3 725.135 165.6 724.135 166.2C726.235 166.7 728.635 165.9 730.735 166C733.535 168.2 736.835 166.2 739.935 165.5C746.535 166.1 750.035 163.1 755.435 160.1C767.735 155.8 781.135 151.2 791.735 143.5C792.435 141.5 795.835 141 796.135 139C794.135 135.3 797.735 134.5 792.835 133.7C791.935 125.9 808.635 128.3 814.035 128.8C818.635 131.5 823.835 129.6 828.935 130.4C829.035 130.9 829.535 130.5 829.535 130.2C830.735 129.7 832.135 128.9 833.235 129.2C834.535 127.9 835.935 126.6 837.535 125.8C839.235 124.8 842.735 125.7 842.435 122.9C841.735 121.7 842.235 119.6 840.735 118.8C840.635 118.4 841.435 118.1 841.735 117.9C841.635 118.1 841.535 118.5 841.835 118.6C842.835 118 843.735 116.6 844.535 115.8C839.935 116.6 846.135 112.5 840.635 114.9C838.035 111.3 850.235 109.4 849.635 105.8C857.535 96.2999 867.635 93.8 880.235 95.1C894.235 95.1 909.435 95.1 923.435 95.1C923.135 93.9 926.035 90 926.735 89.2C927.135 89.5 929.535 89.9 930.035 89.7C930.735 89 933.135 87 933.635 89.1C935.535 91.3 934.735 86 936.735 86.6C938.535 86.9 937.335 84.6 937.635 83.6C938.335 82.2 941.335 80.8 942.435 79.7C942.135 78 944.635 77 944.735 75.5C943.635 71.8 945.735 67.4 948.435 64.9C949.135 55.9 957.735 50 962.535 42.9C970.835 43.5 959.535 51.7 975.835 46.7C979.935 43.1 984.035 48.4 987.435 51C987.335 59.9 988.135 69.6999 987.535 78.2999C986.635 80.5999 989.535 81 990.935 82C992.035 82.1 995.635 82.4 993.335 84.2C991.935 84.5 992.935 85.6 993.335 86.2C994.635 87.7 991.535 89.6 994.135 90.7C996.235 93.3 995.935 89.8 998.835 91.6C1000.53 97 997.135 96.5999 1001.13 98.2999C999.535 103.5 992.735 99.8999 990.735 103.8C989.235 104.7 988.035 103.3 986.635 103.8C985.535 104.5 986.135 107.1 984.435 106.1C981.835 110.1 983.035 105.7 981.235 105.3C979.235 103.8 977.435 108.2 976.135 105.2C973.635 109.2 977.035 111.6 971.435 108.6C968.035 109.4 971.135 107.3 971.635 106.6C971.135 106.2 970.635 106.8 970.235 106.4C970.235 105.9 971.135 104.7 970.835 104.1C970.435 104.2 969.435 105.4 969.335 105.8C965.635 107.2 967.035 117.6 960.735 115.7C959.535 116.1 959.035 116.8 958.335 117.6C956.935 118.4 957.735 116.5 956.935 116.1L956.335 118.1C954.835 118.8 956.235 114.3 954.435 116.7C953.435 122.1 952.935 114.1 952.535 120.5C951.235 118.6 949.035 121.5 949.835 118.8C949.035 118.6 943.235 121.8 945.135 122.8C945.835 125.6 938.335 129.5 938.135 133.4C935.635 134.6 933.035 143.3 937.835 142.6C939.935 143.1 936.735 144 936.035 144.5C928.435 150.6 930.735 149 936.335 151.3L938.435 155C937.835 155.2 937.935 155.7 937.735 156.1C938.935 156.4 940.535 158.1 940.235 159.7C942.635 161.7 948.435 161.3 949.035 158.4C946.835 155.6 948.035 155.4 945.035 154.5C947.735 152 951.535 159.4 950.135 162.3C943.035 161 936.835 169 937.635 161.6C920.635 172.1 933.535 157.1 927.335 162.1C926.335 161.5 926.535 160 925.335 159.8C926.835 161.7 923.635 164.2 924.435 166.5C919.935 170.6 911.835 167.9 906.435 169.9C897.435 169.2 888.035 173.8 881.335 179.6C880.335 180.3 884.335 172.9 881.635 171.1C880.135 169.4 882.835 175.6 881.635 177C880.435 180.3 877.235 181.5 875.835 184.5C875.735 186.4 879.135 186.6 880.435 186C882.135 190 879.035 194.6 879.035 198.8C879.235 198.2 878.935 195.5 879.235 194.9C877.135 196.9 877.335 201.6 874.535 203.5C872.735 202.7 873.635 205.1 872.835 206.4C872.235 207.5 870.535 207 869.835 208.1C869.435 211.2 861.735 219.3 864.835 210.8C863.535 210 862.135 209.4 860.635 209.7C859.735 208.8 858.135 207.6 856.935 207.2C853.135 205.2 853.535 201.7 855.735 198.7C857.535 197.2 861.135 197.8 861.735 194.9C860.335 196.8 858.035 196.9 856.035 197.8C854.935 199.3 852.035 201 853.035 203.1C852.535 204.9 854.635 206.8 855.635 208.2C855.535 211.8 857.935 216.4 861.335 217.8C861.635 219 860.735 220.7 859.635 221.3C861.335 220.4 862.735 222.7 862.135 224.3C861.535 226 861.835 225.2 861.235 224.3C859.935 224.7 860.635 226.5 860.035 227.4C857.835 228.9 852.335 236.9 852.735 240.2C851.435 240.8 849.535 241.2 848.735 242.6C843.835 255.7 845.535 237.6 850.435 235.4C851.635 232.6 851.435 232.3 848.135 232.5C850.735 228 845.435 230.8 848.035 227.2C847.835 224.8 848.235 225 846.335 226.6C846.035 224.7 845.235 227.8 843.835 226.1C841.435 225.4 840.435 222.9 841.335 220.8C841.935 220.4 843.335 220.6 843.935 220.8H845.835C845.535 220.3 845.335 220.4 844.835 220.5C842.735 219.2 842.135 216.3 839.935 218.7C839.835 216.2 845.035 216.3 841.635 214.3C839.235 215.2 840.235 214.9 840.335 213.1C841.635 213.2 843.135 213.6 843.435 211.7C843.635 210 842.635 211.9 841.935 212C841.035 210.5 842.235 208.4 843.035 207.3C844.035 206 846.335 206.4 847.835 206.1C843.635 205 846.735 205.3 847.835 203.6C845.535 203.8 846.535 203.8 846.335 202.2C842.735 202.4 845.535 205.7 841.835 206.1C841.035 203.6 841.535 206.5 840.835 207.2C840.435 205.3 839.335 205.3 839.435 207.2C837.935 207.4 839.235 208.4 838.435 209.1L835.835 208.3C835.535 208.6 837.035 210.2 837.235 210.4C839.335 211.3 838.135 213.6 836.035 212.1C838.235 214.9 835.635 218.9 837.035 222.2C840.735 227.1 836.235 225.3 834.435 222.1C833.535 219.1 834.235 222.7 834.635 223.7C835.735 225.2 840.835 228 839.835 230.6C838.035 228.9 834.935 227.6 832.435 227.3C831.535 227 830.635 223.4 830.735 225.9C830.435 227.8 828.335 224.7 828.435 223.8C827.035 223.6 825.835 225.1 824.435 224.5C823.635 222.3 825.935 220.1 827.535 218.9C828.735 217.5 827.735 213.7 827.635 217.6C824.935 219.3 819.435 227.3 826.535 225.1C827.835 224.8 829.335 227.7 830.035 228.3C833.135 228.6 836.935 231 839.435 232.6C842.435 234 840.335 239.3 837.035 237.8C835.035 235.5 821.835 224.4 829.535 231.4C832.335 234.9 835.835 238.7 840.235 239.9C837.435 241.2 841.635 240.7 841.035 242.6C840.835 244.6 839.935 243.7 838.435 243.5C838.635 249.5 832.735 240.6 832.135 241.8C833.035 245.4 842.635 246.9 839.335 250.4C837.635 251.4 834.635 248.3 834.235 246.6C832.535 247.1 824.035 243.2 823.935 245.1C826.935 245.3 830.335 247.2 833.435 247.5C833.235 249 835.135 250.8 836.335 251.4C836.735 254.7 840.735 250.6 842.535 252C849.035 252.7 847.435 265.8 852.635 271.1C854.135 274.5 850.035 267.5 849.635 267C847.935 265.2 847.635 257.3 845.635 257.3C845.835 258.5 844.935 260 845.335 261.1C846.635 262.6 850.335 269.1 845.735 265.1C842.935 264.5 842.235 262.6 842.235 266.3C840.135 265.8 840.135 265 841.035 266.8C838.035 265.1 838.035 268.7 835.335 268.6C832.535 268.4 832.035 262.8 832.135 266.4C831.635 271 835.535 269.6 838.835 269.8C843.135 268.4 844.935 269.6 843.635 274.7C845.435 275.2 845.435 272.1 845.535 271C848.735 267.8 850.435 272.6 849.035 275.4C846.535 276.5 844.635 279.9 842.135 280.7C839.935 279.8 836.035 280.8 835.935 277.9C834.535 276.9 834.435 278 834.135 279C832.035 279.9 829.135 278.5 827.235 277.6C828.435 279.8 834.635 280.3 836.235 282.1C833.135 287.1 831.635 288.8 826.635 284.1C828.635 290 835.335 286.1 838.935 287.9C836.135 292.2 830.435 292.4 825.635 292C823.335 294.1 822.135 294.7 820.835 291.6C822.435 299.1 813.535 296 811.935 305.6C811.935 304.4 811.935 302.6 811.435 301.5C812.535 309.7 801.335 303.4 796.035 309.3C793.535 309.8 788.635 321 789.235 315.6C788.935 313.8 788.135 317.9 789.235 318.7C787.835 320.5 785.235 321.5 783.035 322C782.535 324.4 779.435 326.4 777.035 325.4C778.735 327.5 775.635 328.9 773.835 329.2C772.335 328.7 771.135 330.5 769.735 330.7C768.335 330.3 766.435 329.8 765.035 330.5C766.335 330.6 769.135 332.3 767.135 333.7C765.435 334.6 765.335 334 764.835 332.4C763.335 334.3 763.435 332.9 762.135 331.6C761.835 332.1 762.535 333.8 762.835 334.2C764.735 335.3 763.135 337.3 761.235 337.4C760.535 339.1 760.135 340.9 757.835 341.3C755.335 341.1 758.635 343 756.935 343.7C756.035 343.4 755.735 344.3 755.235 344.6C755.235 345.2 756.035 345.6 755.735 346.2C755.135 346.2 754.335 346.9 754.235 347.4C754.435 347.5 755.135 347.7 755.335 347.4C756.135 347.2 755.035 348.4 754.935 348.5C752.835 351.5 750.835 349.6 753.735 352C751.635 355.2 750.935 351.3 750.635 356.5C748.735 360.3 751.835 365 752.035 369C754.435 379.6 760.335 390.3 766.835 399C764.335 401.7 766.635 405.9 767.935 408.7C764.635 406.4 765.735 400.5 765.035 398.4C764.335 399.8 764.335 403 763.235 399.3C762.835 398.3 764.435 397.8 763.835 397C762.635 396.6 762.335 396 762.735 394.9C760.835 393.1 762.135 396 761.935 396.5C764.335 405.5 772.435 418.1 775.135 426.7C775.135 432.4 774.435 441.1 772.135 444C769.935 446.3 770.935 450.7 767.535 452.2C764.235 452.1 757.635 455.8 755.635 452.2C755.335 448.4 761.135 454.4 758.835 450.7C755.835 450.1 753.235 444.9 752.235 442.3C743.035 441 746.335 435.6 741.935 431.5C746.935 422.8 738.635 437.8 740.035 424.8C741.835 422.4 739.435 424 738.035 424C738.035 424.3 738.335 425.3 738.035 425.6C734.335 425.7 732.235 418.9 730.435 416.4C729.535 414.8 728.035 414.9 730.235 414.4C730.935 412.5 735.935 410.2 733.535 408.2C732.335 409 732.035 408.4 731.235 407.3C727.235 405.4 733.735 411.5 728.835 411.1C727.835 412.2 726.935 409.9 726.535 409.2C735.835 385.5 723.835 390.5 711.935 374.5C709.035 372.6 702.335 369.7 700.235 373.6C700.735 374.4 700.135 375.3 698.935 374.8C695.535 375.2 684.435 381 682.435 377.2C682.135 375.3 682.535 376 682.935 376.9C686.135 378.9 682.435 373.9 680.835 373.7L677.835 371.2C678.135 371.1 679.035 371.5 678.935 370.8C676.535 369.8 681.135 367.3 676.835 369.2C678.035 373 666.635 365.5 664.635 366.6C666.535 365.6 673.635 367.1 668.035 365C662.835 365.5 657.135 367.4 651.735 367.7C652.935 366.1 657.335 366.6 655.135 363.7C653.335 364.9 654.635 364.7 652.235 364.2C653.135 366.7 644.735 370.1 647.535 367.3C647.635 366.1 646.735 367.4 646.335 367.2C646.135 369.3 637.635 370 638.235 369.2C640.735 369.3 643.135 367.9 639.735 366.5C638.735 365.3 639.635 362.7 637.735 361.8C634.135 370.8 635.235 366.3 625.935 367.6C622.835 365.1 619.235 368.2 616.035 367.7C614.235 367.8 612.535 370.6 610.435 370.8C607.035 370 602.635 367.6 599.435 367.1C591.535 373.9 602.635 373.2 607.235 371.2C608.135 369.7 610.035 371.6 608.235 372.3C605.235 373 607.435 375.3 609.535 375.2C610.335 375.1 610.435 374.2 610.635 373.5C611.035 372.6 613.835 372 613.235 373.3C614.935 375.3 614.235 377.6 611.235 377.4C609.835 377.9 611.235 378.9 609.635 379.1C608.635 378.2 608.535 379.6 607.935 379.9C609.635 384 616.135 383.4 618.335 386.3C620.235 386.5 620.635 388.5 618.435 388.8C618.335 388.9 617.935 390.1 617.635 390.2C617.335 389.7 616.635 389.5 616.235 389.2C615.235 389.3 613.135 392.8 614.235 389.4C612.535 386.5 609.735 385.3 606.635 385.1C607.335 382.3 596.135 380.6 602.035 383.5C602.035 385.5 601.135 389.9 598.635 388.6C598.035 385.7 595.135 385.1 592.835 386.2C590.635 390.9 584.135 386.4 580.535 385.8C580.535 384.9 581.035 385.4 581.435 385.1C584.935 385.7 581.135 383.6 581.035 382.1C581.635 380 580.435 381.5 579.835 381.9L576.635 381.2C575.035 379.7 573.835 377.3 571.235 377.9C570.035 375.3 567.035 377.4 565.735 378.8C565.935 379.4 567.635 380 566.635 380.5C562.235 381.5 555.535 380.8 551.535 378.5C546.335 374.8 530.835 381.3 537.435 375.2C537.435 372.1 533.635 376 535.435 379.1C531.535 378.3 514.035 387.4 524.535 381.4C520.335 380.4 520.435 384.2 520.735 378.1C517.535 377.9 519.635 379.9 515.835 379C518.435 388.9 519.835 380.9 511.535 391.4C507.735 393.9 492.835 400.9 496.735 398.1C499.035 396.8 499.435 396.8 497.035 397.1C495.235 396.2 492.635 396.6 491.235 397.6C490.135 397 489.135 395.1 487.935 395.7C489.135 396.3 489.535 400.6 491.735 400C489.935 401.3 487.235 402.8 485.535 400.6C485.435 402.1 484.135 406.9 482.735 403.9C482.135 405.5 478.735 404.3 478.935 405.9C479.035 407 480.235 406.2 480.935 406C480.435 409 477.235 410.4 474.535 409.9C473.035 410.2 476.535 412.7 476.535 413.1C475.735 416.1 473.635 421.3 469.735 417.6L468.235 416.6L469.535 419.4C470.435 419.4 473.835 419.9 473.335 421.3C473.435 422.6 472.335 423.6 471.935 424.7C472.235 425.6 473.035 427.1 473.035 428.1C473.835 432.2 476.035 438.1 479.235 440C479.735 442.1 476.135 440.7 475.635 442.3C474.535 443.3 472.535 440.9 471.535 440.7C467.435 439.1 461.335 440.3 457.835 437.4C454.935 436.6 451.935 435.7 449.235 434.2C447.335 433.9 444.535 433.6 444.035 431.2C443.735 428 441.035 425.3 439.135 423.2C440.035 421.1 438.635 420.2 438.235 418.6C440.135 415.3 435.835 413.4 433.835 412.2C431.435 410.3 429.735 406.7 427.735 404.8C425.935 403.8 424.235 402.3 423.835 400.5C423.735 396.8 418.635 393.5 418.235 389.7C414.035 385.4 408.835 381.5 404.735 377.9C400.935 377.8 396.235 378 392.235 377.2C390.835 376.1 388.835 376.2 388.435 377.5C385.935 378.4 383.635 378.4 382.335 380.2C381.535 382.3 379.435 385 380.035 386.8C379.135 388 377.935 388 377.335 388.9C374.735 393.8 368.935 388.6 366.135 387.5C362.635 385.8 358.735 385.6 356.535 383C347.335 380.1 349.335 368.6 343.335 363.3C334.135 357.8 325.135 351.5 318.035 344.1C311.935 343.9 304.435 344.1 298.735 344C291.135 344.8 285.835 340.2 287.235 351.6C272.635 351.6 258.035 351.6 244.535 351.6C219.835 348.7 196.335 337.4 172.935 331.2C178.735 324.7 165.735 329.3 162.935 328.6C154.735 328.2 133.135 333.6 133.435 329C133.235 328.8 132.535 328.2 132.635 328.3C131.335 329.6 131.235 326.6 131.135 326.1C132.435 318 121.935 314.1 117.235 310.1C114.735 308.7 113.335 310.8 111.535 309.7C112.335 307.9 110.635 305.8 109.835 304.9C105.735 304.8 102.135 304.5 98.8346 303.3C97.8346 302.8 96.6347 301.5 96.7347 300.7C96.3347 300.5 94.0347 299.2 94.2347 299.3C93.3347 298.3 89.6347 297.7 89.0347 298.2C85.9347 298.3 83.4347 296.6 81.1347 296.9C77.7347 297.6 72.4347 296.7 73.1347 293.5C72.6347 290.8 73.0347 287.7 72.5347 285.5C70.9347 284.5 68.9347 284.4 68.6347 282.8C69.6347 281.6 68.4346 280.6 68.3346 280.1C62.2346 277.2 59.2347 271.3 55.2347 266.9C54.8347 265.5 49.9347 263.4 50.9347 261.8C50.4347 259.2 52.1347 258 53.0347 256.3C51.8347 249.7 46.1347 254 42.5347 247.7C42.4347 244.5 37.9346 236 42.8346 237.1C42.3346 240.1 45.2347 240.9 46.6347 242.5C50.2347 243.8 46.2347 241.2 46.6347 240.2C37.6347 229.1 49.6347 233.2 56.9347 232.2C58.4347 231.8 54.4347 231.6 53.7347 231.7C50.5347 232.2 49.1347 230 46.7347 232C45.5347 232.2 44.3347 230.8 43.6347 230.7C41.7347 229.7 40.3347 232.8 40.9347 234.1C42.3347 239.5 35.3347 232.6 33.4347 232.2C31.1347 235.3 33.4347 229.7 32.7347 229C35.8347 233 33.1347 227.6 31.5347 227.4C28.4347 221.7 19.4347 219.1 19.9347 212.4C17.5347 208 19.7347 203.5 17.9347 199.7C15.6347 194.4 8.03466 191.8 8.53466 186C9.13466 184.4 9.63466 182.1 10.5347 181.2C11.1347 183 11.0347 181 11.5347 180.5C11.0347 180.5 10.9347 180.3 11.1347 180.1C12.8347 174.3 15.7347 165.2 10.6347 160.7C12.6347 157.9 10.0347 155.4 8.73467 154.1C6.73467 149.3 9.03466 144 5.53466 140.5C6.13466 137.6 8.43465 131.9 9.33465 129.4C11.6346 129.5 12.2347 127.1 10.0347 128.5C14.5347 114.5 13.5347 97.8 16.0347 84C15.1347 79.6 16.3347 73.9 15.0347 70.4C17.0347 71.6 20.9347 71.3 23.1347 70.4C24.4347 71.2 26.7347 72.8 28.2347 71.9C26.2347 71.4 25.1347 70.3999 24.1347 69.2999C20.8347 69.3999 19.2347 68.6 16.6347 69.4C15.8347 68.3 14.0347 69.2 13.5347 69.2C13.6347 68.8 14.1347 67 14.0347 67.2C13.3347 65.6 14.3347 63.3 14.0347 62.4C13.3347 63.5 15.9347 65.7 15.7347 66C15.6347 64.5 17.0347 62.3 16.7347 61.2C15.5347 60.1 14.4347 59.8 13.5347 59.4C13.4347 59 12.6347 56.6 12.9347 56.9C13.3347 56.7 17.9347 54.6 17.5347 54.7C14.9347 54.9 12.8346 51.5 12.3346 54.9C11.5346 53.9 12.1346 52.6 11.8346 52.1C11.0346 49.9 10.5347 46.4999 9.43468 45.2999C7.73468 33.6999 1.63466 37.1 2.53466 24C9.83466 26.2 21.4347 31.7 29.2347 28.9C30.5347 29.3 32.0347 31.4 33.5347 30.6C34.1347 30.5 35.9347 28.7999 35.9347 29.7999C36.1347 33.0999 39.1347 35.5 35.7347 38.2C34.8347 38.6 35.5347 36.6 34.9347 37C34.1347 39.9 28.8347 42.8999 29.4347 45.7999C29.1347 47.7999 32.6347 45.6999 33.2347 45.2999C33.0347 44.7999 31.2346 46 30.8346 45.5C30.3346 43.5 32.6347 42 33.4347 41.1C35.9347 39.4 38.9347 36.6999 39.1347 34.1999C42.0347 35.3999 39.4347 38.3999 38.4347 39.2999C39.4347 41.3999 38.3347 40.9 37.6347 41.1C39.9347 43.1 39.9347 45.7 39.2347 48C38.6347 49.3 37.1346 46.9 36.8346 47.6C36.1346 50.7 35.5347 48.5 35.2347 47C34.1347 46.8 32.1347 49.1999 32.2347 50.2999C29.8347 51.5999 35.3347 51 35.4347 50.9C38.3347 53 39.1347 49.7 40.1347 48.1C41.4347 47.7 42.6346 47.3 43.3346 46.1C43.2346 42 41.4346 38 43.8346 34.7C43.4346 33.8 45.4346 32.6999 45.3346 32.1999C43.9346 30.7999 43.5346 29.7 42.3346 28.6C41.7346 28.7 43.0346 30.4999 42.8346 30.6999C42.1346 30.6999 40.0347 29.1 40.4347 28.1C40.3347 26.9 41.9347 26.8 42.5347 26.6C42.4347 24.5 39.4347 23.1 38.0347 22.6C37.4347 19.3 42.1347 25.2 40.6347 17.7C39.6347 13 38.3347 17.9 37.0347 13.7C27.3347 6.99995 73.5346 12.3 74.8346 10.6C109.735 10.6 144.635 10.6 178.435 10.6C277.535 10.6 376.435 10.6 474.435 10.6C488.235 10.5 502.735 10.7 515.535 10.6C515.835 5.89997 514.235 -0.500001 520.435 3.5C521.135 7.3 522.035 13.9999 524.935 16.2999C529.235 17.4999 534.835 17.8999 538.235 19.2999C539.835 22.5999 545.735 21.3 545.135 17.5ZM37.0347 16.2C37.4347 17.8 35.6347 17.1 34.9347 16.4C36.3347 21.1 29.6347 13.6 37.0347 16.2ZM33.0347 20C34.3347 21.6 29.7346 19.8 30.3346 18.1C30.8346 16.4 33.0347 19.2 33.0347 20ZM36.3346 21.6C34.6346 22.6 33.6347 18.8 35.5347 19C35.2347 20 36.6346 20.8 36.3346 21.6ZM40.6347 27.6L41.4347 30.5C41.3347 27.8 45.3347 31.7999 43.9347 32.6999C42.6347 32.9999 42.4347 30.8999 40.9347 31.1999C39.8347 30.3999 40.3347 28.6999 39.7347 27.6999C37.1347 27.2999 37.4347 24.7999 38.9347 23.2999C40.7347 21.4999 42.5347 24.9999 38.4347 25.7999C38.4347 26.4999 40.5347 26.3 40.6347 27.6ZM621.635 32.6999C622.635 33.8999 619.535 34.2 618.135 34.6C616.735 34.5 617.735 33.7 617.835 33C616.735 33.1 617.935 32.3999 618.235 32.1999C621.035 31.0999 626.835 27.3 629.635 27.5C627.735 29.4 624.635 31.9999 621.635 32.6999ZM41.9347 39.9C41.2347 41 39.9347 38.5 40.7347 37.6C41.9347 37.2 41.8347 39.2 41.9347 39.9ZM43.7347 44.2C42.7347 46.5 42.8347 43.3 41.7347 45C41.8347 42.3 42.4347 41.3 43.7347 44.2ZM634.235 48.2C634.035 49.3 630.035 54.5 630.035 51.1C630.635 50.6 631.535 49.5 630.935 48.7C630.135 49.5 630.835 49.5999 630.735 50.2999C628.635 50.1999 626.435 49.1 628.535 47C632.035 40.5 650.835 42.9 637.835 44.4C640.535 45.6 635.035 47.3 634.235 48.2ZM35.8346 48.4C35.4346 49.5 34.8346 47.6999 34.8346 47.2999C35.4346 46.2999 35.9346 48 35.8346 48.4ZM596.135 52.2C594.735 53.3 595.435 50.3999 596.335 51.2999C596.435 51.4999 596.235 52 596.135 52.2ZM591.335 54.2999C590.935 54.6999 589.835 54 590.435 53.5C590.835 53.6 591.135 53.9999 591.335 54.2999ZM594.135 54.5C593.735 54.6 592.235 54.7 592.335 54.1C593.035 54 594.935 52.9 594.135 54.5ZM591.235 57.4C587.935 58.5 592.135 55.5 593.235 55.6C593.235 56.2 591.635 56.9 591.235 57.4ZM704.935 66.4C704.535 68.3 701.635 63.1999 703.535 62.7999C706.335 62.1999 703.435 65.2 704.935 66.4ZM705.135 68.9C704.635 69.1 703.535 67.8999 703.935 67.2999C704.635 67.2999 705.135 68.2 705.135 68.9ZM715.835 73.7999C716.635 76.2999 709.035 76 709.535 73.7C713.735 75.2 711.735 68.9999 715.835 73.7999ZM697.635 77.7999C698.635 78.0999 701.635 77.7 700.435 79.4C699.635 80.1 697.235 78.4999 697.635 77.7999ZM680.435 82.4C678.335 83.2 680.135 77.8 681.535 79.1C681.035 80 682.135 82 680.435 82.4ZM657.735 87.6C656.335 88.3 655.535 87.2 656.435 86C657.335 86.4 658.135 86.2 657.735 87.6ZM655.535 89.9C654.735 90.3 654.335 90.1 654.635 91.4C653.535 92.3 654.235 91.3999 654.335 92.7999C653.635 93.6999 651.735 94.9 652.335 96.2C651.435 98.2 648.535 99.8 648.335 96.5C649.335 95 650.635 93.1 651.435 91.5C652.935 91.7 655.035 86.8 655.535 89.9ZM673.035 92.7999C672.535 93.6999 671.635 92.5 671.535 91.9C672.035 91.3 673.035 92.0999 673.035 92.7999ZM980.435 108.7C979.435 109.5 977.935 108.2 978.335 110C973.535 110.6 979.435 102.1 980.435 108.7ZM843.535 109.8C842.635 110.3 842.935 109.5 843.535 109.3C844.535 109.2 844.335 109.5 843.535 109.8ZM972.935 111.5C971.935 112.4 971.035 111.6 971.735 110.5C972.135 110.2 972.635 111.3 972.935 111.5ZM840.935 115.7C840.435 116 840.635 115.3 840.935 115.1C841.835 114.8 841.235 115.4 840.935 115.7ZM794.835 135.2C794.535 136 793.435 136.1 793.335 135.2C793.035 134.1 795.935 134.5 794.835 135.2ZM927.735 165.5C925.135 167.2 926.635 164.4 927.135 162.9C928.835 160.5 927.535 165.1 927.735 165.5ZM925.535 165.6C924.235 167.1 925.035 162.4 925.635 164.6L925.535 165.6ZM940.335 167.8C939.735 168.2 932.035 168.9 935.935 167.8C936.935 166.1 939.735 165.4 940.335 167.8ZM949.535 169.9C947.735 170.3 942.635 169.6 947.635 168.9C948.135 168.8 948.335 167.9 948.335 167.4C948.535 167.8 949.435 169.5 949.535 169.9ZM905.835 175.4C902.835 179.5 911.435 172.1 912.935 174.8C913.735 174.4 915.435 174 916.335 173.9C906.335 178.3 895.035 182.3 884.135 183L881.835 183.4C882.235 183 884.435 182.3 883.135 181.7C878.435 184.6 878.735 181.6 882.235 179C883.435 178.9 885.335 176.9 886.135 178.1C886.235 176.7 887.835 176.4 889.035 176.5C892.635 176.2 896.535 175.7 900.335 175.5C903.835 175.9 906.835 172.9 909.935 172C908.935 172.8 906.835 174.7 905.835 175.4ZM876.835 184.3C874.935 184.8 877.335 181.7 878.335 181.7C879.835 182.2 877.935 184.3 876.835 184.3ZM877.735 200.4L875.735 203.3C875.435 203.2 879.535 196.8 877.735 200.4ZM857.035 234.1C855.535 234.8 860.635 228.1 861.035 226.5C860.535 229 858.335 232 857.035 234.1ZM851.735 271.3C851.435 272.6 850.535 269.8 850.235 269.7C850.935 270 851.835 270.4 851.735 271.3ZM853.335 282.4C853.135 282.3 850.835 283.2 850.835 282.7C855.435 282.2 854.335 276.3 854.035 272.9C855.235 275.7 855.135 279.9 853.335 282.4ZM849.235 283.3C848.935 283.4 845.935 284.8 845.735 284.5C846.535 284.1 848.335 283.4 849.235 283.3ZM836.735 293C835.935 292.8 840.535 288.3 841.835 287.8C840.435 289 837.935 291.6 836.735 293ZM836.035 292.8C835.335 292.8 834.235 292.5 833.835 291.9C834.435 291.8 835.535 292.5 836.035 292.8ZM87.1347 303C88.5347 303.9 91.8346 303.4 92.8346 303.9C91.9346 305.2 85.0347 305.3 87.1347 303ZM79.8346 304C79.3346 304.2 78.0347 304 77.5347 303.9C78.2347 303.1 79.1346 303.1 79.8346 304ZM84.3346 305.8C82.8346 306.5 81.5347 305.2 80.7347 304.1C82.0347 303.9 87.1346 303.7 84.3346 305.8ZM113.635 315.2C115.435 317.3 113.335 316 111.935 316.4C111.435 315.6 111.235 314.2 109.935 314.4C108.935 312.5 113.235 315 113.635 315.2ZM94.8346 318.2C93.9346 318.3 92.7347 318.2 92.4347 317.1C93.4347 316.9 94.7346 317 94.8346 318.2ZM113.635 325C111.435 326 110.735 322.9 109.435 321.8C110.535 321 112.235 324.6 113.635 325ZM751.835 356.9L751.035 361.1C750.635 359.7 750.435 357.8 751.835 356.9ZM636.835 369.2C635.735 369.6 633.735 369.8 632.635 369.5C633.535 369.3 635.935 368.8 636.835 369.2ZM628.435 369.8C627.935 370.2 626.035 369.7 625.635 369.1C625.735 369.1 628.435 369.7 628.435 369.8ZM616.935 372C617.135 372.9 616.935 372.8 616.235 372.4C615.935 372.3 614.235 372.7 615.535 372.1C616.635 371.3 618.335 369.5 616.935 372ZM623.835 376.7C622.935 378 624.235 373.2 623.135 372.4C624.335 373.3 623.935 375.4 623.835 376.7ZM622.735 378.3C622.635 378.3 621.635 379.8 621.835 378.9C622.035 378.5 623.535 376.9 622.735 378.3ZM691.535 379.4C690.735 380.2 686.235 379.6 689.135 379.5C690.935 380.1 692.635 377.8 694.435 377.9L691.535 379.4ZM572.535 381.8C571.935 382.3 568.835 380.7 568.835 379.9C570.035 378.7 574.735 380.1 572.535 381.8ZM516.435 387.8C513.935 388.8 520.735 384.1 521.135 384.5C520.135 385.4 517.635 387.1 516.435 387.8ZM486.635 404.3C485.235 403.6 491.735 401.5 492.735 400.6C493.235 401.6 487.735 403.2 486.635 404.3ZM482.335 408.5C481.535 408.2 483.835 404.8 484.935 404.6C485.635 405.8 482.735 407.2 482.335 408.5ZM773.135 418.8C773.635 421.6 769.035 411.4 768.835 409.4C770.135 411.1 772.135 416.9 773.135 418.8ZM476.435 418.4C474.835 420.2 479.235 410.5 481.535 409.9C479.935 411.8 477.235 416 476.435 418.4ZM479.635 437.1C477.835 436.7 474.635 424.1 476.035 420.2C475.835 425.1 478.635 432.4 479.635 437.1Z" stroke="black" stroke-width="4" stroke-miterlimit="10"/>
</svg>
