<svg width="215" height="286" viewBox="0 0 215 286" fill="none" xmlns="http://www.w3.org/2000/svg">
<path d="M163.6 268.4C159.4 272.7 159.6 269.6 155.1 268.9C157.3 266.7 161.3 265.7 163.6 268.4ZM109.5 205.7C112.7 206.6 112.2 206.6 109.4 208.2C106.3 212.1 102.7 207.8 103.2 203.9C105.6 202.3 108.3 203.1 109.5 205.7ZM71.8999 157.5C75.3999 157.8 78.2001 158.9 78.6001 162.9C80.1001 166 86.7999 169.7 80.3999 171.6C80.7999 174.3 86.3999 168.5 87.3999 176.4C87.7999 181.4 83 170.8 84.5 177C84.3 178.3 83.9 180.2 86 179.6C85.9 183.7 80.8999 181.6 80.3999 185C78.9999 188.7 75.9 187.3 73 186.6C71.8 187.5 70.2001 187.5 68.8001 187.6C65.6001 188.3 67.7 185.8 66.7 184.4C63 184.6 63.7999 179.9 60.8999 178.8C59.1999 179 56.7999 181.4 58.3999 183C57.7999 183.8 55.8 184.7 55.5 185.7C52.5 186.5 49.3999 184.1 46.3999 183.6C46.6999 181 40.5001 179.5 41.8001 177C43.0001 175.5 47.7 175.5 48.2 173.5C45.2 172.6 44.2001 170.1 48.3001 171.1C52.5001 170.4 53.1 166.3 54.5 163.1C57.1 160.4 58.2 163.7 60.5 161.8C61.2 160.5 62.1 158.2 64 159.2C66.3 159.1 69.5999 157.6 71.8999 157.5ZM93.8 152.2C90.2 153.3 87.7001 148.7 89.6001 145.9C92.8001 143.2 94.5 149.9 93.8 152.2ZM76.1001 139.6C76.9001 143.5 78.6999 147.8 72.8999 148C73.1999 147 73.5999 145.9 72.8999 144.9C72.9999 144.4 73.4999 143 72.3999 143.7C68.8999 147.6 69 144.3 71 141.6C71.6 141.2 72.3001 140.9 72.8001 141.6C73.5001 140.9 75.2001 139.9 76.1001 139.6ZM78.8999 142.7C75.4999 143.8 77.4 138.7 79.8 138.5C77.1 137.7 80.9 135.6 81.8 134.9C85 133.7 79.3999 141.5 78.8999 142.7ZM82.2 128.7C80.5 128.7 73.4 131.6 72.7 129.4C76.3 128.2 77.3 124.5 73 123.2C73.2 119.4 78.4 120.8 79.3 123.8C82.6 123.5 82.7 126.2 82.2 128.7ZM67.8999 122.3C65.1999 123.1 68.6001 119.8 69.6001 120C70.6001 120.3 68.2999 121.9 67.8999 122.3ZM53.8999 112.2C52.8999 112.6 51 112.9 52 111.2C52.7 110.7 54.8999 111.1 53.8999 112.2ZM73.6001 112.2C72.5001 113.2 71.3999 111.5 70.8999 110.7C72.2999 109.5 74.8001 110 73.6001 112.2ZM56.8 108.1C53.1 109.9 52.9001 99.6001 56.1001 100.9C57.2001 100.8 56.7 107.8 56.8 108.1ZM75.8999 97.5001C74.2999 107.7 81.4001 101.5 84.1001 104.9C82.5001 106.2 80.4001 110.4 78.1001 109.7C78.5001 103.9 76.4001 107.2 72.8001 105.6C71.6001 100.8 62.7 101.9 66.2 97.8001C68.1 98.6001 68.6001 97.3001 67.8001 95.8001C69.1001 95.4001 72.7001 95.1001 72.3001 93.0001C74.6001 92.3001 75.8999 95.7001 75.8999 97.5001ZM57.5 92.7C62.3 96.3 54.8 98.1001 52 94.9001C52.2 92.2001 56 94.3 57.5 92.7ZM74.8999 73.8001C73.8999 76.9001 71.7 80.1001 68.7 81.3001C70 81.1001 72.3999 81.5 70.8999 83.2C67.7999 85.8 64.3 87.9 61.7 90.6C59.2 90.1 59.5 88.3001 61.7 87.5001C61.4 86.5001 63.4001 86.3 63.3001 85.7C58.1001 83.3 60.9 84.0001 60.7 82.3001C57.5 80.9001 60.4 75.2 63 78.7C67.6 78 64.7999 78.6001 64.8999 75.4001C68.1999 74.1001 76.0999 65.5001 74.8999 73.8001ZM128.3 69.5001C129 77.5001 116 80.3001 112.6 86.3001C111.9 88.4001 113 88.0001 114.5 88.3001C116.9 89.8001 110.1 92.9001 110.6 95.5001C114.8 95.7001 119.4 93.0001 123.3 91.9001C128.8 92.8001 137.5 92.3 143.3 92.6C147.2 90.7 150.8 94.5 151.2 98.2C149.5 100.9 146.5 103.4 146.4 106.9C144.2 112.9 140.3 119.6 135.7 123.9C132.4 125.2 128 126 124.9 127.8C131.8 124.9 143.2 130.9 130.5 132.2C127.1 136.6 127.3 138.6 130.1 138.5C136.9 133.3 146.4 140.2 150.5 146C159.8 153.3 154 172.8 169.1 175C173.3 177.8 176.3 183.1 180.8 185.6C176.5 187.8 180.7 192.3 182.4 194.9C184 198.3 185.1 197.8 180.9 197.4C178.9 196 176.7 194.6 174.2 195.6C170.8 195.2 170.3 195.4 173.8 196.1C179.7 195.4 193.2 207.2 185.8 212.3C182 215.3 183.6 215.8 187 217.6C188.9 217.8 190.2 215.8 191.1 214.4C195.3 212.4 201.8 214.2 206.1 215.6C210.7 217.8 214.3 223.2 211.7 228.3C210.5 232.3 208.7 238.7 203.5 237.9C205.5 241.3 201.9 242.9 198.7 241.7L195.2 243.5C197 243.8 199.1 245.1 197.6 247.2C195.7 248.5 193 248.1 190.9 248.8C188.7 249.6 190 249.7 191.3 249.2C196.6 256.2 210.5 246.5 205.7 256.8C203.4 257.5 198.9 259.4 198.8 262.2C194.3 261.4 190.3 265.3 185.9 266C178.4 263.2 169.7 267.5 162.7 264C153.6 262.4 162.9 263.7 156.1 266.3C153.4 266.7 149.9 267.2 147.1 266.9C147 267.8 149 269.2 147.7 269.6C146.6 270 141.9 268.6 140.8 269C140.4 269.9 138.9 269.5 138.1 269.3C134 265.8 125.1 266.6 122 270.9C121.3 273.7 120.4 278.7 116.6 278.3C110 272.6 98.2 275 93.7 282.6C90.8 283.6 88.1001 279.2 85.1001 282.4C82.6001 279.7 88.0999 278.4 89.8999 278C92.6999 275.6 95.9 272.6 98.3 270.4C101 268.1 104.3 265.1 104.1 261.3C113.5 258.1 106.1 253 124 256.1C127.8 257.1 130.8 254.3 132.6 251.2C134.2 249.7 136.1 248 137.8 246.2C138.2 245.8 137.7 245.2 137.2 245.5C134.6 247 131.8 248.1 129.2 249.1C122.4 256.6 118.1 244.5 111.3 247.5C108 247.7 110 246.2 111.7 245.2C110.2 244.8 107.4 244.9 106.6 243.3C101.5 242.3 97.6 248.8 93 243.3C93.2 242 92.8 240.2 91.3 240C95.9 234.5 105.7 234.8 110.6 229.3C111.5 227.8 112.4 225.4 113.6 224.1C112.8 223.9 112 223.4 111.9 222.5C112.4 220.6 112.8 219 111.2 217.4C112.4 211.8 104.2 217.8 101.5 217.8C102.2 214.3 107.1 213 108.6 209.7C113.1 205.8 119.6 205.9 125 204.7C127.9 205.8 129.9 208.4 127.7 203.5C130.1 201.2 130.9 205.7 132.9 206C133.2 205.5 136.2 206.1 134.1 205.1C129.1 205 128.4 198.2 131.8 195.3C128.5 194.7 129.7 190.3 132.3 189.6C134.2 185.7 133 182.2 128.7 185.5C120.4 181.7 117.5 171.9 125.9 165.9C134.8 163.9 123.6 164.3 121 164.8C119.7 166.3 117.4 166.5 115.9 167.5C115 168.8 113.4 169.3 111.9 168.9C110.9 169.4 110 168.6 109.6 167.7C104.6 168.5 105.1 171.3 99.1001 167.5C96.1001 172.3 97.7 172 93.5 167.2C92.6 165.9 92.5999 162.1 94.8999 163.9C95.4999 158.7 103.3 153.1 100.7 148.1C96 145.7 98.3 137 98.7 135.4C100.3 131.3 97.9 135.4 97.3 136.8C96.4 137.7 94.1001 137.2 94.1001 138.9C93.2001 139.4 92.6 139.2 92.2 140.4C89.7 135.8 97.9 130.3 94.7 132.2C93.1 133.9 88.8999 136 88.8999 138.6C90.7999 141.8 87.4001 150 86.6001 153.2C81.1001 159.3 83.7 146.8 85.8 144.7C86.1 144.3 89.1 141.4 86.3 142.9C83.2 135.5 89.4 124.5 92.8 117.4C89.3 119.5 83.8999 126.8 79.8999 121.4C79.8999 120.4 79.3999 118.5 77.8999 119.1C73.8999 117.6 82.8 116.8 83.5 114.8C77.4 113.1 90.3 109.6 85.2 103C82.3 99.8001 79.5001 98.4 86.1001 96.1C82.9001 95.6 82.9001 92 84.1001 89.7C84.5001 86.6 87.7001 86.7001 90.1001 87.0001C90.5001 85.6001 92.4999 86.9001 93.3999 87.0001C93.1999 85.8001 89.2 83.0001 89 81.8001C89.7 81.0001 90.5 78.9001 90 77.8001C90.5 75.6001 94.6 77.2001 96 76.3001C94.2 73.7001 93.5 67.9 97.5 67.1C101.9 67.8 100.1 70.4 105 67.6C106.2 72.4 136.2 59.2001 128.3 69.5001ZM131.4 63.2C130.7 63.5 129.9 61.4 129.6 61C132.1 60 132 61.1 131.4 63.2ZM127.4 61.7C124.8 64 121 56.7 125.5 58.6C126.1 59.7 126.6 61.2 127.4 61.7ZM129.2 55C128.5 56.7 138.4 55.7 132.7 59C131 56.8 128 58.9 126.4 57.6C126 54.8 126.1 56.5 124.4 56.6C121.6 50.1 131.1 50.9 129.2 55ZM138 49.2C135.1 49.8 136.3 47.6 138.2 47.1C141.5 47 140 48.3 138 49.2ZM134.9 50.5C133.2 51.8 132.6 50.5001 132.6 48.8001C131.5 48.3001 129.8 47.7 129.2 46.6C130.5 44.8 132.7 47.8 133.3 49C134.1 49.2 135.4 49.3 134.9 50.5ZM159.4 11C159.4 13.6 161.1 12.2 162.1 14.6C163.9 14.4 164 13.2 163.7 15.7C162.5 18.1 161.5 32.6 158.7 29.7C159.5 27.1 161.9 19.5 156.5 22.1C156.2 21.8 156.1 21.1 156.2 20.7C155.2 20 153.1 21.1001 153.3 18.9001C154.8 18.3001 157 18.7001 158.3 17.4001C157.9 15.4001 157 13 154.9 12.6C155.8 11.2 160.3 6.50005 159.4 11ZM164 11.7C161.1 12.2 162.4 2.30005 164.8 6.50005C163.4 8.50005 164.1 8.9 164 11.7ZM168.7 2.8001C167.2 11.7001 164.1 2.30005 167.2 3.00005C167.6 2.40005 168.3 1.7001 168.7 2.8001Z" stroke="black" stroke-width="4" stroke-miterlimit="10"/>
<path d="M57.2999 161.3C52.9999 162.6 54 168.1 50.6 170.2C47.9 171.3 41.9999 170.4 48.2999 173.4C47.8999 175.8 39.9999 175.2 41.9999 178.5C45.7999 181.6 48.7998 186 54.1998 185.4C55.6998 186.4 57.1999 183.5 58.4999 182.8C56.6999 180.9 60.3998 177.3 62.1998 179.4C63.7998 181 63.6999 184.4 66.7999 184.2C67.6999 184.8 66.5 186.6 67.1 187.4C68.6 187.3 70.8 187.6 72.1 186.9C73.7 185.4 77.3999 188.5 74.2999 188.8C71.3999 187.8 72.1998 191.7 73.6998 192.8C74.3998 194.7 74.6998 197.6 75.8998 199.3C75.4998 204.7 77.6999 209.7 77.9999 215.1C74.8999 218.5 75.6 224.3 72.6 227.5C71.8 228.4 71.6998 229.7 72.1998 230.7C72.9998 232.5 69.1 233.1 66.6 232.1C65 231.9 63.9 233.3 63.1 233.1C62.4 233 61.5999 233 60.9999 233.4C59.2999 234.6 55.7999 233.7 53.7999 234.4C51.6999 234.6 51.6998 237.3 49.8998 237.8C46.4998 237.8 44.9 241.6 41.6 241.8C40.8 241.3 39.9 240.3 39.1 239.9C38.9 239.9 35.8 239.7 37.6 240.2C39.8 243.6 35.9998 244.1 33.8998 245.6C29.8998 246.4 23.1999 250.4 18.7999 248.5C15.7999 248.9 9.89999 251.8 14.6 246.8C22.3 243.5 11.6999 245.3 9.49989 246.7C4.19989 247.6 15 241 16.6 240.4C13.1 242.1 -2.10001 244.8 5.59999 237.9C6.89999 236.7 9.09999 236.2 10.6 235.4C12.8 232.1 2.29989 236.2 2.99989 233.4C6.99989 226.5 14.8999 236.6 12.2999 228.5C10.3999 227.6 12.9998 226.8 13.8998 226.3C15.3998 222.7 35.0998 222.7 28.3998 220.4C26.7998 218.1 25.6999 221.9 23.9999 222.3C19.9999 223.2 17.3999 221.1 13.7999 223.5C7.49994 224.8 18.2 219.9 19.1 217.6C19.9 216.6 20.9 215.1 19.1 214.6C20.7 211.7 23.4 209.6 26.6 209.5C31.3 206 19.1998 208 17.3998 207.1C16.1998 204.2 15.2998 205.3 12.6998 205.5C10.0998 204.4 16.1 202.9 9.59999 203.5C6.39999 203.2 9.79979 201.7 7.89979 200.7C6.99979 198.5 10.6999 199.5 11.7999 198.6C17.7999 198 10.7998 198.6 11.1998 196.1C11.5998 194.2 15.3999 193.8 16.9999 193.4C17.5999 190.1 13.2998 191.4 11.1998 191.9C11.0998 190.3 14.0999 185 10.7999 186.6C11.3999 181.4 6.29994 186.9 8.79994 182C13.5999 181.5 20.4999 178.8 24.4999 183.1C26.7999 180.2 30.9 181.5 34.1 182.5C35.6 182.4 34.0999 180.2 33.4999 179.6C34.9999 176.3 40.2998 177.3 40.8998 173.7C44.3998 170.4 37.0999 173.5 36.2999 173C34.7999 172.2 28.0998 171.6 32.8998 169.2C34.8998 168.5 38.5999 166.4 36.9999 163.9C37.1999 162.1 38.9998 161.1 39.3998 159.3C42.2998 159.2 45.6999 157.2 48.4999 158.4C47.7999 156.8 49.3 156.2 50.6 156.9C50.6 157.6 51.0998 158.3 51.6998 158.7C52.6998 160.5 49.6998 161.5 51.3998 162.6C50.6998 163.8 49.3999 164.4 51.4999 163.4C55.8999 161.5 48.8999 155.3 56.2999 155.6C53.4999 151.3 60.4998 156.6 62.1998 157.2C60.9998 158.8 58.3999 159.7 57.2999 161.3ZM10.1 191.1C10.2 192.7 8.29999 190.5 8.09999 189.9C7.29999 189.2 2.29999 190.4 6.09999 188.5C7.89999 189.2 10.7 188 10.1 191.1Z" stroke="black" stroke-width="4" stroke-miterlimit="10"/>
</svg>
