<svg width="861" height="534" viewBox="0 0 861 534" fill="none" xmlns="http://www.w3.org/2000/svg">
<path d="M295.6 381.5C295.6 381.8 295.7 382.2 295.7 382.6M295.7 382.6C296.7 382.8 298.3 382.4 299.1 382.2C307.7 381.6 310.5 367.9 319.7 369.8C326.7 372 334.7 376.3 341.4 379.3C342.4 380.5 343.5 386.5 343.7 388.1C345.7 390.3 347.9 394 347.2 397.1C346.4 399.9 348.6 399 350.4 399.7C351.2 403.2 361.8 406.9 357.3 410.1C362.5 410 366.8 411.3 369.5 416.7C376.5 421 382.6 428.9 390.4 432C391.2 434.3 394.3 431.3 396.2 432.4C404.4 433.4 405 434.4 408.4 441.8C409.8 440.4 413.9 441.7 415.2 443.1C415.3 443.4 411.8 446.2 413.8 445.6C416 445.1 419.7 443.7 421.7 445.1C423.9 447.2 424.4 449.8 423.3 452.2C426.4 455.8 433 455.6 436.6 457.4C438.5 462.4 442.2 468.2 443.1 473.5C443.6 476.2 446.3 477.5 445.3 480.7C442.4 480.9 438.6 482.2 440.2 485.9C439.8 487.5 438.6 490 436.7 490.1C433.2 495.3 438.8 496.6 443 496C444.6 492.6 447.9 488.8 451.5 487.3C451.7 480.7 453 476.5 461.1 477.8C462.9 477.1 461.9 474.8 461.5 473.7C463.5 465.8 454.1 466.7 451.2 462.1C452 456.9 456.2 446.8 462.6 447.7C464.7 451.5 470.2 451.6 474.4 452C477.6 459.9 484.9 465.7 484.8 453.1C479.2 445.4 468.8 442.2 461.3 436.9C455.3 433.6 431.2 430.6 445.6 422.2C443.7 417 432.2 421.8 427.9 419.9C405.1 410 409.8 402.7 399.2 386.5C392.9 383.3 384.9 379.2 380 374.1C378.6 370.8 376.8 365.2 377.9 361.6C379.2 361.7 380 362.7 381.1 361.3C382.7 359.4 381.7 358.2 379.8 357.3C378.4 354.5 376.1 352.2 377.8 348.9C378.9 348.1 381 346.7 382.4 346.8C382.2 347.4 379 348.7 381.7 348.5C386 346.7 390.9 345.2 394 341.9C397.1 343.3 398.6 342.8 401.3 341.9C401.7 342.8 405.5 345.1 402.9 345.7C403.7 345.8 405.1 345.9 405.6 345.1C404.5 341.4 398.6 342.1 401.1 337.8C396.8 337 399.5 335.9 401.5 333.7C401.1 332.6 398.4 332.6 397.5 332.2M295.7 382.6C295.7 383.2 295.6 383.7 294.8 383.7C291.5 383.3 286.2 390 282.3 391.3C281.1 396.1 275.6 395.6 271.9 397.4C267.9 397 263.6 395.2 259.6 394.3C258.6 391.2 256.1 392.3 253.8 391.5C253.7 389.1 252.8 390.5 251.1 390.3C247.4 392.5 242.3 389.7 238.1 388.6C237.2 386.6 235.3 386.8 233.6 387.4C229.7 391.6 220.6 394.2 218.8 400.4C216.9 405.1 224.6 411.7 218.7 409.7M295.7 382.6C294.6 382.4 294.1 381.8 295.5 380.1M142 398.2C141.4 398.1 140.7 397.9 140.6 397.4C139.5 396.7 141.5 395.2 141.5 393.9C140.2 392.8 136.2 393.2 135.3 391.3M135.3 391.3C134.9 391.1 134.7 390.8 134.7 390.6C128.1 393 122.4 391 115.8 389.4C110.6 393.5 105.7 386.5 100.3 388.9C88.6 391.2 79.2 388.6 67.6 386.9C64.8 384.7 60.9999 387 57.9999 386.4C52.2999 386.6 45.6 387.6 40.1 386.6C35.5 381.2 28.2 384 22.8 386.9C21.8 387.7 23.2999 388.7 22.9999 389.8C19.7999 391.4 16 392.9 12.3 391.9C6.09996 394.8 2.79992 400.8 11.4999 402.6C11.0999 403.8 9.10001 405.2 9.60001 406.7C10.7 407.6 14.6999 404.2 13.4999 407.3C12.7999 409.5 16.2999 410.5 13.4999 411.9C14.2999 414.8 17.9999 410.8 12.1999 416.6C11.6999 422.2 14.5998 419.3 17.3998 417.6C17.5998 417.6 17.8999 417.5 18.1999 417.4C15.8999 418.6 13.7999 420.4 12.6999 421.9C11.3999 425 15.8998 423.9 13.8998 425.4C14.2998 431.8 18.5998 438.5 15.3998 444.9C12.2998 449.6 14.2999 456.4 10.6999 460.8C9.49987 464 7.09996 468.1 4.29996 470C5.19996 473.6 1.99992 477.7 2.49992 481.5C8.79992 484.8 9.29996 475.5 14.3 475C10.3 476.4 11.6 478.7 10.3 481.2C5.99996 483.8 5.79982 481.1 7.39982 487C9.39982 486.7 12 485.5 14.1 485.4C14.7 485.7 15.9 486.6 16.3 487.2L12.6 486.8C14.5 489.4 13.8 493.1 12.6 495.9C14.1 497.7 14.3 500.6 13.6 502.7C15.2 505.7 9.29987 512.3 11.6999 513.3C16.2999 510.4 23.8 511.5 28.8 513.4C35.9 511.6 37.6 510.6 37.6 509.1C38.6 511 40.4999 510.4 45.4999 510.4C46.6999 510.2 48.3 507.6 47.1 510.4C48.9 511.4 54.8 515.2 55.6 517.1C55.8 515.9 59.6999 515.1 57.9999 515.9C55.5999 517.3 54.1998 520.9 57.8998 521.4C57.9998 523 58.7999 524.8 59.6999 526.2C62.2999 529.1 67.7998 532.9 71.8998 530.9C71.8998 530.2 72.5 528.5 73.3 529.9C73.9 529.5 74.9 526.2 75.8 525.6C77.8 523.5 82.5998 523.1 85.3998 523.2C88.4998 519.4 95.5 518.5 100.1 518.7C106 520 112.3 517.8 118.2 519.5C121.5 518.3 125.4 515.6 128.6 518.9C133.4 517.1 134.1 509.9 138 507.1C140.4 502.5 158.4 505.1 152.1 501.1C156.7 488.7 157.2 488.9 168.7 482.6C172.6 479.3 160.5 480.7 160.6 467.1C163.4 461.9 168.6 456.1 172.5 451.8C174.8 447.8 176.7 445.9 181.1 444.7C182.5 443.7 179.8 442.1 178.7 442C184.5 435.9 194.3 434.6 202.3 433C205.4 427.3 228.1 423.7 220.8 415.9C220.7 413.9 221.8 413.9 223.5 413.3M135.3 391.3C135.1 391.1 135.1 390.7 135.1 390.4C134.9 390.5 134.8 390.5 134.6 390.6C134.6 390.1 135.4 389.7 137.5 389.3C144.8 384.2 139.9 368.1 147 363.8C146.6 363 145.5 361.8 144.9 363.1C143.2 368.1 145.5 353.8 145.2 354.1C146.2 347.1 147.1 344.1 152.5 350.9L153.8 355.5C154.5 356.1 157.3 358.8 155.7 356.4C152.6 350.9 153.2 346 145.6 343.1C143.7 340.8 146.5 341.2 148 342C146.3 338.8 146.3 333.5 146 330C139.7 330 126.6 321.3 130.8 314.5C129.7 312.3 126.1 312.2 129.2 309.7C131.4 309 133.4 310.6 135.5 310.8L131.5 308.7C128.8 309.2 118.2 310.6 123.6 305.2C122.4 302.5 115.1 306.1 118.4 302.4C116 301.4 112.9 303.5 111.2 300.4C109.2 300.4 106.8 300.3 105.2 299.1C103.6 298.7 97.1999 296.9 95.4999 297.1C92.8999 298.6 89.9 297.5 89.3 294.4C89.5 293.9 82.5998 293.3 85.8998 291.9C90.4998 291.6 92.7 290 87.3 288.3C85.8 286.5 88.5999 287.3 89.6999 287.3C92.2999 287.5 93.2998 286.7 90.3998 285.9C88.5998 285.2 86.1 286.1 84.3 285.8C82.4 283.2 85.3 280.9 87.6 280.1C91.6 278.9 97.7999 278.2 101.7 278.1C104.1 277.1 107.3 275.2 110 275.3C114.1 275.4 116.4 279.9 119.2 282C121.8 279.8 128.6 277.8 131 281C131.6 279.4 133 277.3 134.1 279.8C135.3 280 141 279.5 141.9 279.4C135.4 275.8 141.8 270.7 133.4 258.2C132.5 255.1 136.4 256.5 138.2 256.6C140.1 256.3 144.7 254.4 143.7 258.1C144 264.6 151.8 263 156.5 263.6C162.2 266.4 167.4 262.4 172.8 261.4C162.5 260.3 169.2 254.6 176.1 252.1C198.8 247.7 188.8 242.6 194.4 228.4C196.8 225.6 204.5 224.9 207.8 224.1C208.7 224.2 209.4 222.6 209.4 224.5C209.8 225.6 211 226.6 210.2 227.7M135.3 391.3C136.7 392.2 140 393 141.3 393.4C141.4 393.6 141.4 393.7 141.4 393.9C142 394.4 142 395.2 140.8 396.7C140.5 397 140.4 397.2 140.5 397.4C140.6 397.5 140.7 397.5 140.9 397.6C142 398.4 142.8 395.6 143.1 396.7M412.8 161.5C412.2 160.9 410.7 160.6 405.9 157.7C405.5 153.1 403.8 148.9 398.6 150.5C393 147 390.9 142.2 383.5 142.2C373.7 153.4 372.2 146.8 364.3 154.8C363.6 155.6 358.9 154.3 358.1 153.7C352.9 154.8 351.5 152.1 356.4 149.4C359 144.2 355.4 143.9 351.6 146C349.7 145.2 344.6 141.8 342.6 143.7C342 140.7 338.6 142.4 336.6 142.1C342.1 138.5 338.4 135 334.4 133.1C334.4 135.2 330.5 132.9 327.4 134.9C317.6 131.6 311.1 130.5 320.7 141.7C321.6 145.5 315.4 143.7 314.9 146.4C314.8 149.2 317.3 147 318.8 147.8C321.1 149.4 318 155.8 320.9 157.2C327.1 156.9 329.7 164.5 334.7 166.3C330.5 166.5 328.2 159.8 324.7 158.7C318.3 159.9 310.3 155.5 313.2 166C312.7 168.1 312.2 172.2 312.4 167C309.5 163.3 309 165.7 308.1 168.8C303.1 169.8 310.8 161.3 297.4 162.5C291.9 161.8 287.3 164.6 287.4 170.5C287.9 170.7 288.3 171 288.7 171.4C286.7 170.8 285.1 169.2 283.7 167.7C275.5 168.6 262.6 167.2 258.5 176.2C247.4 184.4 247.6 175.3 244.7 192.1C242.8 201.1 229.1 203.4 237.7 211.4C239.3 212.6 235.2 212 235 212.3C235.6 213 237.1 213.9 237.9 214.2C240.4 214.8 239.3 216.1 237.3 215.8C234.7 213.7 230.5 211.8 227.1 212.7C221.9 215.1 232.9 217.9 235 216.3C235.6 216.5 236.8 217.1 238.1 217.6C238.5 217.6 238.9 217.4 239.2 217.2C239.2 217.4 239.1 217.7 239 217.9C239.1 217.9 239.1 217.9 239.1 218M239.1 218C239.3 217.7 239.4 217.3 239.4 216.9C239.9 217.2 240.8 217.5 241.6 217.6M239.1 218C240.4 218.4 241.5 218.5 241.6 217.6M239.1 218C238.9 218.3 238.7 218.6 238.4 218.8C238.4 218.8 238.4 218.8 238.3 218.9C237.1 220.2 234.9 220.9 233.5 221.4C229.8 220.4 229.9 219.1 226.7 220C226.5 220.1 226.3 220.2 226.2 220.2C225.9 220.3 225.7 220.4 225.4 220.5C224.5 219.2 224.1 218.3 224.3 217.8C223.9 217.2 223.3 217 222.2 217.8C219.8 219.8 207.7 221.9 211 226.2M241.6 217.6C241.6 217.4 241.6 217 241.4 216.6C241.7 216.2 242 216 242.3 215.8C242.3 215.8 242.3 215.9 242.2 215.9C242.2 216.3 242.8 217.5 242 217.6C241.9 217.6 241.7 217.6 241.6 217.6ZM534.5 98.1999C533.5 98.8999 532.6 99.6 532 100M532 100C529.2 103.4 529.5 108.2 533.2 117.1C532.8 118.5 532 122.6 534.3 122.1C538.3 122.4 543 126.8 547.7 127.2C554.4 127.4 554.4 125.9 559.1 130.7C563.3 133.8 555.5 139.8 558.9 144C558.9 144.1 558.9 144.1 559 144.1M532 100C530 101.3 529.4 101 529.4 96.3C528.1 76.9 534.6 83.2 537.1 67.9C540.2 60.2 549 59.1 556.1 56.9C557.2 61.1 563.7 64.6 566.2 67.8C567 72 570.9 76.2 575 77.3C592 73.6 587.4 65.6 586.7 52.8C589.3 52 593.9 49.3999 596.9 49.0999M559 144.1C542.4 146.6 522 143 504.9 142.4C499.9 144.5 490.6 146.7 487.5 140.6C484.1 133.4 484.7 134.4 491.2 137.5C483.6 128.2 467.1 133.2 458.1 138.4C452.9 138.3 449.1 142.4 446.1 146.2C435.3 147.6 420.8 153.9 411.7 155.4C411.7 155.5 411.7 155.7 411.7 155.8C412.3 157.4 416.6 157 417.9 157.8C418.4 164.3 417.8 161.6 412.6 160.2C412.7 160.7 412.7 161.1 412.8 161.6M559 144.1C559.8 146 560.8 143.2 563.4 144.9M559 144.1C559.4 144.1 559.9 144 560.3 143.9C561.2 144 562.6 144.2 563.4 144.9M638.5 61.9C639.4 60.6 639.1 57.4 641.3 56.4C641.4 54.3 644.1 53.5999 645.8 53.1999C647.1 52.1999 644.9 51.3999 644.4 50.5999C643.3 45.7999 640.2 41.5999 641.8 36.5999C636.7 22.8999 645.1 24.2 648 12.8C651.2 10.7 654.6 10.8 650.1 6.89999C650.4 10.8 640.4 8.09992 638.6 8.19992C634.7 8.59992 629.4 7.99992 626.4 5.19992C624.5 5.49992 614.1 3.39999 612.1 2.89999C601.7 2.39999 614.1 7.49992 596.3 6.19992C592.5 8.59992 587 6.69999 584.2 10.4C581.9 10.1 582.2 11 582.6 12.8C580.9 12.9 576.4 13.1999 575 14.1999C573 14.7999 572.2 16 572.9 18C572.2 19 571.8 20.2999 572.9 21.0999C571.2 23.2999 572.1 24.6 572.7 27C572.9 27.3 575.5 27.0999 575.7 27.0999C575 28.4999 572.6 28.6999 572.7 30.6999C572.9 32.1999 574.6 34.2 575.8 35C575.2 38.4 578.7 39.9 581.3 40.5C585.4 44.6 587.6 33.8 590.7 40.5C589.2 43.5 588.4 49.1 586.8 52.5C589.4 51.7 594 49.1 597 48.8M651.5 99C651.8 99 652.2 98.9 652.5 98.9C655.4 103.7 659.5 97.1 661.9 102.5C664.3 106.3 667 99.3 672.2 103.3C676.1 104.2 672.3 107.7 674.5 109.7C675.4 111.7 677.2 109.7 678.3 109.1C679.2 108.4 680.7 108.7 681.6 107.9C685.1 105 692 106.9 694.7 110.4C696.3 113.3 699.4 112.2 700.2 113.8C701.3 118.9 696.8 120.1 699.7 122.8C700.4 124 701.8 125.8 701.4 127.3C691.9 138.7 708.1 133.5 703.2 141.6C707.4 143.6 707.4 150 712.8 151.1C720.1 153.2 713.3 157.2 716.1 159C719.1 158.7 728.2 159.2 726.6 163.4C726.8 165.9 734.8 168.4 730.5 170.5C726.8 171.5 724.8 176.8 720.4 176.3C717.3 176.7 715.9 174.6 713.7 173.6C712.5 173.7 710 173.4 708.9 174.1C708.9 175.7 705.9 177.7 707.2 178.9C709.7 183.1 712.6 182.2 711.1 187.5C713.3 189.4 711.5 192.4 711.9 195.2C713 196.4 714.4 198 715 199.7C715 199.9 714.9 200.1 714.6 200.2C713.4 200 712.1 200 710.8 200.2C709.6 200 708.4 200 707.9 200.2C707.6 200.5 707.4 200.7 707.1 200.8C705.7 201 704.4 201.1 703.1 200.9C702.7 201 702.4 201.1 702.1 201.3C702 201.4 701.8 201.5 701.6 201.6C701.5 201.7 701.5 201.8 701.4 201.8C701.6 201.7 701.9 201.5 702.1 201.4C703.8 200.8 705.5 201.7 707.1 200.9C708.3 200.7 709.6 200.5 710.8 200.3C712.3 200.4 713.9 200.6 714.6 200.3C714.8 200.3 715 200.4 715.2 200.4C723.8 204.3 722.6 199.3 726.5 195.4C737.7 198.6 735.5 193.1 746.8 194.8C754.1 193.5 754.6 205.2 760.3 207.9C761.2 211 755.4 208.9 755.4 211.1C757.4 212.9 756.7 215.4 757.3 217.7C759 218.5 757.7 219.2 757 220.2C759.7 220.7 763.8 221 766.4 222.3C769.7 221.4 772.4 220.4 773.3 224.7C774.2 225.5 777.2 224.4 775.9 226.4C776 228.8 778 231.1 778.1 233.4C776.5 235.2 777.9 238.1 779.9 238.9C780.4 241.5 782.8 241 784.2 239.6C786.6 238.3 790.6 239.3 791.9 241.8C793.1 242.8 794.8 241.9 796.3 242.5C797.5 244.6 799.4 243.9 800.7 242.3C804.4 241.7 808.6 239.8 812.2 239.5C814.5 241.3 815.5 244.1 817.1 246.4C828.5 256.9 821.8 243.3 830 249.7C837.6 250 834 253.7 843 252.7C843.4 254.6 845.6 255.3 847.3 255.2C849.8 256.5 852.9 260.2 855.9 258.4C858.8 257.8 857.7 260.2 857.6 262C864.4 269.3 842.1 271.4 856.4 274.9C857.1 277.3 853.1 275.1 852.4 276.5C846.5 284.1 856.9 277.8 853.9 286.9C854.4 287.4 855.2 287.2 855.8 287.6C856.3 288.3 854.9 289.4 854.6 289.8C853.8 290.8 853.5 293.3 852.7 294.2C853.5 299.7 841.2 296.1 837.7 296.7C835.6 296.8 834.9 300.1 833.1 300.8C826.6 302.8 827.5 301.4 825.8 307.8C825.2 308.3 825.8 309 826.3 309C829 309.9 823.6 310.7 826.4 313.7C821.4 314.1 814.6 312.3 811.4 317.5C807.9 317.1 804.2 319.2 802 321.9C798.7 318.9 795 322.6 791.7 323.3C784 321.2 778.1 330.1 773.4 334.4C768.4 336.2 776.3 332.1 776.2 330.5C776 324.5 772.4 332.7 768.5 333.1C768 339.9 773.9 350 780.7 351.5C782.7 350 786.1 349.4 788.5 350.3C790.8 347.3 795.3 348.9 798.3 349.8C795.9 352.3 796.4 357.3 792.3 357.5C783.6 358.8 784.9 354.8 779.2 355.9C777.9 358.7 773.7 359.3 772.5 362C764.9 359.5 760.4 366.2 755 369.8C752.3 371.6 743.1 369.2 745 365.8C747.9 361.8 747.9 352.6 741 354.4C737.6 352.8 734 349 729.8 351.1C723.9 347.5 745.5 341 747.9 338.2C747.5 335.5 746.4 334.7 743.9 335.9C739.3 332.3 732.9 334.6 727.4 335.3C724 334.5 719.9 330.4 716.3 331C713.5 328.6 720.6 330.6 719.4 327.8C706.2 324.8 713.8 325.1 721.5 326.2C724.3 327.3 727.3 326.3 729.2 323.9C726.6 324.9 722.2 325.4 720 323.3M651.5 99C649.9 100.3 647.6 101.1 645.6 103C647.2 101.1 649.4 99.4 651.5 99ZM651.5 99C653.4 97.4 654.3 95.1999 651.8 89.1999C650.1 86.2999 648.3 83.4999 647.3 80.0999C646.7 79.1999 644.4 80.4999 643.7 80.1999C644.8 77.9999 644.9 74.5 645.8 72.3C646.8 71.6 647.1 70.2999 647.1 69.1999C647 66.7999 643.3 65.9 641.9 64.3C641.9 62.3 640.6 61.4999 638.7 61.6999M679.4 352.3C680.9 349.3 677.5 346.2 677.6 343.6C678.1 342 680.2 342 681.5 342.6C683.3 342.2 685.9 340.5 687.8 340.1C692.3 336.6 697.2 331.1 698.3 325.3C704.4 322.6 707.3 326.1 711.5 320.6C709.7 324.2 714.6 323.8 716.9 323.3M646.5 419.4C647.2 418.4 649 419 650.1 419.1C649.5 416.6 646 414 644.9 411.6C639.1 408.7 642.5 408.1 645.6 404.5C649 405 647.6 400 648 398.2C652 382.6 660.2 397.8 660 383.6C659.6 383.7 659.3 383.8 658.9 383.9C662 382.8 660.9 375.5 661 372.6C661.1 371.1 667.5 366.4 663.7 367.1C664.4 365.5 664.3 363.4 665.8 362.1C664.6 359.7 666 357.5 668.8 358.7C666.2 365.7 672.4 361.7 676.8 361.3M590.5 439.3C593.5 442.5 596.8 439.1 599.9 438.2C603.4 439.8 608.9 440.6 612.9 441.1C614.3 441.5 616.1 443.7 617.3 442.8C621.7 437.6 621.6 440.3 621.1 433.3M500.8 417.3C500.9 419.1 500.7 420.1 500.3 420.6M500.3 420.6C501.3 421.9 505.2 420.8 504.1 425.4C499.3 430.5 504.4 437.2 500 444.4C500 445.8 504.2 451.3 500.3 449.2C498.7 451.4 506.7 455.1 508.9 456.1C510.3 457.5 511.1 461.4 511.8 462.5C514 464 516.2 463.8 516.6 460.9C518.6 461.3 517.9 460.3 517.3 459.3C517.7 460 518.4 460.7 518.2 461.3C515.4 461.4 517 466 512.7 463.2C510.3 462.2 514.7 465.2 515 466.1C516.4 470.8 521.6 473.4 525.2 476.3C527.3 476 532 474.6 531.6 478C530.2 480 525.3 475.7 525.1 478.9C524.7 480.2 526 480.5 526.9 480.8C529.7 482.6 529.6 487.3 532.3 488.8C536.8 488.6 533.1 483.8 537.2 489.2C542 488.1 547 487.8 551.8 488.6C553.7 487.1 554.3 487.3 556.3 488.9C558.3 489.3 560.4 491 562.3 491.5C563.8 491 568.4 492.1 565.7 493.9C559.6 493 563.8 496.5 560.8 495.8C556.6 492.7 549.9 492 545.4 489.2C542.2 488.1 541.3 492.4 538.4 492.1C535 489.7 534.7 496 531.5 496.7C530.1 498.1 533.3 498.5 533.9 499.4C534 501.8 537.3 502.2 538.8 503.7C544.1 509.5 534.9 509 541.7 516.1C548.6 523.7 541.4 503.9 552.7 519.1C552.9 521 552.2 523.2 554.7 523.7C554.4 521 556.4 516.3 559.8 517.4C560.1 519.4 567.7 526.7 565.5 521.8C564.3 520.8 564.3 518.8 564.9 517.6C564.3 514 561.9 509.1 559.6 506.2C558.9 504.7 558.7 501.2 561.1 503.7C562.8 504 565.8 504.8 565.5 506.9C566.8 507.7 571.4 505.8 572.3 505C570.3 502.4 570.2 502.9 567.3 502.1C566.8 501.3 566.2 499.7 566.4 498.8C566.1 498 564.1 497.5 564.6 496.7C575.8 492.1 573.3 495.6 581.3 500.9C582.7 499 581.5 492.1 580.5 489.8C579.4 489.2 576.9 488.5 575.6 488.4C574.7 486.4 572.2 485.1 570.1 485.1C569 482.5 566 482.8 564.1 481.1C562.5 480.5 556.1 479.4 556.8 478.4C558.8 479.1 567.8 475.4 563.1 475.7C562.8 474.2 561.4 472.8 560.9 471.4C562.8 469.1 568.3 470.7 565.7 473.8C568.6 475.9 570.2 471.4 567.7 469.5C566.5 467.6 563.6 466.1 562.3 464.4C561.9 461.1 556.9 458.1 556.3 455C557.6 452.4 556 447.6 559.2 447C559.8 446.3 561.4 446 562.3 446C561.8 447.4 560.7 448.2 561.9 449.6C573.3 453.5 566.5 458 575.1 458.5C575.5 456.9 568.3 454.9 571.1 452.2C575.3 451.7 576.9 456.4 580 458C582.2 456.4 579.4 454.1 577.8 453.3C571.9 447.5 585.2 451.8 586.8 454.4C585.7 450.9 582 449.1 578.6 449.2M500.3 420.6C499 422.2 495.2 415.4 492.7 413.8C492.2 413.1 486.6 411.5 488.4 409.9C487.7 409.7 486.9 410.3 486.2 410.1C486.1 409.9 486 409.8 485.9 409.6L486 409.7C485.7 409 485.3 408.5 484.8 408C484.8 407.7 485 407.4 485.5 407.2C488.5 405.4 483.3 401.6 485.2 398.8M500.3 420.6C500.1 420.4 500.1 420.2 500.1 419.9C500.5 418.2 500.7 416 499 414.8M418.2 344.2C415.7 346.9 415.7 348.4 411.2 347.7C409.5 348.3 408.2 346.3 407.3 348.4C402 349.6 398.2 343.5 401.5 352.9C401.3 354.7 402.9 356.7 404 357.9C407 365.4 409.9 357.6 412.5 354.4C412.6 350.8 415 349.7 418 351.4C428.1 359 420.9 358.3 425.4 365.8C431.4 372.7 437.9 371.8 427.7 372.9C430.8 377.9 437 382 441.8 385.1C441.8 386.5 441.8 388.1 443.6 388.2C452.1 386 459.3 391.6 465.9 396C466.6 396.4 469.1 399.2 470.5 399.5C470.3 399.7 470.1 399.9 469.7 400C470.2 400.5 470.8 400.6 471.4 400.6C473.8 399.4 475.5 403.1 477.9 403.7C479.7 405.3 482.2 406 484 407.3C484.4 407.3 484.8 407.3 485.1 407.2C488.1 405.4 482.9 401.6 484.8 398.8M288.7 171.5C289.2 171.7 289.8 171.7 290.4 171.7M563.4 144.9C563.7 145.2 564 145.6 564.1 146.1C564.4 146.1 564.7 146.2 565.1 146.3C564.7 146 564.3 145.7 563.9 145.3C563.7 145.1 563.6 145 563.4 144.9ZM657.5 384C657.4 384 657.2 383.9 657.1 383.9C654.5 383.6 651.9 382.9 650 381.3C650.2 381.6 650.5 382 650.8 382.4C652.8 383.2 655.2 384 657.5 384ZM657.5 384C657.9 384 658.4 384 658.8 383.9C658.4 384 658 384.1 657.5 384ZM381 420.4C380.9 420.4 380.7 420.3 380.9 420.2C381.1 420.1 381 420.3 381 420.4ZM381 378.8C382.5 378.2 382.5 379.4 381.8 380.4C380.3 381 379.9 379.7 381 378.8Z" stroke="black" stroke-width="4"/>
</svg>
