<svg width="528" height="506" viewBox="0 0 528 506" fill="none" xmlns="http://www.w3.org/2000/svg">
<path d="M413.072 324.703L438.296 310.062C438.818 309.759 438.71 308.964 438.122 308.827C430.793 307.131 422.95 307.161 418.028 308.498C414.009 311.853 408.852 323.179 413.072 324.702L413.072 324.703Z" fill="url(#paint0_radial_547_1468)" stroke="#020303" stroke-miterlimit="10"/>
<path d="M419.782 331.761C425.068 328.49 430.884 323.985 434.841 320.921C435.131 320.696 434.93 320.237 434.566 320.291C429.182 321.073 422.428 321.668 419.105 321.211L413.073 324.704C412.772 328.322 415.828 331.326 419.768 331.537L419.782 331.761Z" fill="#0A0C0C" stroke="#020303" stroke-miterlimit="10"/>
<path d="M217.104 324.707C245.724 317.785 296.787 328.439 351.007 349.399L357.001 346.067C370.322 311.16 388.833 297.397 414.621 313.289C411.788 323.631 413.551 329.202 419.604 330.319C414.406 347.18 406.332 363.129 394.942 378.027C369.335 403.787 339.09 402.907 305.998 385.667C299.742 382.406 294.158 377.97 289.52 372.654C270.55 350.914 242.931 335.827 217.104 324.707Z" fill="#E41D29"/>
<path d="M217.104 324.707C245.724 317.785 296.787 328.439 351.007 349.399L357.001 346.067C370.322 311.16 388.833 297.397 414.621 313.289C411.788 323.631 413.551 329.202 419.604 330.319C414.406 347.18 406.332 363.129 394.942 378.027C369.335 403.787 339.09 402.907 305.998 385.667C299.742 382.406 294.158 377.97 289.52 372.654C270.55 350.914 242.931 335.827 217.104 324.707Z" fill="url(#paint1_linear_547_1468)" fill-opacity="0.2"/>
<path d="M217.104 324.707C245.724 317.785 296.787 328.439 351.007 349.399L357.001 346.067C370.322 311.16 388.833 297.397 414.621 313.289C411.788 323.631 413.551 329.202 419.604 330.319C414.406 347.18 406.332 363.129 394.942 378.027C369.335 403.787 339.09 402.907 305.998 385.667C299.742 382.406 294.158 377.97 289.52 372.654C270.55 350.914 242.931 335.827 217.104 324.707Z" stroke="black" stroke-width="4" stroke-miterlimit="10"/>
<path d="M356.602 395.137C345.043 391.542 327.135 382.129 326.22 377.395C326.174 377.158 325.978 376.972 325.765 376.937L290.118 371.181C289.648 371.104 289.488 371.742 289.88 372.092C321.055 399.953 357.026 395.268 356.601 395.137L356.602 395.137Z" fill="url(#paint2_linear_547_1468)" fill-opacity="0.8"/>
<path d="M402.751 323.196L390.928 328.075C387.853 321.993 389.257 315.148 396.751 309.149C400.496 309.806 403.502 310.692 406.396 311.83L402.751 323.196Z" fill="#E9E2CF"/>
<path d="M407.447 314.839C406.408 312.449 403.023 311.617 399.886 312.98C396.748 314.343 395.046 317.386 396.085 319.776C397.123 322.166 400.508 322.998 403.646 321.635C406.783 320.272 408.485 317.229 407.447 314.839Z" fill="black" stroke="black" stroke-width="2" stroke-miterlimit="10"/>
<path d="M397.266 309.327C390.547 315.364 390.424 319.199 391.682 327.754L390.556 328.36C385.2 323.943 384.784 314.602 390.727 310.442C392.567 309.103 394.632 308.322 396.749 308.157L397.267 309.327L397.266 309.327Z" fill="#1D1D1C"/>
<path d="M421.126 307.444C404.871 273.46 364.211 279.39 344.994 322.231C296.208 297.368 258.741 298.572 224.483 283.992C183.586 269.11 145.875 237.195 109.689 197.12C140.194 236.211 175.288 271.389 216.765 301.142C218.918 302.687 219.226 305.833 217.297 307.651C197.965 325.873 135.778 332.247 79.1106 340.148L219.418 324.168C251.1 316.434 299.469 331.21 351.005 349.4L356.999 346.068C370.737 313.886 385.784 296.816 414.164 312.92C416.437 310.246 417.063 307.879 420.806 307.928C421.058 307.931 421.234 307.672 421.126 307.446L421.126 307.444Z" fill="black" stroke="black" stroke-miterlimit="10"/>
<path d="M383.515 284.17L399.639 233.588C400.392 231.226 400.809 228.763 400.848 226.284C401.362 193.024 390.368 183.526 378.115 168.212C381.92 180.03 386.3 193.57 387.558 205.85C388.276 212.859 387.071 219.912 384.353 226.411C374.87 249.089 370.209 271.737 369.499 290.374L383.515 284.17Z" fill="#EF8C22" stroke="black" stroke-width="3" stroke-miterlimit="10"/>
<path d="M380.545 167.736C353.592 113.094 352.066 70.8398 369.485 24.5571C369.533 24.4308 369.371 24.3348 369.289 24.4409C347.863 51.6443 323.307 83.425 366.142 165.213L384.704 196.833C385.217 197.707 386.56 197.208 386.376 196.211L382.129 173.137L380.545 167.736Z" fill="#F5D850" stroke="black" stroke-width="4" stroke-miterlimit="10"/>
<path d="M380.747 225.091L359.332 200.008C334.592 159.026 331.187 131.611 345.245 123.593C354.419 149.978 367.263 176.511 385.681 203.388L380.747 225.091Z" fill="#F5D850" stroke="black" stroke-width="4" stroke-miterlimit="10"/>
<path d="M372.933 239.429L354.802 220.927C329.085 181.292 329.962 164.475 336.659 158.721C344.429 180.738 361.246 204.307 381.397 225.758L372.932 239.431L372.933 239.429Z" fill="#F5D850" stroke="black" stroke-width="4" stroke-miterlimit="10"/>
<path d="M366.837 264.695L353.384 250.039C353.299 249.947 353.219 249.845 353.149 249.743C332.909 219.851 330.564 206.007 334.504 197.798C335.406 195.918 338.12 196.015 338.988 197.911C347.436 216.339 360.472 231.791 374.785 246.414C375.414 247.056 375.651 247.987 375.398 248.852L371.072 263.708C370.528 265.575 368.152 266.13 366.838 264.698L366.837 264.695Z" fill="#F5D850" stroke="black" stroke-width="4" stroke-miterlimit="10"/>
<path d="M362.782 287.196L350.521 277.573C322.38 241.313 326.208 230.46 334.776 223.374C342.491 240.695 354.842 258.526 369.409 276.601L362.782 287.196Z" fill="#F5D850" stroke="black" stroke-width="4" stroke-miterlimit="10"/>
<path d="M351.209 305.023L333.378 281.685C322.842 267.52 322.757 255.383 328.309 244.341L363.083 290.764L351.209 305.023Z" fill="#F5D850" stroke="black" stroke-width="4" stroke-miterlimit="10"/>
<path d="M347.215 312.288L331.195 300.271L332.221 281.956L351.495 306.546L347.215 312.288Z" fill="#F5D850" stroke="black" stroke-width="4" stroke-miterlimit="10"/>
<path d="M345.354 321.84L327.269 313.238L324.644 295.082L348.41 315.363L345.354 321.84Z" fill="#F5D850" stroke="black" stroke-width="4" stroke-miterlimit="10"/>
<path d="M371.911 154.536C373.732 185.127 363.129 242.384 352.265 300.203L344.679 318.368L332.372 313.254C337.394 234.482 345.027 163.973 361.839 122.526L371.911 154.536Z" fill="url(#paint3_linear_547_1468)" fill-opacity="0.8"/>
<path d="M378.846 159.246C382.88 172.752 395.905 197.972 387.08 221.975C368.507 271.902 364.929 279.6 372.529 288.097L355.048 307.279C342.925 277.406 357.909 252.388 357.029 218.336C361.895 185.438 380.475 174.419 368.522 141.101L378.845 159.246L378.846 159.246Z" fill="black" stroke="black" stroke-miterlimit="10"/>
<path d="M149.393 117.957C170.046 161.265 221.337 184.661 269.915 202.073L295.786 226.545C240.582 227.048 140.833 154.134 144.442 118.844C144.711 116.207 148.253 115.565 149.393 117.957Z" fill="#F5D850" stroke="black" stroke-width="4" stroke-miterlimit="10"/>
<path d="M196.547 188.935C185.422 180.864 183.867 183.803 189.402 194.9C199.791 220.756 261.929 230.711 313.235 243.371C307.432 235.024 311.694 239.277 295.787 226.544C284.702 236.715 252.246 224.758 196.547 188.935Z" fill="#F5D850" stroke="black" stroke-width="4" stroke-miterlimit="10"/>
<path d="M222.175 229.547C254.273 258.345 287.128 257.336 319.435 258.108L313.309 243.953C278.949 238.233 243.85 232.717 224.487 222.844C216.309 222.471 217.981 226.149 222.173 229.547L222.175 229.547Z" fill="#F5D850" stroke="black" stroke-width="4" stroke-miterlimit="10"/>
<path d="M318.769 260.719C289.868 256.645 259.899 252.67 246.939 247.1C253.9 260.297 268.32 271.054 297.122 277.111L320.085 278.542L318.769 260.719Z" fill="#F5D850" stroke="black" stroke-width="4" stroke-miterlimit="10"/>
<path d="M319.328 294.655C307.712 298.06 291.049 295.439 265.376 282.057C256.816 275.172 257.796 270.411 260.731 266.083C278.253 274.926 298.344 278.629 319.388 280.425L319.328 294.655Z" fill="#F5D850" stroke="black" stroke-width="4" stroke-miterlimit="10"/>
<path d="M266.761 283.653C256.714 284.99 257.596 289.777 264.249 296.383C277.35 303.912 299.526 308.919 322.452 313.716L320.332 296.463C299.493 294.971 279.285 292.892 266.761 283.653Z" fill="#F5D850" stroke="black" stroke-width="4" stroke-miterlimit="10"/>
<path d="M323.374 316.939C303.978 322.359 285.03 326.342 268.982 321.024C259.295 312.601 255.411 305.58 263.596 301.478C290.6 313.154 307.618 313.851 321.819 311.453L323.375 316.939L323.374 316.939Z" fill="#F5D850" stroke="black" stroke-width="4" stroke-miterlimit="10"/>
<path d="M301.636 322.422C292.026 325.631 281.332 325.218 269.687 321.627C262.309 323.867 259.475 327.879 269.924 337.061C283.213 346.255 299.899 341.592 309.705 330.888L323.859 322.522L322.557 316.147L301.636 322.422Z" fill="#F5D850" stroke="black" stroke-width="4" stroke-miterlimit="10"/>
<path d="M308.343 330.899C297.749 341.136 286.892 345.679 275.604 341.004C251.512 363.044 289.82 365.759 311.994 345.308L318.155 335.781L313.544 328.381L308.343 330.899Z" fill="#F5D850" stroke="black" stroke-width="4" stroke-miterlimit="10"/>
<path d="M325.263 346.773C322.698 358.948 315.653 367.509 302.856 371.433C284.166 377.689 268.762 364.122 281.687 359.788C305.694 357.439 312.347 347.838 319.191 338.317L325.261 346.773L325.263 346.773Z" fill="#F5D850" stroke="black" stroke-width="4" stroke-miterlimit="10"/>
<path d="M345.521 356.557C345.979 370.141 336.388 374.851 322.002 380.98C309.829 386.396 303.127 384.489 302.403 376.51C302.287 375.244 302.898 374.029 303.988 373.374C324.546 361.05 331.263 343.921 330.779 343.706C330.283 343.484 348.531 348.533 348.531 348.533L345.521 356.557Z" fill="#F5D850" stroke="black" stroke-width="4" stroke-miterlimit="10"/>
<g filter="url(#filter0_d_547_1468)">
<path d="M228.156 186.432C257.083 207.198 277.224 237.355 289.704 275.703C294.129 312.426 313.367 337.108 346.052 350.856C346.25 359.873 344.798 367.474 338.905 371.267C318.55 368.832 301.288 342.532 283.984 316.569C281.318 312.567 279.587 308.024 278.852 303.272C272.235 260.575 251.992 220.575 228.156 186.432Z" fill="url(#paint4_linear_547_1468)" fill-opacity="0.8" shape-rendering="crispEdges"/>
</g>
<path d="M275.736 204.814C290.141 223.332 317.609 233.094 322.362 258.223C322.433 325.557 330.836 340.681 341.721 344.068L338.352 353.07C310.421 350.657 297.415 312.245 287.36 266.721C274.641 235.994 255.522 208.882 228.156 186.43L275.735 204.813L275.736 204.814Z" fill="black" stroke="black" stroke-miterlimit="10"/>
<path d="M244.087 190.223C278.547 199.597 312.615 208.38 332.265 237.062C332.273 237.075 332.28 237.09 332.288 237.103C339.872 256.968 329.541 284.949 330.892 325.249C330.897 325.402 330.692 325.471 330.607 325.342C318.184 306.616 322.411 283.709 321.566 264.309C321.038 252.183 315.828 240.772 307.147 232.291C295.572 220.983 281.046 210.671 274.064 207.459C273.976 207.419 273.896 207.378 273.812 207.33L243.974 190.499C243.819 190.411 243.917 190.174 244.089 190.221L244.087 190.223Z" fill="#EF8C22" stroke="black" stroke-width="3" stroke-miterlimit="10"/>
<defs>
<filter id="filter0_d_547_1468" x="224.156" y="186.432" width="125.913" height="192.835" filterUnits="userSpaceOnUse" color-interpolation-filters="sRGB">
<feFlood flood-opacity="0" result="BackgroundImageFix"/>
<feColorMatrix in="SourceAlpha" type="matrix" values="0 0 0 0 0 0 0 0 0 0 0 0 0 0 0 0 0 0 127 0" result="hardAlpha"/>
<feOffset dy="4"/>
<feGaussianBlur stdDeviation="2"/>
<feComposite in2="hardAlpha" operator="out"/>
<feColorMatrix type="matrix" values="0 0 0 0 0 0 0 0 0 0 0 0 0 0 0 0 0 0 0.25 0"/>
<feBlend mode="normal" in2="BackgroundImageFix" result="effect1_dropShadow_547_1468"/>
<feBlend mode="normal" in="SourceGraphic" in2="effect1_dropShadow_547_1468" result="shape"/>
</filter>
<radialGradient id="paint0_radial_547_1468" cx="0" cy="0" r="1" gradientUnits="userSpaceOnUse" gradientTransform="translate(423.017 312.45) rotate(-29.07) scale(11.5092 11.5092)">
<stop offset="0.075" stop-color="#393533" stop-opacity="0.9"/>
<stop offset="0.11" stop-color="#33302E" stop-opacity="0.9"/>
<stop offset="0.241" stop-color="#22211F" stop-opacity="0.9"/>
<stop offset="0.349" stop-color="#1D1D1B" stop-opacity="0.9"/>
<stop offset="0.913" stop-color="#1D1D1B"/>
</radialGradient>
<linearGradient id="paint1_linear_547_1468" x1="340.839" y1="338.28" x2="369.615" y2="364.498" gradientUnits="userSpaceOnUse">
<stop stop-opacity="0.37"/>
<stop offset="1" stop-opacity="0"/>
</linearGradient>
<linearGradient id="paint2_linear_547_1468" x1="292.238" y1="395.832" x2="367.056" y2="399.669" gradientUnits="userSpaceOnUse">
<stop/>
<stop offset="1" stop-opacity="0"/>
</linearGradient>
<linearGradient id="paint3_linear_547_1468" x1="411.01" y1="288.348" x2="299.676" y2="170.988" gradientUnits="userSpaceOnUse">
<stop/>
<stop offset="1" stop-opacity="0"/>
</linearGradient>
<linearGradient id="paint4_linear_547_1468" x1="336.543" y1="293.896" x2="278.11" y2="345.401" gradientUnits="userSpaceOnUse">
<stop/>
<stop offset="1" stop-opacity="0"/>
</linearGradient>
</defs>
</svg>
