<svg width="392" height="389" viewBox="0 0 392 389" fill="none" xmlns="http://www.w3.org/2000/svg">
<path d="M350.1 32.1L352.3 32.2001L353.3 32.1L355 32.4L361.6 35.5L363.6 35.9H365.7L367.1 35.7001L368.4 34.9L372.4 31.1L376.6 27.7001L377.1 27.8V28.8L376.8 29.8L375 32.9L372.9 37.1L372.5 39.2001L373.2 41.3L374.5 43L375.5 45.3L376.7 48.5L378.3 48.9H379.2L380.8 47.9L382.4 46.7001L383.7 46.5L385.1 46.7001L383.2 47.6L381.5 48.7001L380 50.7001L379.4 51.1L377.7 51L376.7 51.1L374.7 51.9L372.9 52.8L371.2 53.9L369.3 54.5L367.3 54.6L364.2 55.5L362.2 55.6L358.5 54.8L356.7 55L352.8 56.8L349.2 59.5L346.1 62.5L343.5 66.1L342.4 67.9L341.8 70L341.7 71.4L341.5 72.7001L340.9 73.6L340.2 74.3L338 73.9L334.4 72L327.5 69.2001L320.2 65L316.1 62.9L308.4 63.5L301.1 67.6L300.5 67.3L297.7 64.5L296.3 63.4L294.7 63.1H293.5L292.3 63.3L290.7 64.7001L290.1 65.7001L289.6 66.9L289.5 67.7001L289.7 68.5L291.3 70.3L293.2 71.7001L294.1 72L295.9 71.9L296.8 72L299.9 74.7001L303.3 77.3L304.1 78.1L302.9 79L301.5 79.4L299.9 79.3L298.3 79L295.6 77.9L294.4 78.8L292.6 80.7001L291.6 82.7001L290.8 83.6L288.8 84.8L286.7 85.4L285.6 85.2001L284.8 84.4L284.3 83.5L284.1 82.4L284.6 80.1L285.7 78L286.1 75.8L285.2 72.8L284.6 72.2001L282.4 70.4L281.4 68.7001L281.2 66.5L281.3 65.3L281.9 62.7001L282.4 61.4L283.4 61L284.5 60.7001L286.2 59.7001L288.1 58.5L289.9 57.1L291.7 55.3L292.6 53.4L291.1 51L290.8 49.6L291 48.3L292.6 47.6L294.3 48.1L297.7 50.1L298.4 50.3L300.7 50.4L303.9 50.8L305.7 50.7001L306.6 50.4L307.9 48.8L308.6 46.7001L308.4 44.1V41.5L309.3 39.3L312 35.8L312.8 33.8L313.1 28.8L314.1 26.6L314.9 24.3L315.3 19.5L314.2 14.9L313.1 12.6L311.8 10.4L312 8.30005L313 6.40002V5.80005L313.2 5.30005L315.1 4.90002L316 4.5L316.9 3.59998L317.9 3L318.7 3.59998L319.3 4.5L322 6.80005L326.2 11L331.2 17.3L334.3 20.4L337.6 23.2001L341.3 26L345.2 28.4L347.7 29.6L349.5 31.4L350.1 32.1ZM302.6 7L301.9 8.30005L301 6.30005L300.8 4.20007H301.3L302.2 4.5L302.4 5.5L302.6 7ZM306.4 11.5L305.2 11.7001L303.8 10.8L303.6 9.70007L304.6 8.80005L305.6 9.09998L306.6 10.2001L306.9 10.8L306.4 11.5ZM275.1 72.9L274.7 73L274.3 72.8L273.9 71.3L274.2 70.5L275.3 69.9L276.4 69.8L275.5 72.5L275.1 72.9ZM305.3 86.8L306 87.2001L309.2 86.2001L308.6 89.2001L308.3 92.2001L308.5 97.2001L308.8 99.4L309.4 101.6L310.8 103.1L312.6 104.2L315.2 107.7L316.6 112L317.6 114.1L318.3 116.3L318.5 117.3V118.3L318.3 119.7L318.5 120.8L318.2 124.2L317 128.2L316.9 130.2L315.9 130.6L315.3 131.5L314.8 131.9L314.2 132.2L313.4 132.3L312.8 132.7L312.6 133.8L312.2 134.8L311.5 135.7L310.9 136.7L310.4 139.2L310.2 141.7L309.5 143.5L307.8 144H305.8L303.3 144.8L302.8 145.3L300.8 148.3L300.2 150.1V152L300.7 154.3L301.5 156.6L302.1 160.9L301.5 167.4L300.9 169.5L299.6 170.9L298.6 171.6L297.8 172.4L296.7 174.5L294.9 178.7L294.8 179.7V180.8L294.3 182.2L294 183.6L294.3 185.2L294.9 186.7L297.3 190.6L298.2 191.7L299.2 192.7L295.1 193.8L294.4 194.3L292 196.5L291.2 198.6L291.3 200.9L290.9 201.7L290.2 202.4L289.5 202.9L286.8 203.9L285.1 204.9L283.4 206.5L282.7 207.3L281.4 207L280.6 206.2L281.4 205.3L281.2 204.2L281.6 201.3L281.2 200.1L282.6 199.2L283.2 197.8L284.6 196.7L285.6 195.7L285.8 194.9L284.9 194L283.9 193.4H282.6L281.3 193.6L280.5 194.4L280.2 195.5L280.3 196L280.2 196.4L278.2 197.9L278.5 199.5L279.1 200.3L279.9 200.7L279.7 201.2L278.7 202.5L278 202.6L276.8 200.8L275.3 199.8H273.4L271.4 200.2L269.9 201.4L269.4 202.4L269.1 203.4L269.2 205.9L268.6 208L267.4 209.8L266.8 210.5L265.3 211.7L264.3 211.9L263.6 211.3L263 210.4L263.8 207.3V205.5L265.5 204.6L264.1 203.3L262.3 202.8L259.8 203.5L259.1 204.3L258.6 205.3L257.3 206.6L255.8 207.8L254.2 209.8L253.1 212.2L249.5 211.4L247.5 211.2L245.5 211.3L241.9 211L238 211.5L233.6 212.4L233.9 211.7L237.6 210.2L237.7 209.8L237.3 209H236.4L234.2 209.3L233.1 209.2L232.7 208.3L232 207.9L231.5 208.2L231.7 209.9L231.2 210.1L230.5 209.7L230.7 208.4L230.2 206.5L230.1 205.3L230.9 204.3L230.1 203.9L229.3 204.1L228.3 204.6L227.4 205.3L225.5 208.8L224.7 210.8L226.1 212.4L230 214.6L230.7 215.2V216.1L230.2 217.1L229.1 217.5L224.8 218.2L221.1 219.6L220 221L216.6 226.6L213.9 230.4L210.1 231.7L205.9 230.5L204.9 229.2L204.1 227.6L202.5 226.1L201.1 224.5L200.3 222.6L200.4 219.5L199.8 217.6L200.4 217.1L202.7 216L203.5 215.4L204.8 213.9L205.3 213.1L205.4 211.9L204.4 211.2H201.7L199 211.6L197.1 211.1L194.6 209.6L193.8 209.3L191.1 209.2L189.2 209.5L187.3 210L185.3 210.2L184.6 210.5L182.3 212.4L180.5 213.6L178.9 214.2L175.5 214.4L173.8 214.8L172 215.4L171.5 215.3L169.6 216.1L167.4 216.8L166.2 217.5L164.1 217L159.9 218.3L157.9 218.5L155.8 217.8L153.8 216.6L151.9 217.1L150.6 218.8L150 222.2L149.3 223.8L149.1 225.7L148.1 225.4L142.5 222.1L142.1 222L137.5 222.6L136.3 222.9L134.8 223.6L133.2 223.9L131.8 223.4L130.4 222.6L129.1 222.8L127.8 223.4L127.3 218.3L127.6 217.6L128.4 216.7L129.3 215.9L131.5 215.6L133.7 215.8L135.3 215.5L136.7 214.5L138.1 213.1L139.7 211.9L141.9 211L144 209.9L145.9 208.4L147.7 206.8L149.3 205.6L151.1 204.6L153.8 202.2L157.3 199.5L158.7 197.5L159.6 196.9L162.6 195.8L166.6 194.9L168.5 195L170.4 196.8L171.4 196.6L172.4 196.1L174.5 195.9L176.6 196.2H178.7L180.8 196L184.8 195.4L186.9 194.7L189 193.8L196.4 193.2L201.4 191.7L202.2 191.8L203 192.1L203.1 193.2L202.5 194.4L203.1 195.1L204.1 195.5L208.8 195.6L210.2 195.9L212.2 195.1L214.1 194.1L216.1 192.7L217.5 191.2L216.2 189.3L215.9 187.2L217 184.9L218.5 183L220.3 181.8L222 180.5L225.4 176.7L227.8 173.6L228.7 169.8L228.2 165.3L230.3 161.9L232.4 161.3L236.5 159.8L238.6 159.3L238.9 160L238.8 160.9L235.6 163.7L233.8 164.9L232.7 165.3L231.7 165.8L231.3 166.8L232.9 168.5L233.3 169.7L233.2 170.9L233.3 172L235.2 173.2L237.3 173.6H238.2L239 173.3L241.4 170.5L241.9 170L248.8 167.9L252.2 166.3L254.1 165.9L255.9 165.1L259.9 161.9L261.4 160.4L262.7 158.8L263.8 156.9L264.6 154.8L265.7 153.5L272 150.4L274 148.7L274.6 147.9L275.4 145.6L275.9 143.2L276.7 141.3L277.7 139.5L279.1 137.7L280.6 136L281.5 134.2L282.8 130L283.4 127.7L283.8 126.9L284.5 126.2L285.1 125.3L285.5 124.3L285.7 123.3L286 120.3L285.8 117.9L284.8 115.9L283.9 115.3H283L281.6 115.5L280.4 114.7L280.6 114L281.8 113.9L282.6 113.5L283.2 112.8L284.3 110.6L285 108.2L285.1 107.2L284.2 105.3L283.5 103V101.8L284.3 100.4L285.4 99.2001L286.4 98.9L287.5 98.8L288.4 98.3L289.3 97.7001L289.8 97L290.6 95L290.9 93.9L290.4 90.9L290.9 90.1L291.6 89.6L292.6 90L293.6 90.1L294.7 90L295.8 90.3L296 91.1L296.7 96.2001L297.1 96.9L297.9 97.4L298.8 97.3L299.6 96.5L300.1 95.4L301.1 95.2001L304.3 96.3L305.4 95.5L306.1 94.3L306.7 92.1L306.4 90.1L305.6 89.4L304.8 89.5L304.1 90.1L303.3 90.4L298.6 91.5V89.3L299.6 86L300.1 84.9L300.9 84.4L302.8 85L303.8 85.4L305.3 86.8ZM255.4 154.3L253.8 154.4L253.4 154.2L254.4 153.7L254.5 152.9L255.1 151.5V151.1L253.8 151L253.9 149.4L254.9 147.9L257.6 145.5L258.3 145L258.4 146.1L257.6 148.6L257.4 149.5L259.5 149.7L258.1 152.7L255.4 154.3ZM169.5 184L168.7 184.7L167.2 184.5L166.3 183.5L166.6 182.4L168.1 181.6L169.6 183.3L169.5 184ZM274.6 210.5L274.4 211.3L273.5 211.1L273.1 210.6L273.2 209.6H274.2L274.6 210.5ZM100.6 217.2L100.2 218L99 217.4L98.5 216.8L99.6001 214.1L99.5 213.1L99.6001 212.6L101.8 211.2L102.2 211.5L102.3 211.9L102.1 212.5L102.2 213.8L100.6 216V217.2ZM196.5 218.3L194.6 219.8L193 219.7L192.2 219L191.9 218.2L193.4 216.9L194.7 215L195.9 214.2L196.9 213.7H197.7L196 216.3L196.5 218.3ZM186.4 214.9L186.1 215.2L185.8 215.1L184.7 215.9L184.5 215.1L183.6 214.6L183.5 214.2L186 213.9L186.8 214.1L186.4 214.9ZM186.5 218.9L188.9 219.6L191.4 219.4V222.6L191.8 223.7L192.5 224.7L192.1 226.1L193.2 226.6L189.9 228.2L186.9 230.3L185.7 231.7L184.6 233.2L184 234.8L183.6 236.5L182.6 235.8L179.7 233L177.9 232.2L175 231.8L174.1 231.9L168.1 234.5L167.3 236.4L165.7 239.3L164.9 240.3L164 240.6L163.4 241.1L162.7 243.6L160.8 245.1L159.7 245.2L157.8 244.8L156.9 245L158.1 242.6L156.2 242.3L154.3 242.4V240.8L153.2 239.9L154 238.7V237.7L154.5 237.2L154.7 236.4L154.6 235.7L153.5 235.5L152.8 235L152.9 233.3L152.2 233.2L150.6 233.5L147.2 234.8H146.3L147.7 233.8L150.7 232.5L152.1 231.7L155 229.6L156.9 228.6L157.9 226.8L158.2 225.7L158.8 224.7L159.4 223.2L160.3 222.7L162 221.4L163 221.5L164.1 223.1L165.5 224.3L166.5 224.2L168.3 223.6L169.2 223.5L171.3 223.6L173.2 222.8L174 221.9L174.3 220.7L173.6 218.8L174.5 219L175.4 218.9L177.5 217.7L179.6 217L181.8 216.8L184.3 217.5L186.5 218.9ZM98.8003 221.2L97.7002 221.9L97.2002 220.8L97.7002 217.7L99.8003 218.3V219.2L98.8003 221.2ZM155.8 221.4L155.3 222.1L153.8 221.9L154.4 221.3L154.9 220.5L155.3 220.3L155.6 221.1L155.8 221.4ZM150.4 224.4L151.2 225.1L153.2 224.8L153.4 225L152.8 225.6L151.9 226.2L150.3 225.8H149.3L149.2 224.8L149.3 224.5L150.4 224.4ZM131.5 230.4L133.8 230.9H134.8L135.7 230.7L137.1 230L138.5 229.5L139.5 229.8L140.4 230.4L140.9 231.3L140.7 232.2L139.1 234.1L137.7 236.2L140.8 236.6H143.9L143.2 237.9L143.1 239L144 239.5L144.8 240.2L144.6 240.8L144.1 241.4L145.8 242.4L145.7 243L145.3 243.7L141.1 248.1L139.9 250.3L139 252.7L138.2 254.5L137.6 256.3L137.2 258.3L136.4 260.3L136.7 262.1L136.4 264L134.3 268.6L132.8 268.5L130.9 268L129.7 268.1L129.1 269.1L130.2 271.2L126.8 273.7L123 275.4V274.6L123.4 274L123.9 273.5L124.3 272.9L124.9 271L124.6 269L123.5 266.5L123.4 265.6L124.2 265.3L124.7 265.2L125 264.9V264.1L124.6 263.5L123.5 263.3H122.5L121.8 264.2L120.8 266L120.3 267.8L120.5 268.8L120.9 269.7L122.3 271.2L121.9 272.1L121.3 272.8L116.5 271.3L115.5 271.2L114.6 270.9L113.7 268.9L115.7 268.4L116.3 268.2L116.5 267.6L116.8 265.7L115.9 264.1L115.1 263.5L114.5 262.8L114.9 261.4L114.6 259.7V257.3L114.9 256.9L116.7 256.4L118 255.1L119.2 253.6L120.9 251L122.3 248.2L121 248.1L119.9 247.6L121.1 246.3L120.7 244.6L118.9 242.5L117.9 240L116.3 238.9L115.4 238.5L114.3 239.1L113.4 239.8L114.2 241.4L114.1 242.8L114.2 244.2L115 244.3L116 244L116.8 244.2L117.3 244.9L117.4 245.8L117 246.7L116.3 247.2H115.4L114.5 246.7L113.8 246L112.1 245.6L110.3 246.5L108.6 248.2L107.1 249.1L107.8 247.8L108.1 246.4L107.4 245.4L105.7 243.8L105.3 242.8L105.2 241.7L105.5 240.6L107.2 241.9L108.1 243.5L109.3 244.2H110.9L109.7 241.8L109.3 241.2L107.6 240.1L105.3 238.3L103.8 237.4L104.3 235.5L105.2 235.1L105.9 235.2L108.4 235.9L108.6 235L108.2 234.5L108 233.9L109.6 233.1L112.2 232.4L112.7 232.1L113.2 231.4L113.9 231.1H115.7L117.3 230.4L118.6 228.6L118.9 227.6L119.3 226.8L122.5 225.4L123.3 225.2L125.4 225.4L127.4 226.2L128.4 227.9L129.3 229.7L131.5 230.4ZM107.7 227.8L106.5 228.5L105.6 227.9L106 226.3L106.3 225.8L107.3 226.3L107.7 227.8ZM102.4 237.1L101.2 237.9H100.3L101.1 236.9L101.2 236.4L101.9 235.1L103.2 234.6L103.7 234.5L102.6 235.8L102.4 237.1ZM95.3003 243.7L94.8999 243.9L94.3003 242.3L93.8999 241.7L94.5 241.4L95.8003 238.6L96 239.7L96.5 240.8L97 241L96.5 241.8L95.8003 242.1L95.3003 243.7ZM281.3 240L281 240.2L280.2 239.6L280.1 239.1L280.2 238.8L280.7 238.7L281.8 239.3L281.3 240ZM88.2002 244.7L88.8999 245.2L89.8999 244.9L90.7002 244.8L91.3003 245L92 246.2L92.3003 246.9L91 247L90.5 247.2L89.8003 248.1L88.8003 247.8L88.2002 247.4L88.1001 246.8L88.2002 244.7ZM112.7 254.3L111.3 254.9L111.1 254.3L110.5 254L111.5 253.2V252.8L110.9 252.2L111.6 250.1L111.4 249.2L114.1 248.9L114.6 249.8V252.4L112.7 254.3ZM117.8 251L116.3 251.1L115.7 250.9L115.4 250.3L117.5 249.2L119.2 249.4L118.5 250.4L117.8 251ZM106.4 264.2L105.8 264.5L106.2 263.2L107.6 262L107.7 262.8L106.4 264.2ZM127.8 285.7L126.3 285.9V284.9L127.5 282.7L127.6 281.1L128.7 279L129.2 278.5L129.5 278.3L129.9 279L129.5 281.5L128.4 283.4L127.8 285.7ZM122 288L120 288.4L118.9 288L117.9 285.9L119.8 284.6L122.3 285.9L122.8 286.3L122 288ZM101.8 322.4L100.3 323.7L98.7002 322.5L96.8003 321.7L97.7002 321.5L98.2002 321.2L98.3003 320.7L99.5 319.9L101.9 319.3H102.7L103.6 318.7L103.9 318.2L104.3 318L105.9 317.3L106.3 318.1L106.2 318.7L105 319L103.8 319.8L102.7 320.8L101.7 321.2L101.4 321.5L101.8 322.4ZM99.6001 324.1L99.7002 324.5L98 324.2L97.3003 322.7L98.3999 323L98.7002 323.5L99.6001 324.1ZM93.8999 330.5L93.2002 330.8L92.2002 330.4L91.8999 328.5L92.3003 327.6L93.1001 327.4L93.8003 329L94.3003 329.7L93.8999 330.5ZM81.1001 348L79.3999 348.8L78.8003 349.7L77.3003 350L75.8003 351.3L74.3999 351.5V352.5L75 353.4L74 353.6L73 354.6L72.8999 355.4L73.3003 356L73.2002 356.3L71.8999 357.2H70.6001L70.5 356.2L70.6001 355.5L71.8003 353.7V351.6L73 351.4L73.3999 351.1L75.2002 349.6L75.5 349L74.5 348.4L74.6001 347.7L74.8003 347.4L76.3003 347.6L76.8999 348.1L77.2002 348.2L78.1001 347.8L78.5 347.1L80.1001 345.7L80.8003 344.3L82.1001 345.5L81.7002 347L81.1001 348ZM321.8 348.6H321.5L320.4 346.9L320.7 346.8L321.3 347.1L322 348.1L321.8 348.6ZM32.5 379L31 379.4L29.3999 379.2L29.7002 377L30.2002 377.3L30.5 378.1L31.7002 378.5L32.5 379ZM12.6001 382.7L11.6001 385.2L10.7002 385.6L9.80029 385.4L8.8999 384L9.5 383.5L10.3999 383.8L11.1001 383.7L12.7002 381.6L13.1001 381.9L12.6001 382.7ZM5.6001 386.5L4.5 386.7L3.2002 386.4L2 386.3V385.8L3.2002 385.3V384.6L3.5 384.2L6.30029 385L6.2002 385.6L5.6001 386.5Z" fill="white" stroke="black" stroke-width="4" stroke-miterlimit="10"/>
</svg>
