<svg width="467" height="554" viewBox="0 0 467 554" fill="none" xmlns="http://www.w3.org/2000/svg">
<path d="M88.3999 546.2H88.1001L87 546L86.2 545.5L84.2 545.9L81.5 546.8L80 546.7L78.8 545.8L73.8999 544.5L73.1001 544.4H69.8999L69.8 542.3L69.3999 540.8L68.3 538.5L70 537.9L69.7 533.5L69.1001 531.2L64.3999 528.8L60.7 526.5L61.5 518.7L61.8999 516.6L60.5 512.5L60.7 507.7L61.3 500.1L62.5 499.8H63.3999L66.7 501.2L68.1001 501.3L69 502.5L70.1001 503L70.8999 501.7L71.2 499.5L73.8 496.6L75.6001 495.5L76.8 495L78.1001 496.2L79.1001 497.5L79.3 494.6L80.1001 489.1L77.6001 488.2L75.6001 489L73.6001 492.5L71.8 496.8L68.8999 497.2L66.6001 498.4L64.5 497.1L63.1001 496V494.4L63.3999 493.4L65.8999 489.9L69.2 486.5H72.5L74.8999 485.4L76.3999 485.3L80.8999 485.5L83.2 484.7L85.3 483.1L89.8 476.4L92.3 473.6L97.3999 472.6L102.1 469.4H103.4L101.2 471.8L100.8 472.7L100.5 474.1L102.1 477.2L101.8 479.1L101.9 482.8L100.4 484.7L98.7 488.8L98 489.4L97.8 494.1L98 495.2L97.8 499.5L99.5 501.3L101.3 502.2H107.4L108 503L108.8 504.3L108.3 506.5L107.6 508.2L105.8 509.6L103.5 510.7L102.1 510.8L100.2 508.8L99.3 509.4L98.3 510.4L96.7 515.9L95.8999 519.6L95.5 519.9L94.6001 519.3H93L91 520.2L92 521L93.1001 522.3L92.7 523L91 523.7L89.5 525.2L88.8999 526.3L87 527.6L85.8 529.3L86.3999 531.4L86.6001 533.2L87.1001 535.2L86.6001 536.8L84.2 539.1L83.3 541.1H85.3999L86.7 541.5L87.3999 542.1L88.2 542.9L87.7 543.9L88.3999 546.2ZM111 482.4L110.3 483L107.9 482.1L109 480.9L111.6 480.3L113.1 480.5L111.4 481.7L111 482.4ZM137.2 521.4L137.3 524L136.9 524.8L136.2 525.3L134.5 525.8L133 526.5L131.7 527.8L131.2 529.6L132.2 531L134.1 531.7L134.6 534.3L133 535.6L129 536.9L128.6 539.9L128.7 542.3L128.6 544L128.3 546.4L125.1 547.5L123 543.9V542.4L122.4 540.7L122.3 539.3L121.6 537L118.5 536.4L117.3 536.3L115.6 536.7L115.2 536.5L113.2 533.3L113.5 529.8L112.4 528L112.3 527.2V526.3L111.4 525.5L110.3 525.1L109.8 523.1L111 522.6L114 522.8L114.9 522.7L115.7 522.3L118.1 519L118 518.3L118.3 517.4L120.9 517.1L122.1 518.4L121.9 520.5L122.1 523.1L123.7 523.8L124.3 523.9L125 522L125.5 521.1L126.1 520.6L126.3 518.8L125.9 517.7L125.1 516.9L128.1 514.7L131.2 512.9L133 512.8L134.8 513.2L136.5 513.8L137.4 514.3L137.9 515.1L136.8 517L136.5 518.1L137.2 521.4ZM103.4 521.5L103.1 522L102 521.5L101.9 519.8L102.3 518.3L101.8 516.9L102.3 516L103.8 518L104.2 519L103.6 520.1L103.4 521.5ZM138.9 526.3L137.3 527.4L136.9 527.3L136.4 525.8L137.3 524.9L137.8 524.1H138.2L138.7 524.9L138.9 526.3ZM104 526L104.7 527.3L105.6 530.2L107 533.4L106.4 534.7L106.8 536.4L106.4 538.2L103.6 540.3L100.5 540.4L97.3 539.4L92.7 537.5L92.3 536.4L91.7 535.8L90.5 532.5V528.4L92.8 527.9L97.8 525.9L99 526.2L100.2 527.2L101.6 527.3L103.6 525.9L104 526ZM180.8 541.1L180.2 541.5L177.3 540.8L173.8 539L174.3 535.5L175.2 534L181.6 537.9L181.7 539.4L180.8 541.1ZM105.6 548.1L104.8 548.2L103.8 546.1L103.7 545.4L104.9 544.1L105.7 542.6L107.7 540.3L108.9 537.6H109.3L108.8 540L106.1 546.7L105.6 548.1ZM93.8999 544.6L92.1001 544.9L91.2 544.3L89.5 544.1L88.8999 540.2L89.1001 540L89.8999 540.3L92.8 542.1L93.8 544.1L93.8999 544.6ZM136.9 542.6L136.3 543L133.6 542.7L130.6 544.5L129.5 543.9L129.9 542.8L130.2 542.4L131.2 541.9L131.9 541.2L132.2 540.1L132.8 540.7L134.7 540.9L135.6 541.2L136.4 541.7L136.9 542.6ZM101.2 545.6L100 545.9L98.7 545.4L96.5 543.3L96.2 542.7L97.3 543L98.7 544.1L99.8 544.3L101.4 545.2L101.2 545.6ZM116.4 544.5L119.5 546.1L121.6 546L123 546.7L123.3 547.7L123.4 549.9L121.9 550.6L120.3 550.4L118.1 551.3L110.8 547.6L110.9 544.5L111.2 543.3L114.7 543L116.4 544.5Z" stroke="black" stroke-width="4" stroke-miterlimit="10"/>
<path d="M420.6 94L419.4 94.5L415.8 96.5L413.6 97.8L411 98.8L411.7 100.1L416.1 100.4L416.8 100.8L417.3 101.5L417.4 102.6L417 104.3L412.3 113.7L412.2 115.7L413.7 121.2L415.9 127.6L422.4 130.4L427.2 132.6L430.3 137.8L435.4 144.6L438.1 147.1L438.2 147.9L437.4 152.6L434.1 157.2L431 161.1L427.8 165.8L425.3 169.8L422.6 174.5L422.3 176V177.4L422.8 179L426.3 184.7L427.7 187.6L429.3 190.7L430.7 194.1L431.5 197.1L432.9 200.1L433.8 201.6L435.2 203.7L436.9 206.8L437.5 209.3L440.1 217.8L440.4 220L440.3 221.6L439.1 222L436.6 222.2L433.8 223.3L433.7 223.6L435.5 225.6L433.9 229L433.7 233.8L432 236.3L431.8 236.9L431.9 237.4L432.2 237.8L435.3 238.5L435.6 239.2V240.6L435.3 241.9L433.7 242.9L432 244.3L431.6 245.6L431.7 246.8L432.3 248.8L433.4 251.1L434.8 252.5L439.8 253.9L440.4 255L440.7 256.5L440.6 258L438.3 261V262.1L439.3 264.9L440.4 267.5L445.3 270.3L447 271.8L447.4 273L447.6 275V277.1L447.2 279L445.7 281.4L442.2 286.2L438.6 288.1L438.4 288.5L439.5 290L445.8 296.1L449.9 298.9L455.4 302.7L459 305.7L460.1 307.9L461.6 310.3L463.3 312.2L464.5 313.9L465 315V316.2L463.3 319.7L462.4 322.4L460.7 326.4L459 329.1L454.7 334.1L448.3 340.3L446.8 342.2L443.8 345.4L438.7 351.9L437.4 353.3L433.2 358.4L431.3 360L429.8 361.5L425.6 366.3L421.1 369.9L416.7 373.2L415.4 374.9L413.8 376.2L411.9 377.4L411.1 378.1L406.7 382.7L400.6 389L400 389.1L398.4 390.1L395.9 390.3L394.8 391.1L391 388.9L390.4 388.8L388.2 389.3L386.1 390.9L382.1 391.4L380.1 391.9L378.8 392.6L378.5 390.9L379 388.7L379.9 387.2L380 386.2L379.4 386.3L378.1 388.5L377.4 391L376 392.3L373 392.8L370.1 390.8H368.7L369.6 392.2L370.2 393.8L370.1 394.7L368.5 394.5L366.8 395.5L365.3 396.9H364.6L363.6 395L361.7 395.9L360.1 397.1L356.9 397.5L355 399.1L351.6 400.2H349.7L345.4 401.5L344 403.5L342.8 404.2L341 403.6L335.5 404.6L330.3 405.9L328.1 405.8L325.9 405.3L323.5 407.1L321 409.5L318.2 410.3L317.2 410L318 408.8L319.8 407.5L321.1 405.8L321.3 404.3L320.4 403.7L319.2 403.5L317.7 402L316.3 398.7L315.5 398.5L315.1 399.4L314.7 401.9L314.3 402.6L313.5 403.2L312.6 403.8L311.7 404.1H308.5L308.1 402.8V402.3L308.7 400.6L308.2 400.3L308.7 399L309.5 399.1L310.4 398.9L310.8 398.2V397.4L309.6 397.2L309.5 396.7L310.6 394.4L310.8 393.8L310.4 393.7L309.7 394L305.2 393.3L299.6 390.4L298.2 390.2L297.4 387.5L296 387.8L294 389.4L292.5 388.2L290.9 387.4L290.5 386.2V384.4L290.4 382.3L290 379.8L289.7 376.3L290 373.5L291.3 371.4L291.8 370.1L292.4 366.7L292.5 362.7L292.2 361.4L292.3 360.5H293.3L293.1 359.7L292.7 359.3L292.2 358.4L292.6 357.9H293.8L293.9 357.6L294 357.2L293.1 354.9L293 353.8L291.7 350.4L290.2 347.2L288 344.9L288.8 341.1L289.7 337.6L289.5 335.9L289.2 333.8L286.5 331.5L286.1 328.3L285.4 324.9L285.6 322.8L286 321.2L286.9 319.6L291.4 314.5L291.7 311.8L294.8 311.6L293.4 309.2L293.1 307.8L293 306.2L297.4 305.1L299 306L302.9 304.9L306.3 302.7L306.2 301.5L305.7 300.5L305 298.5L305.5 297.9L306.8 298.3L306.2 297.3L306.3 296.3L307.7 296.7L309.9 293.8L310 291.6L313.9 290.4L318.4 285.8L320.5 284.4L322.5 283.4L326.7 278.8L328.5 278.6L329.4 275.5L333 271.3L334.1 270.8L335.8 267L340.2 262.6L343 257L344.6 255L345.1 252.8L346.8 252.6L348.4 251L351.8 249.9L355.1 250.2L356.5 251L357.8 250.8L357.7 248.9L356.8 247.7L357.5 246.5L359.3 245.6L359.1 243.7L358.7 242.5L357.2 240.9L357.9 237.4L358.1 233.6L358.8 229.1L357 226.7L350 222.7L348.7 222.8L347.1 222.3L345.5 219.2L346.2 216.5L346.3 215.5H345.7L344.7 216.8L342.5 218.3L339.6 217.1L338.2 217.4L336.4 210.8L335.5 208.3L334 205.1L331.3 203.5L330.8 202.6L330.4 201.3L330.3 199.4L330 196.6L330.1 194.3L330.4 192.9L331.6 192L333.3 189.4L333.7 187.5L333.8 184.6L334.6 182L335.5 180.7L335.3 179.7L334.7 178.2L333.5 176.1L331.6 173.5L330.2 171L329.6 168.7L329.3 166.6L329.4 164.7L329.9 163.4L331.7 161.8L331.9 161.1L331.2 157.5L329.9 156.8L327.8 156.4H326.6L326.4 156L326.3 155.3L326.5 153.8L327.2 152.1L327.8 151L327.9 150.1L327.2 146.9L327 143L327.2 139.9L329.5 137.6L329.6 136.8L326.8 134.3L324.7 131.5L324.1 129.9L321.7 129.7L320.2 124.9L318.1 122.6L316 120.6L314.8 119.7L307.5 116.8L304.6 116.2L301.2 114.5L298.7 112.3L296.5 110.9L294.6 109.2L292 107.6L291.2 106.2L288.4 103.7L287.1 102L282.5 98.8L282.3 97.6V96.4L282.1 95.9L277.4 93.6L278.3 92.3L282 92.2L285.1 93.4L285.8 92.9L286.2 91.8L284.9 87.4L285.1 86.3L286.4 84.9L288.5 83.8L291.8 83.6L294.1 83.8L294.6 83.9L298 88.7L300.9 93.4L302.5 95.4L306.3 101L307.7 104.2L308.2 106.5H309.8L315.2 107.5L319.7 108.3L321 109.6L324.1 109.3L326.5 108.2L330.7 106.7L331.8 104.9L333.2 103L335.7 103.3L338.4 104.8L341.5 106.8L344.2 107.7L347.9 109.2L349.6 111.1L352 111.6L354.5 109.7L356 104.6L357.3 102.3L359.2 100.6L361.3 99.9L362.9 99.6L364.1 98.3L365.9 95.4L366.2 91.9L365.9 85.5L366.2 83.4L367.6 79.9L369.5 70.6L370.4 67.9L371.5 66.3L372.9 65.3L375.5 62.5L379.3 56.8L380.3 56.3L383 56L386.4 56.2L389.4 57.2L389.7 57.1L391 56.6L393.5 54.8L397.7 51.3L400.4 50.3L402.8 50.4L405.5 54.3L409.3 58.6L411.8 60.7L418.5 64.6L424.4 67.1L427.7 75.4L426.1 78.7L425.3 79.8L422.4 83.1L419.3 87.7L419.1 90.1L420.1 92.5L420.6 94ZM349.4 245.9L346.8 247.1L344.7 246.4V244.2L346 243.1L348.3 242.7L351.5 243.8L352 244.4L350.2 244.8L349.4 245.9ZM286.7 304.7L286.9 305.3L287.9 305.1L289.3 304L290.3 304.5L290.2 306.1L289.6 306L289.4 305.7L288.6 306.6L288.5 307.1L287.5 307.4L285.7 305.8L284.6 303.3H287.2L287 303.9L286.7 304.7ZM290.7 389.3L290.5 390.7L289.3 390.5L288.1 390.8L287.1 389.4L286.6 387.1L286.8 386.6L287.6 386.1L288.2 387.4L290.7 389.3ZM300.1 395L298.8 395.1L297 393.6L296.8 393L297.5 392.7L297 391.5L297.1 391L298.5 391.9L299.3 393L298.6 393.2L299.8 394.3L300.1 395ZM303.3 394L305.5 394.7L306.4 394.5L307.4 396L305.6 397L305.5 398.2L306.2 399L306.4 400.1H304.6L303.8 399.2L303.4 398L302.6 397.2L301.5 396.6L302 395.8L302.3 394.6L303.3 394ZM297.4 400.8L295.7 401.8L295 401.6L295.2 399.9L296.2 399.1L297.9 399L297.4 400.8ZM293.8 401.8L292.3 402.1L291.4 401.2L291.8 400.6L292.9 399.9L294 400L294.2 400.8L293.8 401.8Z" stroke="black" stroke-width="4" stroke-miterlimit="10"/>
<path d="M362.2 2.5L366.8 4.20001H368.4L370.7 7.40002L371.9 7.09998L371.7 9.09998L369.4 10L365.8 10.6L365.3 11L362.2 10.7L360.5 8L357.6 7.29999V6.40002L359.5 4.40002L362.2 2.5ZM453.5 62.2L454.4 67.8V69.7L454 71.6L453.4 72.6L452.2 73L449.2 72.8L445.1 70.6L442.5 68.5L441.7 68.4L441.3 68.7L441.9 70.8L441.7 72.4L441.3 74.1L440.7 75.7L439.9 77L438.3 78.7L435.5 80L427.8 82.6L427.2 83.7L424.7 90.9L424 91.9L423.1 92.8L420.5 93.9L419.2 92.3L418.2 89.9L418.4 87.5L421.5 82.9L424.4 79.6L425.2 78.5L426.8 75.2L423.5 66.9L417.6 64.4L410.9 60.5L408.4 58.4L404.6 54.1L401.9 50.2L399.5 50.1L396.8 51.1L392.6 54.6L390.2 56.4L388.8 56.9L388.5 57L385.5 56L382.1 55.8L379.4 56.1L378.4 56.6L374.6 62.3L372 65.1L370.6 66.1L369.5 67.7L368.6 70.4L366.7 79.7L365.3 83.2L365 85.3L365.3 91.7L364.9 95.2L363.1 98.1L361.9 99.4L360.3 99.7L358.2 100.4L356.3 102.1L355 104.4L353.5 109.5L351 111.4L348.6 110.9L346.9 109L343.2 107.6L340.5 106.7L337.4 104.7L334.7 103.2L332.2 102.9L330.8 104.8L329.7 106.6L325.5 108.1L323.1 109.3L320 109.6L318.7 108.3L314.2 107.4L308.8 106.4H307.3L306.8 104.1L305.4 100.9L301.6 95.3L300 93.3L297.1 88.6L293.7 83.8L293.2 83.7L290.9 83.5L287.5 83.7L285.4 84.8L284.1 86.2L283.9 87.3L285.2 91.6L284.8 92.7L284.1 93.2L281 92L277.3 92.1L276.4 93.4L274.2 93.5L267.7 94L270.6 97.5L271.5 98.9L271.7 101L271.2 104.8L269.8 108.1L268.2 110.8L265.1 113.4L269.8 116L266.6 119.5L265.1 120.8L263.4 120.6L260.3 119.4L252.8 116.5L249.2 115.4L246 115.1H244.3L237.5 112.6L236.2 112.9L233.8 114L233.5 116.4L233.7 122.4L234.1 127L233.2 129.7L232.3 131.5L229.6 136.3L223.5 133L219.3 130.8L216.6 133.7L209.9 139L206.5 149.4L206.3 149.7L204.3 152.3L201.7 153.5L199.7 154.1L198.6 157.1L201.3 161.4L202.7 163.7L204 167.4L203.8 169.7L203.5 171.2L200.6 174.1L194.5 181.9L188.8 189.9L186.5 192.2L187.5 199L185.6 201L181.8 203.2L179.8 204L177.7 204.5L171.2 205.4L172.4 212.5L172.8 215.6V217.4L172.1 219.2L171.3 222.6L170.1 234.8L169.2 236.1L167.9 239.4L163.8 247.2L160.5 252.4L155.8 259.8L159.7 262.1L163.2 263.8L163.9 266.4L164.4 270.7L164.3 273.6L163 276.2L162 278L161.3 278.9L156.3 278L149.9 276.9H148.2L144.5 277.7L141.1 279.4L139.3 280.8L138.8 281.4L136.6 284.6L132.6 290.3L130.4 292.8L131 296.2L127.3 302.8L129.7 309.4L129.8 309.6L131.1 312.3L129.8 314L129.2 314.9L129.4 317.9L129.8 321.3L129.5 323.3L129.4 325.5L132.7 335.2V337.5L132.5 339L131.5 345L130.1 353L132.5 355.1L135.9 357.6L137.8 358.6L140.6 361.5L142.7 364.4L142.4 366.3L141.8 368.4L140.9 369.9L140.1 371.9L139.7 373.4L139.3 373.8L135.6 374L133.6 374.6L132.6 375.2L133 378.5L135.3 384.6L137.2 388.9L137.8 391.7L137.2 394.5L136.6 396V398L136.1 401.9L134.6 403.9L132.7 406L130.6 407.6L128.9 408L127.5 408.2L126.5 409L125.6 411.4L124.8 413.9L122.1 416.9L122.2 418L123.2 421.6L124.1 425.7L123.3 429.5L122.6 433.5L121.4 436.1L119.7 437L118.4 436.5L117 432.9L116.9 432L116.5 430.9L112.5 429.8H111.8L110.2 429.1L109.3 428.9L107.4 428.5L105.8 425.3L104.1 422.6L103.9 421.5L104 416.5L103.5 414.3L103.3 411.8L102.2 413.8L102.8 416.9L101.5 418.2L99.8999 418.9L100 420.7L100.7 421L100.8 422.9L100.4 425.7L97.2 431.9L96.5 432.6L96.1001 433.4L94.3999 432.8L92.3 434.5L90.3 434.8L89.6001 432.8L86.8 430.2L85.5 430.4L86.7 431.7L87.8999 433.4L87.2 434.5L86.5 435.2L85.3 435.6L81.1001 437.8L82.6001 439.2L81.3 440.9L79.8999 441.1L79.1001 441.9L78.8 442.9L74.5 445.9L67.5 453.4L63.8999 455.5L61.3999 457.7L59.2 457.6L56.3999 459.5L49.3 461.1L44.6001 460.4L41.3 461.1L39.5 459.8L39.3 458.9L39.3999 458.4L39.7 457.8L39.1001 457.6L37.8 457.5L37.3 458.1L37.2 459.5L36.6001 459.9L34.2 459.1L33.6001 458.4L34.5 456.9L36 455.6L35.7 455.3L35.3999 454.5L34.7 454.4L32.5 454.6L30.7 454.4L24.8999 451.4L23.6001 449.8L18.8999 447.2L16.8 444.5L15.6001 441.5L15.7 438.8L16.3 434.5L17.3 433.4L21.5 434.9L25.7 437.4L26.3999 437.3L27.7 435.3L30.3 433.7L29.6001 433.3L25.8 435.1L24.3999 434.1L22.2 432V430.9L23.2 429.8L23.5 428.4L23 427L23.2 425.1L24.8999 423.1L27.5 421.1L29.3 419.1L31.2 417.9L31 417.5L28.8 418.3L26.7 419.6L24.3 421.8L21.3 423.6L19.1001 424.3L18 424.9L16.3999 425.4L14.7 427.9L12.8999 429L9.6001 429.1L8.8999 427.3L9.80005 420.8L10.8 417.6L11.8999 415.3L13.6001 414.9L14.8 413.2H15.8L16.7 414L20 414.8L21.6001 412.7L23.7 412.4L27.6001 410.2L27.5 409.8L24.8999 410.3L23.3 410.4L21 410.9L19.8 410.5L19.2 408.9L20.1001 407.4L23.8 403.9L25.1001 402.4L25.8 401L25.7 400L26.3 398L29.8999 394.5L32.8 392.9L33.8 394.3L33 398.6V400.4L35.3 394.1L36.3 392.6L37.5 391.5L40.3 390.8L41.1001 389.8L37.8 390.1L29.8999 392.5L26.6001 394.7L25.7 396.4L23.3999 398.9L22.3 400.5L21.8 402.9L20.5 404.2L18.7 404.7L16.3 407.7L15.2 410.1L12.8 412L11.2 413.5L10.7 414L9.8999 415.4L9.19995 415.5L8.6001 414.7L8.5 412.8L8.69995 409.8L9.8999 407.6L10.5 405.5L9.69995 403.5L10.2 402.3L11.2 402.4L13.1001 403L15.1001 402.9L18.5 401.4L18 400.5L16.6001 400.4L13.8999 400.5L11.6001 399L9.80005 396L9 391.9L9.5 390.7L16 386.5L17.8 384.6L16.8 384.4L14.3 386.7L10.8 388.1L8.6001 386.1L7.5 384L6.80005 379.5L7 377.2L6.69995 374.1L8.19995 373.1L9.8999 373.6L11.6001 373.8L15.3999 373.5L23.7 371.6L29 372.7L31.2 372.6L34.5 371L37.3999 370.8L39.6001 372L40.8 373.4L40.8999 375.3L41.8999 376.5L42.6001 376.1L42.1001 374.6L42 372.3L50.7 369.7L51.7 368.7L48.2 368.3L47.2 365.9L49 362.3L48.8 361.8L46.8999 363.7L46 366.4L46.3999 368.5L46 369.5L44.2 369.9L40.2 370.1L37.6001 369.2L35.2 368.7L34.3999 368L34.7 366.5L34.3 366.2L33.3 367.6L32.3999 370.3L30.5 370.9L25.3 369.9L17.8 370.5L14.3999 371.9L12.2 371.7L8.3999 369.3L6.8999 367.4L6.30005 363.5L6.5 361.8L9.3999 361.1H10.8999L12.3 360.2L11.1001 359.6L9.3999 358.4L8.19995 356L6.3999 355.2L5.19995 353.2L4.8999 350.1L5.19995 348L6.1001 347.3L8.3999 347.8L14.3999 347.4L20.1001 349.6L24 350.8L31.8 350.2L36.3999 348.3L35.6001 347.8L30.7 348.9L26.1001 348.8L18 346.6L14.7 345.9L11.1001 346.2L9.19995 345.5L8.1001 343.3L8.8999 339.1L10.6001 338.2L11.5 339.3L12.6001 339.4L13.7 337.6L14.8 336.6L15.6001 334.3L18.8 332.1L20.1001 331.9L22 330.9L23.2 331.2L24 332.2L25 333L27.2 332.9L33.6001 331.2L34.3 330.7L35.5 329.3L31.3999 329.9L28 330.9L25.8 331.2L25.5 329.9L26.3 328.8L27.6001 327.6L28.2 325.6L29.6001 324.7H31.1001L34.2 324.3L36.3999 323.8L40.1001 324.2L45.7 325L49.3 326.9L50.7 326.7L52.1001 326.2L52.8 325.5L50 324.7L49.8 323.6L50.2 322.8L54.8 321.2L59.8 320.9L58.8999 319.6L47.8999 321.5L45 320.2H42.7L41.2 320.9L37 321.8L36.2 321.2L37 319L39.5 315.4L39.7 314.5L40.8999 313.6L47.5 311.5L50.7 309L52.1001 308.7L53.5 308.9L55.6001 308.6L59.8 309.3L61.7 312.4L63.3999 313.4L68.8 317.2L68.6001 316.1L63.8999 310.9L62.1001 309.6L60.8 307L61.2 304.6L62.7 303L68 302.1L69 301.2L69.1001 299.6L68.3 298.5L66.3 298.6L64.7 297.9L64.3 296.1L64.8999 294.9L68 292.7L69.7 292L72.6001 291.2L77.7 292.9L78.1001 293.8L76.7 296L76.8 297.2L78 297.3L80.8999 293.6L84.3 293.1L85.7 292.3L87.3 291.8L89.6001 295.1L90.6001 296.2L91.3999 296.6L92.2 299.4L92.8999 299.5L93.8999 298.1L95.8 297.4L98.3999 296.9L102.7 297.6L104.7 297.1L105.7 297.2L104.8 294.7L104.2 294L105.1 291.8L106 290.9L109 289.3L111.8 288.6L113.7 287.1L116.2 285.7L115.8 284.6L115.1 283.3L113.5 283.2L112.8 282.5L114.9 280.9L117.7 279.1L117.2 278.4L115.1 277.6L113.5 278.2L111.1 279.6L108.3 281.8L109.2 282.4L110.6 284.3L108.7 286.8L98.3999 293.4L93.5 295.3L91.2 295L90.7 293.2L89.7 291.9L88.6001 289.1L86.7 289.2L85.6001 289.8L85.1001 288.9L85.8999 286L87.5 283.7L90.2 281.9L91.5 279.8L92.7 276.4L96.6001 273.2L102.3 265.1L106.9 262.5L108.6 259.7L111.3 258.4L113.6 256.2L115.4 256L118.7 254L120.6 251.6L119.4 251.4L116.5 253L114.9 253.6L115 251L115.8 248.4L118.2 246L129.8 238.9L131 240.1L132.4 242.2L135.9 241.7L139.9 237.7L143 233.3L141.3 234.1L139.5 235.9L136 238.4L134.4 238.8L133.5 238.5L133 236.8L131.8 236.3L130.7 236.7L129.6 235.5L129.4 232.6L130.8 228.2L132 225.3L133.2 223.1L138.1 216.8L139.2 213.4L141.4 211.6L144.3 212L145.2 211.5L144.2 209.2L141.1 207.4L140.9 206.3L151.3 203.3L156.3 203.4L157.8 201.9L160.5 200.9L162.5 199.1L161.4 198.3L156.3 200L153.2 200.8H151.8L150.7 201.4L146.7 201.6L145.8 194.3L146.4 190.3L147.9 190.4L148.3 186.6L150 184.3L152.4 183.8L153.6 182.8L155.3 180.8L158.2 181.3L161.2 180.9L160.5 180L156.8 178.8L155.9 176.7L157.2 175.5L158.6 174.6L159.8 174.4L162.3 170.3L163.8 168.6L165.5 168.9L167.8 167.1L170.1 167.7L172.3 166.5L175.3 165.7L186.4 165.4L186.7 163.7L184.4 163.3L176.2 162.9H172L170.2 163.3L169.6 162.7L169.7 161.7L171.2 160.1L171.9 158.3L175 154L178.6 151.1L181.3 151.8L184.2 154.6L186.3 155L187.3 155.9L188.8 159.7L189.5 159.8L189.2 156.2L191.2 153.2L190.7 152.4L187.7 153.5L185.4 152.4L183.6 150.2L183.1 148.1L184.2 146.1L185.3 145.1L184.6 143.9L180.1 147.1L176.9 147.9L175.6 147.4L176.3 144.5L175.9 142.2L180.2 136.5L181.7 135.8L184.1 136.3L186.3 137.9L188.1 137.6L190.1 136.7L189.8 135.2L185.5 134.6L184.4 133.3L184.8 132L187.7 130.7L190.6 128.3L194 127.6L196.7 125.8L197.2 126.2L197.6 126.9L198.6 133.7L201 139.2L201.9 139.4L201 134.7L201.9 133.4L203 132.4L203.4 131.2L202.1 130.8L201.1 129.1L199.6 123.7L200.1 122.3L203.3 119.4L207.3 118.7L211.5 120.7H213L215.5 120.1L219.7 118.4L222.2 117.8H223.5L223.8 116.9L222.6 116.4L222.2 115.9L221.3 115.6L217.4 116.5L206.7 116.2L205.7 115.2L205.5 113.5L206.6 111.1L207.8 109.8L211.8 107.4L216 107.1L220.5 102.8L222.2 99.6L223.2 94.6L225.9 90.5L232.8 88.2L233.1 87.2L232.4 85.1L232.5 81.3L234.4 76.8L235.6 75.2L236.2 75L237.7 76.5L239.5 79.6L242.3 81.4L246 81.7L247 80.8L244.1 79L241.9 76.7L241.7 74.3L242.7 73.1L244.3 73.2L246.3 72.9L248.2 71.3L248.5 70.2L248.6 68.7L249.1 67.2L251.9 63.5L260.4 61.1L261 62.1L260.5 69.2L259.5 73.8V77.1L261.1 73.8L263.3 64.6L265 60.2L266.9 57.7L268.2 57.1L269.5 55.8L271.3 55L271.8 56L272.4 58.3L271.5 66.4L271.6 68.9L270.5 72.3L266.5 79.8L266.7 80.8L267.6 80.4L269.2 79.2L274.2 72L278.6 72.9L278.7 72.3L277.3 70.2L275.6 68.2L275.1 65.7L275.3 59L276.6 56.3L280.4 56.6L282.7 56.2L283.8 57.4L286.1 57.3L287.7 52.4L290.8 52L293.5 55.2L296.8 57.4L299.4 60.5L300.2 59.7L298.8 52.4L297.2 49.7L293.8 48.3L290.2 45L289.3 43.5L289.5 42.4L292.7 41.3L296.9 42.5L300.6 39.7L301.6 40.5L304.5 39.1L306.3 41L307.4 40.4L308 37.8L312.6 36.2L315.5 37.7L317 39.2L317.7 42.2L318.8 48L321 51.1L322.4 52.6L324.1 53L324.9 51.4L323.3 49.5L322.9 47.7L323.6 43.3L324.5 41.6L329.4 35L333.5 31.5L335.9 31.2L340.2 23.4L341.4 22L342.5 21.7L342.2 19.8L339.9 18.6L339.8 16.2L342.9 13.3L346.6 8.40002L348.4 8.09998L349.6 9.5L353.2 11.7L355.4 14.2L357 15.5L358.1 15.2L359 13.3L360 12.4L362.3 12.9L363.7 14.1L364.8 14.3L365.8 15L366 16.6L364 18.4L360.6 23.1L357.2 28.4L356.1 31.2L355 38.4L352.4 43L352.2 46.2L353.3 47.7L356.2 46.5L359.8 42.2L360.7 37.6L369.6 25.1L373.8 18.1L378.6 12.3L381.3 11.1L382.5 15L381.5 20L379.5 23.2L381 24.7L380.7 28.5L380.2 30.6L379.9 32.8V34.7L381.3 34.2L386.9 30.3L388.3 26L389.6 22.8L390.2 20L392.4 17.3H396.5L396.7 16.3L391.7 12.7L391.1 11L392.8 8.79999L397.4 4.5L399.8 5L401.2 6L406.9 6.70001L411.2 9.79999L411 14.6L410 16.6L409.1 17.8L403.5 21.4L402.6 23.2L404.3 23.8L408.1 22L409.1 23.6L407.9 27.6L407.7 33.6L407.3 37.1V40.3L407.8 42L409.3 35.2L409.8 33.5L412 30.9L412.8 25.7L415 19.4L417.4 15.7L418.8 14.7L423.5 14.8L425.5 16.2L427.3 19.3L428.6 20.5L432.8 21.8L434.2 23.4L434.5 24.4L435.5 24.6L438.3 22.3L440.1 21.9L443.1 25.5L442.5 28.1L442.7 28.9L446.3 28.7L449.3 29.7L455 35.1L455.6 37.6L455.3 40.6L447.1 43.9L443.5 47.1L437.7 48.3L417.9 46.2L418.3 48.5L432.1 53.5L432.9 54.9L432.5 57.9V60.3L432.7 61.9L433.7 63.4L435.4 64.1L438.8 63.7L440.5 64.5L441.7 63.3L442.1 59.3L443.1 58.4L445 59.6L445.8 63.9L446.3 64.3L447.3 61.2L449.2 61.4L451.3 61.1L453.5 62.2ZM325.1 17.2L324.8 18.6L324.2 20L322.8 21.4L318.7 27.1L316.3 28L315.5 28.9L314.5 29.4L311.5 28.6L310.6 29.7L309.8 30.5L307.6 30.8L306.3 30.6L303 28.5L301.1 26.2L300 24.3H303L304.1 23.8L306.1 24.2L307.3 22.2L309.9 22.4L314.9 21L316.7 21.8L320.9 17.1L322.2 17.2L324.2 15.9L325.1 17.2ZM335.1 28.2L331.8 30L329.9 28.5L329.1 26.9L329 23.4L329.4 21.3L331 20.2L332 21L332.3 21.7L334.1 22.4L336.2 24.6L335.1 28.2ZM328.1 29L328.4 31.1L328.5 32.8L326.9 35.2L323.2 38.4L323.4 39.3L322.1 40.1L320.2 40.7L319.2 40.1L319.3 37.4L319 36.6L317.5 37.7L316 36.3V34.9L316.4 33.7L317.8 31.8L320.1 30.5L321.7 31L326.9 26.1L327.5 27.1L328.1 29ZM261.6 43.6L262.5 44.1L263.4 43.8L264.1 44.2L265.5 46.5L267.1 47.4L267.2 48.5L265.8 49.6L263.9 49.9L261.9 49.5L261.3 48.1L260.7 45.7L259 43.4L258.7 41.4L260.2 41.1L261.6 43.6ZM252.8 50.1L254.3 52.4L255.7 52.2L256.1 51.3L257 50.9L258.9 52.1L258.6 54.2L256 56.8L254.1 60.6L251.7 61.5L250.5 61L248.4 63.2L246.7 65.4L244.9 68.2L244.8 69.7L244.5 70.8L238 71.9L235.6 72.6L233.1 71.7L231.9 69.8L232.3 68.8L234.8 68.4L234.9 66.7L235.5 65.6L236.3 65L236.9 62.8L237.9 62.2L239.7 62.7L240.9 61.1L241.6 60.8L242.5 62.1L242.9 60.3L242.5 58.6L242.7 57.5L245.1 54.5L246.1 52.3L247.6 50.9L249 51.1L249.4 49L249 46.9L249.2 45.5L250.4 42.1L251.8 42L252.4 45L252.8 50.1ZM279.1 49.1L278.2 50.1L276.8 50.5L276 49.9L274.9 49.5L273.7 49.7L272.7 47.9L272.8 46.4L274.2 44.3L277 43.1L279.3 43.6L279.9 44.2L279.1 49.1ZM437.7 61.6L434.4 62.8L434 61.8L434.7 60.2L435.6 56.9L437 57L438.4 58.2L439.5 59.7L437.7 61.6ZM222.5 70.1L224.6 72.5L225.5 71.8L227.4 71.5L228.8 72.3L229.9 73.8L231.2 73.9L232 75.9L232.4 78.5L231.4 80.4L230 81.3L229.6 83.6L230.1 86.8L227 87.9L223.4 88.4L222 86.9L219.2 89.7L216.4 94L215 94.5L214.9 93.1L212.9 92.2L210.3 92.1L210.4 91.1L210.9 90.4L213.1 89.3L213.5 87.1L213.1 83.2L213.5 81.3L213.6 80L215 78.5L219.8 79.2L220.4 77.7L220 76.8L217.5 75.2L217.9 74.1L219.7 73.1L221.4 73L221.9 71.3L222 70.6L222.5 70.1ZM192.4 112.7L192.6 113L195 109.1L197.6 107.9L197.8 106.5L198.8 105.2L198.7 103.1L199.2 101.3L200.5 100.8L201.3 100.2L202.2 99.9L203.9 101.3L204.8 102.9L206 106.4L205.5 109.8L202.4 112.4L199.9 113.6L197.4 116.6L196.1 119.1L195 119.6L194.3 119.4L193.7 118.8H192.4L191 120.9L186.8 122.6L185.1 122.1L185 120L184 120.2L182.4 122.7L180.8 123.5L179.8 123.8L177.9 122.9L172.8 127.2L168 128L166.4 127.5V124.9L169.5 121.5L172.1 119.2L180.9 117.6L186.4 110.6L187.7 102.9L189 100.1L188.4 98.5L186.9 98.2L186.8 95.8L187.6 93.1L190.5 89.4L192.1 87.8L194.7 83.4L195.9 82.4H197.3L198.7 83.6L198.5 86L196.4 90.3L193.3 93.9L193.7 96.5L194.9 98.6L195.2 102.2L195.3 105.7L192.9 110.4L192.4 112.7ZM182.8 97.2L185 101.3L186 103.7L185.2 108.2L183 110.5L179.6 110.9L177.2 110.7L175.7 109.6L175.5 108.4L174.6 108L172.3 109.6L170.7 109.8L168.7 108.6L168.2 106.6L170.3 104.1L171.3 102.2L173.7 102.4L174.3 103L175.6 103.4L176.4 101.1L176.2 99.5L176.8 98.4L179.6 99.2V94.9L180.7 94.6L181.2 94.8L182 95.7L182.8 97.2ZM159.8 124.5L160.8 125.2L163.5 125L164 125.2L163.6 126.3L162.4 127.5L160 128.3L158.9 130.2L158.1 130.8H156L154.8 131.2L153.3 132.9L152.1 131.7L151.7 132.6L151.5 134.2L150.8 134.6L148.7 135.2L148.2 131.6L149.2 130.3L150 128.7L151.2 128.5L152.3 128.6L154.2 125.2L156.8 124.2L158.5 124.1L159.8 124.5ZM144.2 139.9L141.6 142L142.5 138.2L143.9 134.4L145.8 132.2L146.7 133.1L146.3 134.9V136.7L145.9 137.6L144.2 139.9ZM134.7 208.6L133.1 208.8L133.4 207.2L134.7 205.7L135.2 204.7L135.5 203.5L136.7 202.6L138.3 203.8V205.8L137.5 207.6L134.7 208.6ZM136.2 213.7L134.8 213.8V212.3L135.6 211L136.9 210.1L138.5 209.9L140.3 209.8L140.8 210.5L139.8 211.5L136.2 213.7ZM126.9 223.6L125.8 224.7L123.7 224.4L123.5 223.5L124.1 221.6L125.4 220.8L127.1 221L127.6 221.8L126.9 223.6ZM114.1 250.2L113.2 251.2L111.2 250.4L107.2 251L105.6 250.1L106.9 248.3L110.5 246.4L112.4 246.5L114.4 248.9L114.1 250.2ZM66.3999 290.8L64.3999 290.9L63.2 290.1L66 288.6L70.3999 287.2L70.8 286.3L71.3 286.2L72.1001 287.3L72.2 288.8L71.7 289.6L66.3999 290.8ZM60.1001 301.6H58.3999L56.3999 301.1L55.1001 300L54.8999 299L57.2 297.8L59.5 297.1L60.6001 298.4L60.7 300.5L60.1001 301.6ZM5.69995 372.6L4.19995 373L3 372.7L3.3999 369.8L4 369.3L4.8999 369.1L5.8999 370.7L5.69995 372.6ZM7.8999 395.9L8 399.4L6.3999 399.1L5.69995 397.8L5.5 396.9L5.6001 394.9L5.19995 392.8L5.69995 391.7L6.30005 391.6L7.30005 393.5L7.8999 395.9Z" stroke="black" stroke-width="4" stroke-miterlimit="10"/>
<path d="M337.5 217.2L332.9 218L329.5 216.3L327.8 217.1H324.8L321.4 217.8L320.2 219.1L319.3 219.6L316.1 217.8L313.1 214.8L310.9 217.1L309.5 217.5L308.2 215.4L307.1 215.1L306.5 215.8L306 217.7L305.2 219.1L305 220L304.9 223.7L304.7 224.5L301.8 224L302 225L302.6 225.5L302.9 226.1L301.8 226.9L298.9 226.8L298.6 227.6L299.4 228.9L298.8 230.1L298.2 230.6L294.8 231.3L292.8 231.1L292.2 231.9L292 232.9L292.4 233.9L293.3 234.4L293.6 235L293.5 236.3L292.8 236.5L290.7 234.2L290.1 234.3L290.6 235.5L291.8 236.8L292.5 238.1L293.1 239.7L293 240.9L290.4 244.8L288.1 247.3L286.4 249.5L285.4 251.9L286.6 253.1L287.9 254.8L288.8 258.1L289.9 261L292.1 263.8L291.7 265.4L291.2 266.6L287.6 269.3L283.5 273.4L279.1 283.8L277.6 285.2L273.7 286.9L272.3 288.6L269.4 290.6L264.4 292.3L262.1 294.7L261.1 297.2L260 297.4L258.9 296.4L257.4 295.7L257.2 297.3L257.3 298.5L254.9 296.8L253.8 298.4L252.9 301.1L249.4 304.7L245.6 304L245.2 304.6L246.2 305.1L246.3 305.7L245.6 306H244.6L243 306.7L242 306.6L241.5 308.3L240.7 310.3L238.6 311.1L237.5 311.3L237 312.5L240.3 312.7L240 313.7L239.9 314.7L239.6 315.7L235.9 317.2L235.3 318.4L234.5 319.1H232.8L232.9 318.4L233.2 317.6L230.7 317.7L229.9 316L229.4 316.4L229.7 317.8L230.3 319.2L231 321.3L230.4 322.6L229.7 323.3L230.2 323.9L231.5 324.4L232 325.2L230.4 325.9L228.5 328.3L226.5 328.4L225.3 330H224L222.9 329L221.2 328.2L220.7 329.7L220.6 330.8L221.6 333.7L223.4 335.9L225.1 336.9L223.9 337.6L223 339.1L221.9 343.6L221.3 345.4L220.7 348.5L221.1 351.1L221.4 352.4L222.2 354.1L219.9 353.9L217.5 352.9L217.8 355L216.3 357.5L216.6 359.7L216.9 361.1L216.4 363.4L217.1 364.1L217.5 365.5L216.9 366.5L217.2 367.4L217.3 370.5L217.8 375.4L217.6 376.4L218.9 380.6L218.6 382.1L218.4 384L220.3 385.8H222H223.7L224.4 386.2L225 387.5L225.5 389L226.9 388.9L229.1 387.7L230.5 387.4L231.5 389.7L234.1 392.8L235.6 394.2L238.2 394.9L240.9 397.4L240.5 400.4L241.6 401.4L244.8 402.6L245.9 404.2L246.5 405.5L247.3 406.6L248.3 409.9L248 412L246.7 412.7L243.6 414.9L242.2 416.5L241.1 417.5L238.1 419.7L237 420.1L235.9 421.2L234.9 421.7L234 421.4L230.6 423.4L228.3 422.8L227.3 421.8L227.9 417.8L227.5 416.5L227.1 415.8L225.6 416.5L225.9 418L223.3 418.1L220.8 416.8L220.5 419.4L215.2 417.3L213.7 417.8L211.4 416.7L209.9 418L208.1 417.5L206.8 416L205 418.7L201.2 419.5L197.6 419.9L199.3 420.8L207.4 420.6L209.7 421.3L212.7 420.9L215.3 423L217.2 423.5L219.4 425.9L220.5 425.3L222.3 425.4L224 426.1L229.3 426L231.1 424.3L233.7 424.7L235 424.3L236 423.3L237.1 423.1L238.1 423.3L239.2 422.5L240.1 422.2L241 422.6L242 424.5L239.9 425.5H238.4L237.7 428.7L236.8 430.1L236.2 430.8L233 432.1L230.9 433.8L228.4 435.2L227.3 434.9L225.7 436.3L222 437.9L220.1 440.1L215.9 442.1L213.7 443.7L207.9 443.8L202.3 443.5L200.5 444.3L202.3 444.5L203.6 445.2L205.1 444.9L208.6 445.3L210.4 445.7L212.7 448.3L211 449.2L208 449.9L209.1 453.6L210 456.1L208.8 457.6L208.7 464.3L207 464.4L206.3 467.2L206.8 468.6V471.9L207.1 473.9L207.9 475.8L207.5 477.7L204.8 482.2L204.9 484.3L205.4 485.5L205.8 487.5L204.6 491.3L203.8 494.5L202.8 497.2L200.5 500.4L199.4 502.8L196.7 510.2L195.4 511.7L193.8 512.8L192 511.8L190.3 511.2L188.3 511.3L185.1 512.1L180.3 511.5L175.6 511.8L174.4 512.5L175.1 515.2L173.4 515.5L171.7 514.7L170.2 515.6L169 516.6L166.6 518.9L165.8 520.3L165.6 523L166.9 525.4L168 528.2L165.1 531.6L163.5 531.7L158.8 530.8L150.4 532.9L142.9 531.2L143.8 529.4V528.1L144.2 526L144.5 523.9L144.4 522.5L143.8 521L142 519L137.8 512.3L136.6 509.5L135.7 508.3L136.3 508.2L139.8 509.7L140.6 509.5L141.4 508.9L140.4 506.7L139.5 505.7L138.9 504.2L140.9 503.8L142.4 503.9L143.5 502.2L142.9 499.5L141.3 498.7L140 498.3L137.5 494L134.9 491.8L130.2 483.2L128.5 477.2L126.9 477.8L126.1 475.2L125.5 472.7L125.4 470.9L122.9 469.8L122.8 468.5L122.4 462.7L119.7 461.9L118 458.7L117.7 452.5L115.9 451.4L114.5 451.7L114.6 450.2L114.9 448.7L114.1 442.9L113.8 437.6L113.1 436L112.7 434.1L113 432.5L113.5 431.6L115.2 431.4L116.8 432.8L118.2 436.4L119.5 436.9L121.2 436L122.4 433.4L123.1 429.4L123.9 425.6L123 421.5L122 417.9L121.9 416.8L124.6 413.8L125.4 411.3L126.3 408.9L127.3 408.1L128.7 407.9L130.4 407.5L132.5 405.9L134.4 403.8L135.8 401.8L136.3 397.9V395.9L136.9 394.4L137.5 391.5L136.9 388.7L135 384.4L132.7 378.3L132.3 375L133.3 374.4L135.3 373.8L139 373.6L139.4 373.2L139.8 371.7L140.7 369.7L141.6 368.2L142.2 366.1L142.5 364.2L140.4 361.3L137.6 358.4L135.7 357.4L132.3 354.9L129.9 352.8L131.3 344.8L132.3 338.8L132.5 337.3V335L129.2 325.3L129.3 323.1L129.6 321.1L129.2 317.7L129 314.7L129.6 313.8L130.9 312.1L129.6 309.4L129.5 309.2L127.1 302.6L130.8 296L130.2 292.6L132.4 290.1L136.4 284.4L138.6 281.2L139.1 280.6L140.9 279.2L144.3 277.5L148 276.7H149.7L156.1 277.9L161.1 278.8L161.8 277.9L162.8 276.1L164.2 273.5L164.3 270.6L163.8 266.3L163.1 263.7L159.6 262L155.7 259.7L160.4 252.3L163.7 247.1L167.8 239.3L169.1 236L170 234.7L171.2 222.5L172 219.1L172.7 217.3V215.5L172.3 212.4L171.2 205.3L177.7 204.4L179.8 203.9L181.8 203.1L185.6 200.9L187.5 198.9L186.4 192.1L188.7 189.8L194.3 181.8L200.4 174L203.3 171.1L203.6 169.6L203.8 167.3L202.5 163.6L201.1 161.3L198.4 157L199.6 154L201.6 153.4L204.2 152.2L206.2 149.6L206.4 149.3L209.8 139L216.5 133.7L219.2 130.8L223.3 133L229.4 136.3L232.1 131.5L233 129.7L233.9 127L233.5 122.4L233.4 116.4L233.7 114L236.1 112.9L237.4 112.6L244.2 115.1H245.9L249.1 115.4L252.7 116.5L260.2 119.4L263.3 120.6L265 120.8L266.5 119.5L269.7 116L265 113.4L268.1 110.8L269.7 108.1L271.1 104.8L271.6 101L271.4 98.9L270.5 97.5L267.6 94L274.1 93.5L276.3 93.4L281 95.7L281.2 96.2V97.4L281.4 98.6L286 101.8L287.3 103.5L290.1 106L290.8 107.4L293.4 109L295.3 110.7L297.5 112.1L300 114.3L303.4 116L306.3 116.6L313.6 119.5L314.8 120.4L316.9 122.4L319 124.7L320.5 129.5L322.8 129.7L323.4 131.3L325.5 134.1L328.3 136.6L328.2 137.4L325.9 139.7L325.7 142.8L325.9 146.7L326.6 149.9L326.5 150.8L325.9 151.9L325.2 153.6L325 155.1L325.1 155.8L325.3 156.2H326.5L328.6 156.5L329.8 157.2L330.5 160.8L330.3 161.5L328.5 163.1L328 164.4L327.9 166.3L328.2 168.4L328.8 170.7L330.2 173.2L332.1 175.8L333.4 177.9L334 179.4L334.2 180.4L333.3 181.7L332.5 184.3L332.4 187.2L332 189.1L330.3 191.7L329.1 192.6L328.8 194L328.7 196.3L329 199.1L329.1 201L329.5 202.3L330 203.2L332.7 204.8L334.2 208L335.1 210.6L337.5 217.2ZM241.4 420.3L241 421.3L240.6 420.1L240.8 419.9L241.1 418.7L241.9 418.1L243.2 418.5V418.8L241.9 419.7L241.4 420.3ZM238.3 433L237.5 433.3L237.1 433.2L237.6 431.9L238 431.3L239.2 430.8L239.6 430.9L238.3 433ZM251.1 464.1L250.8 465.8L249.9 465.7L249.1 464.4L250.7 462.5L253.2 462.6L254.1 463L251.1 464.1ZM249.7 466.4L248.3 467.1L247.5 469.1L246.3 469.4L245.2 470L244.8 476.1L246.8 478.4L245.7 478.7L244.7 479.4L244 480.4L243.3 482.6L240.5 483.8L239.5 484.7L237.9 486.7L237.1 489.7L235.5 491L233.7 491.3L234.7 488.9L236.1 486.9L234.8 485.5L234 483.4L233 481.8L233.8 480L233.4 477L233.5 474.1L234.7 472.6L236.1 471.4L238.2 468.6L240.5 466.6L243.7 465.7L245.1 466.5L245.7 464.7L246.7 464.3L247.7 464.7L249.7 466.4ZM205.7 508.2L204.8 509.5L204 509.4L203.5 507.6L203.4 503L203.7 500.7L207.5 492.5L209.2 491.8L211.6 486.7L212.2 484.4L213.2 482.3L213.8 480.5L214.3 479.7L215.4 480L215.9 480.3L214.7 481.4L214.8 482.8L214.7 483.4L211.8 489.4L211 493.3L210 494.2L205.7 508.2Z" stroke="black" stroke-width="4" stroke-miterlimit="10"/>
</svg>
