<svg width="2823" height="1215" viewBox="0 0 2823 1215" fill="none" xmlns="http://www.w3.org/2000/svg">
<path d="M422.4 325.2L420.7 329.6L420 331.8L419.7 336.9L419.9 339.2L421.1 345.2L422.5 348.8L424.3 350.9L426.4 352.5L428.6 353.3L432.8 352.6L436.9 350.4L441.4 351.8L445.4 352.3L453.3 350.1L454.1 350.6L452.7 353.1L452.5 356.7L454.1 359.4L455.9 359.3L457.7 359.8L457.2 361.5L462.3 366.1L466.9 369.3L465.8 370.2L462.8 368.7L461.3 369.2L461.7 371.8L458.5 371.1L457.1 372.7L457.2 375L457.6 377.2V378.8L455.1 379.4L453.7 380.6L459.5 383.2L467.7 385.4L470 386.3L473.2 388.6L474.7 389.2L474.8 387.7L475.4 386.4L479.2 389.2L482.4 389.7H485.6L493.4 388.5L493.7 389.3V390.8L495.3 392L497.2 391.5L497.8 390.5L500.3 391.9L500.8 390.7L501.3 390.2L506.4 394.4L507.5 394.2L508.6 393L506.1 389.8L504.7 389.3L503.4 387.6L505.6 386.7L507.8 386.9L508.8 388.3L509.7 390.2L510.2 390.6L518.8 393.1L520.5 392.4L520.8 391L524 389.9L527.1 386.9L525.9 385.2L524.6 384L517.4 380.3L514.5 378L506.9 369.9L499.8 359L495.9 351.5L492.3 343L491.1 338.6L489.8 334.6L486.8 331.5L488.1 327.7L488.6 323.3L490.2 319.7L490.6 317.9L488.5 313.4L488.4 310.3L487.9 308.8L487.8 306.1L488.9 304.3L488.7 302L489.3 300.7L492.3 299.5L493.8 295.9L494.1 293.4L494.2 291.2L495.9 290.1H500.5L501.2 289.2L502.1 287.1L502.5 284.3L502.1 280.4L502.5 277.9L505 273.8L506.1 272.5L506.7 269.4L505.3 268.2L501.6 266.6L495.5 266L487.4 264L484 261.5L480.9 260.1L478.5 259.9L476.3 260.8L470.3 264.4L468.1 265.3L466.2 265.6L462.3 264.4L460.4 264.7L458.3 266.4L456.2 267.5L453.5 268.2L451.7 270.3L450.8 272.1L450.6 274.3L451.4 279L451.6 280.9L453.7 283.7L451.7 284.4L449.6 283.9H447.7L445.8 284.6L444.1 285.8L440.1 290L439.6 291.1L439.2 292.6L440.5 294.2L441.9 295.3L445.9 296L444.6 298.4L444.3 299.8L445 301.8L443 305.1L442.4 307.3L442.3 309.5L441.5 312.1L440.8 313.8L440.2 314.6L438.1 316.1L437.1 318.8L435.8 320.9L434.4 322.1L431.2 322L428 320.9L426.6 321.4L424 323.4L422.4 325.2ZM377 439.8L375.1 440.4L371.4 442.9L367.6 446.7L366 449.9L365.6 453.4L365.3 457V459.3L365.6 461.6L366 463.3L368.1 468.9L372 471.8L376.2 471.4L380.9 470L388.6 466.7L392.3 462L393.7 458.7L396.7 455.7L397.5 456.8L397.9 459.3L398.9 458.8L400 457.2L399.7 453.2L398 450.2L395.1 448L381.8 439.6L377 439.8ZM561.6 430.8L563.1 431.4L564.6 431.8L566.5 431.7L568.3 430.9L571.6 432.1L573.5 430.9L575.4 430.4L576 427.5L576.1 423.6L575.6 421.5L574.6 420.3L570.8 417.7L567.1 414L561.6 410.2L559.7 407.9L557.9 405.2L555.9 403L552.1 399.7L551.4 398.7L550.7 398.5L547.1 399.9L545.1 403.1L544 403.5L542.4 404.9L541.6 407.1L543.2 411.9L543.9 413L544.4 414.8L545.2 416.4L549.9 423.2L550.8 423.6L552.2 422.4L553.3 421.9L555.4 422.9L557.4 423.2L559.5 424.2L560.9 427.4L560.8 429.6L561.6 430.8ZM657.7 83.4L655.6 83.6L653.5 84.4L649.3 88.1L645.1 91.1L628.9 95.4L619.3 99.9L616 99.4L610.6 100.3L606.6 99.6L598.8 96.5L595 96L588.6 97L587.8 97.5L585.7 100L585.8 103.9L586.1 106.9L585.1 108.8L584.1 109.9L581.7 110.1L580.5 107.9L578.4 107.6L572.7 108.4L569.9 110.2L568.5 115.2L564.1 117.5L556.6 119.8L552.5 121.8L550.5 121.9L548.6 122.9L544.6 127.6L540.6 131L534.4 134.4L534.6 137L535 138.6L529.6 143.7L528.3 146.8L527 152.5L526.6 153.4L521.3 151.5L517.6 150.9L515.9 151.4L513.4 152.8L512.8 154.1L513.1 157L513.9 158.9L508.6 167.3L507.1 167.4L505.4 165L503.7 163.5L501.5 162.2L499.3 161.8L497.3 163.3L495.4 165.8L495.6 167.8L496.3 169.6L498.6 172.7L504.5 172.1L506 174.4L507.2 175.3L502.4 178.7L497.1 184.4L492.7 192.2L491.4 193.8L491.9 195.9L492.8 197.8L494.4 198.6L497.8 198.5L501.1 201L500.1 201.8L488.7 204.3L487.4 205.2L481.9 217.9L480.1 221L478.6 222.8L476.9 226.1L475.3 230.1L474.7 230.5L470.9 231.3L467.2 233.9L463.6 237.3L461.7 238.4L460.2 240.2L461.5 243.8L467.8 251.9L466.5 255.1L469.4 261.8L474 258.3L477.5 256.7L481.6 256.5L486.3 259.7L490.9 261.5L499.3 262.1L502.7 263.7L506.2 264.6L509.7 264.2L515.4 261L518.3 253.9L523.9 248.4L525.3 245.9L524 241.3L521 237.7L521.4 236.5L523.7 237.2L526.4 239.8L527.3 240.2L529 240.1L530.5 238.2L531 235.8L530.7 233.3L529.4 229.3L529.2 227.2L540.8 221L543.8 215.7L544.6 212.3L544.3 210.2L542.9 205.1L541.9 202.8L542.5 200.9L549.3 202.9L551.2 201.6L552.3 200.4L553.1 198L553.3 194.7L553.7 191.7L554.7 190.2L560.8 194.6L562.2 194.8L563.6 193.3L563.9 191.8L563.3 190.1L563.5 187.3L567.6 187.4L569.3 186.8L571.8 184.5L573.2 182.2L575.6 180L576.7 178.4L575.9 176.1L572.2 174.7L572.8 172.6L576.2 169.9L577.2 169.6L579.3 169.8L580.4 169L582.3 166.6L584.1 163.6L587.7 160.2L589.5 156.8L591.4 154.8L593.7 155L595.9 154.5L603.7 148.2L620.6 139.5L625.3 137.9L631.2 134L633.3 133.8L641.7 131L650 126.9L657.9 123.8L665.1 119.9L676.5 115.1L683 111.3L687.1 109.8L691.1 107.6L695.2 104.3L702.1 99.6L709 96.7L710 94.9L715.8 86.4L721.7 78.6L721 76.2L721.6 73.1L722.5 70L722 66.6L721.3 64.7L718.3 59.5L714.6 55.4L706.5 51.7L700.2 50.3L698.2 50.5L693.5 53.4L686 56L677.6 62.7L672.7 67.5L670.9 71.2L669.2 76L667.3 78.2H665.3L663.4 78.9L659.6 82.1L657.7 83.4ZM450.5 367.7L450.3 365.2L449.4 364L448.2 364.2L446.8 361.8L445.2 358.4L443 356.8L442.2 356.6L442 357.2L442.2 358.8L440.3 357.5L438.5 357.4L434.8 358.7L433.8 360.2L434 362L434.7 362.7L437.1 364.1L439.2 363.6L442.5 366.8L443.4 369.8L444.2 371.1L446.2 372.6L447.1 374.5L447.4 376.4L449.1 375.8L448.8 375L447.8 373.6L448.2 372.1L450.5 367.7ZM1200.2 100.8L1200.6 98.2L1199.2 97.3L1194.7 95.6L1192.6 97.7L1186.3 96.3L1183 99L1179.3 96.6L1178.3 98.3L1178.1 101.2L1184.5 102.5L1187.4 104.6L1192 104.9L1195.3 107L1196.2 103.6V101.5L1198.6 100.2L1200.2 100.8ZM1205.2 92.5L1204.5 93.1L1204.4 94.4L1202.8 98.5V101.6L1203.1 102.3L1203.9 102.8L1204.9 102.1L1207 99.8L1208.4 95.7L1208.3 94.9L1207.4 93.2L1205.2 92.5ZM1212.6 71.4L1213.1 75.3L1214.6 77.7L1216.4 78.1L1217.3 77.2L1213.7 70.4L1212.6 71.4ZM1390.3 29.5L1388.4 28.4H1386.3L1384.6 32.3L1385.2 35.5L1387.1 35.4L1391.7 33.7L1391.4 31.6L1390.8 30.3L1390.3 29.5ZM1029.1 181.6L1033.2 182.6L1034.7 180.9L1036.6 176.5L1035.4 174.1L1034.5 173.6L1030 175.2L1028.6 174.2L1027.8 173.5L1026.1 175L1023.1 176.5L1021.9 179.1L1024.2 181.5L1029.1 181.6ZM2031.3 1053.7L2029.9 1052.3L2026.9 1049.7L2025.3 1046.8L2024.1 1043.9L2023.5 1041.2L2022.8 1038.5L2021.8 1036L2020.2 1030.7L2016.2 1021.9L2014.8 1016.7L2011.3 999.5L2010.5 998.8L2010.2 998.3L2010.1 995.9L2009.9 994.3L2009.3 993.1L2007.6 991.6L2007.2 990.4L2007.1 987.7L2006.3 985.2L2005.3 982.9L2004.7 979.6L2005 973.2L2005.5 971L2006.6 970.1L2007.1 968.9L2007.6 966.9L2007.7 964.8L2007.6 958.4L2007 954.2L2006.5 952.2L2005.9 950.3L2003.7 945.6L2000.6 938L2000.9 937.6L2000.5 935.9L2000.8 934L2001.5 932.2L2001.8 930.8L2001.6 929.4L1997.9 923L1996.7 922.4L1996.2 923.9L1995.3 925.3L1994.2 925.9H1990.5L1992.8 929.2L1996.3 933.7L1996.9 935.5L1996.5 937.5L1995.8 939.5L1996.6 939.7L1996.4 941.1L1994.2 941.6L1993.4 943.2L1994.7 944.4L1993.7 946.6L1991.9 947.5L1991 947.7L1990.1 947.6L1987.7 945.7L1987.1 945.4L1984 946.4L1982.1 948.1L1981.6 949.3L1981.9 954.2L1982.5 956.6L1982.2 962.6L1981.3 968.4L1980.3 970.8L1979.2 973.1L1978.8 975.2L1978.9 983.3L1979.8 985.4L1981.3 986.8L1980.7 987.7L1979.8 988.1L1980.7 989.2L1982.5 990.6L1984.8 993.2L1986.3 995.4L1988.3 1000.2V1005.4L1987.3 1007.9L1986.5 1010.5L1985.9 1013.9L1986 1016.6L1987.2 1021.3L1987.4 1023.5L1987.2 1038.2L1986.6 1041.1L1985.9 1044L1985.1 1049.2L1984.4 1051.6L1982.5 1056.6L1982.6 1057.7L1983 1058.8L1985.3 1062.7L1987.2 1066.8L1988 1072.9L1987.4 1075.3L1986.1 1077.4L1985.1 1079.7L1984.2 1082.2V1083.2L1984.6 1087.4L1985.2 1089.6L1985.6 1091.8L1985.1 1094.2L1982.6 1101.4L1982 1106.6L1983.5 1112.5L1983.7 1114.2L1984.2 1115.8L1985.1 1116.9L1986.2 1117.8L1987.4 1116.1L1988.4 1114.2L1990 1108.5L1990.8 1106.3L1991.8 1104.3L1993 1102.4L1994.7 1101.2L1995.7 1100.9L1996.7 1101L1997.7 1101.9L1998.5 1103L1999.1 1103.3L2002.9 1103.6L2007 1104.3L2008.2 1106.1L2008.5 1108.6L2009.3 1111.5L2009.5 1115.6L2010.1 1114.7L2010.4 1113.7L2010.5 1112.5L2010.8 1111.3L2012 1108.5V1107.5L2011.3 1103.9L2010.4 1100.1L2009.7 1099.2L2008.6 1098.9H2007.5L2005.7 1099.2L2005 1098.1L2003.5 1094.7L2002.1 1089.9L2001 1087.7L2000.4 1086.9L1999.7 1086.3L1998.6 1085.8L1997.6 1085L1996.3 1083.2L1994.7 1080L1994.3 1078.8L1994.1 1075.6L1994.6 1071.5L1995.9 1067.7L2001.4 1052.8L2002.4 1048.6L2003.8 1046.5L2006.1 1045.1L2008.6 1044.5L2014.6 1044L2016.1 1044.1L2018.7 1044.8L2020.1 1045.4L2021.4 1046.3L2024.1 1049.4L2026.3 1051.3L2028.5 1053.4L2030 1055.2L2030.9 1058.2L2031.6 1059L2031.5 1055L2031.3 1053.7ZM2307.2 383.7L2308.4 382.9L2307.1 380.2L2305.7 378.4L2303.7 377.9L2303.6 378.4L2303.5 381.6L2304.7 383L2307.2 383.7ZM2315.4 452.8L2315.6 456.4L2316.4 457.6L2319.5 459.1L2321.2 461.1L2321.1 462.3L2320.5 465L2321.3 464.9L2322 463.8L2322.2 462.1L2321.8 460.2L2320.1 456.5L2319.8 452.9L2319.7 448.8L2319.3 445.6L2319.7 443.7L2322.6 442.7L2323.8 440L2323.9 436.2L2322.2 434.4L2321.9 434.2L2320.2 436L2318.7 438.3L2315 441.3L2314.5 444L2315.9 447L2315.4 452.8ZM2434.1 428.5L2436.7 431.2L2440.2 433.3L2450 437.2L2454.9 436.8L2455.7 435.9L2456 434.7L2456.6 430.2L2457.2 428.7L2458.7 428.3L2459 426L2458.8 425L2458 423.9L2440.4 418.2L2437.6 418.5L2435.2 419.9L2431.8 423.1L2430.9 424.3L2430.5 425.8L2431.1 426.5L2434.1 428.5ZM1469.1 80.3L1471.6 81L1473.3 84.4L1475.7 86.5L1476.5 86.4L1476.7 84.5L1477.2 83.5L1478 82.9L1477.5 80.2L1474.8 75.9L1473.3 74.4L1471.4 76L1466.7 75.1L1466 75.5L1466.6 77L1469.1 80.3ZM1682.2 236.1L1683.3 236L1685.2 234L1684.9 233.3L1683.4 231.5L1681.4 231L1679.8 231.8V232.8L1680.3 234.7L1682.2 236.1ZM1604.9 277.5L1609.3 275.2L1608.9 274.3L1606.2 271.8L1604.2 271.2L1600.7 271.8L1598.6 273.4L1601.2 277.4L1604.9 277.5ZM1912.6 348L1903.4 348.4L1901.4 349.5H1900.7L1899.9 350.1L1899.6 350.7L1899.8 352L1903 354.1L1904.4 353.9L1905.4 353.1L1906.3 352.8L1907.2 353.2L1908.9 355.1L1910.6 355.6L1914.9 351.7L1914.5 350.1L1913.2 348.2L1912.6 348ZM2407.9 909L2406.6 907.6L2403.9 903.5L2403.6 901.5L2404.4 899.7L2403.3 899.4L2398.4 898.7L2396.7 899.8L2395.3 900.1L2399.5 902.8L2400.8 904.2L2401.1 905.7L2401.7 906.9L2403.6 909.3L2405.2 911.1L2406.2 911.8L2407.6 912.1L2408.6 913.6L2410.7 915.5L2410.8 911.8L2409.5 910L2407.9 909ZM2202.9 1042.3V1044.3L2204.7 1044.9L2206.3 1043.9L2206.6 1043.1L2206.1 1040.4L2207.5 1038.2L2207.8 1036.8L2206.5 1036.4L2202.9 1042.3ZM2175.8 1077.4L2174.7 1078.9L2175 1079.2L2175.9 1079.4L2176.7 1078.2L2176.3 1077.2L2175.8 1077.4ZM2226.9 1010.9L2224.9 1012.6L2223 1017.3L2221.4 1019.2L2217.2 1019.9L2215.3 1021.6L2213.4 1021.5L2213 1022.3L2213.8 1023.5V1026.2L2214.6 1027L2216.5 1027.5L2217.4 1026.7L2218.6 1025.1L2220.2 1024.4L2223.4 1023.8L2225.6 1021.5L2227.7 1018.1L2228.7 1015.6L2229.1 1013L2228.6 1010.7L2226.9 1010.9ZM2233.3 1008.4L2230.5 1010.2L2229.7 1011.4L2230.2 1012.1L2232.4 1013.6L2233.1 1013.7L2233.8 1013.2L2235.2 1011L2235.3 1008.9L2234.7 1008.5L2233.3 1008.4ZM2219.1 1009.7L2220.7 1009.4L2220.8 1008.9L2220.6 1007.4L2219.4 1006.8L2217.6 1007.3L2217.9 1008.3L2218.4 1009.1L2219.1 1009.7ZM2160.6 1092.3L2158.4 1094.3L2155.4 1097.4L2152.8 1097.7L2152.9 1098.2L2153.4 1099.1H2154.5L2157.7 1096.8L2162.7 1091.5H2161.8L2160.6 1092.3ZM2194.4 1053L2193.8 1054.6L2192.1 1055.9L2192.2 1056.3L2192.9 1056.7L2193.6 1055.5L2195.7 1054L2196.1 1053.2L2195.6 1052.9L2194.4 1053ZM2054.9 1168.9L2054.5 1169.2L2054.6 1169.5L2054.8 1169.4L2055.2 1169.2L2055.5 1169L2055.7 1168.8L2055.5 1168.6L2054.9 1168.9ZM2059.8 1164.6L2059.4 1164.5L2059 1164.8L2058.8 1165L2059.1 1165.1L2059.9 1165.2L2060.4 1165.1L2060.2 1164.7L2059.8 1164.6ZM2057.6 1147.2H2056L2053 1151.9L2052.1 1152.4L2051.4 1153.5L2050 1154.8L2049.6 1156L2048.2 1157.5L2044.7 1160.1L2044.1 1161.3L2044.3 1162.8L2046.3 1164.3L2046.8 1160.6L2049.9 1158.7L2052 1156.5L2052.5 1155.4L2055.9 1152.5L2056.9 1152L2059 1151.8L2061.4 1149.9H2062.8L2063.7 1148.5L2060 1148.8L2057.6 1147.2ZM2052.8 1168.4H2052.5H2052.2L2052 1168.3H2051.8V1168.5L2052 1168.6L2052.1 1168.8L2052.2 1169.1L2052.4 1169L2052.8 1168.9H2053V1168.5L2052.8 1168.4ZM2102.8 1127.4V1126.8L2102.6 1126.3L2101.9 1126L2100.8 1126.1L2099.2 1126.9L2094.2 1131.1L2090.8 1131.6L2089.5 1131.5L2087.9 1129.1L2087.2 1129L2086.3 1130.7L2086.5 1132.3L2084.5 1133L2082.6 1135L2080.9 1135.6L2078.7 1138L2075.5 1139.8L2073.9 1141.7L2073.7 1143.8L2070.8 1145.8L2070.1 1146.9L2069.5 1149.1L2073 1146.5L2074.9 1146.1L2076.7 1143.5L2081.1 1140.2L2081.9 1139.1L2082.1 1137.9L2082.7 1137.2L2084.9 1137.6L2087.1 1136.9L2088.7 1135.2L2093.2 1132.1L2095.8 1131.5L2099 1130L2102.3 1129.9L2103.1 1129.1L2102.5 1128L2102.8 1127.4ZM2128.5 1111.7L2122.5 1115.5L2119.6 1118.6L2117.4 1119.4L2113.6 1124.6H2115.2L2117.8 1123.5L2121.2 1120.5L2122.4 1119.7L2124.2 1119.1L2126.6 1117.3L2127.3 1115.6L2132.8 1111.4L2129.3 1111.3L2128.5 1111.7ZM2068.3 1160.2L2064.8 1161.2L2064.7 1161.5L2064.6 1162.7L2065.9 1163.2L2066.4 1162.6L2069.6 1161.4L2069.3 1160.9L2068.3 1160.2ZM2134.6 795.3L2133.3 797.1L2131.2 798.3V798.8L2131.9 799.6L2133.3 799.3L2135.7 797.1L2135.5 796.3L2134.6 795.3ZM2375 793.5L2374 793.3L2368.5 797L2360.9 799.3L2361 800.5L2361.3 801.7L2360.3 805.4L2357.7 809.9L2355.1 811.6L2355.2 812.5L2355.5 813.1L2355.9 813.5L2358.7 810.9L2364.3 806.9L2369.8 804.2L2375.6 802.8L2376.4 800.4L2375.8 796.4L2375 793.5ZM817.3 284.4L819.9 285.7L820.8 286.6L821.2 286.1L821.8 284.4L821.2 283.3L821 281.3L822.7 278.1L826.5 276.6L822.4 274.3L820.2 273.6L816.9 273.2L813.3 274.3L812.3 276.1L811.6 278.8L813 281.1L817.3 284.4ZM742.7 276.9L745.8 277.5L747.2 277.3L752.3 274.9L756 273.7L764.1 271.5L768.8 270.9L768.9 268.3L768.2 265.3L765.7 262.3L764.1 260.8L762 256.9L760.4 255.3L758.4 253.9L757 253.4L746.8 255.3L743.3 257L740.6 261.4L741 268.3L740.4 271.1L739.4 273.3L739.2 275.4L741.3 277.8L742.7 276.9ZM894.2 292.2L903.7 294.2L904.9 293.6L905.5 291.2L905.6 283.8L903.4 280.6L902.4 277.8L899.1 275L890.3 285.1L889.9 287.2L890.9 289.6L894.2 292.2ZM2432.2 915.6L2429.2 913.6L2427.2 912.9L2425.8 911.4H2424.6L2425.4 913L2428.7 915.5L2435.7 920.2L2435 918.9L2432.2 915.6ZM868.2 301.3L866.2 305.2L864.3 307.5L860 311.1L859.5 313.5L860.1 314.4L864.3 315.2L872.7 314.7L875.3 313.9L879.2 309.8L881.7 308.6L885.3 305.4L885.1 304.3L883.8 301.9L874.6 298.1H871.7L868.2 301.3ZM1898.4 905.3L1894.9 907.4L1893.5 908.8L1894.4 909.1L1896.8 908.7L1898 909.6L1899.5 909.5L1901.6 905.1L1901.2 904.9L1899.8 905.3H1898.4ZM1916.3 906.3L1914.7 905.3L1914.2 904.9L1908.4 902.7L1907.8 903.6L1905.9 907.4L1905 907.8L1903.1 910.6L1902.4 913.2L1903.2 913.1L1906.4 911L1907.5 912.2L1909.9 916.6L1910.9 916.4L1912.1 915.6L1913.5 914.3L1915.1 913.3L1915.6 912.5L1916 910.4L1917.4 908.1L1919.3 907L1918.7 906.3H1916.3ZM2818.2 571L2816.3 570.3L2810.2 570.1L2811.1 568.9L2810.8 567.6L2810.2 566.3L2809.3 565.5L2808.3 565.4L2806.2 566.1L2804.1 567.2L2805.2 565.7L2806.4 564.6L2805.8 563.8L2805 563.3L2798.6 557L2794.8 554.7L2791.1 551.6L2787.5 546.3L2783.6 542.1L2779.5 540.5L2775.3 540.8L2772.3 539.8L2769.3 538.5L2762.6 537.1L2762.7 538.3L2769.9 540.4L2771 541.3L2770.5 542.1L2768.9 542.3L2763.3 541.7L2761.6 541.2L2760.1 539.6L2759.3 539.8L2758.7 540.7L2758.9 542.9L2759.6 544.6L2758.2 545.5L2756.7 545.1L2756.8 542.9L2757.1 541.2L2758.8 538.2L2759.8 537.5L2760 536.9L2754.2 535.5L2752.6 534.5L2751 534.1L2747.5 535.5L2737.8 535.6L2736 536.1L2735.9 537.1L2736.5 537.6L2738 538L2739.5 537.9L2740.5 539.3L2742.7 540L2743.9 541.5L2744.7 544L2745.1 545.8L2745.3 547.6L2744.4 550.9L2743 552.3L2741.4 553.1L2742 555L2743.6 556.5L2746.7 557.2L2748.1 558.4L2749.3 560.4L2748.3 562.9L2747.1 564.9L2746.1 565.8L2745.4 567.3L2744.9 567.9H2744.2L2745 562.3L2743.8 559L2741.7 559.8L2740.8 560.7L2738.9 563.6L2738.4 563.8L2738 562.8L2737.4 560.7L2737 558.4L2736.6 556.7L2734.7 554.9L2733.6 554.2L2730.3 553.8L2729.3 553.4L2730.3 549.6L2732 547.4L2731.8 542.4L2731 540.7L2730 539.2L2729.1 535.7L2729.2 531.5L2730.3 529L2730.6 525.9L2729.4 523.7L2727.9 522.6L2726.8 523.5L2725.8 524.9L2725.2 525.3L2721.4 525.6L2723.9 522.2L2723.8 519.4L2723.3 517.6L2722.5 516.2L2721.9 513.3L2694.9 496.1L2690.3 493.9L2688.1 492L2686.2 491.1L2684.2 491.4L2683 491.9L2682.1 491.2L2682.9 489.6L2684 489.1L2681.3 486.4L2671.5 479.2L2669.4 478.2L2670.9 480.1L2678.2 485.7L2679.3 487.3L2677.1 489.3L2674.8 490.2L2675.4 487.9L2674.9 485.3L2674.1 483.9L2671.6 482.2L2667.6 480.8L2663.8 479L2663 477.1L2662.7 474.4L2665.1 476.7L2666.4 477.4L2663.8 473.8L2660.6 470.6L2653.6 467.7L2652.3 466.6L2650.3 464.2L2649.5 464L2648.1 464.4L2644.6 463L2641.1 461.2L2638.8 460L2628.5 449.8L2622.9 448.3L2622.5 447L2622.2 445.5L2621.2 444.5L2614.2 441.7L2605.4 439.9L2596.1 435L2588 433.5L2579.1 428.3L2573.9 424.4L2570.7 422.9L2567.8 422.5L2559.9 424.4L2551.1 424.6L2543 423.5L2536.6 423.8L2532.9 423.1L2527.8 420.7L2526.3 421.7L2525 426L2521.2 424.2L2518 421.9L2512.7 419.8L2502.5 418.4L2490 415.1L2483.5 414.2L2476.9 413.7L2477.6 421L2477.2 424.5L2474.7 429L2472 431.9L2471.3 434.3L2478.6 436.1L2480.9 444.3L2483.8 449.5L2485.8 454.8V458.5L2477.9 467.5L2469.7 468.6L2461.8 469.1L2458.4 463.7L2456.6 457.2L2450.3 453.7L2444.1 451L2441.3 450.5L2439.2 449.2L2437.9 441.9L2436.5 436.4L2434.7 434.4L2433 431.3L2431.4 430.1L2427.4 429.6L2417.8 437.5L2414.6 439.8H2413.5L2399 437.9L2395.2 436.3L2373.6 435.3L2367.5 430.6L2363.8 429.9L2359.6 431.3L2356 431.7L2350.9 430.8L2346.5 432.2L2336.7 433.6L2333.1 435.2L2329.3 438L2322.2 444.9L2321.2 448.2V452.3L2322.7 458V464.5L2321.5 466.7L2319.3 467.8L2317 474.6L2314.8 478.3L2310.5 479.3L2312.9 476.5L2315.2 474.6L2318.8 464.4L2318.3 461.2L2315.4 458.9L2313.6 456.5L2312.7 446.7L2311.8 441.5L2311.5 435.3L2308.6 433.2L2297.9 430L2292.9 427.7L2291.1 424.1L2293 419L2292.9 415.1L2293.9 411.8L2295.5 409.1L2295.9 405.3L2295.1 400.3L2294.3 396.7L2292.4 392.3L2291.1 390.3L2284.6 384L2273.4 377.5L2261.9 372.8L2251.7 371.2L2238.5 370.3L2224.9 370.2L2219.7 372.8L2209.9 373L2199.3 375.7L2188.6 379.9L2182.8 380L2171.4 381.9H2166.4L2153.5 375.3L2157.6 374.4L2159.2 373.5L2153.4 364.7L2150.3 361.5L2142.7 357.5L2139.6 357.2L2137.1 358L2127.1 362.4L2124.6 364.3L2129.6 359.2L2132 357L2134.5 353.8L2133.9 351.8L2133.3 350.8L2124 351.2L2123.4 350.7L2121.4 347.9L2120.4 346.9L2114.2 344L2109.7 342.9L2105 342.8L2104.2 341.7L2104.7 340.3L2104.9 339.4L2106.3 337.9L2110.3 336.5L2120.7 335.7L2123.1 333.2L2122.8 330.6L2122.2 328.6L2118.8 323.9L2114.2 320.4L2104.9 316.2L2095.2 313.3L2078.5 311.9L2075.5 312.5L2073.2 314.2L2069.2 318.8L2060.1 331.9L2055 337.3L2050.4 340.2L2040 343L2038 342.5L2036.5 340.3L2037 338.4L2038 336.7L2038.1 335.6L2037.6 333.4L2037.9 332.2L2039 332.1L2041.5 333.6L2043.9 333.8L2049.9 331.4V327.6L2048.3 325.4L2049.1 320.1V318.7L2049.9 317.8L2050.6 318L2055 321.8L2056.5 321.6L2058.1 322L2054.2 331.1H2056.1L2061.1 326.8L2064.5 322.6L2068.1 317.2L2068.5 314.4L2064.4 314.1L2037.5 316.2L2027.7 320.3L2024.7 319.4L2022.5 316.2L2025.8 315.9L2029.7 314L2033 310.3L2035.1 309.6L2040.6 309.8L2045 311.3L2058.3 311.9L2058.6 307.4L2055.7 306L2049.3 304.7L2045.4 302.5L2040.4 301.1L2029.5 299.1L2024.9 297.5L2014.1 296L2011.2 294.8L1986.1 293.7L1976.7 290.3L1973.1 286.9L1964.4 285.2H1962.7L1962.1 286.1L1961.7 287.5L1967.2 293.7L1967.4 298L1969.1 300.1L1962.6 303.4L1958.2 304.7L1943.5 304.6L1941.3 306L1935.5 312.6L1935.6 315.8L1936.1 320.7H1940.5L1941.8 318.6L1943.7 317.7L1952.6 318.5L1953.5 319.4L1950.5 320.8L1947.6 321.4L1944 328.6L1939.1 330.8L1942.4 332L1945.4 334L1944.9 342.7L1949.1 349.4L1949.9 352.5L1943.8 352.6L1938.4 354.7H1936.5L1933 349.6L1929.1 346.2L1927.2 345.9L1924.7 349.3L1921.1 347.4L1919.6 347.7L1917.6 349.1L1916.4 351L1915.5 353.9L1914.3 355.5L1914.2 357.6L1916 358.5L1917.3 358.7L1921 360.2L1917.1 361L1916.1 362L1915.8 363.1L1912.9 364.6L1913.9 366.1L1915.1 367.3L1915.4 368.5L1914.5 368.9L1912.1 367.5L1909.6 365.5L1905.6 361.3L1903.8 358.5L1900.3 355.9L1888 348.7L1882.5 346.4L1879 345.9L1873.4 346.8L1869.9 349.9L1864.1 351.2L1860.5 353.7L1858.6 357.1L1848.2 357.5L1841 355L1836.5 352.4L1831.4 347L1826.4 340.1L1825.8 339.5L1825.2 338L1824.3 334.6L1823.2 332L1821.6 333.5L1817.5 341.5L1815.8 345.4L1813.6 352.8L1812 359L1811.8 361.6L1812.6 363.9L1810.4 365.8L1808 370.4L1804.4 379.4L1802.2 382.7L1799.4 385.5L1797.5 386.5L1795.2 386.3L1793.1 383.7L1792 377.8L1790.7 376.6L1789.2 379.9L1786.9 379.7L1782.5 377.2L1778.1 371.9L1773.5 369.4L1767.1 356.4L1764.2 351.6L1762.6 347.7L1758.9 347.3L1757.5 344.4L1759.3 342.3L1764.2 340.6L1768.1 340.9L1765.2 335.7L1763.8 332.5L1762.3 330.8L1762.9 334.3L1762.2 336.8L1760.9 338.8L1758.7 340.1L1749.1 324.3L1743.3 316.5L1740.1 313.7L1738.1 308.6L1739.4 307.6L1746.2 313.6L1751 316.7L1759 324.7L1765 324.1L1767.2 320.5V313.3L1765 307.4L1762.1 305.1L1752.3 304.6L1750 302.7L1751.6 302.1L1753.8 302L1756.9 300.2L1762.1 295.7L1764.4 294.3L1764 290.8L1760.3 286L1754.4 285.3L1753.1 284.8L1755.5 282.4L1757.5 280.9L1761 277.2L1761.8 273.8L1761.1 274L1758.6 273.8L1757.9 272.3L1758.2 269.7L1755.5 267.5L1753 266L1747.3 265.7L1747.4 264L1747.7 262.5L1745.3 261.4L1743.3 259.4L1742.8 257.6L1742.1 256.6L1738.4 254.7L1726.2 251.3L1724.9 252.3L1722.9 257.2L1717.9 262.3L1714.2 259.5L1713.4 259.2L1712.8 257.9L1713.7 255.6L1714.3 253.4L1713.4 251.8L1712.7 251.2L1710.2 252.8L1706.4 253.8L1704.8 255.3L1701.4 256.4L1701.7 252.6L1687.5 242.6L1683.1 240.5L1680.5 240.3L1674.1 242.5L1672.6 243.7L1670.2 247L1664.9 244.9L1663.6 246.4L1661.7 251.8L1662 257.1L1662.6 258.6L1663.1 261.4L1665.1 265.8L1667.2 269.3L1666.3 270.1L1665.4 270.3L1664.4 271.8L1663.4 274.8L1661.6 279L1659.2 281.4L1656.4 280.9L1649.8 277.7L1648.3 278.3L1647.9 280.6L1651.9 282.6L1652.3 283.8L1651.3 284.6L1648.6 285.3L1643.8 285.2L1639.8 284.4L1637.3 281.2L1634.9 280.8L1628.1 280.7L1621.9 282.4L1615 280.2L1603.3 280.7L1600.3 280.3L1594.7 276L1586.7 273.3L1577.5 266.7L1576.6 260.5L1578 255.5H1583.1L1586.2 254.6L1585.8 252.7L1585.1 251.7L1577.8 249L1558.1 248.5L1544.1 244.5L1524.1 243.1L1515.1 248.1L1502 249.3L1498.5 252L1492.5 253.5L1493 257.2L1496 260L1497.4 260.6L1499 261.7L1498 262.7L1496.9 263.1L1494.7 265.4L1493.3 267.5L1493.7 272.1L1493 276.5L1490.8 282.6L1489 285.3L1487.3 288.9L1488.7 292.2L1490.3 293.6L1494.4 295.3L1495.8 296.4L1495 297.4L1488.9 296.3L1486.7 292.7L1486.2 290.8L1485.7 287.8L1487.8 284.5L1489.9 282.3L1491.7 277L1491.9 272.1V261.9L1488.2 259.6L1486.1 256.1L1489.7 249.7L1490.6 246.3L1489.1 243.2L1486.6 236.4L1484 232.4L1482.3 230.7L1480.6 229.8L1482.4 236.5L1481 239.9L1480 241.2L1473.2 243L1468.8 243.1L1462.9 241.2L1455.9 236.9L1454.2 233.9L1453 229.5L1457 227.6L1458.6 226.3L1455 225.3L1451.4 225L1450.1 231L1447.7 230.5L1436.3 226.8L1433.2 228L1429.5 231.4L1427.9 234L1426 238.3L1426.7 241.3L1427.5 242.4L1433.3 243.1L1438.4 242.2L1444.2 239.4L1445.5 240.5L1446.7 242L1445.1 244.2L1439.1 247.3L1429.2 255.4L1425.4 256.4L1420.1 254.7L1417.2 259.2L1415.9 260.3L1407 263.3L1403.1 263.8L1402 266.1L1399.7 266.5L1397.1 267.6L1392.8 270.8L1386.2 271.3L1381.7 270.6L1370.8 272.5L1368 274.2L1366.2 276.5L1365.3 279.4L1363.7 282L1357.5 287.7L1352.2 290L1347.7 290.6L1352 287.4L1356.9 281.5L1365.7 263.8L1374.2 262.6L1376.2 260.2L1382.6 249.2L1384.4 247.6L1392.9 247.4L1400.4 243.8L1415.5 225.9L1423 222.9L1428.2 218.6L1429.1 216.5L1429.9 213.7L1429.1 212L1428.7 210.4L1435.4 207.3L1438 202.5L1447 198L1454 191.9L1463.8 187.4L1469.4 181.1L1482.1 171.9L1494 156L1495.9 146.8L1493 143.8L1489.5 141.9L1487.6 137.3L1486.2 136.8L1482.6 139.7L1478.7 129.9L1473.9 124.4L1474.1 123.6L1474.6 123.2L1476.9 124.1L1485.5 132.3L1490.1 133.5L1491.4 134.8L1492.2 136.9L1491.7 140.3L1493.1 140L1494 138.6L1496.2 132L1498.3 123L1498.1 119.1L1493 120.9L1490.7 107.5L1489.6 103.4L1488 98.9L1484.8 98.5L1483.1 99.6L1484.5 101.1L1486 103.6L1485 106.1L1484.2 107.3L1480.3 110.7L1477.5 111L1478.6 109.6L1479.9 106.4L1478.9 102.9L1477.9 100.9L1476.8 90.7L1473.2 89.2L1471.2 87.5L1468.5 88.2L1465 90.9L1466.3 88.4L1467.6 84.7L1464.9 80.1L1462.3 76.9L1459.1 75.7L1455.5 71.6L1450.7 69.3L1439.6 67L1431.1 70L1420.5 67.6L1407.9 69.5H1403L1400 68.3L1397.4 69.5L1396 73.2L1395.2 79L1392.1 82L1390.4 82.8L1382.3 81.9L1376.5 84.7L1374 82.5L1369.3 82.7L1368.8 77.8L1371.6 78L1373.2 78.8L1378.4 68.8L1382.7 62.9L1386.8 56.1L1384.2 51.9L1378.4 49.1L1375.7 49.3L1374.3 50.5L1368 48.3L1364.7 48.5L1359.1 51.6L1357.2 51.3L1356.1 44.8L1350.5 45.3L1331.2 44.7L1333.3 42.7L1343.5 39.9L1351.7 35.7L1357.7 28.1L1363.3 25.5L1362 21.7L1360.5 18.9L1357.3 16.4L1350.4 14.8L1344.5 11.7L1341.9 7.79999L1331 2.40002H1328.1L1320.3 9.20001L1316.3 8.59998L1312.8 9.59998L1303.8 17.6L1284.9 38.4L1281 44.8L1279.1 49.6L1275.7 52.1L1274.2 57.9L1274.4 63L1275.9 65.6L1277.5 70.6L1275.9 76.3L1274.5 80L1275.8 81.7L1279.4 81.4L1287.5 84.6L1286 87.5L1281 85L1276.7 85.1L1272.9 82.1L1263.9 85L1257.2 84.3L1251 85.5L1238.8 83.1L1237.7 84.9L1240.5 88L1242.7 90.9L1249 97.7L1251.7 99.9L1255.3 106.3L1255.7 118.8L1253.7 121.8L1251.5 126L1250.3 126.8L1248.6 126.5L1251.4 123.6L1252.9 117.3L1254.3 112.9L1252.4 109.9L1251.6 109.6L1250.7 107.9L1244.2 103.7L1240.7 101.9L1237 100.9L1235.1 99.7L1229.6 103.5L1227 104.4L1224 106.4L1222.2 109.2L1217.9 109.8L1217.4 112.8L1215 115.8L1212.4 112.6L1209.9 113.5L1204.3 118.8L1197.7 121.2L1198.4 119.4L1199.5 115.3L1197.9 114.3L1188 119.1L1184.7 122.3L1183.1 121.1L1188.9 114L1190.4 109.6L1187.7 107.7L1181.8 106.2L1178 106.1L1172.5 107.7L1164.5 105.4L1163.3 108.1L1161.3 108.4L1156.4 107.1L1151.9 108.5L1148.5 111.4L1143.5 108.6L1141.8 108.7L1139.1 113.1L1136.8 110.1L1134.9 115.9L1135.4 120.1L1137.1 120.5L1138.5 119.9L1139.3 118L1140.4 117.1L1144.3 120.6L1145.5 118.7L1147.2 117.3L1149.1 119.4L1157.2 117.1L1155.8 119.9L1146.7 123.4L1130.3 127.9L1126.9 129.7L1117.2 131.2L1110.9 135.6H1102.7L1088.5 139.1L1078.3 146.9L1073.4 146.2L1063.4 152.1L1059.4 156.7L1045 166L1036.4 162.4L1033.5 163.7L1032 167L1032.3 169.6L1035.8 169.4L1038.3 170.5L1041.4 172.7L1040.6 176.8L1034.1 185.9L1031 189.3L1027.3 191.3L1019.5 183.8L1018.1 187.1L1017.1 188.7L1014 188L1012.4 193.3L1018 194.2L1023.3 196.6L1028.1 200.1L1031.5 204.1L1035.2 206.6L1037.3 208.8L1031.6 210.9L1027.6 206.1L1025.4 204.5L1022.9 204.2L1019.2 205.7L1016.1 211.5L1019.1 213.5L1025.9 215.4L1028.1 218L1037 234.9L1039.2 236.6L1042.1 237.3L1043.3 238.4L1039.8 241.3L1038.5 244L1035.5 248.7L1022.7 251.1L1018.9 252.9L1017.8 253.7L1016.2 255.4L1015.2 256.9L1014.7 260.3L1015.7 262.5L1018.3 264.6L1028.5 273.8L1027.8 274.8L1025 273.1L1021.4 270.3L1017.8 266.4L1013 263.6L1012.7 261.3L1012.5 257.9L1012.6 256.8L1013.1 255.1L1017.7 250.7L1022.4 248.5L1028.1 243.4L1033.8 237.8L1032.6 235.9L1031.4 234.5L1026.2 234.1L1015.6 236.1L1009.2 238L1006.4 242.6L1002.1 243.3L1000 243.4L994.1 241.1L988.6 243.2L975.6 245.1L973.5 246.1L943.6 246.5L937.6 247.5L922.3 251.2L921.9 254L922.5 256.1L920.1 259.2L919.1 262.1L919.5 265.5L919.6 268.5L920.1 272.4L921 275.9L923.2 277.8L925.2 279L926.7 282.8L925.5 287.2L923.8 292.2L923.5 294.5L924.6 297.7L925.9 304L926.4 305.5L931.1 310.3L934.3 311.8L939.5 312.1L943.1 313.3L948.3 316.3L949.8 317.6L950.3 318.9L951.5 324L952.2 325.6L957.8 332.6L959.7 333.7L967.4 335L969.8 337.2L973.2 343.9L973.5 345.5L973.8 348.1L973.4 350.5L973.1 351.9L971.8 354.1L968.5 362.9L966.5 370.7L969.6 375.9L973.8 385.9L975 390.1L976.5 395.7L975.9 399.2L975.2 401.3L972.4 404.5L968.9 405.5L965.1 407.4L965.5 409.8L966.1 412.6L965.7 414.7L965.2 415.4L963.1 415.6L961.3 414.9L959.7 412.8L958.2 410L959.2 407L962.3 401.7L964.2 394.1L964.7 389L964.6 383.6L963.9 380L961.5 377.3L959.2 377.9L956.7 380.2L954.3 389.1L951 395.6L950.5 398.3L950.6 400.6L950.4 402.1L949.7 397L949.4 393.2L951.3 388.4L952.4 383.9L952.1 380.7L950.8 375.4L951 372.8L951.4 371.1L952.2 363.5L955.2 362L962.5 356.2L963.5 354.7L965.7 349.6L966.7 347.8L967.9 344.7L965.7 342.3L963.6 341L959.7 340.3L956.1 340.6L948 343L940.8 342.6L938.2 341.2L926.9 330.6L926.2 326.6L925.3 324.9L924.2 324.5L920.3 321.9L911.3 318.5L902.1 310.9L885.9 310.2L881.5 311L877.1 313.4L873 318.2L871.1 319.5L868.4 319.9L867.9 321.6L867.4 323.9L868.8 325.6L873.8 323.6L877.9 324.7L880.1 327L881.7 331.4L880.9 333.5L873.8 336.8L869.9 336.5L861.4 328.8L858.1 327.4L850.3 328.7L845.1 332.5L843.5 333.3L844.7 337.1L846.6 344L848.3 348.1L850.4 350.1L858 355L862.2 356.7L868.6 361.2L872.5 361.7L876 360.6L881.3 363.2L884.3 371.4L886.1 374.2L887.8 375.6L890.2 376.4L891.6 376.5L893.1 375.4L896.5 375.2L895.3 377.5L894 378.2L886.8 379.2L883.3 378.4L878.9 375.9L870.6 367.7L860.3 367.1L859.1 369.5L855.9 366.1L845 365.3L838.5 363.1L831.6 359.6L831 357.9L830.7 355.5L833.1 352.5L834 350.7L834.6 345.1L830.2 337.7L830.7 330.8L832.8 329.6L835.5 320.6L837.1 317.6L838 316.6L838.8 314.5L837.9 311.9L837.1 310.3L836.2 306.7L836.4 304V300.6L834.2 295.5L832.4 290L828.6 287.2L825 287.1L823.7 287.9L822.3 289.2L824.2 294.2L826.1 298.7L827 302.2L827.6 308.5L827.5 316.1L826.9 319.2L825.9 321.8L822.6 325L817.2 328.8L814.1 330.7L807.7 332.7L803.1 336L793 354.7L794.1 357.5L797.8 360.5L800.3 363.1L801.5 365.2L804.2 371.9L814.2 390.5L814.8 393.8L812.4 399.7L807.7 407.2L805.9 411.4L801.5 427.4L801.2 431.5L803 435.3L805.9 440.1L806.9 443.7L804.9 452.8L805.9 455.1L808.3 456.3L815 455.1L822.8 457.3L826.9 456.2L833.2 451.1L835.6 450.6L843.2 451.3L854.3 456.2L866.1 462.7L868.5 464.9L871.7 465L874 476.1L876.1 482L877 486.2L877.6 490.9L875.4 491.9L873.5 492.4L871.9 493.7L869.7 500.9L869.4 504.7L870.6 510.8L880.5 513.6L887.4 515.1L892.2 515.4L893 516.1L893.6 517L887.8 517.4L877.4 518.1L873.7 517.7L872 517L870.4 514.9L867.2 512.8L866 511.4L863.4 509.7L864.7 503.4L864.9 488.6L864.5 482.5L862.3 477.4L855.8 470.1L853.6 465.2L851.1 461.9L848.6 461.4L845 462L836 465L828 466.6L818.6 471.1L816.9 474.8L815.4 484.4L817.5 489.1L819.6 492.5L821.5 498.2L822.1 501.6L822.2 505L821.9 510.1L820.3 512.9L809.9 523.7L808.4 527L806.6 536.2L805 539.6L800.2 544.6L797.2 546.6L781.2 555.7L780.6 557.7L779.5 564.1L775.1 567L772.5 567.2L766.4 564L762.8 563.1L759.1 562.8L745.2 563.7L739 561.5L734.1 558.4L729.1 557.4L725.3 554.9L724.4 552.6L723.5 549.5L722.8 547.9L722.2 547.1L723.3 546.1L725.7 545.6L734.7 546.1L737.1 544.9L738.3 545.5L740.8 548.3L744.1 550.8L746.9 550.4L749.2 548.3H750.1L751.1 548.6L749 550.3L746.8 551.5L746.2 552.3L745.8 554L748.9 556L751.7 557.1L755.4 556L757.6 553.9L762.4 550.8L765.8 550.9L766 548L764.2 543.6L762.8 540.5L768 541.3L771.1 538.7L784 516.7L790.1 512.5L792.1 509.8L793.6 506L794 501.8L793.2 497.2L793.4 493.6L795.6 489.1L799 483.7L801.2 481.7L800.9 479.7L800.5 478L794.3 472.7L787.8 468.3L785.5 465.9L783.7 462.1L782.8 457.5V454.5L783.3 445.2L784.3 440.8L784 427.7L782.8 411.4L781.8 407L783.4 403.9L785 401.4L785.8 399L786.3 382.8L785.8 376.5L783.7 368L775 360.9L771.3 354L771.6 351.5L772.1 349.8L775.9 347L778.5 343L780.2 337.1L783.6 328.1L784.5 324.9L786.7 312.2L787.3 305.4L787.7 295.2L784.6 292.6L781.4 290.3L775.4 288.4L772.4 288.9L767 284.8L765 284.2L750.4 285.4L742 284.9L737.1 285.8L734.5 285.7L732.9 285.1L733.1 283.4L734 282.2L733.7 281.1L732.3 280.9L728.5 282.2L722.4 296.4L718.8 310L714.9 328.2L712.5 335.8L709 343.8L703.6 350.1L696.4 356.4L691.8 359.3L685.6 362.3L683 368.8L680.8 371.5L681.7 373.3L684.4 372.3L682.9 376.9L681.3 379.7L681.5 381.3L682 383.4L684.1 384.3L689.6 382.5L690.8 384.2L692.1 386.9L691.4 397.5L689.9 406.5L689.7 409.8L690.6 411.9L691.3 414.6L689.7 417.9L688.4 419L685.9 418.6L684.3 426L683.8 430.3V433.7L684.4 435.8L685.4 438.1L686 436.3L686.5 433.8L688.2 432.2L697.9 436.8L700.5 439.1L704.5 441.2L705.7 443.7L706.5 451.4L710.6 458.4L713.8 462.5L715.8 464.1L717.6 464.5L720.4 462.9L724.1 463.1L722.1 468.5L718.7 478.6L713.1 487.4L710.8 488.8L707.1 485.2L702.2 482.3L699.7 480.8L698.1 478.2L689.6 471.2L687.1 466.3L682.9 465.5L677 463.2L676.1 462.7L671.3 459.6L666.6 457.9L665.3 455.6L661.7 453.9L658.2 452.8L653.1 450L650.8 450.9L651.4 447.7L645.6 443.1L638.7 439L624.4 433.1L611.8 430.2L596.9 429.4L583.9 425.6L582.1 425.8L580.4 426.9L576 432.4L571.1 434.1L569.3 436.7L572.2 442.3L577.9 456.7L581.3 455.2L582.6 461.7L580.6 465.4L577.5 469.8L574.9 472.1L569.2 473.3L564.6 473L564.1 477.1L565.4 480.9L565.1 482.5L564.7 484.5L564 485.5L563.5 486.1L561.7 487.2H559.6L554.5 485.2L550.9 483.4L551.1 476.5L553 473.5L554.3 472.8L555.5 471.6L552.9 467.1L551 465.2L550.1 462.1V460.7L547.7 460.8L537.9 464.4L535.9 467.8L534.8 465.5L522.2 475.6L516.7 479.1L512.9 478.6L507.9 476.5L501.9 476.3L497.9 475.3L495.8 475.8L491.5 478.3L487.1 478.6L482.5 482.1L478.6 486.3L477.5 493.1L475 493.8L472.3 490.3L470.8 489.5L469.4 490.3L466.6 490.6L464.3 490.9L462 492.2L461.1 492L454.2 490.9L452.3 491L449.8 490.6L450.4 488.8L451.3 487.5L455.2 486.6L457.3 485.2L459.7 486L461.5 483.9L461.3 479.8L458.6 475.9L459.9 472.9L460.9 469.1L461.6 468.7L462.3 467.4L461.4 466.3L459.3 465.8V464.9L460.6 464.1L469.3 462.6L471.3 461.5L466 461L459.4 461.3L452.7 464.7L440.1 472.1L434.2 477.1L435.8 477L437.8 477.7L439.5 481.2L440.8 482.1L439.9 484.4L436.5 486.2L435.2 487.4L433.9 487.9L432.8 487.5L431.5 486.6L432.3 484.8L433.3 483.2L430.6 480.3L429.3 479.9L428.3 480L421.8 482.5L416.9 485.4L412.4 487L408.3 487.5L405.9 488.8L401 492.7L397.9 494.4L392.7 498.7L379.3 506.3L375.8 507L373.8 506.4L372.3 505.4L371.3 506.2L372.5 508L374.5 511.7L373.7 513.6L370.6 513.1L364.1 514.8L357.1 517.4L357.2 520L357.6 522.3L356.4 526.1L355.2 529.1L354.2 537.8L353.3 540.4L350.5 542.1L336.6 546L334.2 546.2L333.2 546.9L332.4 546.2L329.8 545.3H326.1L324.4 544.9L322.7 543.5L320.4 539.8L317.1 532.4L309.8 528.6L306.3 526.1L305.7 523.7L306.3 521.2L313.8 513L316.5 510.3L327.6 507.9L332 507.7L336.5 506.7L336.4 501.9L332 496.1L327.3 489.3L322.7 481.8L316.3 479.1L308.7 477.8L293.1 479.3L290.9 479L280.9 473.7L279.9 473.6L278.5 473.9L278.9 475.4L279.7 476.5L292.9 487.8L293.5 490.7L293.9 494.6L293.7 496.2L294 497.8L293.9 500.8L290.6 513.4L287.5 522.3L286.4 526.5L286.2 529.3L287.5 531.8L291.3 532.6L295.1 535.2L297 538.8L297.4 541.3L297.5 546.6L298.4 551.2L295.4 558.2L293.7 560.9L291.6 567.2L292.4 571.6L292.2 573.3L291.7 575.3L290.2 573.8L288.9 572L287.2 570.4L285.4 569.8L283.4 570.2L282 571L282.1 569.2L283.9 566.4L283 564.9L282.1 563.8L276.6 560.3L272.7 560.1L269.3 560.4L265.8 560L263.2 557.8L260.8 556.6L259 556.4L256.8 558.4L251.6 566L246.3 570.9L239.4 574.6L234.2 575.8L232.8 576.7L229.7 581L226.5 584.3L217.7 589.8L217.1 592L216.5 595.1L217.3 598.6L219 601.9L223.3 608.6L225.7 610.9L227.3 614.4L228.5 618.5L227.9 619.3L224.4 618.3L221.9 618.8L218.3 621.6L218 622.8L216.7 625.5L213.4 625.7L204.5 620.8L196.9 618.3L195.7 618.1L194 616.9L193.5 615.9L190.3 616.1L188.4 616L186.6 615.2L178.3 607.2L171.6 604.2L170 604.1L167.1 604.9L165.4 611.4L163.1 613.2L161.1 613.1L161 616.3L161.9 618.2L162.7 619.6L165.2 621.8L169.9 628.5L172.4 631.2L174.2 632.2L176.6 632.4L182 631.6L183.8 632.6L185.7 634.2L186.1 638L187.6 641.9L187.7 644.1L185.9 646.7L180.1 648.6L176.8 651.3L175.6 651.2L168.7 648.1L164.2 646.9L158.2 645L157.1 643.9L154.4 638.7L148.5 633.8L145.8 632.3L142.1 633.4L139.5 632.9L135.2 630.3L132.3 626.2L132.1 621.2L132.9 620.1L133.7 619.5L131.6 618L131.5 614.1L131.1 611.6L128.8 605.3L126.5 601.5L124.3 597.3L126.7 595.1L127.9 593.2L129.6 587.7L129.9 585.8L130.6 584L130.9 582.3L130.8 580.6L129.2 577.5L124.2 571.1L119.2 567.6L109.8 564.1L107.2 564.3L106.3 563.8L108.3 563.2L110.3 561.8L111.4 559.7L109 558.6L107.1 558.1L103.9 556.4L103.3 554.8L104 553.7L103.2 550.9L98.8 550L97.7 549.4L97.6001 548.4L94.7 545.3L90.8999 542.1L91.5 538.8L88.7 536.4L86.3 534.7L82.5 534.1L81 532.9L89.7 533.2L98.8999 535.7L98.1001 536.7L97.3999 538.2L100.1 542.4L102.7 544.8L108.4 547.8H109.1L110.3 547L113.1 548.2L115.4 549.8L119.8 549.9L125.1 551.8L124.7 552.6L124.1 553.2L125.6 555.5L127.8 555.2L131.5 553.3L140.8 560L143.4 561.2L158.3 564.6L165.2 564.9L168.9 565.7L174.3 567.4L180.1 570.9L184.8 572.1L193.4 573.2L197.8 573L208.8 570.7L222.9 564.6L230.1 559.2L241.6 545.1L243.1 541.8L244.5 534L244.6 530.7L242.9 530.4L240.7 528.6V524.1L239.4 521.9L237.8 511.5L234.3 510.4L232.4 509.2L230.1 508.6L227.6 507L224.6 502.7L221.7 499.8L219.3 495.9L217.8 494.5L216.7 494L217.5 496L218.1 498.1L213.7 497.6L200.9 487.6L198.7 486.8L197.9 487.7L194 486.4L192.7 484L181.9 472.9L162.7 460.2L149.6 452.4L139.8 448.9L138.8 449.3L137.8 450.7L134.9 451.1L132.4 450.8L123.6 447.7L121.5 447.3L112.1 447.4L111.1 448.3L107.8 454.9L106 456.2L102.7 457.4L103.7 455.4L106 454L107.5 449.2L107.6 447.2L108.4 444.6L108.2 442.5L107 441.8L104.8 442.5L100 445L99.3999 444.3L100.8 441.7L100.4 440.7L98.3999 441.1L94.1001 439.9L89.6001 440.3L88.8 437.1L85.8999 435.3L84.7 433.8L86.2 432L96.2 434.9L99 435.1L100.4 434.1L100.7 432.2L100.6 430L99.5 428.7L93 426.4L90 423.7L83 420.1L82.7 421.8L83.8 425.2L83.2 426.3L81.1001 425.4L79.5 426.1L77.3999 430.1L75.3 431.1L73.7 431.4L66.7 428L63.6001 427.4L64.5 433V434.9L64.1001 436.8L63.5 437.8L62.3 438.2L59.3 438L55.2 435.8L52.6001 433.7L51.8 433.6L51.3999 433.9L52 436L51.8 437.6L51.3999 439.3L50.8 440.9L50 442.2L48.3999 443.9L45.6001 445.2L37.8999 447.8L37.3 448.9L34.8 456.1L34.1001 457.1L33.2 458L30.6001 459.2L29.3999 459.7L25.8 461.7L23.6001 463L21 464L21.7 465.3L26.1001 465.6L26.8 466L27.3 466.7L27.3999 467.8L27 469.5L22.3 478.9L22.2 480.9L23.7 486.4L25.8999 492.8L32.3999 495.6L37.3 497.8L40.3999 503L45.5 509.8L48.2 512.3L48.3999 513.1L47.6001 517.8L44.3 522.4L41.2 526.3L38 531L35.5 535L32.8 539.7L32.5 541.2V542.6L33 544.2L36.5 549.9L37.8 552.8L39.3999 555.9L40.8 559.3L41.6001 562.3L43 565.3L43.8999 566.8L45.3 568.9L47 572L47.6001 574.5L50.2 583L50.5 585.2L50.3999 586.8L49.3 587.2L46.8 587.4L44 588.5L43.8999 588.8L45.7 590.8L44.1001 594.2L43.8999 599L42.2 601.5L42 602.1L42.1001 602.6L42.3999 603L45.5 603.7L45.8 604.4V605.8L45.5 607.1L43.8999 608.1L42.2 609.5L41.8 610.8L41.8999 612L42.5 614L43.6001 616.3L45 617.7L50 619.1L50.6001 620.2L50.8999 621.7L50.8 623.2L48.5 626.2V627.3L49.3999 630.1L50.6001 632.7L55.5 635.5L57.2 637.1L57.6001 638.3L57.8 640.3V642.4L57.3999 644.3L55.8999 646.7L52.3999 651.5L48.8 653.4L48.6001 653.8L49.7 655.3L56 661.4L60.1001 664.2L65.6001 668L69.2 671L70.3999 673.2L71.8999 675.6L73.6001 677.6L74.8 679.3L75.3 680.4L75.2 681.6L73.5 685.1L72.6001 687.8L70.8999 691.7L69.2 694.4L64.8999 699.4L58.5 705.6L57 707.5L54 710.7L48.8999 717.2L47.6001 718.6L43.3999 723.7L41.5 725.3L40 726.8L35.8 731.6L31.3 735.2L26.8999 738.5L25.6001 740.2L24 741.5L22.1001 742.7L21.3 743.4L16.8999 747.9L10.8 754.2L17.3999 753.2L23.2 750L24.3 750.7L25.5 751.9L25.3 753.9L25 755.4L22.7 754L23.2 755.7L25.3 758.9L28.2 760.2L32.6001 764.4L37.8 764.9L41.2 764.1L43.8 764.3L46.3999 766.5L48.2 769.3L49.6001 770L51.5 771.3L51.2 772.9L50.6001 773.8L42.8 771.4L33.8 770.1L32.6001 771.2L31.5 772.9L30.8999 774.3L30.3 775.1L28.8999 775.6L26.8 775.8L24.3 775.5L22.8 774.6L21.7 775.6L21.2 777.9L19.7 779.1L17.6001 778.2L16.2 776.4L14.8999 776.5L14.1001 778.2L14.7 780.5L15 783.2L14.1001 785.2L15 786.1L16.2 787.5L16.5 788.3L16.1001 788.8L14.8999 789.2L14.6001 789.6L14.1001 790.4L12.7 790.5L12 791L11.2 793.4L9.6001 797.4L7.19995 800.4L5.30005 802.1L4.5 803.4L4 804.9L3.8999 806.4L5.69995 814.8V816.3L5.30005 817.9L5 819.5L5.19995 820.9L6.3999 823.2L7.69995 826.6L8.19995 828.8L9 829.6L9.80005 830.2L10 830.6V831L9.6001 831.4L6 832.5L5.5 833.5L5.1001 834.6L3.5 836.2L3 837.7L2.69995 839.4V840L4.69995 840.1L5.3999 840.5L5.8999 842.6L8.19995 844.3L10.3 845.7L10.8 846.3L11 847.5L10.8999 848.9L10.6001 849.6L9.69995 850.5L8.8999 852.7L8.80005 854.8L7.6001 858.4L7.8999 858.5L10.5 857.9L11.2 858.3L11.8 859.1L12 861.3L12.8 862.3L13.7 863.9L14 865.1L15.7 866.5L15.8 867.4L16.8 870.7L17.2 872.6L17.3999 874.1L16.8999 875.9L16.5 877.1L18.8999 879.4L19.5 879.5L20.8 878.6L21.1001 878.5L23.8 878.4L25 879.2L25.8999 880.8L26.8 882L27.7 882.3L30.3 880.7L31.8 880.2H32.8L36.2 881.6L37.8 882.4L38.2 883.1V883.9L37.8 885.1L37.5 886.4L38.5 888L39.7 889L42.3 887.3L43.2 886.8H44.2L45.6001 886.2L46.6001 885.2L47.6001 884.9L49.3999 885.1L52.7 884.9L56.6001 886.4L56.8999 886.9L58.8 888.7L59.5 889.6L60.1001 889.9L61.1001 890.8L62.5 891.3L63.5 891.1L63.8999 891.4L64.3 892.1V893.3L64.2 896.6L63.5 897.5L62.8 898.3L62.6001 898.9L62.7 899.6L63.8 901L65.2 903.2L65.5 904.5V905.5L63.6001 908.3L63 909L62.6001 910.4L62.3999 911.8L62.5 912.4L65.7 914.6L68.1001 915.8L68.6001 916.4L68.7 916.8L67.3999 919.2L67.3 919.8L69.2 920.8L70.2 922.3L71.1001 924.8L72.8999 927.2L76.8 929.3L79.6001 930.7L80.2 931.3L80.3999 932.1L80.2 933.7L79.5 935.7L79 936.8L80.1001 937.3L83.1001 937.2L86.7 937.6L91 939.8V940.8L90.5 941.7L90.8 942.6L91.3 943.4L95 945.8L95.3999 946.5L95.5 947.7L95.3999 948.6L94.3999 948.8L93.3 949.2L91.3999 950.2L90.7 951.7L87.7 953.7L85.8 954.6H84.3L80.7 954.2L79.5 953.2L79 952.3L77.6001 951.9H75.8L73.3 952.1L72.8 952.4L72.3999 953.5L71.3 955.4L70.5 956.5L71.1001 957.2L72.1001 958.6L73.6001 960.3L75.2 961.8L75.7 962.7V963.4L74.8999 964.2L75 965.8L76.5 967.9L76 968.2L75.8 970.8V973.5L76.2 974.2L77 974.7L77.7 975.7L78.8999 978L79 978.6H79.3L80.8999 979.3L82.6001 979.9H83.8L85.2 979.8L86.8 979L87.8999 978.2L89.3 974.4L89.8 973.9L90.6001 973.6H91.8L94.2 974.3L97 974.9L98.6001 974.8L102.9 972.8L105.3 972.5L108.1 973H110.9L113 972.7L114.4 973.4L116.2 974.9L117.8 977.2L119.5 981.4L124.4 986.1L124.5 987L124.1 987.6L121.7 988.2L119.7 988.5L119.6 989.3L120.1 990.2L121 991.5L121.1 993.1L121 994.6L121.4 995.9L122.2 996.4L122.3 997.1L121.4 997.9L121.2 998.4L121.5 998.7L125.9 998.9L128.1 999.7L129.7 1000.4L130.5 1000.5L132.4 1000L134.5 999.7H135.8L136.3 1000.2L136.7 1001.6L137.4 1003L138.1 1003.4L139.3 1003.3L140 1003.4L140.4 1003.9L140 1004.7L140.1 1005.6L140.6 1006.7L141.2 1009.1L141.8 1009.8L142.2 1010.7V1011.8L141.7 1012.7L141.3 1013.4L141.7 1015L143 1016.8L144 1017.3L144.8 1018.9L146.2 1019.4L148.3 1018L149.9 1017.3L151.9 1017.7L153.8 1017.9L155.1 1018.8L156 1020.1L157.1 1020.8L158.2 1020.4L160.5 1020.8L161.5 1021.8L162.5 1022.4L163.8 1021.6L164.9 1020.6L168.9 1019.5L171.4 1019.2L172.1 1019L173.6 1018.2L175.1 1017.7L176.5 1017.8L177.9 1019.4L179.3 1020.5L179.7 1022.3L181.4 1024.7L185.7 1028L187.4 1029L188.5 1028.8L189.1 1028.5L189.4 1028.2L189.7 1026.6L190.2 1026H191.1L194.4 1028L196.1 1028.2H197.7L199.9 1029.8L202.4 1031.2L204.3 1031.3L205.8 1030.8L206.8 1030.5L207.4 1031L208 1032.2L209 1033.1L210.1 1033.3L211.7 1033.4L214.5 1035.2L217.2 1037L218.9 1037.1L220.3 1036.6L221.5 1036.5L222.4 1037L222.6 1037.8L222 1038.8V1040.3L223.2 1041.7V1043.1L222.9 1044.3L222.2 1045.5L220.6 1047.1L219.1 1048.6L216.9 1049.2L215.6 1049.8L215.9 1050.9L216.7 1051.9L218.6 1052.7L220.8 1053.3L221 1054L220.7 1054.3L219.3 1054.6L217.4 1054.3L216.8 1054.9L215.9 1055.8L215.3 1057.5L214.9 1059.1L217 1059.5L218.2 1060.1L218.6 1061.4L219 1062.8L219.1 1064.1L218.4 1064.7V1065.3L218.7 1065.6L219.6 1065.7L220.3 1066V1066.7L219 1068.2L217.8 1071.1L217.1 1072.7L217.2 1074.4L216.5 1075.3H215.1L210.5 1075.5L206.5 1075.4L204.8 1075.2L202.1 1075.1L200.8 1075.5L199 1078.2L197.7 1079.2L195.5 1080.1L193 1080.4L191.6 1081.5L191.1 1083.2V1084.7L190.9 1085.5L190.4 1086.2L190.2 1086.7L190.3 1087.2L190.9 1087.4L191.6 1087.6V1088L191.3 1088.5L190.5 1089L190.1 1089.8L190.2 1090.7L190.3 1091.6L195 1089.8L196.6 1088.4L199.8 1087.9L199.4 1088.5L197.8 1089L196.2 1090.3L198.2 1090.4L202.7 1089.7L204.3 1087.6L207.3 1087.7L208.1 1089.2L208.9 1091.2L208.8 1092L208.5 1092.6L206 1093L200.4 1095.5L197.5 1096.2L194.2 1097.5L195.1 1099.2L195.3 1100.7L192.6 1100.4L190.6 1099.9L189.4 1100.1L186.1 1101.6L184.4 1101.3L182.7 1101.2L183.5 1103.4L185.3 1106.1L186.4 1106.6L188.1 1106.4L192.2 1109.6L195.3 1112.8L193.7 1113L192.2 1112.7H190L189.1 1114.6L188.2 1116L188 1115.3L188.1 1114.3L187.1 1113.7L185.7 1114.7L184.1 1119L181.1 1122L180.1 1123.9V1125.3L180.5 1125.6H181.2V1126.8L180.8 1127.9L174.2 1129.3L173.3 1130.1L171.4 1129.5L169.2 1127.8L167.3 1126.9L166.1 1127.3L164.8 1128.1L165.5 1128.6L166.4 1128.8L168.6 1129.8L167.4 1130.6L163 1132L163.1 1132.7L163.5 1133.2L168.6 1134.4L173.1 1136.4L174.5 1137.8L175.7 1140.2L176.7 1141.3L178.1 1142.1L179.4 1142.6L181.7 1142.8L184.2 1142L189.9 1147.7L192.2 1148.6L197.8 1149.8L199.2 1150.4L209.8 1158.4L213 1161.8L219.2 1167L221 1168.1L221.8 1166.8L222.8 1165.4L223.9 1165.1L227.2 1165.6L230.3 1166.2L232.5 1165.8L235.1 1166.9L237.5 1168.1L239.9 1169L244.7 1169.8L246.5 1171L248.6 1172.1L256.7 1172.7L257.4 1172.5L258 1172.3L260.7 1171.9L263.1 1172L265.6 1173.4L267.2 1173.3L268.9 1173.1L271.1 1173.9L272.9 1174.7L273.1 1175.5L274.6 1176.7L279.1 1178.6L282.7 1179.6L283.8 1180.3L286.6 1181.5L286.9 1181.9L286.8 1182.4L286 1183.3L285.8 1184.1L286.2 1184.6L287.3 1185L289.6 1185.1L290.4 1184.5L292.1 1184.1L293.8 1183.4L296 1182.4L299 1181.5H300.2L301.4 1181.8L302.2 1182.3L303.6 1184.1L305 1181.5L305.3 1181.3L306.5 1181.8L308.7 1182.5L310.2 1182.9L311 1183.4L313.3 1185.7L317.1 1185.6L318.7 1186L319.6 1186.4L320 1186.9L319.3 1189.2L318.4 1191.6L318.5 1192.2L320 1193.1L322.1 1194.1L323.2 1194.9L324 1195.6L325.6 1196.1L327.5 1196.4L328.4 1196.5L329.4 1197.1L331.9 1198.2L332.2 1198.5L334.1 1198.9L334.3 1200L334.6 1200.2L335.4 1200.1L336.7 1199.6L337.7 1200L339 1201.4L340.8 1202.8L341.8 1203.8L342.2 1204.5L343.1 1205.1L344.5 1205.9L345.6 1207.1L346.6 1209.8L347.6 1210.4L351.1 1211.4L352.3 1211.6L355.7 1212L356.9 1211.7L358.7 1209.3L360.3 1206.9L361.8 1206.4L364.5 1205.2L366.1 1204.1L366.8 1202.9L368.3 1200.6L369.2 1199.3L367.5 1198.1L366.6 1197.7L365.9 1197.1L364.5 1194.6L363.2 1192.6L360.6 1189.2L356.1 1184L355.2 1183.4L354.5 1182.7L354.2 1180.1L352.9 1178.3L351.1 1177L350.4 1176.3L350 1175.6L350.9 1171.9V1170.9L350.5 1168.7L350.8 1166.1L351.8 1162.6L352.8 1160.1L353.1 1158.5L351.7 1159.5L350 1165.2L349.4 1160.6L348.2 1156.3L347.3 1154.1L346 1152.3L344.1 1150.9L342.4 1149.2L340.5 1148.3L337.7 1147.6L337.1 1147L336.9 1145.9L337.1 1144.7L337.8 1142.7L339.3 1141.4L341.3 1140.1L341.7 1139.2L342 1138.2L342.6 1139L343.4 1139.4L343.9 1137.6L344.7 1136.3L345.7 1135.2L347 1132.6L348 1131.2L348.7 1129.6L349.1 1127L349.8 1126.7L350.4 1126.2L350.8 1125.5L351 1124.7L350.9 1123.2L349.8 1121.6L350.1 1121.4L350.6 1121.7L351.7 1122.5L352.7 1123.6L353 1122.1L353.9 1121.5L355 1121.9L356.1 1122L359.9 1120.8L361.7 1120.5L363.4 1119.6L367.4 1116.3L368.3 1116.1L369.2 1116.3L370 1116.9L370.9 1117.3L371.6 1117.1L372 1116.6L371.2 1115.4L370.9 1114.3L370.8 1113.1L371.8 1112.8H373L377.6 1110.9L378.2 1110.1L378.4 1109L380.5 1108.8L380.3 1107.8L379.5 1107.6L375.6 1105.6L372.4 1104.2L369.6 1103L369.2 1102.8L368.4 1102.2L367.9 1101.3L367.8 1100.3L368.1 1099.5L368.8 1099L369.6 1098.8L370.3 1099L371.1 1099.5L372.5 1100.1L374.4 1100.2L375.6 1099.8L375.8 1098.8L373.6 1094.9L371.6 1091.8L369.6 1088.3L368.8 1087L366.4 1084.1L364 1081.2L362.1 1078.6L361.1 1077.8L358.1 1077.5L352.3 1076.9L350.3 1076.6L348.7 1077.4L347.1 1078L345.5 1076.9L344.3 1075.1L343.7 1073.6L344 1072L344.1 1069.6L343.2 1067.3L342.2 1066.1L339.6 1065.2L336.3 1063.2L335.4 1059.6L337 1054.4L339.6 1050.8L341.5 1049.3L342.4 1048L342.7 1046.8L342.5 1045.7L341.4 1044.5L339.7 1043.3L338.8 1041.9L339.2 1038.8L340.4 1034.4L342.2 1030.9L344.6 1028.9L346.7 1027.5L347.5 1026.2V1024.3V1022.5L348 1021.2L348.9 1020.2L349.8 1019.3L351.1 1018.3L352.8 1018.1L354.6 1018.9L357.1 1021.1L360.7 1025.4L362.8 1028.2L363.6 1029.1L365.5 1030.8L367.2 1031.5L370.1 1030.5L372.8 1029.3L373.7 1028.5L374.3 1027.3L373.9 1025.3L373.3 1024L372.7 1022.3L371.9 1019.4L371.3 1014.9L370.6 1013.5L371.1 1013.3L372.5 1013.6L373.8 1013.7L375.6 1012.7L378.1 1010.8L382.7 1007.9L383.7 1006L384.5 1003.8L385.8 1002.5L388.7 1002.1L391.4 1001.4L393.3 999.9L396.3 998.5L398.8 997.7L399.9 996.9L400.7 995.8L403.5 992.6L405.7 990.6L407.6 988.6L408.2 987.3L409.7 987.5L412 988.4L414.5 989.2L416.3 990.5L416.7 991.8L416.9 992.8L417.7 993.3L418.6 993.4L419.9 993.2H422.2L425.1 991.5L429.1 988.7L432.8 987.8L434.7 988.5L436.3 990.6L437.6 992.5L438.9 993.2H439.7H440L441.6 992.8H441.7L443.2 992.9L444.6 993.5L446.9 993.6L450.2 993.1L450.5 992.9L452.1 993.2L454 994.1L455.5 995.2L458.2 998.7L459.7 999.6L462.8 1000.8L464.3 1001.9L466 1003.6L466.9 1004.7L468.8 1006.6L470.9 1009.7L471.3 1012.2L471.8 1014.3L472.6 1015.3L473.3 1015.4L474 1015.1L474.7 1014.2L474.9 1012.6L474.7 1009.8L474.1 1007.5L473.4 1006.8L473.1 1006L473.6 1005L474.8 1004.5L476.3 1004.8L478.7 1006.1L481.2 1007.8L484.3 1010.7L487.2 1012.5L490.3 1014L492.8 1014.4L494.7 1014L497 1012.8L499.1 1011.4L500 1009.9L500.7 1008.3L503.8 1006.2L506.7 1004.3L508 1004.7L508.9 1005.2L511.8 1004L512.8 1003.7L515.6 1003.2L518.5 1003.9L520.8 1006L523 1007.3L525 1007.1L526.7 1006.4L527.8 1005.1L528.6 1003.6L529.7 1002.6L529.9 1002.5L533.5 1003L535.7 1002.9L535.9 1002.7L538.8 1003.1L542.1 1005.3L544.1 1007.7L546.7 1010.7L547.9 1011.7L549.7 1012.1L551.1 1012.3L552.9 1012.8L557.8 1013.4L558.5 1013.8L559 1014.3L558.6 1016L559 1016.4L563 1015.2L564 1014.3L565.3 1011.8L566.5 1009.3L567.4 1008.4L568.3 1008.2L569.2 1008.6L570.5 1010.1L572.3 1011.6L574.7 1012.2L576.1 1012.4L578.3 1012.5L583.6 1011.8L588.5 1010L591.3 1008L592.6 1005L593.4 1001.6L594.6 999.4L594.1 997.2L591.6 995.1L590.8 994.5L584.8 993.3L584.4 992.5L584 992.3L578.1 990.4L575.2 989.6L574.4 988.4L573.9 986.8L572 985.3L568.3 984L567.7 983L568.3 982L570.3 981.2L571.2 980.8L574.5 978.4L575.8 977.9L578.7 977.8L581.4 975.8L583.3 974.7L584.3 973.4L584.1 972L581.4 967.8L580.6 965.2L581.1 963.5L582.7 961.7L583.6 960.7L584.7 958.9L585.4 958L588.2 957.6L591.5 957.4L593.8 957.8L597 958L599.9 958.3L601.4 958.6L602.5 958L603.3 957V955.7L602.1 954.5L597.8 952.9L596 951.6L594.6 951.7L592.2 951.3L590 950.4L588.1 950.1L587.5 948.9L587.9 947.2L588.7 946.2L590.1 945.7L591.7 945.9L593.4 945.2L593.9 944.8L594.1 944.3L593.8 943.5L593 942.9L591.9 942.7L590.6 943.2L589.1 943.5L586.5 942.7L584.4 941.7L584.5 940.8L586 939.5L586.7 938.4V936.9V935.2L587.2 933.2L588.7 931.8L590.5 931.1L595.1 932.4L600.8 933.6L601.8 933.4L602.1 932.8L602.8 932.2L610.7 931.9L612.2 931.1L613 930.5L620.6 929.6L621.5 928.7L622.6 927.9H624.4L626.5 927.6L629.4 926.6L631.5 926.1L631.8 926L634 926.2L636.7 925.4L637.3 925.1L637.7 924.5L640 923.4L644.5 922.5L645.6 923.1L647.8 923.3L650.6 922.9L652.6 922.2L653.8 922.9L655.4 923.6L656.6 923L657.2 921.1L658 919.2L659.4 918.3L660.5 918L661.5 917.3L662.2 916.5L666.2 916.6L669.8 914.7L670.5 915.6L675.1 915.4L680.9 914.2L684.3 913.6L690.2 912.3L693 911.3L696.9 910.7L700.5 910.2L702.9 908.4L704.8 908.2L707.1 908L708.5 907.6L709.4 906.9L710 905.6L709.7 904L709.4 902.8L711.1 902.2L713.5 902L715 901.7L718.3 899L720.5 897.7L722.8 896.9L727.5 897.3L731.7 897.7L736 899L738.2 900.6L740.1 901.8L741.9 902.4L743.5 902.8L745.4 902.3L746.8 901.6L747.6 900.5L748.8 899.7L753.2 899.1L754.1 900.2L756.2 903.6L757.6 908.1L759.9 914.1L760.9 917L760.4 918.5V920.6L760.3 922.9L758.6 925.5L759.3 926.7L763.5 928L769.4 927.5L773 926.4L775 926.8L776.1 926.1L776.8 924.2L778.2 923.8L779.6 925.1L780.6 927.4L781.6 928.9L781.5 930.6L781.9 932.8L782.6 933.4L784 932.6L785 932.1L785.2 931.4L784.8 930.6L784.6 929.7L784.9 928.9L785.6 928.6L787.6 928.8L790.6 929.2L794.1 932.4L796 933L796.8 933.1L798.6 932.9L800.8 932L802.3 930.9L802.8 930.3L803.6 930.4L804.4 930.9L804.5 932.1L803.9 933.8L801.8 935.3L799.1 936.7L797.5 939.3L797.2 942L797.9 943.4L798.5 944.3L798.7 945.6L799.3 945.8L800.4 945.3L803.4 942.6L804.9 941.9L807.1 941.5L810.7 941.7L813.1 942.6L814.3 943.8L815.6 944.8L816.5 944.4L817 943.3V942L817.4 940.9L821.4 938.2L824 936.4L824.9 936.2L826.7 936.6L827.8 936.4L830.7 934.7L833.4 932.8L833.7 931.5L833.8 930.3L834.5 929.8L838.3 929.4L838.9 929.2L842.1 927.9L846.6 925.6L848.8 924.3L852.8 923.7L853.5 923.3L854.8 922.4L857.3 921.1L858.6 921L857.8 924L856.3 927.5L855.5 928.4L851.5 928.2V929.2L852.1 930.6L852.5 931.4L853 932.1L854.1 933.4L858.3 936.4L863.7 940.2L869.5 944.4L873.6 947.3L875.2 948.8L876.2 950L879.2 954.3L882 958.3L886.8 965.4L891 972.2L895.7 979.6L898.4 983.9L903.9 992.8L905.4 995.5L908.2 1000.6L910.7 1005.4L912.9 1009.6L914.3 1010L914.4 1008.9L914.6 1008.1L915.3 1007.7L916.9 1006.5L917.8 1006.2L919.1 1006.3L920.5 1005.7L921 1004.5L920.7 1002.3L920.5 1001.3L921 1000.2L921.7 999.8L922.7 999.5L923.7 999.3L924.5 998.1L926 997.7L927.4 997.9H928.5L929.5 998.8L930 1000L931.1 1000.1L932.8 1000L933 1001L932.5 1002.7L931.9 1004L931.8 1005.1L932.7 1005.6L936.1 1005.1L937.3 1005.3L937.7 1006.4L938.2 1007.3L938.4 1008.4L938 1009.6L938.6 1010.3H941.5L943.6 1009.7H946.7L949.5 1011L951.5 1010.8L953.5 1010.3L956.4 1010.6L958.4 1009.6L959.8 1008.3L960.2 1007.3L960.9 1006.7H963.6L965.3 1006.6L966.6 1005.1L967.8 1004.4L969.8 1004.3H971.2L975.1 1005.7L977.5 1006.8L979.9 1008.4L981.4 1009.4L982.4 1011.7L984.1 1013.4L985.4 1015.3L985.7 1017.2L986.8 1020.6L987.9 1021.7H989.2L990.9 1022.2L992.8 1022.6L996.8 1025.1L998.3 1025.2L999.4 1025.8L999.6 1027L999.2 1028.4L999.6 1029.7L1000.9 1031.4L1001.9 1033L1003.2 1035L1003.6 1036.1L1004.6 1036.5L1006 1035.9L1008.2 1036.3L1014.8 1037.4L1015.7 1037.5L1016.4 1038.7L1017.3 1038.6H1018.4L1019.9 1038.7L1021 1037.6L1021.9 1036.7L1024.1 1035.5L1025.9 1033.9L1027.4 1032.5L1028.5 1032.3L1029.4 1033V1034.2L1028.3 1035.1L1027.4 1036.2L1027.6 1037.3L1029.1 1037.4L1030.8 1039L1033.2 1042.7L1034 1043.5L1035.2 1044.2L1036.5 1044.5L1038 1045L1039.1 1046.5L1039.5 1047.9L1041.1 1048.1L1042.1 1047.8L1042.8 1047.1L1043.9 1046.9L1045.5 1046.6L1047.1 1046.2L1048 1046.3H1048.1L1050.1 1046.2L1051 1045.7L1051.7 1045L1053.2 1044.2L1053.5 1043.3V1041.4L1054.5 1039.8L1057 1039.3L1058 1039.1L1059 1039.3L1060.6 1039.1L1062.1 1039L1063 1039.5L1064.1 1039.9H1065.6L1066.1 1039.1L1066.2 1038.1L1066.8 1037.8L1067.6 1038.5L1068 1039L1068.6 1039.2L1070.4 1038.6L1071.6 1037.9L1072 1036.5L1072.7 1035.8L1073.6 1036.2H1075.3L1076.7 1035.1L1078.5 1034.2L1079.8 1033.8L1080.1 1033L1079.5 1031.3L1079.7 1029.5L1081.4 1028.5L1083.7 1028.4L1085.4 1027.7L1085.9 1025.8L1086.8 1025.3L1087.7 1025.1L1089.8 1024.8L1091.3 1024L1092.2 1023.6L1094.8 1022.5L1097.2 1022.3L1098.2 1021.5L1099 1020.4L1100.4 1020L1101.8 1019.1L1103.6 1017.9L1104.3 1017.7L1107.3 1017L1108.5 1016.7L1109.2 1016.5H1110.5L1111.1 1015.3L1112.4 1014.4L1113.7 1014.1L1114.3 1013.2L1115.5 1012L1117.2 1011.3L1119.8 1011.2L1122.4 1011.3L1123.9 1011.1L1125.2 1009.4L1125.4 1008.5L1125.7 1007.6L1126.7 1007.3L1127.9 1008.7L1128.9 1009.6L1130.5 1010.5L1131.3 1011.4L1132.2 1011.5L1133.2 1010.9L1133.9 1009.3L1135.2 1009.1L1136.7 1009.3L1137.1 1010.1L1137.2 1010.9L1137.9 1012.2L1139.5 1013.4L1141.6 1013.3L1142.4 1013.1L1144.4 1013.3L1146.4 1013.5L1148.5 1013.8H1149.1L1151.4 1013.9L1154.8 1014.1L1156.3 1014L1159.3 1014.4L1159.9 1015.4L1160.5 1017.8L1161 1020.1L1161.1 1022L1161.9 1023L1162.9 1023.3L1163.6 1024.1L1164.8 1025.1L1165.7 1026.6L1166.7 1026.5L1167.4 1026.2L1169 1026.1L1171 1026.2L1172.4 1027L1172.9 1028.1L1174.1 1028.7L1175 1028.5H1177.8L1178.8 1028.6L1179.8 1029.2L1181.2 1029.3L1182 1028.5L1184.4 1028L1185.8 1026.9H1186.9L1187.7 1027.4L1188.3 1028.1L1189.2 1027.8L1189.7 1027.2H1190.5L1191.3 1027.6L1193.3 1028.3L1194.8 1029.5L1195.9 1029.6L1197.4 1029.2L1198.1 1029L1198.7 1029.6L1199.7 1029.9L1200.4 1029.5L1201.6 1029.2L1206.3 1029.9L1207.4 1031.1L1208.3 1031.7L1209 1032.7L1210.2 1033.4L1212.8 1033.2L1213.8 1032.5L1215.9 1030.9L1216.8 1029.3L1217.9 1028.8L1219.1 1028.6H1220.2H1221.4L1222.8 1027.4L1224 1027L1225.7 1025.5L1226 1024.8L1226.8 1023.1L1227.3 1022L1228.2 1020.3L1228.7 1017.5L1229 1016L1228.8 1014.9L1227.8 1014.4L1226.5 1014.1L1225.4 1013.3L1224.5 1012.4L1224 1011.1L1223.3 1009.5V1008.4L1223.1 1007.5L1222.5 1006.8L1221.4 1005.5L1220.9 1004.5L1221.1 1003L1222.4 1000.3L1222.5 999.1L1222.7 998.3L1222.6 997.6L1223 996L1223.7 995.3L1224.5 993.6L1225.6 992.8H1227L1227.6 992.3L1227.9 990.6L1228.6 989.3L1229.1 988.4L1230 987.4L1235 985.4L1237.1 982.9L1237.8 981.7L1238.6 979L1239.4 977.9L1240.5 978.3L1241.8 979.9H1242.8L1244.3 980.8L1248.3 982.6L1250.5 983.2L1251.9 983.4L1253.7 983.9L1254.9 984.9L1257.2 986.6L1259.2 987L1262.6 987.2L1266.7 987.3L1267.9 987.6L1270.9 988.8L1274.2 990.1L1277.3 991.3L1279.7 992.2L1281.1 993.1L1282.4 993.6L1283.8 993.2L1285.6 993.3L1289.9 994.4L1292.6 995.3L1294.9 996L1295.7 996.9L1295.8 998.1L1295.5 999.1L1295.7 1001.6L1296.4 1002.9L1296.7 1004.7L1297 1006.4L1296.8 1008.1L1297.2 1009L1297.9 1009.5L1298.6 1010.7L1298.4 1011.9L1298.1 1012.6V1013.7L1298.9 1014.6L1300.1 1014.8L1301.2 1015L1302.5 1016.5L1304.9 1018.2L1306.3 1018.7L1307.9 1019.5L1311 1020.3L1313.1 1020.5L1314.3 1021.1L1315.5 1022.6L1317.5 1022.9L1318.8 1023.4L1321.2 1024L1322.8 1023.7L1324.2 1023.2L1325.1 1023.3L1326.9 1023.6L1329 1023.7L1330.7 1023.3L1332.1 1022.3L1333.7 1020.9L1335.6 1020.2L1337.8 1020L1339.3 1019.4L1344.3 1018.5L1346.3 1018.3L1347.9 1017.4L1349.3 1016.7L1351.3 1016.4L1354 1017.2L1356.6 1017.8L1359.8 1018L1361.9 1018.9L1363.4 1019.7L1365.7 1020.4L1368.3 1020.1L1371.9 1019.8L1374.3 1020.2L1376.8 1021.7L1378.3 1022.9L1380 1025.4L1381.8 1026.6L1383.4 1027.6L1385.4 1027.7L1390.3 1027.8L1393 1028.3L1395.2 1028.6L1395.7 1029.1L1395.5 1030.8L1395.6 1033.2V1034.3L1396.1 1035.1L1396.9 1035.3L1397.3 1036.5L1398.4 1037.2L1400.4 1038L1403.7 1040.9L1405.7 1042.1L1407.3 1042.5L1409.4 1042.2H1412.6H1418.1L1421.9 1043.1L1423.2 1043.7L1427 1044.4L1431.2 1045.2L1434.7 1046L1436.8 1045L1438.7 1044.9L1440.5 1045.6L1442.3 1046.7L1443.7 1046.6L1445.7 1046.1L1452.2 1043L1454.5 1041.8L1456.1 1042.1L1457.5 1041.7L1458.6 1041.3L1461.4 1040.8L1463.1 1040.7L1464.8 1040.4L1467.3 1040.2L1472.4 1038.2L1474.5 1037.8L1478 1038.4L1479.9 1038L1481.8 1037L1484.2 1035.9L1484.8 1034.2L1486 1031.8L1488.7 1030L1490.9 1028.5L1493.1 1027L1495.8 1025.8L1498.4 1024.9L1501.7 1022.5L1504.3 1021.3L1505.6 1020.9L1507.1 1021.3L1510 1021.6L1512.1 1021.5L1513.3 1021.8L1515.7 1023L1517.8 1024L1519.4 1025.8L1522.4 1028.3L1524 1029.1L1525.1 1029.4L1527.8 1029.6L1530 1029.7L1531.3 1029.1L1533.6 1028.1L1537.2 1026.8H1538.6L1540.9 1027.5L1544.4 1028.8L1545.8 1029.8L1546.7 1031L1550.2 1033L1552.5 1034L1556.4 1035.5L1560.4 1035.9L1564.2 1037.6L1566.2 1038.1H1567.3L1572.7 1034.1L1577.3 1030.7L1582.6 1028L1586.5 1027.6L1589.4 1026.8L1591.3 1025.6L1592.5 1023.6L1592.8 1020.8L1592 1019.1L1590.1 1018.5L1589.6 1017.9L1590.5 1017.3L1591.2 1016.1L1591.6 1014.3L1592.7 1012.6L1594.5 1011L1595.5 1009.2L1595.7 1007.3L1596.8 1005.4L1598.7 1003.5L1599.8 1001.7L1600 1000L1601 997.9L1603.7 994.3L1605.4 990.1L1608.3 987.2L1613 984.2L1616 981.2L1617.2 978.3L1617.1 975.7L1615.7 973.4L1615.4 971.1L1616.3 968.8L1615.6 967L1613.3 965.8L1610.5 965.5L1607.3 966.1L1605.5 965.4L1605.1 963.3L1606 961.6L1608.1 960.3L1611.6 957.2L1616.5 952.2L1621.4 949.4L1628.6 948.6L1634.5 947L1640.5 945.3L1644.8 944.5L1645.5 945.1L1647.8 945.2L1651.8 944.9L1655.5 944.2L1658.9 943L1661.6 942.7L1663.6 943.3H1664.7L1665.5 943.4H1665.9L1666.7 942.9L1669 943.8L1673.4 946.4L1676.2 947.6L1677.3 947.3L1678.5 948L1679.9 949.7L1681.6 950.7L1684.6 951.2L1687.6 953.1L1688.8 953.2L1689.2 952.1L1690.3 951.5L1692.1 951.3L1694.7 952.2L1698.1 954.2L1700.2 955.1L1701.1 954.9L1702 955.3L1702.7 956.2L1702.8 957.4L1702.6 958L1703.4 959H1704.3L1705.8 959.5L1707 961.2L1708.1 962L1708.9 962.7L1709 963.3L1709.1 963.9L1708.9 964.3L1708.5 965L1708.4 965.8L1708.9 966.7L1710.8 967.3L1711.4 968L1711.5 968.8L1712.1 969.7L1713.4 970.8L1713.9 971.7L1713.6 972.4L1714 973L1714.6 973.5L1714.7 975.2L1714.8 976.2L1715.9 977.3L1716.1 979.6L1716.8 982.1L1719.3 985.5L1720.1 987.4L1719.9 989.6L1720.3 990.6L1721.4 991.1L1721.9 992L1721.8 993.4L1722.2 994.2L1722.6 995.1L1722.4 996.5L1722.7 997.7L1723.3 998.4L1723.7 999.7L1723.9 1001.4L1725.5 1004.1L1728.6 1007.7L1730.5 1010.5L1731.2 1012.5V1014.1L1730.5 1015.4V1016.3L1731.1 1016.9L1731.3 1017.7L1731.1 1018.7L1732.1 1019.9L1735.5 1021.9L1734.2 1025L1733.8 1027.2L1734 1029.5L1734.8 1031.1L1736.3 1032L1737.2 1033L1737.6 1034L1739.4 1035.1L1742.6 1036.3L1746.7 1036.5L1751.7 1035.7L1754.8 1035.6L1755.9 1036.1L1756.3 1036.9L1755.9 1038L1756.8 1038.7L1758.8 1039L1760.2 1039.7L1761 1040.7L1762 1041L1763.1 1040.6L1764.2 1040.7L1765.3 1041.3L1766 1041.1L1766.6 1040.5H1767.6H1768.6L1769.2 1042L1770.2 1042.8L1771.6 1043L1773.7 1044.8L1777.9 1049.9L1780.7 1051.7L1783.5 1052.3L1786.9 1052.4L1788 1054.4L1787.1 1056.5L1786.9 1058.2L1787.7 1058.8L1788.8 1060.8L1790.3 1062L1790.6 1062.9L1791.3 1063.9L1791 1065.8L1789.7 1068.6L1790.1 1071L1792.1 1073L1793.3 1074.9L1793.6 1076.7L1794.1 1077.8L1794.8 1078.2L1796.9 1078.1L1800.3 1077.4L1802.8 1077.5L1804.4 1078.4H1808.3L1814.6 1077.6L1818.6 1077.4L1820.3 1077.7L1821.8 1076.5L1823.1 1073.8L1824.3 1072.6L1825.4 1072.8L1827.2 1072L1829.7 1070.1L1831.8 1069.2L1834.5 1069.3L1837.4 1069.4L1839.2 1068.6L1840.9 1067L1843.8 1065.5L1850.1 1063.6L1851.6 1063.3L1852.3 1063.4L1854.4 1063.7L1856.3 1064.4L1858.1 1065.9L1858.4 1066.9L1858.2 1068.2L1857.8 1068.9L1857.1 1069.7L1856.4 1071L1856.8 1072L1857.8 1074.2L1858.6 1075.8L1859.5 1077.7L1859.1 1078.4L1858.5 1079.7L1856.8 1081.9L1855.9 1082.7L1854.9 1083.5L1853.2 1083.7L1852.4 1083.9L1851.6 1084.2L1851.1 1085L1850.5 1085.5L1849.5 1086.6L1849.4 1087.5L1849.8 1088.9L1850 1090.3L1848.9 1091.6L1848 1093.6L1847.7 1094.2L1847.3 1095.7L1847.2 1096.2L1846.9 1099.3L1845.8 1101.4L1844.2 1103.8L1844.6 1105.3L1844.9 1106.6L1844.5 1107.3L1844.4 1107.9L1844.2 1109.2L1843.7 1109.7L1842.3 1110.5L1841.4 1111.5L1841.6 1113L1841.2 1114.3L1840.6 1115.4L1839.9 1116.1L1838.9 1116.6L1838.3 1117L1837.8 1118.4L1837.7 1119.5L1837.2 1120.6L1837.5 1121.7L1837 1122.7L1835.6 1123.4L1834.8 1123.8L1834.1 1124L1832.7 1125.1L1831.5 1128.7L1831.2 1130.8L1831.5 1132.7L1829.7 1133.9L1828.4 1134.8L1827.6 1134.5L1826.7 1134.2L1824.7 1133.8L1823.7 1133.5L1821.7 1132.9L1818.5 1132.1L1815.4 1131.2L1813.4 1130.7L1811.8 1130.3L1810.6 1129.7L1809.6 1128.6L1808.6 1129L1807.7 1130.3L1806.2 1131.1L1805.5 1132.5L1804.9 1133.6L1803.3 1135.1L1802.6 1135.7L1799.5 1136.7L1798.8 1137L1796.3 1137.2L1795.4 1137.6L1794.5 1138.5L1794.3 1139.4L1794.9 1140.4L1795.9 1142.3L1796.4 1143.6L1797.1 1146.2L1799.3 1154.3L1798.6 1155.7L1797.9 1161.8L1798.1 1162.9L1798 1164.6V1165.8L1798.5 1166.1L1799.1 1166.5L1799.4 1167.2L1799.3 1168.3L1799 1169.1L1798.5 1170.7L1797.9 1173L1797.2 1173.9L1796.7 1174.6L1796.3 1175.1L1796.2 1176.7L1795.9 1177.8L1794.8 1178.2L1793.7 1178.8L1792.4 1178.6L1791.3 1178.7L1789.9 1179.1L1787.4 1179.6L1785.9 1180.2L1785.2 1180.7L1784.7 1181.3L1784.6 1181.9L1784.9 1182.2L1786.3 1182.4L1787.3 1183.4L1787.4 1184.5L1786.4 1185.1L1786.9 1186.3L1788 1187.5L1788.6 1188.4L1788.7 1189.3L1789.2 1189.8L1789.9 1189.3L1791.7 1185.4L1789.6 1182.7L1790.4 1182.4L1793.7 1183.2L1795.1 1183L1797.4 1183.4L1798.9 1182L1799.7 1180.5L1801.4 1179.5L1803.5 1176L1807.1 1171.9L1808.3 1170.8L1810.8 1169.9L1811.4 1170L1812 1170.3L1810 1172.5L1809.5 1174H1810.9L1812.3 1173.5L1815.8 1171L1817.1 1169.6L1817.5 1171.1L1817 1178.2L1820.1 1177.7L1821.7 1178.5L1824 1178.4L1826.7 1180L1827.7 1179.8L1829 1179.7L1830.1 1181.4L1831.8 1181.9L1834.7 1180.6L1839.2 1179.3H1841.3L1846.5 1177L1849 1175.1L1858.2 1170.1L1862.1 1167.4L1865.8 1165.4L1868 1162.2L1871.9 1159.1L1872 1157.8L1872.8 1156.3L1878.7 1148.1L1880.6 1146.7L1883.3 1145.7L1884.4 1144.2L1885.1 1142L1888.7 1138.8L1891.2 1135.6L1893.5 1133.5L1894.6 1131.6L1900.5 1127L1905.3 1121.8L1909.8 1118.1L1911.2 1115.8L1917 1109L1918.8 1104.5L1921 1102.8L1922 1098.5L1923.9 1095.4L1924.4 1093.6L1925.4 1091.8L1932.6 1084.8L1935.5 1079.3L1939 1073.8L1941.6 1071.9L1944.3 1069.4L1945.8 1067.4L1949.9 1064.2L1951.9 1062L1952.9 1059.8L1953.8 1054.3L1956.5 1050L1955.7 1049.3L1955.3 1048L1955.6 1046.5L1956 1045.6L1956.3 1044.2L1956.9 1042.6L1957.4 1041.7L1958.9 1035.7L1958.8 1031.9L1958 1030.4V1028.5L1960.1 1025.7L1960.6 1025.2L1960.8 1024.5L1959.8 1023.9L1959.3 1023.4L1958.3 1013.9L1959.1 1008L1961.3 1003.7L1961.7 1002.2L1962 998L1964.6 993.7L1966.2 988.9L1969.6 986.4L1971.8 983.2L1973.7 981.8L1974 978.6L1975.7 975.7L1974.4 974.4L1973 973.5L1970.2 971.2L1969.6 969.6L1971.5 966.8L1971.9 964.3L1971.7 959.8L1968.8 958.4L1965.1 954.9L1964.5 953.7L1965.3 953.6L1970.4 955.4L1972.9 953.4L1974.2 951.3L1973.7 948.6L1971 947.6L1967.5 944.7L1967.3 943.7L1961.8 941.2L1955.9 935.9L1954.1 931.2L1953 929.9L1947.5 926.1L1946.4 924.8L1944.9 924.3L1938.2 926.4L1934.5 925.8L1927.4 923.2L1926.7 923.7L1927.7 925.6L1927.5 927.5L1927.8 930.1L1927.4 934.4L1926.7 937.5L1924.1 941.8L1923.1 942.6L1920.8 942.9H1919.6L1920.3 941.2L1922.3 939.2L1925.1 935.6V932.4L1924.4 932.1H1923.8L1921.8 933.3L1919.6 937.8L1914.4 940.8L1910.7 941.9L1903.6 942.4L1902.3 942.2L1901.7 941.4L1903.3 940.1L1906.8 938.2L1909 934.3L1911.4 933.4L1912.2 932.3L1908.5 931.7L1906 930.3L1903.6 928.5L1904.7 927.9L1905.5 927.7L1906.6 927L1909.2 923.8L1906.8 923.6L1904.3 923.8L1900.2 926.3L1899.4 927.6L1900.7 929.4L1902.2 930.2L1900.4 935.3L1898 934.6L1895.7 934.8L1894.3 936.2L1892.9 935.7L1892.3 932.5L1893.1 929.3L1893.8 922L1894.7 919.5L1894.8 916.7L1894.3 915.2L1892.9 915.1L1890.6 915.4H1884.7L1878 916.2L1870.9 913.4L1869 913L1867.8 912.4L1867 909.6L1867.4 908L1867.9 907L1872.7 902.6L1876.3 901.4L1883.6 896.5L1886.6 892.4L1888.5 890.7L1894.3 887.6L1898.1 885L1901.2 882.5L1904.6 880.3L1907.8 876.7L1909.9 876L1916.5 868.2L1917.7 866.4L1918.4 864L1919 862.9L1926.7 853.9L1931.9 850.6L1935.6 845.9L1940.1 844.1L1941.2 843.3L1943.1 840.6L1946.3 839L1947.3 838L1949.7 834.2L1957.4 830.7L1958.2 829.3L1961.5 819.7L1963.3 817.1L1966.7 813.9L1972.9 810.8L1977.3 807.4L1979.9 804.7L1984.6 797.5L1989.9 793.1L1994.2 790.6L2004.8 786.9L2010.5 787.7L2016.5 785.8L2020.9 785.9L2027.1 786.8L2045.6 785.7L2049.1 786.9L2050.3 788.1L2052.1 791.9L2054.1 792.7L2058 791.2L2061 785.2L2062.6 784.4L2067.2 786.8L2071.3 787L2079.5 789.8L2082.5 789.2L2085.7 786.4L2092.3 785.6L2096.3 790L2100.4 790.1L2103.6 789.4L2104.5 786.9L2103.2 786L2100.7 786.8L2100.1 784.6L2101.6 782.2L2103.8 783.9L2107.4 783.7L2108.6 783.5L2108.1 782.4L2107.3 781.5L2106.2 779.4L2110.1 776.6L2112.4 775.7L2116.2 775.4L2125.9 778.9L2128 779.3L2130.3 780.7L2133.9 781.7L2131.7 782.6L2130.7 783.5L2133 783.2L2135 784.3L2136.6 784.5L2137.3 784.1L2138.1 782.7L2139.3 781.3L2140.2 780.9L2142.6 781L2145.7 781.6L2148.1 782.7L2153.5 788.5L2156 789.6L2158.8 789.4L2159.9 789.8L2161.5 791.4L2156.8 793.2L2152.4 793.6L2148.5 793.1L2141.9 795.4L2145.5 801.3L2152 801.5L2158.6 800.3L2159.9 797.8L2162.6 796.8L2164 796.9L2167 799L2171.2 799.8L2172.3 799.4L2175.7 795.3L2177.7 794.9L2179 795L2180.5 791.5L2186.3 791.2L2189.7 794.4L2191.8 795.5L2195.9 794.6L2198.1 792.3L2199.5 791.5L2203.7 793.7L2205.8 792.4L2209.1 792.2L2211.6 792.4L2211.5 790.1L2211.7 787.5L2208.3 784.9L2201.6 782.3L2197.7 784L2196.2 784.2L2195.2 784L2194.1 782.7L2195.1 780.6L2196.1 778.9V776.8L2196.6 773.8L2198.3 772.5L2199.2 772.3L2201.6 766.1L2208.4 757.8L2216.3 752.6L2221.3 748.6L2223.7 745.8L2227.2 739.2L2232.2 734.4L2234.6 732.8L2237.1 730.8L2238 724.4L2239.9 722.9L2241.7 721.8L2245 718.4L2250 716.2L2251.7 714.6L2257.4 714.7L2262.1 716L2263.5 715.7L2266.7 713.8L2270.4 714.2L2275.2 713L2279.6 710.8L2281.5 710.6L2283.3 711.1L2285.5 714.4L2286.8 715.2L2287.8 717.1L2290.7 715.9L2298.6 711.4H2299.6L2300.8 711.7L2301 713.4L2300.9 714.8L2299.7 719.3L2298.2 722.7L2294.2 729.3L2293.4 730.3L2293.9 732.1L2294.5 735.3L2292.5 738.8L2291.7 740.5L2293.3 740.9L2295.4 739L2298.5 737.8L2300.2 737.9L2301.9 738.5L2299.3 744.4L2298.9 747.5L2298.5 748.7L2298.4 750.3L2300.4 749.4L2301.8 748.2L2303.8 747.3L2308.7 746.9L2311.3 742.7L2313.4 740.6L2333.3 723L2336.8 719.3L2338.8 719L2340.6 719.6L2342.2 719.5L2342.5 718.2L2343.1 717.7L2344.9 717.9L2346 721.2L2347.2 722.9L2348.1 722.6L2348.8 722.1L2349.7 720.8L2350.7 719.8L2351.7 718.1L2350.8 716.9L2347.4 715.2L2347.5 712.1L2349.5 707.1L2349.3 703.9L2350.1 700.6L2351 698.9L2351.8 698.2L2352.6 697.1L2351.6 694.5L2352.3 692.7L2353.1 691.5L2369.1 686.8L2371.9 686.5L2374.5 687.4L2378.4 690.7L2382.7 692.4L2388.8 693.1L2389.2 694.6L2386.8 694.1L2385.7 694.6L2385.9 695.9L2385.6 696.9L2384.2 695.7L2380.1 695L2376.3 693.7L2375.1 693.8L2369.7 697.7L2368.3 699.4L2366 707.2L2365.9 712.5L2365.1 717.6L2362.7 719.8L2361.9 722.3L2361.3 725.3L2364.2 726.6L2364.5 727.6L2364.7 729L2362.8 732.2L2358.1 736.1L2357.6 736.9L2357 738.7L2359.7 742L2357.5 743.2L2355.5 744L2353.5 745.5L2347 746L2342.5 749.7L2334.8 753.4L2331.4 755.5L2330.3 756.9L2327.6 762.5L2326 764.9L2320.8 768.6L2316.8 773.9L2310.5 780.3L2308 781L2305.2 782.6L2301.8 787L2293.1 794.7L2288.7 803.9L2286.3 806.9L2283.8 809.3L2282.1 811.9L2279.1 814.6L2273 818.6L2268.9 821.9L2266.7 824.1L2265.9 826.2L2264.8 825.7L2260.7 826.8L2255.4 825.9L2251.7 832L2247.7 832.6L2243.7 831.1L2241.7 831.8L2241 832.5L2240.3 833.4L2242.2 835.4L2243 837.1L2243.3 838.6L2243.5 841.2L2241.3 846L2239.2 849.7L2235.8 853.2L2227.8 859.6L2227.1 860.4L2226.4 861.9L2221.8 878.4L2220.5 885.7L2219 897.2L2219.1 901L2220.1 909.6L2221.6 918.3L2225 933.2L2225.8 937.8L2228.4 955.9L2228.6 959.3L2229.4 962.2L2230.7 965.1L2233 967.9L2233.2 971.3L2235.2 982.1L2235.4 992.5L2235.8 994.7L2236.2 996.3L2238.4 998.3L2239.1 1000.7L2239.3 1002.5L2239.7 1004.3L2241.4 1003.4L2247.5 998.6L2252.5 994L2253.2 992.3L2254.9 991L2258.3 989.3L2263.1 984.5L2267.1 977.8L2269.4 972.7L2269.9 970.8L2270 968.9L2269.7 964.9L2270.6 963.4L2271.9 958.9L2271.1 957.7L2268.9 956.8L2269.6 955L2271.2 954.6L2272.5 955.5L2273.3 957.4L2274.4 958L2278 954.6L2281.2 952.9L2289 950L2292.2 950.2L2295.2 952.8L2296.5 952.7L2296.1 949.1L2294.3 946.5V944.8L2295.3 942.2L2294.6 940.5L2293.8 939.2L2293.3 936.4L2294.7 930.8L2296.2 927.7L2297.3 926.2L2301 923.7L2304.9 920.1L2309.3 917.3L2312.1 916.4L2315.5 915.9L2318.3 917.9L2324 918L2325.7 917.6L2329.9 913.7L2332.3 912.1L2331.9 908.7L2330.4 905.9L2327.4 902.3L2326.7 900.6L2325.7 896.7L2325.6 893.1L2326.5 889L2329.1 884.2L2331.9 877.7L2333 876.7L2336.2 875.1L2338.4 873.8L2339.6 873.1L2338.9 869.4L2340.6 867.9L2342 867L2345.6 867.4L2346.7 866.6L2348.3 866.2L2347.2 868.1L2345.8 869.4L2342.7 871.2L2341.2 873.8L2344.9 878.2L2347.2 879L2348.5 878.7L2351 876.3L2352.2 875.3L2353.5 873.8L2352.8 868.1L2351.9 865L2352.1 861.7L2350.5 860.7L2348.4 860.3L2346.3 860.8L2345.1 859.9L2344.3 858.4L2344.1 856.7L2344.5 852.7L2344.4 850.6L2343.6 846.8V845.7L2343.9 843.7L2347 840.4L2349.6 838L2351 836L2351.4 834.6L2351.6 831.8L2350.2 830.5L2342.8 827.5L2341.7 827.4L2339.4 828.6L2338.4 832.4L2337.1 833.7V832.9L2337.4 832L2333.7 830.6L2332 829.3L2331 828.1L2330.4 826.4L2329.7 823.8L2331.2 818.3L2332.8 813.4L2338.2 806.1L2341.5 803.5L2345 799.5L2346.5 798.8L2347.1 798.1L2347.7 797.2L2346.6 794.5L2347.2 793.9L2347.8 793.6L2349.1 794.1L2352.3 789.2L2352.2 782.9L2353.1 777.5L2353.9 775.3L2354.7 773.7L2356.1 772.2L2357.5 771.4L2359.5 769.5L2360.4 768L2361 767.6L2363.3 767.7L2365.1 768.3L2367.1 769.3L2366.7 771.8L2369.1 769.6L2371.3 767.1L2372.4 766.7L2373.9 767L2376.4 768.9L2378.3 772.5L2379.6 773.5L2381.3 773.4L2382.4 772.9L2383.3 770.4L2383.5 765.9L2385.4 765.1L2387 764.8L2389.3 762.7L2392.2 761.8L2398.4 758.2L2402.5 754.5L2405.5 754.4L2404.7 756.5L2404.4 758.5L2403.3 763.5L2402.2 766.1L2401.6 769.3L2401.8 771L2402.4 773.1L2403.9 772.9L2404.9 772.4L2407 770.2L2415.8 759.6L2420.3 756.7L2427.2 754.8L2429.3 753.6L2436.1 751.7L2441.7 751.1L2445.3 752H2447.3L2454.9 751L2455.8 752.2L2461.7 755.7L2465.1 760.8L2465.8 761.3L2466.4 762.2L2466.6 764.3L2467.1 765.6L2468.1 766.7L2471.1 769.1L2474.5 769.7L2475.3 768.4L2475.8 767.3L2477.3 761.1L2478.6 758.6V757.1L2478.9 755.9L2482.2 754.1L2484.8 753.3L2494.1 747.2L2498.2 743.7L2499.9 743.9L2501.4 743.1L2502.8 742L2504 741.6L2506.5 739.1L2509.6 737.2L2509.1 735.5L2509.7 734L2511.4 733.4L2512.9 733.3L2514.8 731.5L2514.7 730.1L2515.4 729.5L2516.4 729.6L2517.8 730.1L2518.5 729.5L2517.3 727.5L2516.8 725.6L2517.7 724.6L2521.1 726.5H2522.4L2526.9 721.9L2530.9 717L2534.3 718.1L2539.8 714.5L2542.3 713.8L2546.3 713.6L2548 712.2L2549.8 709.7L2551.2 710L2558 707L2559.3 704.9L2561 704.3L2562.3 704.1L2565.3 702.3L2577.7 697.2L2579.6 695.2L2584.2 692.2L2587.7 691.2L2592.1 690.4L2592.6 689.4L2589.5 688.3L2588.7 687.3V686.2L2589.2 685.3L2589.8 683.5L2591 683.1L2592.4 684.4H2593.9L2594.6 683.3L2595.3 683.4L2595.7 684.8L2594.9 686.5L2594.6 687.8L2594.5 689.3L2595.5 689.7L2600.9 689.8L2607.1 690.9L2623.4 697L2624.8 698L2626.1 698.1L2626.3 695.7L2627 693.4L2628.9 692.1L2632.2 688.8L2633.8 686.4V683.6L2632.8 680.7L2630.6 680L2629.2 678.2L2628.5 676L2629.7 674.4L2631 673.8L2630.7 671.6L2629.7 670.2L2624.4 667.2L2622.6 665.2L2622.5 663.4L2620.3 658.8L2620 659.8L2620.2 662L2619.5 663.6L2618.4 663.4L2618.2 662.2L2618.8 659.5L2617.9 658.3L2614.7 657.7L2614.3 656.7L2617.5 655.2H2618.5L2619.4 654.7L2618.7 648.9L2618 644.8L2616 644.5L2614.5 643.3L2614.9 640.7V639.4L2613.2 634.9L2612 633.1L2610.6 631.4L2609.5 633.3L2608.9 635.8L2607.4 636.3L2605.8 636.2L2601.2 633.4L2596.8 628.6L2596.4 624.2L2597.4 618.6L2596.7 617.7L2596 617.3L2590.2 619.2L2586.6 622.1L2584.7 622.4L2580.9 620.4L2574.6 623.7L2576 621.8L2577.1 621L2578.3 619.6L2577.4 616.9L2576.5 614.9L2575.2 613.5L2573.2 612.8L2571.3 614.2L2569.8 615.6L2566.7 617.1L2560.7 618.3H2556.7L2549.8 620.5L2547.2 620.4L2556.7 617.2L2561.9 617L2568.5 614.9L2573.3 610.9L2579.7 614.6L2581.9 615.1L2586.7 614.8L2590.8 617L2592.2 616.4L2593.5 614.4L2591.8 611.5L2590.3 609.7L2588.6 609.1L2583.5 609.4L2580.2 608.8L2578.3 608L2579.5 607.2L2583.2 608.4L2587.6 606.9L2592.8 609.3L2594 611.4L2595.5 612.2L2599.7 617.5L2602.6 619.6L2611.9 621.1L2616 623.5L2619.1 622.5L2626.9 617.3L2632 615.9L2635.5 612.5L2638.5 608.6L2641.5 607.4L2646.6 603.2L2647.8 601.2L2649.8 596.2L2651 594.1L2652.7 591.6L2652.8 589.5L2652.4 587.3L2651 585.5L2647.7 583L2646.2 581.3L2645.1 577.8L2645.2 573.6L2645.9 570.4L2646.9 567.5L2648.1 569.6L2651.4 569.1L2653.1 568.3L2653.3 566.2L2652.9 563.7L2653.7 563.1L2655.4 562.8L2655.6 561.3L2656.2 560.5L2656.8 561.6V565.8L2658.2 566.8L2660.1 567.7L2660.9 567.4L2661.7 566.8L2662.9 565.5L2665.3 561.2L2666.8 559.5L2666.7 562.6L2665.8 566.9L2665.3 568.1L2663.9 569.6L2663.3 572.8L2663 573.6L2661.1 572.7L2659.7 572.9L2660.7 576.4L2662.2 579L2664.1 581.5L2666.2 583L2666.8 582.9L2667.2 583.4L2667.3 585L2666.8 588.7L2667.2 590.7L2668.8 592.2L2670.6 592.6L2681.2 592.4L2684.8 591.9L2690.2 588.4L2692.2 588L2694.5 588.4L2701 590.3L2708.8 593L2711.8 597.2L2713 601.4L2713.4 605.9L2712.9 607.7L2713 609.2L2715.4 611.4L2718.8 614.1L2719.4 614.7L2720.1 615.8L2720.9 616.3L2723.3 616.6L2725.2 616.1L2727.1 615.9L2730.6 617.2L2735.1 619.2L2739.5 622L2741.5 624L2745 628.4L2746.8 629.7L2749.7 631.2L2750.8 631.4L2751.9 631.1L2754.1 629L2755.5 627.3L2756.7 625.2L2757 627V628.5L2755.9 629.6V631.5L2757.6 633.7L2759.6 634L2762.2 633.4L2763.1 632.4L2763.9 631L2763.3 626.3L2764.1 625.7L2766 626.6L2766.6 627.9L2766.9 629.5L2767.7 629.7L2772.8 629.5L2773.2 628.9L2772.9 627.4L2772.2 626L2771.3 625L2769.1 623.8L2766.8 622.9L2764.9 622.7L2764.1 622L2764.3 620.8L2763.7 619.4L2764.1 618.6L2765.7 617.5L2765.9 616.5L2764.2 615.3L2762.5 614.9L2761 615.6L2761.3 614.6L2762.5 613.6L2764.3 613.2L2766.1 613.4L2769.5 612.5L2772.9 610.5L2774.5 609.2L2776.1 607.6L2775.9 604.8L2774.8 602.1L2773.2 601.4L2771.4 601.6L2769.8 601.4L2768.3 600.7L2774.4 599.7L2775.1 598.7L2776.1 594.4L2775.7 593.3L2774.4 593.6L2772.5 593.5L2773 592.6L2773.7 591.8L2770.2 587.7L2766.3 585.2L2767.4 584.8L2769.3 584.9L2772.3 585.6L2774.3 587.4L2775 588.6L2775.8 589L2777.6 589.1L2780.6 590L2780.8 591.2L2781.5 591.6L2783.5 591.1L2789.1 590.3L2790.9 590.5L2793.5 591.4H2794.3L2795.4 591.1L2796.3 589.7L2794.9 586.9L2792 584.4L2790.3 582.5L2789.4 581L2789.9 580.4L2790.7 580.6L2793.2 583L2795.2 584.5L2797.2 585.6L2799 586.4L2803 587.2L2804.8 586L2805.2 584.1L2804.8 580L2805.2 578.5L2807.6 576.2L2811.8 573.3L2814.5 572.4L2815.4 572.5L2816.4 573.4L2817.4 573.7L2819.2 571.6L2818.2 571ZM1467.9 198.3L1466.6 199.5L1466.3 201.2L1466.2 203.4L1465.6 207.1L1464.4 208.5L1460.2 207.9L1459 208.2L1457.9 209L1460.3 213.4L1464.9 216.3L1468.2 219.3L1469.8 220.2L1479.9 223L1480.4 222.6L1483.3 217.6L1487 215.3L1488.2 213.5L1488.9 211.1L1489.8 209.2L1490.4 206.6L1488.7 204.4L1482.9 202.3L1467.9 198.3ZM679.2 385.1L678.8 385.8L678.4 387.1L678.6 392L679.3 394.4L680.5 396.4L681.4 397L681.3 395.2L679.5 388.2L679.6 385.1H679.2ZM742 550.7L739.2 550.1L737.2 549.2L734 549.1L732 548.7L731.4 550L734.5 555.6L737.8 558.4L740.8 557.9L741.5 557.3L742.4 555.4L741.5 554.3V553.3L742 550.7ZM693.4 442.6L694.8 438.9L694.5 437.1L692.6 437L689.3 440.9L689.7 441.6L690.6 442.4L693.4 442.6Z" stroke="black" stroke-width="4"/>
</svg>
