<?xml version="1.0" encoding="UTF-8"?>
<svg id="Calque_2" data-name="Calque 2" xmlns="http://www.w3.org/2000/svg" viewBox="0 0 211.06 289.288">
  <g id="Calque_1-2" data-name="Calque 1">
    <g id="wyrd">
      <g>
        <line x1="10.384" y1="29.944" x2="136.399" y2="288.959" fill="#fff"/>
        <path d="m11.058,29.616c22.316,40.779,46.203,85.813,67.729,127.211,11.076,21.295,23.317,42.03,32.853,64.098,9.669,22.114,18.711,44.414,25.434,67.707,0,0-1.349.656-1.349.656-7.184-9.852-13.626-20.064-19.844-30.386-12.311-20.67-23.809-41.77-33.414-63.824-4.794-11.014-9.508-22.068-14.471-33-7.434-16.323-22.24-49.327-29.481-65.738-9.675-21.987-19.371-43.963-28.806-66.066,0,0,1.349-.656,1.349-.656h0Z" fill="#1d1d1d"/>
      </g>
      <g>
        <line x1="75.931" y1="0" x2="204.138" y2="252.293" fill="#fff"/>
        <path d="m75.931,0c26.584,39.135,49.202,80.735,70.788,122.75,21.238,42.192,41.511,84.987,57.42,129.543-26.612-39.117-49.228-80.721-70.788-122.75C112.138,87.338,91.87,44.545,75.931,0h0Z" fill="#1d1d1d"/>
      </g>
      <g>
        <line y1="49.242" x2="199.487" y2="121.734" fill="#fff"/>
        <path d="m0,49.242c34.41,8.706,67.94,20.026,101.28,32.018,33.268,12.195,66.242,25.039,98.207,40.474-34.416-8.686-67.945-20.009-101.28-32.018C64.946,77.506,31.972,64.659,0,49.242H0Z"/>
      </g>
      <g>
        <line x1="4.793" y1="98.405" x2="211.06" y2="182.034" fill="#fff"/>
        <path d="m4.792,98.405c35.666,10.607,70.353,23.795,104.824,37.645,34.391,14.05,68.469,28.739,101.443,45.983-35.673-10.588-70.359-23.778-104.824-37.645-34.384-14.066-68.46-28.758-101.443-45.983h0Z"/>
      </g>
      <g>
        <line x1="210.489" y1="231.679" x2="12.347" y2="159.626" fill="#fff"/>
        <path d="m210.489,231.679c-34.186-8.633-67.492-19.88-100.608-31.799-33.044-12.122-65.794-24.893-97.534-40.255,34.193,8.613,67.497,19.863,100.608,31.799,33.037,12.138,65.787,24.911,97.534,40.255h0Z"/>
      </g>
      <g>
        <line x1="95.843" y1="1.659" x2="35.071" y2="215.38" fill="#fff"/>
        <path d="m95.843,1.659c-6.678,36.541-16.027,72.388-26.059,108.091-10.239,35.645-21.146,71.048-34.713,105.63,6.658-36.546,16.01-72.392,26.058-108.091,10.255-35.64,21.166-71.042,34.713-105.63h0Z"/>
      </g>
      <g>
        <line x1="75.056" y1="243.295" x2="135.404" y2="33.154" fill="#fff"/>
        <path d="m75.056,243.295c6.61-35.952,15.889-71.204,25.85-106.312,10.168-35.049,21.005-69.853,34.498-103.829-6.59,35.957-15.872,71.209-25.85,106.312-10.185,35.044-21.024,69.847-34.498,103.829h0Z"/>
      </g>
      <g>
        <line x1="181.673" y1="64.606" x2="116.882" y2="279.248" fill="#fff"/>
        <path d="m181.673,64.606c-15.597,73.106-37.288,145.13-64.79,214.642,15.558-73.144,37.325-145.091,64.79-214.642h0Z"/>
      </g>
    </g>
  </g>
</svg>