<?xml version="1.0" encoding="UTF-8"?>
<svg id="Calque_2" data-name="Calque 2" xmlns="http://www.w3.org/2000/svg" viewBox="0 0 71.377 71.989">
  <g id="russeEtoile">
    <path d="m29.282,71.04l18.894-19.404,22.539-8.682c.188-.072.22-.325.055-.442l-21.233-15.047L41.197,1.083l-15.83,21.277L1.027,30.019l20.766,17.191,7.489,23.83Z" fill="#fff" stroke="#000" stroke-miterlimit="10"/>
    <polygon points="47.282 19.008 66.389 14.019 56.516 32.231 49.538 27.465 47.282 19.008" fill="#fff" stroke="#000" stroke-miterlimit="10"/>
    <polygon points="42.389 57.763 58.218 68.657 55.091 49.019 48.176 51.636 42.389 57.763" fill="#fff" stroke="#000" stroke-miterlimit="10"/>
    <polygon points="24.176 56.061 5.963 62.7 16.006 42.785 21.793 47.21 24.176 56.061" fill="#fff" stroke="#000" stroke-miterlimit="10"/>
    <polygon points="18.899 23.38 14.133 4.997 31.155 14.529 25.367 22.359 18.899 23.38" fill="#fff" stroke="#000" stroke-miterlimit="10"/>
    <path d="m21.495,47.572l-15.148,14.844c-.138.135-.358-.027-.27-.199l9.929-19.433,5.489,4.787Z" stroke="#000" stroke-miterlimit="10"/>
    <path d="m48.091,51.976s9.021,16.085,9.787,15.83-2.723-18.66-2.723-18.66l-7.064,2.83Z" stroke="#000" stroke-miterlimit="10"/>
    <path d="m49.538,27.465l6.979,4.766,9.477-17.483c.088-.161-.11-.327-.253-.212l-16.202,12.929Z" stroke="#000" stroke-miterlimit="10"/>
    <path d="m25.367,22.359L14.43,5.265c-.103-.16-.351-.054-.305.131l4.604,18.495,6.638-1.532Z" stroke="#000" stroke-miterlimit="10"/>
    <path d="m29.459,70.226l6.143-32.74-13.34,9.957,7.07,22.789c.02.065.115.06.127-.007Z" stroke="#000" stroke-miterlimit="10"/>
    <path d="m36.218,36.614L2.08,30.37c-.202-.037-.322.219-.163.35l16.386,13.512,17.915-7.617Z" stroke="#000" stroke-miterlimit="10"/>
    <polygon points="36.303 37.04 41.24 58.529 47.665 51.593 36.303 37.04" stroke="#000" stroke-miterlimit="10"/>
    <path d="m69.296,42.43l-33.035-5.561,20.085-4.298,13.141,9.398c.221.158.076.506-.191.461Z" stroke="#000" stroke-miterlimit="10"/>
    <path d="m49.112,27.125l-12.255,9.319L40.992,2.07c.018-.15.227-.169.272-.025l7.848,25.08Z" stroke="#000" stroke-miterlimit="10"/>
    <polygon points="36.389 36.189 25.921 22.104 31.41 14.231 36.389 36.189" stroke="#000" stroke-miterlimit="10"/>
  </g>
</svg>