<?xml version="1.0" encoding="UTF-8"?>
<svg id="Calque_2" data-name="Calque 2" xmlns="http://www.w3.org/2000/svg" xmlns:xlink="http://www.w3.org/1999/xlink" viewBox="0 0 284.144 417.491">
  <defs>
    <clipPath id="clippath">
      <path d="m95.441,219.223l1.632-48.157c.038-1.136.99-2.025,2.126-1.987,30.727-.941,63.609.417,97.908,3.285.849.029,1.546.681,1.631,1.526l4.958,49.417-108.255-4.085Z" fill="#fdf2de" stroke="#000" stroke-miterlimit="10" stroke-width="1.218"/>
    </clipPath>
    <clipPath id="clippath-1">
      <path d="m107.186,160.16l85.617,2.213c21.251-25.692,15.574-59.328-15.137-79.514-11.113-7.304-19.014-16.425-26.905-25.847l-8,.681c-5.547,6.576-8.007,12.41-23.632,20.795-28.553,15.323-40.393,45.939-11.942,81.673Z" fill="#fdf2de" stroke="#000" stroke-miterlimit="10" stroke-width="1.218"/>
    </clipPath>
    <clipPath id="clippath-2">
      <path d="m122.075,294.122c18.511.136,36.053.798,51.306,2.704.516.064,1.003.271,1.41.594,13.137,10.415,23.301,21.593,27.867,34.209.327.902-.288,1.873-1.245,1.939-42.91,2.996-80.726,2.296-109.856-4.704-1.095-.263-1.644-1.509-1.099-2.494,7.426-13.436,17.018-24.566,30.188-31.887.435-.242.931-.364,1.429-.361Z" fill="#fcf2de" stroke="#000" stroke-miterlimit="10"/>
    </clipPath>
    <clipPath id="clippath-3">
      <path d="m173.718,296.457l.532-16.213-52.851-.681-.319,14.426c16.917.133,34.488.984,52.638,2.468Z" stroke="#000" stroke-miterlimit="10"/>
    </clipPath>
    <clipPath id="clippath-4">
      <path d="m152.223,163.362c-5.225,10.063-8.229,20.743-4.114,33.564.155.484-.007,1.018-.41,1.327-41.439,31.82-44.949,54.512-22.556,70.97l46.468,3.191c22.979-18.238,14.651-43.236-18.958-73.691-.525-.476-.678-1.263-.316-1.872,5.467-9.197,2.734-21.296-.114-33.49Z" fill="#fbf2dd" stroke="#000" stroke-miterlimit="10"/>
    </clipPath>
    <clipPath id="clippath-5">
      <path d="m90.548,328.968c.297,20.307-.825,39.33-5.489,55.149l122.043,4.723c-6.797-9.985-6.168-31.898-4.468-55.532-42.904,2.917-81.698,2.598-112.085-4.34Z" fill="#fdf2de" stroke="#000" stroke-miterlimit="10"/>
    </clipPath>
    <clipPath id="clippath-6">
      <path d="m48.229,254.415l34.468,2.043c5.238,3.583,6.912,9.106,5.681,16.213l-49.213-.255c.111-6.368-.295-12.802,9.064-18Z" stroke="#000" stroke-miterlimit="10"/>
    </clipPath>
    <clipPath id="clippath-7">
      <path d="m210.55,260.031l34.468,2.043c5.238,3.583,6.912,9.106,5.681,16.213l-49.213-.255c.111-6.368-.295-12.802,9.064-18Z" stroke="#000" stroke-miterlimit="10"/>
    </clipPath>
  </defs>
  <g id="kremlin">
    <g id="Calque_7" data-name="Calque 7">
      <path d="m77.569,227.904c48.129.497,96.348,1.634,144.596,2.894l2.298,157.532-150.638-3.319,3.745-157.106Z" fill="#fbf2dd" stroke="#000" stroke-miterlimit="10"/>
      <path d="m76.378,219.564c49.724.8,98.504,2.409,146.213,4.936l-.426,6.298-144.596-2.894-1.191-8.34Z" stroke="#000" stroke-miterlimit="10" stroke-width="1.218"/>
      <g>
        <path d="m95.441,219.223l1.632-48.157c.038-1.136.99-2.025,2.126-1.987,30.727-.941,63.609.417,97.908,3.285.849.029,1.546.681,1.631,1.526l4.958,49.417-108.255-4.085Z" fill="#fdf2de"/>
        <g clip-path="url(#clippath)">
          <path d="m191.016,163.309c-22.253-3.096-52.558-3.309-84.851-2.809-5.95,1.923-8.34,4.713-8.34,8.085l100.681,3.404c-.518-3.327-3.455-6.124-7.489-8.681Z" fill="#fdf2de" stroke="#f8ea3d" stroke-miterlimit="10"/>
        </g>
        <path d="m95.441,219.223l1.632-48.157c.038-1.136.99-2.025,2.126-1.987,30.727-.941,63.609.417,97.908,3.285.849.029,1.546.681,1.631,1.526l4.958,49.417-108.255-4.085Z" fill="none" stroke="#000" stroke-miterlimit="10" stroke-width="1.218"/>
      </g>
      <path d="m192.292,163.266c-39.649-4.326-62.584-3.21-87.319-2.681-5.89,2.804-7.924,5.613-7.277,8.426l100.979,3.191c-.293-2.95-2.697-5.933-6.383-8.936Z" stroke="#000" stroke-miterlimit="10" stroke-width="1.218"/>
      <g>
        <path d="m107.186,160.16l85.617,2.213c21.251-25.692,15.574-59.328-15.137-79.514-11.113-7.304-19.014-16.425-26.905-25.847l-8,.681c-5.547,6.576-8.007,12.41-23.632,20.795-28.553,15.323-40.393,45.939-11.942,81.673Z" fill="#fdf2de"/>
        <g clip-path="url(#clippath-1)">
          <g>
            <path d="m161.314,162.613c1.741-5.435,3.51-10.932,6.523-15.778,1.91-3.071,4.285-5.822,6.649-8.558,3.404-3.94,6.809-7.881,10.378-11.673,4.995-5.307,10.546-10.466,17.456-12.783" fill="#fdf2de"/>
            <path d="m168.546,164.607c1.462-4.549,2.89-9.114,5.333-13.25,2.646-4.479,6.337-8.305,9.749-12.202,5.809-6.634,12.134-14.945,20.686-18.102,8.979-3.314,5.097-17.817-3.988-14.464-11.442,4.223-19.446,12.988-27.305,21.959-4.052,4.625-8.416,9.251-11.661,14.501-3.338,5.399-5.35,11.563-7.28,17.57-2.96,9.212,11.518,13.157,14.464,3.988h0Z"/>
          </g>
          <g>
            <path d="m188.087,164.29c5.516-6.034,12.524-10.693,20.223-13.444" fill="#fdf2de"/>
            <path d="m193.39,169.594c4.749-5.061,10.379-9.084,16.913-11.515,3.794-1.412,6.379-5.076,5.238-9.226-1.002-3.647-5.41-6.658-9.226-5.238-8.975,3.339-16.957,8.365-23.532,15.372s3.984,17.664,10.607,10.607h0Z"/>
          </g>
          <g>
            <path d="m134.59,158.629c2.465-8.853,6.276-17.276,10.474-25.451,2.954-5.753,6.122-11.426,10.042-16.569,11.838-15.534,30.627-25.556,50.122-26.735" fill="#fdf2de"/>
            <path d="m141.822,160.622c4.564-15.77,12.473-33.292,24.148-45.096,10.395-10.509,24.504-17.084,39.257-18.153,9.571-.694,9.647-15.699,0-15-18.251,1.323-35.554,8.704-48.768,21.464-14.156,13.671-23.694,34.112-29.101,52.797-2.689,9.29,11.782,13.257,14.464,3.988h0Z"/>
          </g>
          <g>
            <path d="m107.77,155.983c3.655-15.748,11.693-30.074,19.634-44.156,1.362-2.415,2.734-4.846,4.505-6.98,2.191-2.64,4.941-4.764,7.819-6.632,5.395-3.502,11.283-6.164,17.144-8.812,8.805-3.977,17.609-7.955,26.414-11.932" fill="#fdf2de"/>
            <path d="m115.002,157.977c2.12-8.72,5.407-16.944,9.427-24.952,3.864-7.698,7.758-16.921,13.353-23.513,5.458-6.431,14.587-9.876,22.076-13.27,9.066-4.108,18.142-8.196,27.213-12.294,3.72-1.681,4.543-7.007,2.691-10.261-2.174-3.821-6.592-4.348-10.261-2.691-9.604,4.339-19.224,8.644-28.812,13.019-8.817,4.023-18.345,8.505-24.593,16.186-6.014,7.393-10.362,16.775-14.619,25.253-4.582,9.124-8.523,18.597-10.939,28.535-2.28,9.377,12.181,13.378,14.464,3.988h0Z"/>
          </g>
          <g>
            <path d="m88.729,132.123c8.133-13.042,11.258-29.111,21.392-40.667,3.577-4.079,7.903-7.433,12.373-10.507,4.546-3.128,9.303-6.011,14.451-7.998,7.007-2.705,14.576-3.692,21.625-6.286" fill="#fdf2de"/>
            <path d="m95.205,135.908c7.937-13.096,10.977-29.765,21.883-40.932,5.377-5.506,12.217-10.132,19.111-13.537,7.656-3.782,16.352-4.742,24.366-7.543,9.054-3.165,5.159-17.661-3.988-14.464-8.774,3.067-17.977,4.387-26.46,8.337-8.1,3.772-16.033,9.277-22.48,15.458-12.925,12.391-16.376,30.248-25.383,45.111-5.016,8.277,7.95,15.824,12.952,7.571h0Z"/>
          </g>
          <ellipse cx="147.42" cy="45.883" rx="10.277" ry="11.426" fill="#fdf2de" stroke="#f8ea3d" stroke-miterlimit="10"/>
          <ellipse cx="154.76" cy="39.053" rx="13.66" ry="13.532" fill="#fdf2de" stroke="#f8ea3d" stroke-miterlimit="10"/>
          <ellipse cx="147.101" cy="43.968" rx="11.362" ry="11.681" fill="#fdf2de" stroke="#f8ea3d" stroke-miterlimit="10"/>
          <line x1="146.59" y1="1.777" x2="145.441" y2="36.117" fill="#fdf2de" stroke="#f8ea3d" stroke-miterlimit="10"/>
          <polyline points="144.931 34.202 146.08 2.926 150.037 30.372 140.463 23.606" fill="#fdf2de" stroke="#f8ea3d" stroke-miterlimit="10"/>
        </g>
        <path d="m107.186,160.16l85.617,2.213c21.251-25.692,15.574-59.328-15.137-79.514-11.113-7.304-19.014-16.425-26.905-25.847l-8,.681c-5.547,6.576-8.007,12.41-23.632,20.795-28.553,15.323-40.393,45.939-11.942,81.673Z" fill="none" stroke="#000" stroke-miterlimit="10" stroke-width="1.218"/>
      </g>
      <g id="Calque_8" data-name="Calque 8">
        <line x1="145.441" y1="3.181" x2="145.824" y2="36.117" stroke="#000" stroke-miterlimit="10"/>
        <line x1="140.463" y1="22.968" x2="148.76" y2="28.84" stroke="#000" stroke-miterlimit="10"/>
        <line x1="151.441" y1="13.138" x2="138.675" y2="16.968" stroke="#000" stroke-miterlimit="10"/>
        <ellipse cx="140.378" cy="23.734" rx="1.447" ry="2.383" stroke="#000" stroke-miterlimit="10"/>
        <ellipse cx="150.463" cy="29.436" rx="1.489" ry="2.638" stroke="#000" stroke-miterlimit="10"/>
        <ellipse cx="152.292" cy="14.798" rx="2.043" ry="2.213" stroke="#000" stroke-miterlimit="10"/>
        <ellipse cx="137.612" cy="17.138" rx="2.085" ry="2.681" stroke="#000" stroke-miterlimit="10"/>
        <ellipse cx="145.143" cy="3.011" rx="2.723" ry="2.511" stroke="#000" stroke-miterlimit="10"/>
        <ellipse cx="145.782" cy="47.564" rx="10.426" ry="11.83" fill="#fdf2de" stroke="#000" stroke-miterlimit="10" stroke-width="1.218"/>
      </g>
    </g>
    <g id="toit1">
      <g>
        <path d="m122.075,294.122c18.511.136,36.053.798,51.306,2.704.516.064,1.003.271,1.41.594,13.137,10.415,23.301,21.593,27.867,34.209.327.902-.288,1.873-1.245,1.939-42.91,2.996-80.726,2.296-109.856-4.704-1.095-.263-1.644-1.509-1.099-2.494,7.426-13.436,17.018-24.566,30.188-31.887.435-.242.931-.364,1.429-.361Z" fill="#fcf2de"/>
        <g clip-path="url(#clippath-2)">
          <path d="m108.548,332.16c1.714-13.763,9.924-25.846,22.202-37.223l-.032-.819" fill="none" stroke="#000" stroke-miterlimit="10"/>
        </g>
        <path d="m122.075,294.122c18.511.136,36.053.798,51.306,2.704.516.064,1.003.271,1.41.594,13.137,10.415,23.301,21.593,27.867,34.209.327.902-.288,1.873-1.245,1.939-42.91,2.996-80.726,2.296-109.856-4.704-1.095-.263-1.644-1.509-1.099-2.494,7.426-13.436,17.018-24.566,30.188-31.887.435-.242.931-.364,1.429-.361Z" fill="none" stroke="#000" stroke-miterlimit="10"/>
      </g>
      <path d="m130.697,334.138c1.508-13.453,5.34-26.369,12.048-39.255l-.08-.319" fill="none" stroke="#000" stroke-miterlimit="10"/>
      <path d="m160.25,335.16c-1.841-14.137-4.612-27.561-8.809-39.894l.074-.362" fill="none" stroke="#000" stroke-miterlimit="10"/>
      <path d="m180.101,334.713c-4.529-14.187-9.474-26.561-16.213-38.234l-.021-.755" fill="none" stroke="#000" stroke-miterlimit="10"/>
      <path d="m111.186,323.989c4.017,7.212,10.862,8.256,21.191,1.702" fill="none" stroke="#000" stroke-miterlimit="10"/>
      <path d="m113.526,314.664c4.017,7.212,10.862,8.256,21.191,1.702" fill="none" stroke="#000" stroke-miterlimit="10"/>
      <path d="m134.973,315.855c4.017,7.212,10.862,8.256,21.191,1.702" fill="none" stroke="#000" stroke-miterlimit="10"/>
      <path d="m132.803,324.84c4.017,7.212,15.458,7.405,25.787.851" fill="none" stroke="#000" stroke-miterlimit="10"/>
      <path d="m160.037,325.181c4.017,7.212,12.085,5.106,16.596-.596" fill="none" stroke="#000" stroke-miterlimit="10"/>
      <path d="m157.081,315.762c4.017,7.212,12.085,5.106,16.596-.596" fill="none" stroke="#000" stroke-miterlimit="10"/>
      <path d="m154.4,307.656c4.017,7.212,12.085,5.106,16.596-.596" fill="none" stroke="#000" stroke-miterlimit="10"/>
      <path d="m137.613,309.698c4.017,7.212,12.085,5.106,16.596-.596" fill="none" stroke="#000" stroke-miterlimit="10"/>
      <path d="m139.952,300.181c4.017,7.212,8.957,6.213,13.468.511" fill="none" stroke="#000" stroke-miterlimit="10"/>
      <path d="m153.73,300.048c4.017,7.212,8.957,6.213,13.468.511" fill="none" stroke="#000" stroke-miterlimit="10"/>
      <path d="m165.73,301.005c4.017,7.212,8.957,6.213,13.468.511" fill="none" stroke="#000" stroke-miterlimit="10"/>
      <path d="m171.091,308.665c4.017,7.212,10.18,4.367,14.69-1.335" fill="none" stroke="#000" stroke-miterlimit="10"/>
      <path d="m174.292,316.394c4.017,7.212,12.723,2.766,17.234-2.936" fill="none" stroke="#000" stroke-miterlimit="10"/>
      <path d="m176.772,324.941c4.017,7.212,15.733,1.814,20.244-3.888" fill="#fcf2de" stroke="#000" stroke-miterlimit="10"/>
      <path d="m120.803,305.798c4.017,7.212,11.15,7.411,15.661,1.709" fill="none" stroke="#000" stroke-miterlimit="10"/>
      <path d="m126.675,298.904c4.017,7.212,8.704,6.604,13.214.902" fill="none" stroke="#000" stroke-miterlimit="10"/>
      <path d="m99.675,312.5c-2.234,6.511,9.021,8.702,13.532,3" fill="none" stroke="#000" stroke-miterlimit="10"/>
      <path d="m94.399,319.691c-2.234,6.511,11.277,9.426,15.787,3.723" fill="none" stroke="#000" stroke-miterlimit="10"/>
      <path d="m106.505,304.755c-2.234,6.511,8.155,7.262,12.666,1.56" fill="none" stroke="#000" stroke-miterlimit="10"/>
      <path d="m115.356,297.351c-4.851,6.085,4.936,8.596,9.447,2.894" fill="none" stroke="#000" stroke-miterlimit="10"/>
    </g>
    <g id="Calque_2-2" data-name="Calque 2">
      <g>
        <path d="m173.718,296.457l.532-16.213-52.851-.681-.319,14.426c16.917.133,34.488.984,52.638,2.468Z"/>
        <g clip-path="url(#clippath-3)">
          <path d="m130.441,293.989c5.114-4.376,10.343-8.899,16.117-8.027,8.027.782,11.783,4.45,14.394,9.622" fill="none" stroke="#fdf2de" stroke-miterlimit="10"/>
        </g>
        <path d="m173.718,296.457l.532-16.213-52.851-.681-.319,14.426c16.917.133,34.488.984,52.638,2.468Z" fill="none" stroke="#000" stroke-miterlimit="10"/>
      </g>
      <path d="m176.292,275.734c0,1.897-.809,3.021-2.936,4.213-5.051.861-19.127.255-26.17.255-9.536,0-19.234-.298-25.277-.638-3.718-1.02-4.17-2.451-4.17-3.83,0-1.591,1.489-4.575,6.298-5.66,5.35-1.206,14.464-.426,22.979-.426,16.169,0,29.277,2.724,29.277,6.085Z" fill="#fbf2dd" stroke="#000" stroke-miterlimit="10"/>
    </g>
    <g id="Calque_3" data-name="Calque 3">
      <g>
        <path d="m152.223,163.362c-5.225,10.063-8.229,20.743-4.114,33.564.155.484-.007,1.018-.41,1.327-41.439,31.82-44.949,54.512-22.556,70.97l46.468,3.191c22.979-18.238,14.651-43.236-18.958-73.691-.525-.476-.678-1.263-.316-1.872,5.467-9.197,2.734-21.296-.114-33.49Z" fill="#fbf2dd"/>
        <g clip-path="url(#clippath-4)">
          <path d="m120.803,262.532c3.217,0,3.223-5,0-5s-3.223,5,0,5h0Z" fill="#f8ea3d"/>
          <path d="m120.74,265.921l6.654-5.541c.893-.743,1.761-1.549,2.72-2.207,1.061-.729,2.181-1.076,3.427-1.36,5.346-1.218,10.656-2.473,15.808-4.382,8.951-3.318,17.266-8.345,23.888-15.277,3.627-3.797,6.722-8.124,9.027-12.846.592-1.213.329-2.703-.897-3.42-1.099-.643-2.826-.321-3.42.897-3.899,7.987-10.058,14.636-17.454,19.521-8.617,5.692-18.319,8.405-28.281,10.686-1.411.323-2.811.762-4.063,1.507-1.28.761-2.411,1.78-3.551,2.73l-7.393,6.156c-1.038.865-.894,2.642,0,3.536,1.028,1.028,2.495.867,3.536,0h0Z"/>
          <path d="m118.621,261.544c1.999-3.637,5.824-5.69,9.617-7.029,1.111-.392,2.165-.722,3.353-.673,1.274.052,2.515.217,3.794.129,2.49-.17,4.905-.779,7.217-1.706,4.61-1.849,8.892-4.474,13.247-6.841,2.226-1.21,4.375-2.514,6.34-4.121,1.919-1.568,3.32-3.548,4.927-5.41,3.54-4.103,7.972-7.281,11.13-11.735.781-1.102.196-2.781-.897-3.42-1.253-.733-2.637-.208-3.42.897-2.685,3.787-6.539,6.551-9.659,9.949-1.651,1.799-3.008,3.858-4.824,5.504-1.71,1.549-3.735,2.712-5.749,3.817-4.184,2.294-8.361,4.982-12.823,6.697-2.241.861-4.558,1.462-6.972,1.4-1.228-.032-2.43-.244-3.659-.11-1.35.147-2.604.528-3.872.998-4.817,1.788-9.515,4.49-12.065,9.13-1.55,2.822,2.766,5.347,4.317,2.524h0Z"/>
          <path d="m168.926,227.287c-.995,2.039-2.073,4.04-3.264,5.972-.949,1.54-2.15,3.16-3.465,4.097-3.214,2.293-6.893,3.086-10.451,4.879-1.205.607-1.548,2.307-.897,3.42.717,1.226,2.21,1.507,3.42.897,1.752-.883,3.392-1.456,5.291-2.24,1.971-.814,3.91-1.684,5.618-2.978,3.763-2.851,6.036-7.363,8.065-11.524.592-1.213.329-2.703-.897-3.42-1.099-.643-2.826-.322-3.42.897h0Z"/>
          <path d="m129.16,252.472l-11.524,3.853c-1.238.414-2.177,1.742-1.746,3.075.399,1.232,1.747,2.19,3.075,1.746l11.524-3.853c1.238-.414,2.177-1.742,1.746-3.075-.399-1.232-1.747-2.19-3.075-1.746h0Z"/>
          <path d="m116.439,260.024c4.158-2.609,8.249-5.44,12.571-7.77,4.153-2.24,8.901-3.213,13.377-4.609,4.695-1.464,9.332-3.11,13.819-5.131,4.188-1.886,8.298-4.02,11.032-7.836.65-.907,1.188-1.9,1.93-2.737.713-.805,1.523-1.515,2.343-2.208,1.812-1.533,3.573-3.028,4.845-5.065,1.71-2.737-2.615-5.25-4.317-2.524-.956,1.531-2.406,2.659-3.772,3.808-1.581,1.329-2.975,2.715-4.151,4.425s-2.279,3.255-4.035,4.441c-1.804,1.219-3.785,2.176-5.758,3.086-4.214,1.944-8.615,3.464-13.041,4.849-4.541,1.421-9.271,2.478-13.574,4.556-4.813,2.325-9.272,5.56-13.794,8.397-2.719,1.706-.213,6.034,2.524,4.317h0Z"/>
          <path d="m143.335,280.595c2.534-.651,5.094-1.601,7.353-2.946,1.537-.915,2.819-2.23,4.465-2.889,5.189-2.08,9.33-3.301,13.676-7.15,7.699-6.818,15.91-14.226,21.593-22.843,5.33-8.081-7.654-15.603-12.952-7.571-4.694,7.116-11.903,12.921-18.087,18.729-3.232,3.035-6.287,3.492-10.218,5.106-3.522,1.446-6.061,4.135-9.817,5.1-9.343,2.4-5.383,16.871,3.988,14.464h0Z"/>
          <path d="m117.531,245.732c-.286,1.224-.814.51.87-.189,1.225-.508,2.449-.994,3.699-1.445,2.438-.879,4.912-1.659,7.388-2.424,5.217-1.612,10.476-3.114,15.558-5.126,10.742-4.254,18.94-11.407,28.439-17.718,8.004-5.317.501-18.314-7.571-12.952-5.434,3.611-10.397,7.883-15.867,11.438-5.329,3.462-11.081,5.691-17.109,7.61-9.481,3.017-27.163,5.231-29.87,16.82-2.193,9.391,12.266,13.399,14.464,3.988h0Z"/>
          <path d="m123.267,222.575l19.391-11.93c5.94-3.655,11.857-7.828,18.347-10.458,3.737-1.514,6.421-5.002,5.238-9.226-.995-3.552-5.437-6.774-9.226-5.238-14.644,5.934-27.905,15.646-41.321,23.9-8.208,5.05-.682,18.03,7.571,12.952h0Z"/>
          <path d="m135.282,196.839c9.724-2.982,19.131-6.882,28.125-11.63,8.54-4.508.968-17.46-7.571-12.952-7.891,4.165-16.012,7.503-24.542,10.118-9.202,2.821-5.278,17.305,3.988,14.464h0Z"/>
          <path d="m143.723,177.998c8.046-2.585,16.092-5.17,24.138-7.755,9.154-2.941,5.24-17.429-3.988-14.464-8.046,2.585-16.092,5.17-24.138,7.755-9.154,2.941-5.24,17.429,3.988,14.464h0Z"/>
          <path d="m138.797,281.884c8.376-4.686,17.571-7.059,24.736-13.774,7.059-6.615-3.564-17.206-10.607-10.607-5.98,5.604-14.664,7.491-21.7,11.428-8.425,4.714-.871,17.675,7.571,12.952h0Z"/>
          <path d="m162.292,268.553c9.652,0,9.668-15,0-15s-9.668,15,0,15h0Z"/>
          <path d="m172.447,285.989c5.483-1.353,10.743-3.759,15.254-7.163,3.228-2.436,4.906-6.474,2.691-10.261-1.86-3.18-7.009-5.145-10.261-2.691-3.846,2.902-7.165,4.539-11.671,5.651-3.933.97-6.291,5.396-5.238,9.226,1.1,4.003,5.28,6.212,9.226,5.238h0Z"/>
        </g>
        <path d="m152.223,163.362c-5.225,10.063-8.229,20.743-4.114,33.564.155.484-.007,1.018-.41,1.327-41.439,31.82-44.949,54.512-22.556,70.97l46.468,3.191c22.979-18.238,14.651-43.236-18.958-73.691-.525-.476-.678-1.263-.316-1.872,5.467-9.197,2.734-21.296-.114-33.49Z" fill="none" stroke="#000" stroke-miterlimit="10"/>
      </g>
    </g>
    <g id="Calque_4" data-name="Calque 4">
      <g>
        <path d="m90.548,328.968c.297,20.307-.825,39.33-5.489,55.149l122.043,4.723c-6.797-9.985-6.168-31.898-4.468-55.532-42.904,2.917-81.698,2.598-112.085-4.34Z" fill="#fdf2de"/>
        <g clip-path="url(#clippath-5)">
          <path d="m100.806,385.003c-1.002-8.729-.622-16.787.052-25.517s-.192-17.556-.632-26.282c-.485-9.606-15.488-9.664-15,0,.44,8.723,1.307,17.554.632,26.282s-1.052,16.805-.052,25.517c.462,4.024,3.117,7.5,7.5,7.5,3.696,0,7.965-3.449,7.5-7.5h0Z"/>
          <path d="m101.735,384.751c.245-2.214-.055-4.668.385-6.835.32-1.578,1.138-2.869,1.704-4.373,1.592-4.224,1.14-7.859.662-12.231-.376-3.444-.546-6.677-1.152-10.046-.324-1.799-.121-3.803-.336-5.634-.253-2.156-.911-4.384-.874-6.542l-1.024,3.785c-2.05,1.159-2.428,1.568-1.137,1.228.609-.075,1.185-.263,1.728-.564,3.743-1.501,6.418-5.012,5.238-9.226-.998-3.563-5.432-6.76-9.226-5.238-4.937,1.98-9.373,2.864-10.446,9.019-.457,2.621.352,5.103.729,7.671.424,2.895-.022,5.956.629,8.807.852,3.735,2.224,9.751,1.295,13.618-.625,2.599-2.072,4.727-2.495,7.477-.463,3.013-.346,6.059-.681,9.085-.445,4.032,3.766,7.5,7.5,7.5,4.425,0,7.053-3.456,7.5-7.5h0Z"/>
          <path d="m192.803,344.635l14.045-.717c4.046-.206,7.5-3.299,7.5-7.5,0-3.902-3.435-7.707-7.5-7.5l-14.045.717c-4.046.206-7.5,3.299-7.5,7.5,0,3.902,3.435,7.707,7.5,7.5h0Z"/>
          <path d="m191.755,340.229c-1.465,11.387-.786,22.794-.614,34.232s-2.26,22.941-1.376,34.297c.744,9.561,15.751,9.642,15,0-.884-11.357,1.548-22.873,1.376-34.297s-.851-22.844.614-34.232c.518-4.024-3.818-7.5-7.5-7.5-4.483,0-6.981,3.464-7.5,7.5h0Z"/>
          <path d="m201.123,392.808c3.327,1.653,6.699,3.203,10.119,4.651,3.602,1.525,8.205,1.202,10.261-2.691,1.696-3.211,1.167-8.628-2.691-10.261-3.42-1.448-6.792-2.998-10.119-4.651-3.509-1.743-8.282-1.056-10.261,2.691-1.792,3.392-1.061,8.398,2.691,10.261h0Z"/>
          <path d="m89.814,370.883c-.494,5.505-.439,10.98.164,16.474.442,4.026,3.131,7.5,7.5,7.5,3.712,0,7.945-3.448,7.5-7.5-.603-5.494-.658-10.969-.164-16.474.362-4.04-3.706-7.5-7.5-7.5-4.358,0-7.137,3.449-7.5,7.5h0Z"/>
          <path d="m85.346,352.029c1.629,5.92.868,12.945,1.021,19.066.24,9.635,15.241,9.672,15,0-.187-7.516.452-15.755-1.556-23.054-2.558-9.295-17.033-5.349-14.464,3.988h0Z"/>
          <line x1="153.548" y1="139.266" x2="152.335" y2="162.117" fill="none" stroke="#f8ea3d" stroke-miterlimit="10"/>
        </g>
        <path d="m90.548,328.968c.297,20.307-.825,39.33-5.489,55.149l122.043,4.723c-6.797-9.985-6.168-31.898-4.468-55.532-42.904,2.917-81.698,2.598-112.085-4.34Z" fill="none" stroke="#000" stroke-miterlimit="10"/>
      </g>
      <path d="m127.824,372.628l.779-20.054c.165-4.26,2.352-8.235,5.968-10.492,6.4-3.995,12.492-5.13,18.198-2.677,5.94,2.554,9.661,8.554,9.843,15.017l.053,1.868.65,23.104-35.617-.511.128-6.255Z" fill="none" stroke="#000" stroke-miterlimit="10"/>
      <path d="m128.846,355.521l33.383.638c-.656-10.805-4.85-17.881-15.766-17.872l-.83,40.66" fill="none" stroke="#000" stroke-miterlimit="10"/>
    </g>
    <g id="Calque_5" data-name="Calque 5">
      <polygon points="88.292 367.479 89.229 296.16 39.165 296.064 36.378 367.649 88.292 367.479" fill="#fbf2dd" stroke="#000" stroke-miterlimit="10"/>
      <path d="m39.899,289.011h48.447c1.85,0,3.351,1.502,3.351,3.351h0c0,1.85-1.502,3.351-3.351,3.351h-48.83c-1.744,0-3.16-1.416-3.16-3.16h0c0-1.955,1.587-3.543,3.543-3.543Z" stroke="#000" stroke-miterlimit="10"/>
      <polygon points="87.952 289.011 87.952 273.011 41.909 272.585 42.25 288.926 87.952 289.011" fill="#fbf2dd" stroke="#000" stroke-miterlimit="10"/>
      <g>
        <path d="m48.229,254.415l34.468,2.043c5.238,3.583,6.912,9.106,5.681,16.213l-49.213-.255c.111-6.368-.295-12.802,9.064-18Z"/>
        <g clip-path="url(#clippath-6)">
          <path d="m74.689,261.459l2.928-3.165c.672-.726,1.835-.673,2.438.111l2.251,2.926" fill="none" stroke="#fdf2de" stroke-miterlimit="10"/>
          <path d="m60.136,265.459l2.928-3.165c.672-.726,1.835-.673,2.438.111l2.251,2.926" fill="none" stroke="#fdf2de" stroke-miterlimit="10"/>
        </g>
        <path d="m48.229,254.415l34.468,2.043c5.238,3.583,6.912,9.106,5.681,16.213l-49.213-.255c.111-6.368-.295-12.802,9.064-18Z" fill="none" stroke="#000" stroke-miterlimit="10"/>
      </g>
      <polygon points="48.739 240.947 82.665 241.138 82.697 256.457 48.229 254.415 48.739 240.947" fill="#fbf2dd" stroke="#000" stroke-miterlimit="10"/>
      <rect x="45.399" y="229.266" width="41.702" height="11.745" rx="5.872" ry="5.872" stroke="#000" stroke-miterlimit="10"/>
      <path d="m47.101,228.585l37.106-.34c21.44-9.228,20.053-31.318.629-44.436-9.749-6.584-13.31-14.828-19.182-22.628-4.655,6.697-9.006,14.02-17.199,19.109-20.984,13.036-27.777,36.306-1.354,48.295Z" fill="#fbf2dd" stroke="#000" stroke-miterlimit="10"/>
      <path d="m42.037,270.968l2.928-3.165c.672-.726,1.835-.673,2.438.111l2.251,2.926" fill="none" stroke="#fdf2de" stroke-miterlimit="10"/>
      <path d="m53.405,270.951l2.928-3.165c.672-.726,1.835-.673,2.438.111l2.251,2.926" fill="none" stroke="#fdf2de" stroke-miterlimit="10"/>
      <path d="m47.746,264.738l2.928-3.165c.672-.726,1.835-.673,2.438.111l2.251,2.926" fill="none" stroke="#fdf2de" stroke-miterlimit="10"/>
      <path d="m64.469,271.121l2.928-3.165c.672-.726,1.835-.673,2.438.111l2.251,2.926" fill="none" stroke="#fdf2de" stroke-miterlimit="10"/>
      <path d="m63.788,260.951l2.928-3.165c.672-.726,1.835-.673,2.438.111l2.251,2.926" fill="none" stroke="#fdf2de" stroke-miterlimit="10"/>
      <path d="m52.98,259.972l2.928-3.165c.672-.726,1.835-.673,2.438.111l2.251,2.926" fill="none" stroke="#fdf2de" stroke-miterlimit="10"/>
      <path d="m75.193,271.164l2.928-3.165c.672-.726,1.835-.673,2.438.111l2.251,2.926" fill="none" stroke="#fdf2de" stroke-miterlimit="10"/>
      <path d="m68.725,265.547l2.928-3.165c.672-.726,1.835-.673,2.438.111l2.251,2.926" fill="none" stroke="#fdf2de" stroke-miterlimit="10"/>
      <path d="m80.682,265.759l2.928-3.165c.672-.726,1.835-.673,2.438.111l2.251,2.926" fill="none" stroke="#fdf2de" stroke-miterlimit="10"/>
      <path d="m41.526,260.638c2.502-.259,3.324,1.554,3.926,3.638" fill="none" stroke="#fdf2de" stroke-miterlimit="10"/>
      <path d="m46.314,255.947c1.822.786,3.179,1.921,3.532,3.809" fill="none" stroke="#fdf2de" stroke-miterlimit="10"/>
      <path d="m48.888,244.032c5.364-.52,7.093,4.003,8.468,10.622l-8.856-.495.388-10.128Z" stroke="#000" stroke-miterlimit="10"/>
      <path d="m58.792,254.734l14.234.862-.225-5.698c-.083-2.095-.959-4.141-2.603-5.442s-3.493-1.542-5.561-.655c-2.542,1.091-4.298,3.474-4.86,6.182l-.985,4.751Z" stroke="#000" stroke-miterlimit="10"/>
      <path d="m74.303,255.883l8.17.415-.032-12c-5.046.948-8.302,4.132-8.138,11.585Z" stroke="#000" stroke-miterlimit="10"/>
      <ellipse cx="65.846" cy="152.734" rx="5.074" ry="8.043" fill="#fbf2dd" stroke="#000" stroke-miterlimit="10"/>
      <polyline points="66.292 126.564 66.053 136.266 65.846 144.691" stroke="#000" stroke-miterlimit="10"/>
      <line x1="58.505" y1="138.755" x2="70.314" y2="134.67" stroke="#000" stroke-miterlimit="10"/>
      <ellipse cx="70.42" cy="134.777" rx=".468" ry="1.766" stroke="#000" stroke-miterlimit="10"/>
      <ellipse cx="59.143" cy="138.777" rx="1.191" ry="1.34" stroke="#000" stroke-miterlimit="10"/>
      <ellipse cx="66.165" cy="127.436" rx="1.851" ry="2.34" stroke="#000" stroke-miterlimit="10"/>
    </g>
    <g id="Calque_6" data-name="Calque 6">
      <polygon points="250.614 373.095 251.55 301.776 201.486 301.68 198.699 373.265 250.614 373.095" fill="#fbf2dd" stroke="#000" stroke-miterlimit="10"/>
      <path d="m202.22,294.627h48.447c1.85,0,3.351,1.502,3.351,3.351h0c0,1.85-1.502,3.351-3.351,3.351h-48.83c-1.744,0-3.16-1.416-3.16-3.16h0c0-1.955,1.587-3.543,3.543-3.543Z" stroke="#000" stroke-miterlimit="10"/>
      <polygon points="250.273 294.627 250.273 278.627 204.231 278.201 204.571 294.542 250.273 294.627" fill="#fbf2dd" stroke="#000" stroke-miterlimit="10"/>
      <g>
        <path d="m210.55,260.031l34.468,2.043c5.238,3.583,6.912,9.106,5.681,16.213l-49.213-.255c.111-6.368-.295-12.802,9.064-18Z"/>
        <g clip-path="url(#clippath-7)">
          <path d="m237.011,267.075l2.928-3.165c.672-.726,1.835-.673,2.438.111l2.251,2.926" stroke="#fdf2de" stroke-miterlimit="10"/>
          <path d="m222.458,271.075l2.928-3.165c.672-.726,1.835-.673,2.438.111l2.251,2.926" stroke="#fdf2de" stroke-miterlimit="10"/>
        </g>
        <path d="m210.55,260.031l34.468,2.043c5.238,3.583,6.912,9.106,5.681,16.213l-49.213-.255c.111-6.368-.295-12.802,9.064-18Z" fill="none" stroke="#000" stroke-miterlimit="10"/>
      </g>
      <polygon points="211.061 246.563 244.986 246.754 245.018 262.074 210.55 260.031 211.061 246.563" fill="#fbf2dd" stroke="#000" stroke-miterlimit="10"/>
      <rect x="207.72" y="234.882" width="41.702" height="11.745" rx="5.872" ry="5.872" stroke="#000" stroke-miterlimit="10"/>
      <path d="m210.188,234.649l37.106-.505c21.44-13.679,20.053-46.424.629-65.869-9.749-9.76-13.31-21.981-19.182-33.543-4.655,9.927-9.006,20.782-17.199,28.327-20.984,19.324-27.777,53.818-1.354,71.589Z" fill="#fbf2dd" stroke="#000" stroke-miterlimit="10"/>
      <path d="m204.358,276.584l2.928-3.165c.672-.726,1.835-.673,2.438.111l2.251,2.926" stroke="#fdf2de" stroke-miterlimit="10"/>
      <path d="m215.727,276.567l2.928-3.165c.672-.726,1.835-.673,2.438.111l2.251,2.926" stroke="#fdf2de" stroke-miterlimit="10"/>
      <path d="m210.067,270.354l2.928-3.165c.672-.726,1.835-.673,2.438.111l2.251,2.926" stroke="#fdf2de" stroke-miterlimit="10"/>
      <path d="m226.791,276.737l2.928-3.165c.672-.726,1.835-.673,2.438.111l2.251,2.926" stroke="#fdf2de" stroke-miterlimit="10"/>
      <path d="m226.11,266.567l2.928-3.165c.672-.726,1.835-.673,2.438.111l2.251,2.926" stroke="#fdf2de" stroke-miterlimit="10"/>
      <path d="m215.301,265.588l2.928-3.165c.672-.726,1.835-.673,2.438.111l2.251,2.926" stroke="#fdf2de" stroke-miterlimit="10"/>
      <path d="m237.514,276.78l2.928-3.165c.672-.726,1.835-.673,2.438.111l2.251,2.926" stroke="#fdf2de" stroke-miterlimit="10"/>
      <path d="m231.046,271.163l2.928-3.165c.672-.726,1.835-.673,2.438.111l2.251,2.926" stroke="#fdf2de" stroke-miterlimit="10"/>
      <path d="m243.003,271.375l2.928-3.165c.672-.726,1.835-.673,2.438.111l2.251,2.926" stroke="#fdf2de" stroke-miterlimit="10"/>
      <path d="m203.848,266.254c2.502-.259,3.324,1.554,3.926,3.638" stroke="#fdf2de" stroke-miterlimit="10"/>
      <path d="m208.635,261.563c1.822.786,3.179,1.921,3.532,3.809" stroke="#fdf2de" stroke-miterlimit="10"/>
      <path d="m211.209,249.648c5.364-.52,7.093,4.003,8.468,10.622l-8.856-.495.388-10.128Z" stroke="#000" stroke-miterlimit="10"/>
      <path d="m221.114,260.35l14.234.862-.225-5.698c-.083-2.095-.959-4.141-2.603-5.442s-3.493-1.542-5.561-.655c-2.542,1.091-4.298,3.474-4.86,6.182l-.985,4.751Z" stroke="#000" stroke-miterlimit="10"/>
      <path d="m236.624,261.499l8.17.415-.032-12c-5.046.948-8.302,4.132-8.138,11.585Z" stroke="#000" stroke-miterlimit="10"/>
      <ellipse cx="228.933" cy="122.212" rx="5.074" ry="11.922" fill="#fbf2dd" stroke="#000" stroke-miterlimit="10"/>
      <polyline points="229.38 83.419 229.141 97.801 228.933 110.29" stroke="#000" stroke-miterlimit="10" stroke-width="1.218"/>
      <line x1="221.592" y1="101.491" x2="233.401" y2="95.435" stroke="#000" stroke-miterlimit="10" stroke-width="1.218"/>
      <ellipse cx="233.507" cy="95.593" rx=".468" ry="2.618" stroke="#000" stroke-miterlimit="10" stroke-width="1.218"/>
      <ellipse cx="222.231" cy="101.522" rx="1.191" ry="1.987" stroke="#000" stroke-miterlimit="10" stroke-width="1.218"/>
      <ellipse cx="229.252" cy="84.712" rx="1.851" ry="3.469" stroke="#000" stroke-miterlimit="10" stroke-width="1.218"/>
    </g>
    <g id="Calque_9" data-name="Calque 9">
      <path d="m7.612,285.096c8.404-2.611,26.866,17.686,27.915,38.468.68,13.47-6.07,24.881-4.085,25.872,2.741,1.369,11.649-22.348,23.83-22.128,9.589.173,20.106,15.161,18.723,27.574-1.126,10.104-9.87,16.116-8.511,17.702,2.532,2.955,28.379-23.166,43.234-16,6.739,3.251,11.834,13.652,15.319,20.766,3.994,8.153,3.971,11.749,6.468,12.255,6.638,1.346,9.742-23.467,28.255-31.319,7.74-3.283,18.537-3.755,26.894.681,9.269,4.92,10.459,13.184,14.638,12.596,5.315-.748,5.005-14.339,14.298-37.447,6.571-16.339,11.542-21.52,17.362-23.489,1.521-.515,6.91-2.099,11.915.34,7.844,3.824,10.054,15.246,9.872,15.319-.287.115-16.294-23.989-9.191-42.213,1.815-4.656,5.882-10.839,12.936-14.298,1.177-.577,9.711-4.762,16-2.043,14.538,6.286,9.511,46.188,8.511,54.128-3.43,27.226-13.801,47.695-21.447,59.915-6.575,10.508-11.74,18.763-20.085,25.532-22.824,18.514-46.307,7.158-148.085-6.468-30.649-4.103-45.976-5.411-61.617-18.383-21.313-17.676-26.512-43.164-27.915-50.043-3.599-17.645-3.804-44.656,4.766-47.319Z" fill="#fbf2dd" stroke="#000" stroke-miterlimit="10"/>
    </g>
  </g>
</svg>