<?xml version="1.0" encoding="UTF-8"?>
<svg id="Calque_2" data-name="Calque 2" xmlns="http://www.w3.org/2000/svg" viewBox="0 0 273.799 341.082">
  <g id="Calque_7" data-name="Calque 7">
    <g id="Calque_8" data-name="Calque 8">
      <path d="m168.317,111.133c.473.473.974.919,1.494,1.346-.518-.434-1.019-.881-1.494-1.346Zm-11.074,85.021c.345.604.705,1.21,1.095,1.827-.382-.617-.742-1.223-1.095-1.827Zm17.19-80.732c.631.308,1.273.588,1.943.842-.67-.254-1.311-.541-1.943-.842Zm-1.835-.991c.593.355,1.204.69,1.835.991-.631-.308-1.243-.636-1.835-.991Z" fill="none" stroke="#000" stroke-miterlimit="10" stroke-width="3.091"/>
      <path d="m272.145,123.678l-9.654,53.945c-.652,3.65-4.096,6.193-7.968,5.881l-30.821-2.49-16.97-1.369c-2.623-.213-4.924-1.728-6.165-3.959-1.179-2.117-2.47-4.047-3.851-5.796-.233-.288-.466-.576-.702-.85-.241-.289-.475-.57-.72-.83-.234-.281-.479-.541-.726-.793-.455-.492-.921-.964-1.397-1.414-.034-.035-.062-.061-.097-.089-.255-.246-.512-.478-.77-.702-.249-.231-.501-.447-.752-.663-.797-.676-1.616-1.311-2.452-1.888-.227-.168-.456-.32-.685-.473-.573-.382-1.149-.742-1.735-1.089-.275-.159-.558-.32-.836-.465-.276-.152-.56-.305-.839-.443-.249-.126-.498-.251-.747-.37-.331-.153-.663-.305-.995-.45-.531-.234-1.066-.446-1.595-.642-.067-.025-.127-.048-.187-.064-.245-.095-.485-.175-.732-.255-.239-.087-.48-.159-.72-.231-.082-.027-.157-.053-.241-.072-.459-.141-.927-.268-1.39-.38-.235-.056-.471-.113-.699-.161-.212-.053-.419-.09-.633-.129-.206-.045-.404-.081-.603-.117-.283-.048-.559-.096-.844-.137-11.942-1.722-22.978,4.473-24.386,16.691-.022.207-.044.413-.059.628-.021.252-.041.503-.055.763-.009.171-.019.349-.021.529-.007.156-.006.314-.013.47.001.21.001.427.001.644.003.255.013.511.023.767.022.505.058,1.012.111,1.521.019.197.037.395.064.593.056.427.111.862.189,1.3.033.207.066.414.107.622.033.154.064.316.096.478.039.223.086.439.14.664.051.247.108.502.173.759.122.512.26,1.026.42,1.551.072.265.159.532.239.791.08.266.167.533.261.801.087.267.181.543.283.812.094.276.203.553.304.83.103.269.205.539.323.81.452,1.113.956,2.242,1.527,3.402.272.563.567,1.13.876,1.706.167.309.334.625.516.943.162.293.33.594.506.897.345.604.705,1.21,1.095,1.827.815,1.315,1.704,2.664,2.676,4.032,1.042,1.483,1.507,3.265,1.278,5.021l-2.592,19.557-14.157,106.731c-.506,3.835-4.092,6.553-8.129,6.18l-59.172-5.559c-4.323-.399-7.449-4.196-6.836-8.286l16.385-109.389,3.101-20.689c.288-1.943,1.415-3.659,3.07-4.798.932-.637,1.819-1.288,2.65-1.939.265-.201.521-.404.77-.608.265-.201.515-.412.756-.617.231-.184.454-.369.662-.563.116-.096.225-.2.341-.295.611-.533,1.199-1.077,1.749-1.62.211-.209.42-.411.623-.621.211-.209.413-.412.6-.625.594-.633,1.155-1.256,1.67-1.893.179-.206.351-.421.515-.63.336-.423.655-.841.951-1.263.145-.189.276-.387.405-.578.299-.443.59-.881.858-1.321.133-.213.257-.42.374-.635.124-.207.248-.413.358-.63.342-.632.661-1.267.94-1.893.101-.21.185-.415.271-.627.093-.211.179-.423.256-.629.086-.212.162-.418.231-.625.066-.185.131-.363.189-.549.056-.172.113-.351.171-.529.049-.18.098-.353.146-.525.065-.23.122-.462.179-.693.056-.224.113-.455.153-.682,2.695-12.864-7.023-23.975-20.183-25.416-.356-.036-.719-.074-1.085-.097l-.023-.003c-.21-.015-.421-.023-.639-.032-.194-.013-.382-.018-.579-.016-.156-.007-.321-.009-.485-.01-.18-.004-.361,0-.55.003-.44.004-.882.023-1.327.056-.38.02-.761.055-1.144.097-.23.019-.463.053-.695.08-.232.027-.456.062-.69.103-.385.057-.763.122-1.152.201-.194.039-.388.079-.591.124-1.094.239-2.19.545-3.296.917-.455.159-.91.325-1.368.507-.241.093-.482.185-.717.293-.234.094-.459.188-.687.298-.016.005-.033.01-.049.015-.235.108-.471.217-.7.333-.243.107-.48.223-.718.353-.227.102-.448.22-.67.345-.255.135-.511.278-.767.421-.239.13-.478.268-.72.42-.48.283-.955.581-1.433.901-.476.306-.956.641-1.429.984-.885.636-1.77,1.332-2.638,2.075-1.683,1.434-3.958,2.08-6.207,1.726l-20.759-3.24-30.509-4.766c-4.022-.632-6.845-4.191-6.376-8.047l6.873-56.322c.489-4.047,4.394-6.846,8.616-6.185l33.264,5.2,16.391,2.558c2.433.381,4.508,1.893,5.633,3.994,1.2,2.239,2.569,4.234,4.079,6.009.196.223.383.445.58.66.215.248.441.483.659.709.225.235.444.461.671.681.199.201.392.386.592.572.055.053.118.107.173.16.436.407.883.794,1.34,1.159,1.446,1.189,2.955,2.208,4.518,3.077.261.15.523.293.786.428.263.135.534.272.798.4.528.256,1.066.498,1.608.718.193.08.385.16.586.234.133.057.267.106.402.155.551.207,1.112.4,1.668.57.21.068.412.134.625.187.233.071.475.136.709.2.499.132,1,.249,1.504.352.19.042.373.084.565.111.182.041.367.068.55.102.276.047.552.094.828.134,5.475.789,10.931.079,15.554-1.928.344-.153.68-.306,1.009-.468,5.82-2.852,10.115-7.87,11.087-14.611.032-.22.057-.448.082-.677.031-.213.046-.428.061-.643.032-.332.05-.674.054-1.025.005-.201.011-.403.009-.605.005-.201.003-.404-.006-.615-.006-.233-.018-.474-.038-.717-.011-.249-.03-.498-.056-.757-.02-.242-.045-.501-.08-.753.001-.007.003-.022-.004-.031-.026-.251-.069-.504-.109-.764-.03-.229-.068-.452-.112-.69l-.027-.139c-.043-.246-.1-.501-.158-.757-.051-.247-.109-.495-.166-.75-.074-.303-.156-.606-.245-.911-.072-.265-.151-.531-.238-.798-.342-1.112-.759-2.251-1.266-3.417-.123-.295-.254-.583-.391-.88-.13-.296-.268-.593-.421-.892-.132-.281-.272-.563-.42-.847-.326-.624-.668-1.249-1.031-1.886-.175-.31-.358-.621-.548-.933-.153-.247-.305-.501-.464-.756-.064-.099-.129-.198-.193-.297-.332-.527-.68-1.056-1.049-1.596-1.134-1.661-2.427-3.367-3.879-5.111-1.183-1.428-1.798-3.209-1.687-5.013l1.112-17.674,1.853-29.509c.27-4.214,4.258-7.262,8.636-6.594l61.836,9.515c4.169.646,7.024,4.419,6.342,8.387l-4.912,28.401-2.802,16.217c-.322,1.855-1.408,3.503-2.995,4.607-2.226,1.558-4.229,3.141-5.999,4.75-.676.606-1.313,1.211-1.92,1.827-.21.202-.404.406-.598.61-.192.189-.369.381-.546.573-.959,1.045-1.838,2.078-2.633,3.124-.473.613-.915,1.231-1.327,1.853-.28.416-.543.828-.791,1.241-.193.302-.37.606-.532.912-.176.297-.337.595-.489.888-.131.258-.262.509-.384.761-.088.174-.176.349-.247.518-.1.203-.192.407-.277.611-.184.408-.353.818-.506,1.222-.076.199-.15.39-.211.591-.047.106-.086.212-.118.327-.078.213-.148.428-.21.644-.33,1.038-.581,2.072-.76,3.095-.042.241-.085.482-.12.724-.961,6.607,1.08,12.652,5.113,17.134.297.335.604.656.921.964.473.473.974.919,1.494,1.346.527.428,1.065.835,1.63,1.216.379.257.76.499,1.158.736.593.355,1.204.69,1.835.991.631.308,1.273.588,1.943.842,2.343.899,4.897,1.477,7.609,1.674.442.034.878.059,1.325.064.445.019.9.017,1.357.008s.922-.024,1.389-.054c.452-.032.913-.071,1.376-.124.23-.019.471-.052.703-.086.472-.059.946-.133,1.421-.222.475-.081.952-.177,1.431-.288.722-.158,1.455-.344,2.185-.561.483-.14.976-.293,1.464-.463.247-.077.495-.168.744-.26.489-.177.987-.367,1.48-.573.25-.099.501-.205.752-.318.476-.201.956-.424,1.437-.654.769-.376,1.54-.774,2.317-1.208.247-.137.503-.279.753-.43.256-.143.506-.294.756-.453,1.04-.629,2.073-1.311,3.107-2.06,1.525-1.105,3.459-1.56,5.365-1.33l21.118,2.543,31.087,3.749c4.306.516,7.32,4.387,6.591,8.46Z" fill="none" stroke="#000" stroke-miterlimit="10" stroke-width="3.091"/>
      <path d="m196.716,169.891c-8.965,13.397-22.593,23.359-38.378,28.091-24.008-38.741,17.536-54.328,38.378-28.091Z" fill="none" stroke="#000" stroke-miterlimit="10" stroke-width="3.091"/>
      <path d="m223.702,181.015c-13.761,23.083-37.025,39.666-64.002,45.577l2.592-19.557c.23-1.756-.236-3.538-1.278-5.021-.972-1.368-1.861-2.717-2.676-4.032,15.786-4.732,29.413-14.694,38.378-28.091,1.38,1.749,2.672,3.68,3.851,5.796,1.241,2.23,3.542,3.745,6.165,3.959l16.97,1.369Z" fill="none" stroke="#000" stroke-miterlimit="10" stroke-width="3.794"/>
      <path d="m96.613,188.842c-13.666-9.046-23.793-22.433-28.528-37.775,28.42-20.602,61.201,12.501,28.528,37.775Z" fill="none" stroke="#000" stroke-miterlimit="10" stroke-width="3.091"/>
      <path d="m96.613,188.842c-.832.651-1.718,1.302-2.65,1.939-1.656,1.139-2.782,2.856-3.07,4.798l-3.101,20.689c-25.123-13.752-43.191-37.396-49.311-64.64l20.759,3.24c2.249.354,4.524-.291,6.207-1.726.869-.743,1.754-1.439,2.638-2.075,4.735,15.342,14.862,28.729,28.528,37.775Z" fill="none" stroke="#000" stroke-miterlimit="10" stroke-width="3.794"/>
      <path d="m76.453,94.069c9.28-13.838,23.534-24.009,39.996-28.531,24.106,35.236-19.937,52.088-39.996,28.531Z" fill="none" stroke="#000" stroke-miterlimit="10" stroke-width="3.091"/>
      <path d="m116.448,65.538c-16.462,4.522-30.716,14.693-39.996,28.531-1.51-1.775-2.879-3.769-4.079-6.009-1.126-2.101-3.2-3.613-5.633-3.994l-16.391-2.558c13.606-21.899,35.866-37.722,61.645-43.768l-1.112,17.674c-.111,1.803.504,3.584,1.687,5.013,1.452,1.744,2.744,3.45,3.879,5.111Z" fill="none" stroke="#000" stroke-miterlimit="10" stroke-width="3.794"/>
      <path d="m204.876,112.317c-30.739,18.77-59.86-12.659-30.923-38.802,14.791,8.916,25.809,22.768,30.923,38.802Z" fill="none" stroke="#000" stroke-miterlimit="10" stroke-width="3.091"/>
      <path d="m234.467,111.47l-21.118-2.543c-1.906-.23-3.84.225-5.365,1.33-1.034.749-2.067,1.432-3.107,2.06-5.114-16.033-16.132-29.886-30.923-38.802,1.771-1.609,3.773-3.192,5.999-4.75,1.588-1.104,2.673-2.752,2.995-4.607l2.802-16.217c24.647,13.624,42.437,36.801,48.717,63.529Z" fill="none" stroke="#000" stroke-miterlimit="10" stroke-width="3.794"/>
      <path d="m24.697,107.631l-12.236,29.424c-.229.55.492,1.02.939.612l47.315-43.074c.247-.225.646-.193.857.068l21.899,27.039c.199.245.151.596-.106.779l-28.74,20.454c-.281.2-.687.112-.856-.186l-12.186-21.425c-.011-.02-.023-.038-.037-.057l-21.924-29.565c-.328-.442-1.051-.228-1.048.311l.076,13.894c0,.069.014.137.041.201l14.812,35.854c.14.339.576.463.881.252l36.789-25.538c.076-.053.162-.087.256-.099,2.304-.297,32.379-3.959,44.568,5.716,12.679,10.064,39.161,55.061,14.35,74.693-20.914,16.549-30.662,21.708-33.208,22.921-.345.164-.418.599-.15.869l46.851,47.343c.26.262.196.684-.129.859l-58.959,31.685c-.374.201-.389.712-.027.941l39.011,24.772c1.581,1.004,3.336-.947,2.065-2.295l-40.054-42.478c-.252-.267-.179-.686.149-.854l61.365-31.439c.349-.179.404-.636.107-.894l-50.611-44.002c-.227-.197-.26-.523-.072-.749,3.753-4.525,38.752-44.861,54.563,4.921.077.244-.027.509-.255.637l-57.104,32.233c-.317.179-.375.595-.118.854l48.304,48.745c.268.27.191.707-.152.871l-57.39,27.529c-1.678.805-1.35,3.177.492,3.595,8.306,1.884,27.01,3.188,53.44-12.129.318-.184.372-.612.106-.867l-48.608-46.584c-.268-.257-.215-.682.108-.864l56.911-32.124c.298-.168.371-.551.154-.814l-14.888-18.112c-.042-.052-.074-.108-.096-.17-1.166-3.41-33.483-100.198,62.717-77.255,5.448,1.299,10.246,4.438,13.575,8.78l22.307,29.096c.228.297.684.31.919.024,3.798-4.616,29.489-36.207,30.163-46.942.031-.493-.594-.771-.973-.441l-48.897,42.485c-.24.208-.612.187-.825-.051-3.157-3.513-24.407-27.435-20.97-31.1,3.4-3.626,25.357-17.144,29.014-19.385.281-.172.655-.075.818.207l32.42,56.209c.297.516,1.115.309,1.083-.276-.518-9.709-3.242-46.639-14.934-53.564-.237-.141-.547-.088-.729.11l-15.39,16.715c-.078.084-.174.142-.288.168-5.101,1.164-123.162,27.267-78.172-60.843,2.347-4.596,3.94-9.52,8.024-12.814l27.948-22.546c.287-.232.269-.66-.041-.87-5.437-3.688-45.722-30.77-54.001-29.173-8.405,1.622,43.373,44.102,48.961,48.661.263.214.274.593.028.818-3.485,3.18-26.022,23.047-38.089,16.481-11.984-6.522-15.853-23.776-16.426-26.672-.048-.245.079-.487.313-.594l56.268-25.755c1.205-.551.715-2.298-.624-2.222-16.105.915-58.079,3.977-55.909,10.953,2.68,8.618,81.27,121.675-50.116,93.115-.127-.028-.244-.096-.327-.192l-29.683-34.382c-.236-.273-.672-.272-.899.002l-6.211,7.493" fill="none" stroke="#000" stroke-miterlimit="10" stroke-width="3.794"/>
    </g>
  </g>
</svg>