<?xml version="1.0" encoding="UTF-8"?>
<svg id="Calque_2" data-name="Calque 2" xmlns="http://www.w3.org/2000/svg" viewBox="0 0 360.719 385.148">
  <g id="Calque_5" data-name="Calque 5">
    <g id="triskel">
      <path d="m177.14,84.658c-2.275.746-4.855,1.432-7.244,1.035-1.563-.281-2.471-1.042-2.756-1.996-.621-1.903-1.013-3.998-1.113-6.145-.525-8.183,4.225-16.052,10.136-20.772,12.194-9.981,34.538-15.248,48.215-5.121,6.682,4.915,8.014,12.98,8.854,20.693,2.017,19.746-2.614,37.585-18.439,50.849-19.897,17.484-50.006,16.607-70.66.867-20.84-15.384-29.36-44.075-21.556-68.534,8.731-16.588,19.982-33.594,36.221-44.623,23.796-16.4,51.823-12.502,76.356-.232,30.03,13.421,52.088,42.56,54.248,75.761,2.16,26.285-9.095,52.239-27.027,70.985-3.574,3.905-9.036,8.876-13.029,12.46-13.679,12.793-24.768,28.281-32.891,45.182-1.029,2.089-2.053,4.388-2.773,6.603-1.53,4.478-2.219,9.228-2.364,13.949-.598,11.451-1.066,22.395-.01,32.769,3.194,45.344,46.437,72.995,79.536,90.634,9.904,3.899,19.052,6.396,27.704,1.764,11.441-7.127,15.43-23.813,18.184-37.006,4.714-25.956,3.376-57.538-8.907-81.087-5.322-9.615-13.187-15.788-23.426-19.002-3.476-1.126-7.25-2.023-10.9-2.663-12.476-2.123-25.946,4.798-30.329,16.791-3.637,8.828-.639,20.285,3.896,29.118,3.023,6.117,6.772,12.357,12.515,16.254,4.075,2.765,10.064,5.525,14.794,4.624.311-.16.449-.188.839-.665,2.209-3.224,2.579-8.269,2.776-12.398.048-1.871.054-3.781-.031-5.74.006-.972-.302-1.948.89-3.02,1.125-1.069,2.681-2.091,4.306-2.639.951-.356,2.845-.89,3.829-1.134,0,0,1.307-.119,1.307-.119,1.361.077,3.975.372,5.268.787,1.204.439,2.509,1.18,3.374,1.883,1.303,1.08,1.177,2.252,1.235,3.434.11,2.346.122,4.748.066,7.184-.179,16.663-7.196,33.829-27.031,33.006-14.008-.92-26.607-8.632-34.94-19.575-5.789-8.093-10.193-16.752-13.106-26.429-6.794-21.911,1.473-45.184,21.862-56.486,11.822-6.698,25.925-7.667,38.831-4.192,12.311,2.764,24.567,8.587,33.305,18.056,26.379,28.587,27.928,85.945,17.71,121.555-7.742,28.615-26.284,49.415-58.243,42.483-5.365-1.2-10.314-2.801-15.049-4.914-37.328-19.542-76.997-46.345-89.029-89.409-5.142-17.704-4.663-37.507-3.726-54.981.207-6.763,1.279-13.518,3.426-19.941,1.018-3.157,2.39-6.326,3.862-9.307,6.664-13.827,15.047-26.788,25.069-38.485,4.01-4.676,8.281-9.14,12.796-13.354,3.436-3.093,8.854-7.964,11.935-11.342,33.84-34.606,26.497-87.682-16.861-109.9-25.192-13.496-48.997-16.433-69.502,6.127-6.943,7.444-12.836,16.522-18.035,26.107,0,0,.8-1.949.8-1.949-5.086,16.146.478,35.261,14.063,45.48,13.127,10.284,32.895,11.751,45.928.465,6.532-5.378,10.803-12.011,11.982-20.799,1.005-6.728.817-14.247-.877-20.943-.072-.132-.158-.274-.414-.481-.479-.415-1.663-.994-3.246-1.31-5.578-1.03-12.092.317-17.317,2.756-4.86,2.422-9.826,5.974-8.437,10.781.29.308-1.567,1.908-2.273,2.463-1.512,1.201-3.061,2.576-4.582,3.788h0Z"/>
      <path d="m232.953,178.153c-16.932.933-34.266,1.81-51.234,2.6-7.471.535-15.195.397-22.446-1.622-62.773-16.919-112.417-3.091-130.189,64.569-6.213,23.556-7.755,58.855,20.079,68.126,9.615,3.276,19.607,3.32,29.899,2.213,8.302-.787,16.449-2.944,23.332-7.725,11.924-8.752,25.875-22.478,30.588-36.587,7.537-22.931-8.702-49.071-32.722-52.189-1.123-.26-2.87-.263-4.023-.398,0,0-2.04-.012-2.04-.012-5.429-.064-10.124,1.231-12.319,3.202-5.074,4.681-10.135,19.994-3.661,24.841,1.602,1.133,3.891,1.497,5.996,1.465.143.012.282-.042.431.088.531.347,1.368,3.224,1.683,4.373.407,1.517.935,3.501,1.315,5.06.004,1.883-.09,4.103-.398,5.928-.137,1.307-.933,3.739-1.714,3.928-3.586.437-7.084-.048-10.759-.961-16.241-4.307-22.388-21.395-19.17-36.65,1.258-6.434,3.712-12.309,7.132-17.772,1.05-1.63,2.304-3.296,3.679-4.686,8.62-8.964,21.71-11.183,33.543-10.361,42.125,2.633,70.022,48.216,53.482,87.083-7.574,17.544-22.07,32.661-37.189,43.864-10.023,7.086-22.114,10.893-34.199,12.169-11.356,1.459-23.606,1.436-35.09-1.339C14.568,329.355-.24,302.595.003,270.805c.318-29.33,10.79-60.652,28.972-84.068,19.676-25.404,49.581-37.774,81.238-37.889,14.779-.142,29.232,1.908,43.481,5.393,7.422,1.616,14.516,4.851,22.231,4.61,18.685-.298,37.731-.566,56.404-.689,0,0,.625,19.99.625,19.99h0Z"/>
      <path d="m200.31,234.615c-8.71-29.527-29.961-52.572-59.501-71.333" fill="none" stroke="#000" stroke-miterlimit="10" stroke-width="20"/>
    </g>
  </g>
</svg>