<svg width="246" height="351" viewBox="0 0 246 351" fill="none" xmlns="http://www.w3.org/2000/svg">
<g clip-path="url(#clip0_672_236)">
<path d="M102.516 237.772C97.398 251.067 91.084 262.674 82.107 270.522C81.705 270.874 81.096 270.866 80.705 270.502C68.304 258.924 54.902 234.064 41.498 209.173C41.417 209.023 41.582 208.862 41.731 208.944C63.382 220.888 84.174 231.352 101.974 236.664C102.444 236.804 102.692 237.314 102.515 237.771L102.516 237.772Z" fill="#E41E27" stroke="black" stroke-width="4" stroke-miterlimit="10"/>
<path d="M99.6614 221.226C100.373 225.995 102.014 230.676 104.323 235.293C104.748 236.143 103.957 237.083 103.042 236.825C86.1773 232.075 67.6843 223.305 48.2423 212.195C47.5753 211.814 48.0294 210.795 48.7584 211.036C67.0384 217.083 84.8274 222.287 98.4164 220.3C99.0214 220.212 99.5703 220.62 99.6603 221.225L99.6614 221.226Z" fill="#07090A"/>
<path d="M208.333 191.955C222.321 196.148 233.003 199.842 244.928 197.26C244.325 180.201 238.727 147.436 221.141 122.877C217.314 147.521 214.532 173.379 207.787 190.841C207.609 191.302 207.859 191.813 208.333 191.955Z" fill="#E41E27" stroke="black" stroke-width="4" stroke-miterlimit="10"/>
<path d="M194.911 178.416C198.773 182.447 203.149 187.386 205.578 192.946C213.412 175.031 215.72 149.735 219.014 123.999C211.967 144.243 205.898 166.311 194.943 176.869C194.502 177.294 194.487 177.974 194.911 178.416Z" fill="#07090A"/>
<path d="M223.601 180.392C218.796 217.563 209.557 253.642 188.484 286.805C187.491 288.368 185.675 289.232 183.835 289.018C142.142 284.18 108.895 267.513 79.1026 246.006C78.3766 245.482 78.9086 244.345 79.7736 244.578C98.8256 249.694 119.924 252.421 135.333 249.734C142.418 248.499 147.475 242.133 147.197 234.946C145.974 203.32 105.962 131.731 83.4386 77.1739L98.9276 69.7699C125.313 123.289 147.059 208.875 175.422 223.279C176.132 223.64 176.836 224.012 177.532 224.4C198.017 235.848 210.831 203.024 222.234 179.975C222.595 179.245 223.705 179.584 223.601 180.392Z" fill="url(#paint0_linear_672_236)" stroke="#1D1D1B" stroke-width="4" stroke-miterlimit="10"/>
<path d="M69.7155 49.6639C69.7395 46.1689 67.2035 42.3929 64.7155 40.3239C60.8015 38.6019 57.0176 36.7589 53.8766 34.3189C38.8186 22.6229 47.9626 -0.892055 66.9736 0.564945C67.6816 0.618945 68.4025 0.709945 69.1355 0.837945C73.9895 1.68695 78.4196 4.29295 81.5376 8.10895C85.1776 12.5629 86.2856 17.7099 82.2126 24.2759C78.7176 29.9089 79.5736 37.3349 84.3156 41.9669C84.6336 42.2769 84.9645 42.5809 85.3105 42.8779L69.7146 49.6649L69.7155 49.6639Z" fill="url(#paint1_linear_672_236)" stroke="black" stroke-width="4" stroke-miterlimit="10"/>
<path d="M10.0412 101.198C43.6332 90.5489 83.4762 77.4419 94.6302 75.6169C95.0592 75.5469 95.4582 75.3549 95.7722 75.0529C103.457 67.6619 136.017 49.4119 163.695 33.2939C164.233 32.9799 164.453 32.3199 164.215 31.7439L157.554 15.5989C157.3 14.9829 156.599 14.6799 155.975 14.9129C101.298 35.3779 50.4972 57.4709 5.29716 81.9159C3.98216 82.6269 2.67216 83.3399 1.36617 84.0559C0.574158 84.4899 0.27417 85.4749 0.682175 86.2799L7.76817 100.24C8.19118 101.074 9.15016 101.481 10.0412 101.198Z" fill="url(#paint2_linear_672_236)" stroke="black" stroke-width="4" stroke-miterlimit="10"/>
<path d="M13.7919 98.2238L5.84186 82.9598C5.54586 82.3908 4.83485 82.1858 4.28085 82.5088L1.01886 84.4088C0.608861 84.6478 0.453864 85.1638 0.665864 85.5888L8.13185 100.596C8.50385 101.344 9.40386 101.659 10.1609 101.306L13.2289 99.8768C13.8529 99.5858 14.1089 98.8338 13.7909 98.2228L13.7919 98.2238Z" fill="#E41F28" stroke="black" stroke-miterlimit="10"/>
<path d="M163.662 32.279L156.252 15.916C155.976 15.307 155.242 15.049 154.641 15.35L151.101 17.125C150.656 17.348 150.462 17.876 150.658 18.331L157.576 34.397C157.921 35.198 158.846 35.581 159.663 35.261L162.971 33.965C163.644 33.701 163.958 32.933 163.662 32.279Z" fill="#E41F28" stroke="black" stroke-width="1.047" stroke-miterlimit="10"/>
<path d="M138.329 47.6439L128.133 27.9029C127.753 27.1679 126.756 26.8509 125.944 27.2079L121.16 29.3099C120.558 29.5739 120.3 30.2069 120.57 30.7559L130.096 50.1349C130.571 51.1009 131.829 51.5699 132.933 51.1929L137.407 49.6649C138.317 49.3539 138.736 48.4339 138.329 47.6439Z" fill="#E41F28" stroke="black" stroke-width="1.336" stroke-miterlimit="10"/>
<path d="M45.3149 88.4989L35.1189 68.7579C34.7389 68.0229 33.7419 67.7059 32.9299 68.0629L28.1459 70.1649C27.5439 70.4289 27.2859 71.0619 27.5559 71.6109L37.0819 90.9899C37.5569 91.9559 38.8149 92.4249 39.9189 92.0479L44.3929 90.5199C45.3029 90.2089 45.7219 89.2889 45.3149 88.4989Z" fill="#E41F28" stroke="black" stroke-width="1.336" stroke-miterlimit="10"/>
<path d="M61.9052 15.2169C40.3802 33.5949 45.6622 52.8779 61.0542 61.5999C62.8162 62.5979 64.5632 63.3839 66.3732 63.9669C79.2602 68.1139 92.9042 61.2679 97.8572 48.6689C99.6052 44.2219 102.067 39.1959 101.948 33.8339C102.416 26.9829 96.1442 14.4799 85.9052 14.6209C85.3502 18.7299 84.5802 22.4829 82.7562 24.4929C84.4642 24.4029 85.8552 25.1129 86.9862 26.4829C87.7012 27.3489 88.0142 28.4779 87.9652 29.5999L87.5832 38.3379C87.4672 40.9949 86.6562 43.5919 85.1742 45.7989C82.6762 49.5169 79.6362 51.7019 76.0722 52.4049C70.9762 53.4109 65.8152 50.9649 62.9092 46.6589C57.3462 38.4149 57.4072 30.3989 67.5232 22.7909C69.9832 17.8559 67.6352 15.5949 61.9052 15.2169Z" fill="url(#paint3_linear_672_236)" stroke="black" stroke-width="4" stroke-miterlimit="10"/>
<path d="M99.7835 31.519C95.8045 32.667 92.2935 35.069 89.6305 38.336C89.3165 38.722 89.3095 39.271 89.5785 39.689C91.5805 42.804 94.3625 44.541 98.6625 43.598C98.7785 43.573 98.8915 43.529 98.9945 43.47C102.155 41.679 105.627 39.872 109.368 37.89C109.817 37.652 110.058 37.14 109.962 36.642C109.294 33.156 106.119 31.361 100.121 31.469C100.008 31.471 99.8905 31.488 99.7825 31.519H99.7835Z" fill="#F7C550" stroke="black" stroke-width="4" stroke-miterlimit="10"/>
<path d="M112.171 37.319C108.632 38.402 104.872 39.956 101.733 42.28C101.132 42.725 100.967 43.572 101.42 44.168C103.821 47.331 108.534 49.976 112.902 49.63C117.46 49.6 120.568 49.337 124.641 47.175C124.381 43.518 120.962 38.095 115.534 37.09C114.414 36.883 113.26 36.986 112.171 37.319Z" fill="#F7C550" stroke="black" stroke-width="4" stroke-miterlimit="10"/>
<path d="M137.266 58.937C132.261 59.228 127.056 58.464 121.647 56.621C121.089 56.431 120.564 56.128 120.139 55.72C118.709 54.35 117.579 52.829 116.754 51.153C116.357 50.347 116.832 49.371 117.707 49.165C123.145 47.886 128.346 47.012 132.91 47.226C135.086 47.328 137.054 48.648 137.978 50.62C139.104 53.024 139.487 55.47 138.514 57.994C138.311 58.522 137.83 58.904 137.266 58.937Z" fill="#F7C550" stroke="black" stroke-width="4" stroke-miterlimit="10"/>
<path d="M128.277 57.714C133.021 57.737 142.457 60.535 144.799 61.458C145.111 61.581 145.368 61.817 145.495 62.127C146.523 64.637 146.002 68.649 145.196 71.803C144.986 72.625 144.043 73.003 143.303 72.587C138.429 69.845 133.313 65.849 128.072 61.199C127.436 60.586 127.1 59.892 126.99 59.136C126.88 58.38 127.512 57.71 128.277 57.714Z" fill="#F7C550" stroke="black" stroke-width="4" stroke-miterlimit="10"/>
<path d="M131.598 68.287C131.721 67.584 132.961 66.897 133.657 67.058C139.487 68.407 144.113 72.63 147.333 78.069C148.343 79.847 148.236 81.894 147.693 84.046C147.282 85.672 145.52 86.594 143.939 86.035C138.831 84.231 135.34 80.521 132.844 75.641C132.802 75.558 132.767 75.471 132.742 75.382C132.074 73.024 131.303 69.98 131.598 68.287Z" fill="#F7C550" stroke="black" stroke-width="4" stroke-miterlimit="10"/>
<path d="M136.473 82.7981C136.793 82.5721 137.223 82.5391 137.584 82.6921C143.523 85.2071 146.452 88.2961 147.587 91.7281C149.023 97.1171 147.547 101.058 145.315 104.624C144.935 105.231 144.067 105.289 143.614 104.736C139.722 99.9791 136.323 95.1051 134.948 89.7501C134.45 85.9651 135.058 83.7941 136.472 82.7991L136.473 82.7981Z" fill="#F7C550" stroke="black" stroke-width="4" stroke-miterlimit="10"/>
<path d="M138.248 96.693C142.748 102.084 143.904 108.457 143.824 115.192C143.822 115.335 143.799 115.484 143.756 115.62C142.726 118.832 140.573 120.179 137.566 120.11C136.819 120.093 136.174 119.563 135.987 118.84C134.337 112.455 132.902 106.405 132.97 102.706C133.292 98.794 134.749 96.811 137.074 96.305C137.505 96.211 137.965 96.355 138.248 96.693Z" fill="#F7C550" stroke="black" stroke-width="4" stroke-miterlimit="10"/>
<path d="M133.875 109.605C133.538 108.659 132.561 108.091 131.574 108.272C129.092 108.729 127.339 110.327 126.587 113.493C125.855 117.345 126.279 122.826 126.933 128.634C126.993 129.166 127.428 129.583 127.962 129.627C131.606 129.927 134.374 128.419 135.518 123.556C135.613 123.152 135.653 122.728 135.654 122.314C135.657 117.652 135.199 113.319 133.875 109.605Z" fill="#F7C550" stroke="black" stroke-width="4" stroke-miterlimit="10"/>
<path d="M124.684 114.827C122.121 114.582 120.179 116.152 118.799 119.367L124.398 130.267C124.658 130.773 125.323 130.919 125.763 130.559C128.056 128.684 127.625 122.539 126 115.982C125.847 115.363 125.318 114.888 124.684 114.827Z" fill="#F7C550" stroke="black" stroke-width="4" stroke-miterlimit="10"/>
<path d="M107.438 130.345C103.846 130.781 101.894 132.329 102.076 135.324C104.376 138.19 107.793 139.058 112.033 138.452L107.437 130.346L107.438 130.345Z" fill="#F7C550" stroke="black" stroke-width="4" stroke-miterlimit="10"/>
<path d="M106.203 127.012C106.994 128.549 106.781 130.44 105.713 131.799C104.15 133.79 102.283 135.367 99.6508 135.898C93.6278 138.131 89.6978 136.392 86.5228 133.218C85.8428 132.539 85.9078 131.42 86.6808 130.849L95.2578 124.518C95.8058 124.114 96.4348 123.827 97.0978 123.67C101.189 122.702 104.39 123.488 106.202 127.011L106.203 127.012Z" fill="#F7C550" stroke="black" stroke-width="4" stroke-miterlimit="10"/>
<path d="M89.3104 118.792C90.2684 118.852 91.0944 119.042 91.7974 119.338C94.6464 120.537 95.1924 124.331 93.0094 126.52C90.6684 128.867 88.0134 130.123 84.9694 130.026L78.3234 129.403C77.0954 129.288 75.8914 128.916 74.8564 128.246C72.4444 126.684 71.7574 124.749 72.0734 122.597C72.2164 121.619 72.8844 120.792 73.7964 120.411C78.6174 118.396 83.4874 118.519 89.3104 118.792Z" fill="#F7C550" stroke="black" stroke-width="4" stroke-miterlimit="10"/>
<path d="M84.0132 118.473C79.3632 118.719 74.8492 119.113 71.5022 120.771C69.3332 120.6 67.4332 120.156 65.9012 119.338C63.7792 118.205 62.5122 115.934 62.4312 113.531L62.3492 111.099C62.3262 110.406 62.7922 109.801 63.4612 109.617C67.1162 108.609 71.2982 108.921 75.7802 109.985C81.3642 111.392 86.4414 118.474 84.0142 118.474L84.0132 118.473Z" fill="#F7C550" stroke="black" stroke-width="4" stroke-miterlimit="10"/>
<path d="M74.438 109.154C70.141 108.178 66.064 108.262 62.247 109.601C56.59 108.181 54.181 103.33 52.976 97.2081C52.873 96.6821 53.216 96.1591 53.742 96.0521C57.314 95.3271 60.737 95.4121 63.971 96.5161C72.907 99.6651 76.396 103.878 74.438 109.154Z" fill="#F7C550" stroke="black" stroke-width="4" stroke-miterlimit="10"/>
<path d="M62.6077 95.657L53.0547 95.55C52.1137 95.539 51.1697 95.42 50.2677 95.152C47.5217 94.337 45.3947 92.823 43.8147 90.69C43.2047 89.866 42.9077 88.851 42.9847 87.829C43.0427 87.062 43.1867 86.197 43.3577 85.302C43.5537 84.275 44.3597 83.464 45.3877 83.276C47.8047 82.834 50.0647 82.66 52.0317 82.984C65.5017 83.695 64.1977 89.426 63.3827 94.992C63.3267 95.377 62.9967 95.662 62.6067 95.657H62.6077Z" fill="#F7C550" stroke="black" stroke-width="4" stroke-miterlimit="10"/>
<path d="M88.5131 38.717C90.6481 35.512 94.8861 33.104 100.162 31.089C99.5381 27.705 97.3511 25.694 93.0241 26.646C92.3771 26.788 91.7051 26.846 91.0431 26.821C86.6361 26.65 84.8121 29.766 83.3351 33.118C82.9101 34.084 82.8911 35.206 83.3641 36.149C84.3401 38.098 86.0791 38.92 88.5131 38.717Z" fill="#F7C550" stroke="black" stroke-width="4" stroke-miterlimit="10"/>
<path d="M55.9062 82.324C53.0552 81.707 47.9392 81.908 41.9912 82.409C37.3692 81.505 33.9392 78.992 30.9702 75.856C33.8322 72.375 37.9253 70.286 43.2253 69.558C50.8913 72.439 55.5423 76.525 55.9062 82.324Z" fill="#F7C550" stroke="black" stroke-width="4" stroke-miterlimit="10"/>
<path d="M42.416 69.345C37.509 69.258 33.828 71.286 31.224 75.175C28.966 76.356 25.293 74.353 21.267 71.558C24.218 67.371 27.186 63.323 30.501 62.026C36.209 61.686 40.012 64.394 42.416 69.345Z" fill="#F7C550" stroke="black" stroke-width="4" stroke-miterlimit="10"/>
<path d="M25.3958 64.452C24.9828 66.262 24.4718 67.949 23.8948 69.553C22.5708 73.235 19.5368 76.055 15.7348 76.979C15.7038 76.986 15.6738 76.994 15.6428 77.001C14.8978 77.179 14.1008 76.924 13.6278 76.322C11.9078 74.132 11.5738 71.767 12.7188 69.215C12.9118 68.784 13.0788 68.339 13.2138 67.887C14.2158 64.536 17.6738 63.128 21.1938 61.768C22.2478 61.361 23.4738 61.413 24.3898 62.075C25.1308 62.61 25.5288 63.364 25.3968 64.452H25.3958Z" fill="#F7C550" stroke="black" stroke-width="4" stroke-miterlimit="10"/>
<path d="M12.374 69.686C8.95899 69.89 6.73498 72.117 6.03398 75.686C5.27398 77.63 6.39999 79.724 7.22499 81.473L14.459 76.792C12.376 75.071 11.563 72.757 12.374 69.686Z" fill="#F7C550" stroke="black" stroke-width="4" stroke-miterlimit="10"/>
<path d="M24.9032 97.0599L11.7812 101.581C10.9702 101.861 10.7002 102.866 11.2532 103.522C12.9912 105.584 14.8082 107.402 17.2672 107.272C17.3792 107.266 17.4942 107.275 17.6032 107.304C22.6552 108.659 27.6032 109.093 32.4332 108.469C33.0362 108.391 33.4812 107.862 33.4892 107.254C33.5422 102.8 31.5502 99.1649 25.7252 97.0639C25.4632 96.9689 25.1672 96.9689 24.9042 97.0599H24.9032Z" fill="#F7C550" stroke="black" stroke-width="4" stroke-miterlimit="10"/>
<path d="M33.316 109.32C40.613 110.738 41.834 115.282 42.626 119.612C42.727 120.165 42.406 120.717 41.87 120.889C37.129 122.407 32.65 122.889 28.756 121.048C23.834 118.747 18.694 116.531 18.416 112.41C17.208 111.115 17.066 109.633 17.66 108.023C17.827 107.57 18.265 107.264 18.748 107.271C24.363 107.36 29.533 107.763 33.142 109.269C33.198 109.292 33.257 109.309 33.316 109.32Z" fill="#F7C550" stroke="black" stroke-width="4" stroke-miterlimit="10"/>
<path d="M46.4599 122.266C41.9499 120.207 37.1539 120.262 32.2389 121.195C30.9639 121.437 29.9669 122.445 29.7559 123.725C29.0869 127.779 32.7479 131.091 38.3829 134.065C38.6549 134.209 38.9479 134.317 39.2509 134.374C43.5349 135.189 48.9349 134.562 54.6349 133.549C56.6129 133.197 57.7849 131.022 56.8649 129.236C55.3159 126.227 51.8359 123.976 46.7199 122.366C46.6329 122.339 46.5439 122.304 46.4609 122.266H46.4599Z" fill="#F7C550" stroke="black" stroke-width="4" stroke-miterlimit="10"/>
<path d="M71.9111 144.868C72.5221 144.59 72.8451 143.915 72.7191 143.255C71.8841 138.892 68.7601 135.557 62.7571 133.515C58.4561 132.203 53.4951 132.591 48.3151 133.545C47.7091 133.657 47.2401 134.149 47.1401 134.757C46.1911 140.503 49.7091 144.588 56.9881 147.274C57.1151 147.321 57.2551 147.353 57.3891 147.367C63.1981 147.957 67.7831 146.749 71.9111 144.868Z" fill="#F7C550" stroke="black" stroke-width="4" stroke-miterlimit="10"/>
<path d="M90.0261 149.854C88.6401 146.321 84.9321 144.805 79.5881 144.711C79.4051 144.708 79.2261 144.675 79.0521 144.619C75.7161 143.556 70.4641 144.941 65.2061 146.334C64.0661 146.636 63.4381 147.85 63.8331 148.962C65.3111 153.114 67.2051 156.468 70.6921 156.775C70.8731 156.791 71.0531 156.831 71.2221 156.898C76.2981 158.909 82.6991 155.509 89.0371 152.364C89.9601 151.906 90.4021 150.813 90.0261 149.854Z" fill="#F7C550" stroke="black" stroke-width="4" stroke-miterlimit="10"/>
<path d="M105.699 156.919C105.581 153.899 102.919 152.385 99.2602 151.461C99.1812 151.441 99.0972 151.429 99.0152 151.425C91.6142 151.067 85.2152 152.694 79.7292 156.131C79.2322 156.442 79.0802 157.116 79.4002 157.607C81.6902 161.112 84.6732 163.546 88.7562 164.282C94.9652 165.008 100.088 161.346 105.236 157.788C105.522 157.591 105.712 157.267 105.698 156.92L105.699 156.919Z" fill="#F7C550" stroke="black" stroke-width="4" stroke-miterlimit="10"/>
<path d="M126.775 160.822C125.52 158.717 122.478 157.258 118.883 156C118.772 155.961 118.651 155.938 118.533 155.933C110.359 155.571 104.08 157.653 99.3604 161.745C98.9304 162.118 98.8734 162.756 99.1794 163.235C102.267 168.078 107.865 169.675 115.506 168.63C115.544 168.625 115.585 168.622 115.624 168.622C121.84 168.655 124.671 165.644 126.797 161.999C127.009 161.635 126.991 161.184 126.775 160.822Z" fill="#F7C550" stroke="black" stroke-width="4" stroke-miterlimit="10"/>
<path d="M145.48 167.707C146.623 166.752 142.538 162.98 139.192 161.099C138.121 160.497 136.872 160.277 135.666 160.516C128.785 161.882 122.886 164.142 118.249 167.547C117.577 168.04 117.47 169.018 118.063 169.604C121.159 172.662 125.629 173.714 130.969 173.494C135.527 174.093 140.535 170.616 145.48 167.707Z" fill="#F7C550" stroke="black" stroke-width="4" stroke-miterlimit="10"/>
<path d="M158.806 176.738C158.814 177.467 158.328 178.118 157.631 178.332C151.964 180.073 146.487 181.488 142.288 180.707C137.511 180.331 134.196 178.525 132.382 175.249C131.956 174.479 132.264 173.512 133.016 173.057C137.42 170.391 142.146 168.405 147.619 167.996C147.724 167.988 147.833 167.989 147.938 167.998C154.806 168.576 158.749 171.259 158.807 176.74L158.806 176.738Z" fill="#F7C550" stroke="black" stroke-width="4" stroke-miterlimit="10"/>
<path d="M161.693 184.281C161.396 179.885 158.195 178.547 153.693 178.579C150.879 178.208 149.206 179.619 147.736 181.345C149.52 186.886 152.511 190.383 157.523 190.451C160.164 188.82 163.246 187.339 161.693 184.281Z" fill="#F7C550" stroke="black" stroke-width="4" stroke-miterlimit="10"/>
<path d="M158.441 190.5C156.649 187.284 152.736 187.151 149.481 187.728L154.077 197.217C156.89 195.78 160.089 195.572 158.943 192.5L158.441 190.5Z" fill="#F7C550" stroke="black" stroke-width="4" stroke-miterlimit="10"/>
<path d="M140.501 203.175C136.829 204.221 133.859 203.354 131.577 200.615C130.69 199.55 130.42 198.099 130.843 196.78C131.507 194.706 132.898 193.386 135.459 193.281C138.986 193.781 141.225 195.767 143.005 198.285C143.787 199.391 143.847 200.939 142.998 201.995C142.495 202.62 141.734 203.064 140.501 203.175Z" fill="#F7C550" stroke="black" stroke-width="4" stroke-miterlimit="10"/>
<path d="M156.586 206.622C156.963 207.342 145.843 212.424 145.288 211.792C141.93 211.412 139.14 210.387 137.116 208.492C135.823 207.281 136.145 205.16 137.663 204.245C140.257 202.681 143.193 201.354 146.452 200.251C147.095 200.033 147.806 200.07 148.423 200.353C152.437 202.195 155.649 204.19 156.586 206.622Z" fill="#F7C550" stroke="black" stroke-width="4" stroke-miterlimit="10"/>
<path d="M166.449 211.131C164.184 214.673 159.484 216.75 154.273 218.519C153.95 218.629 153.596 218.66 153.261 218.595C149.835 217.934 147.808 216.253 146.517 214.035C145.984 213.12 146.254 211.922 147.156 211.369C149.616 209.862 153.779 208.407 158.075 206.956C158.231 206.903 158.397 206.868 158.561 206.853C161.785 206.574 164.391 207.054 166.103 208.637C166.794 209.276 166.957 210.337 166.45 211.13L166.449 211.131Z" fill="#F7C550" stroke="black" stroke-width="4" stroke-miterlimit="10"/>
<path d="M180.397 214.717C179.925 213.885 179.261 213.144 178.458 212.469C178.225 212.273 177.943 212.138 177.647 212.064C173.613 211.056 169.508 209.944 167.181 211.41C164.991 212.369 163.058 213.554 161.413 214.992C160.417 215.863 160.473 217.428 161.543 218.204C164.693 220.489 167.826 222.878 171.584 221.623C175.195 221.066 178.112 219.572 180.173 216.923C180.664 216.291 180.791 215.414 180.397 214.717Z" fill="#F7C550" stroke="black" stroke-width="4" stroke-miterlimit="10"/>
<path d="M189.165 222.929C185.48 225.693 181.306 226.763 175.84 223.363C175.397 223.088 175.262 222.502 175.563 222.076C177.292 219.627 179.084 217.378 181.427 216.859C181.504 216.842 181.586 216.833 181.664 216.832C185.531 216.762 187.705 218.925 189.378 221.749C189.611 222.143 189.531 222.654 189.165 222.929Z" fill="#F7C550" stroke="black" stroke-width="4" stroke-miterlimit="10"/>
<path d="M147.268 232.409C145.002 231.121 143.01 231.604 141.225 233.43C139.335 236.876 137.819 242.868 136.374 249.345C144.251 244.268 149.843 238.885 147.268 232.409Z" fill="#F7C550" stroke="black" stroke-width="4" stroke-miterlimit="10"/>
<path d="M140.203 233.771C134.845 231.029 130.539 232.764 127.182 238.537C127.26 242.758 128.488 246.722 130.756 250.452C132.488 251.762 134.218 250.657 135.947 248.835L140.203 233.771Z" fill="#F7C550" stroke="black" stroke-width="4" stroke-miterlimit="10"/>
<path d="M126.501 238.877C123.798 237.916 121.477 239.369 119.522 243.132C116.968 249.319 121.732 254.9 126.33 260.494C128.806 260.004 130.807 258.841 131.436 255.728C130.492 249.652 128.746 244.102 126.501 238.877Z" fill="#F7C550" stroke="black" stroke-width="4" stroke-miterlimit="10"/>
<path d="M118.629 251.943C114.86 255.258 113.195 259.283 115.38 264.608C115.418 264.7 115.473 264.788 115.54 264.862C119.213 268.953 122.907 272.142 126.666 272.697C126.935 272.737 127.216 272.629 127.394 272.423C128.897 270.676 129.404 268.672 128.983 266.429C128.975 266.388 128.965 266.346 128.954 266.306C127.41 260.967 124.244 256.22 119.719 251.967C119.419 251.685 118.939 251.67 118.63 251.942L118.629 251.943Z" fill="#F7C550" stroke="black" stroke-width="4" stroke-miterlimit="10"/>
<path d="M128.8 276.239C130.606 278.372 130.946 280.584 130.079 282.862C129.904 283.322 129.455 283.624 128.964 283.589C122.495 283.124 116.171 282.532 114.587 277.772C113.236 274.532 113.64 270.968 114.91 267.244C115.129 266.602 115.864 266.303 116.463 266.62C122.043 269.574 128.041 272.456 128.799 276.24L128.8 276.239Z" fill="#F7C550" stroke="black" stroke-width="4" stroke-miterlimit="10"/>
<path d="M133.311 290.452C129.633 284.432 124.503 281.505 117.992 281.516C116.672 282.895 115.218 284.159 116.63 287.899C120.088 293.23 125.448 295.378 131.779 295.899C133.48 294.725 134.101 292.969 133.311 290.452Z" fill="#F7C550" stroke="black" stroke-width="4" stroke-miterlimit="10"/>
<path d="M135.029 296.079C130.682 294.734 126.578 294.03 122.684 293.884C121.896 293.854 121.29 294.577 121.417 295.355C122.167 299.938 124.318 303.687 128.341 306.32C128.473 306.406 128.621 306.472 128.774 306.509C131.649 307.202 134.97 306.535 138.378 305.605C138.775 305.497 139.111 305.204 139.231 304.81C140.173 301.725 138.78 298.906 135.466 296.306C135.338 296.205 135.185 296.126 135.029 296.078V296.079Z" fill="#F7C550" stroke="black" stroke-width="4" stroke-miterlimit="10"/>
<path d="M143.608 307.047C141.332 304.865 136.302 305.684 131.367 306.4C130.816 306.48 130.452 306.997 130.534 307.548C131.113 311.43 133.148 314.694 137.419 317.007C137.62 317.116 137.861 317.153 138.085 317.112C141.658 316.462 144.923 315.611 147.474 314.293C147.862 314.092 148.068 313.643 147.97 313.217C147.285 310.235 145.857 308.146 143.608 307.047Z" fill="#F7C550" stroke="black" stroke-width="4" stroke-miterlimit="10"/>
<path d="M154.161 313.771C151.944 312.963 137.968 315.973 138.927 316.409C138.864 319.31 141.947 322.111 145.638 324.891C146.021 325.18 146.522 325.285 146.989 325.176C152.327 323.933 156.769 322.211 159.697 319.679C160.326 319.135 160.482 318.185 159.983 317.521C158.999 316.21 157.049 314.961 154.161 313.77V313.771Z" fill="#F7C550" stroke="black" stroke-width="4" stroke-miterlimit="10"/>
<path d="M160.567 320.254C157.129 321.131 154.082 322.557 151.35 324.426C150.79 324.809 150.62 325.592 151.001 326.153C152.862 328.888 156.77 330.013 161.987 330.108C162.102 330.11 162.221 330.1 162.333 330.075C166.812 329.098 169.276 324.548 171.663 319.861C171.932 319.333 171.804 318.69 171.354 318.305L167.156 314.707C166.611 314.239 165.787 314.311 165.33 314.865L161.233 319.835C161.062 320.042 160.827 320.187 160.567 320.254Z" fill="#F7C550" stroke="black" stroke-width="4" stroke-miterlimit="10"/>
<path d="M178.736 315.834L174.076 324.004L170.885 314.749C173.898 314.097 176.621 314.188 178.736 315.834Z" fill="#F7C550" stroke="black" stroke-width="4" stroke-miterlimit="10"/>
<path d="M187.8 310.728L187.928 320.813C186.533 326.197 182.348 328.51 176.375 328.856L173.503 325.984C174.859 318.044 179.969 313.247 187.801 310.729L187.8 310.728Z" fill="#F7C550" stroke="black" stroke-width="4" stroke-miterlimit="10"/>
<path d="M187.799 307.792C187.317 312.039 187.513 316.335 188.501 320.686C192.763 319.578 196.28 317.786 197.82 314.175L197.394 311.491L195.459 299.303C191.702 300.245 188.666 302.317 187.799 307.792Z" fill="#F7C550" stroke="black" stroke-width="4" stroke-miterlimit="10"/>
<path d="M206.884 304.345C208.285 299.27 205.084 293.588 200.692 287.749C198.125 289.092 196.204 291.339 195.266 294.962C194.767 300.798 195.355 306.405 197.5 311.685C201.716 310.404 205.085 308.215 206.884 304.345Z" fill="#F7C550" stroke="black" stroke-width="4" stroke-miterlimit="10"/>
<path d="M206.692 295.856C201.455 294.664 199.734 289.878 199.096 283.984C197.128 281.102 198.161 276.04 198.777 271.282C204.581 275.587 211.67 279.86 211.926 284.303C212.715 289.91 210.314 293.307 206.692 295.856Z" fill="#F7C550" stroke="black" stroke-width="4" stroke-miterlimit="10"/>
<path d="M210.458 279.452L210.356 279.375C205.949 279.018 202.268 275.302 198.778 270.707L203.757 261.005C207.447 263.394 210.763 265.939 212.119 269.303C212.941 273.132 212.001 276.39 210.459 279.452H210.458Z" fill="#F7C550" stroke="black" stroke-width="4" stroke-miterlimit="10"/>
<path d="M210.076 265.983L203.693 260.621L207.459 253.919C212.073 256.918 212.329 261.107 210.076 265.983Z" fill="#F7C550" stroke="black" stroke-width="4" stroke-miterlimit="10"/>
<path d="M173.905 287.686L159.99 285.218C163.292 292.415 167.253 297.898 173.139 298.367C175.211 295.156 175.204 291.545 173.905 287.686Z" fill="#F7C550" stroke="black" stroke-width="4" stroke-miterlimit="10"/>
<path d="M161.782 291.987C162.029 291.415 162.745 291.209 163.241 291.587C168.123 295.308 172.059 299.579 173.864 305.09C174.71 308.07 173.876 310.876 172.147 313.589C171.846 314.061 171.21 314.19 170.761 313.856C166.142 310.428 161.765 306.998 160.296 303.549C160.262 303.469 160.238 303.386 160.222 303.301C159.486 299.39 160.202 295.641 161.782 291.987Z" fill="#F7C550" stroke="black" stroke-width="4" stroke-miterlimit="10"/>
<path d="M162.395 309.495C162.819 308.912 163.625 308.727 164.25 309.087C168.108 311.306 171.637 314.161 174.886 317.558C177.706 319.548 177.429 324.16 177.108 328.811C177.038 329.827 175.954 330.436 175.042 329.983C169.556 327.265 164.964 323.438 161.159 318.635C161.063 318.514 160.981 318.376 160.925 318.232C159.699 315.129 160.403 312.24 162.397 309.495H162.395Z" fill="#F7C550" stroke="black" stroke-width="4" stroke-miterlimit="10"/>
<path d="M178.671 333.941C176.136 329.762 171.001 325.769 164.654 321.863C164.004 321.463 163.149 321.856 163.024 322.609C162.444 326.092 162.353 329.382 164.119 331.941C167.5 336.764 171.452 340.598 176.752 342.093C177.186 342.216 177.654 342.037 177.916 341.67C179.711 339.16 181.472 336.65 178.671 333.941Z" fill="#F7C550" stroke="black" stroke-width="4" stroke-miterlimit="10"/>
<path d="M180.732 350.074C181.407 350.006 181.87 349.358 181.723 348.696C181.207 346.386 180.514 344.146 178.246 342.536L166.626 334.829C166.061 334.454 165.295 334.659 164.981 335.261C162.818 339.401 162.741 343.441 165.516 347.345C165.575 347.428 165.646 347.508 165.722 347.576C169.24 350.71 174.806 350.67 180.732 350.073V350.074Z" fill="#F7C550" stroke="black" stroke-width="4" stroke-miterlimit="10"/>
</g>
<defs>
<linearGradient id="paint0_linear_672_236" x1="189.941" y1="289" x2="86.9414" y2="56.4999" gradientUnits="userSpaceOnUse">
<stop offset="0.166281" stop-color="#020101"/>
<stop offset="0.318454" stop-color="#DDBF79"/>
<stop offset="0.344407" stop-opacity="0.889716"/>
<stop offset="0.500054" stop-color="#FFC94A"/>
<stop offset="0.572823"/>
<stop offset="0.739583"/>
<stop offset="1" stop-color="#FFC131"/>
</linearGradient>
<linearGradient id="paint1_linear_672_236" x1="67.9414" y1="47.4999" x2="79.9414" y2="-1.50006" gradientUnits="userSpaceOnUse">
<stop/>
<stop offset="0.399274"/>
<stop offset="1" stop-opacity="0"/>
</linearGradient>
<linearGradient id="paint2_linear_672_236" x1="78.4414" y1="44.4999" x2="98.9414" y2="88.9999" gradientUnits="userSpaceOnUse">
<stop stop-color="#919191"/>
<stop offset="0.307292"/>
<stop offset="0.978298"/>
</linearGradient>
<linearGradient id="paint3_linear_672_236" x1="87.9414" y1="14.9999" x2="66.9414" y2="67.9999" gradientUnits="userSpaceOnUse">
<stop offset="0.390144" stop-color="#E42129"/>
<stop offset="1"/>
</linearGradient>
<clipPath id="clip0_672_236">
<rect width="245.442" height="350.89" fill="white" transform="matrix(-1 0 0 1 245.441 0)"/>
</clipPath>
</defs>
</svg>
