<svg width="185" height="192" viewBox="0 0 185 192" fill="none" xmlns="http://www.w3.org/2000/svg">
<g clip-path="url(#clip0_725_312)">
<path d="M151.114 69.1718C152.556 72.9385 154.336 76.227 156.867 78.4505C156.981 78.5503 157.152 78.548 157.263 78.4449C160.759 75.1646 164.537 68.1212 168.316 61.0691C168.339 61.0266 168.292 60.981 168.25 61.0042C162.146 64.3882 156.285 67.3529 151.266 68.8579C151.134 68.8975 151.064 69.042 151.114 69.1715L151.114 69.1718Z" fill="#E41E27" stroke="black" stroke-miterlimit="10"/>
<path d="M151.918 64.484C151.717 65.8352 151.255 67.1614 150.604 68.4695C150.484 68.7103 150.707 68.9766 150.965 68.9036C155.719 67.5578 160.933 65.0731 166.414 61.9254C166.602 61.8174 166.474 61.5287 166.269 61.597C161.115 63.3102 156.1 64.7846 152.269 64.2217C152.098 64.1967 151.944 64.3123 151.918 64.4837L151.918 64.484Z" fill="#07090A"/>
<path d="M121.282 56.1909C117.338 57.3788 114.327 58.4254 110.965 57.6939C111.135 52.8607 112.713 43.5777 117.671 36.6196C118.75 43.6018 119.534 50.9279 121.436 55.8752C121.486 56.0059 121.415 56.1506 121.282 56.1909Z" fill="#E41E27" stroke="black" stroke-miterlimit="10"/>
<path d="M125.067 52.355C123.978 53.497 122.744 54.8964 122.059 56.4716C119.851 51.3959 119.2 44.229 118.271 36.9375C120.258 42.673 121.969 48.9254 125.058 51.9167C125.182 52.0371 125.186 52.2297 125.067 52.355Z" fill="#07090A"/>
<path d="M116.977 52.9148C118.331 63.4461 120.936 73.668 126.877 83.0638C127.157 83.5066 127.669 83.7514 128.188 83.6908C139.942 82.3201 149.315 77.598 157.714 71.5046C157.919 71.3561 157.769 71.034 157.525 71.1C152.154 72.5495 146.206 73.3221 141.861 72.5608C139.864 72.2109 138.438 70.4073 138.517 68.371C138.861 59.4107 150.142 39.1281 156.492 23.671L152.125 21.5732C144.686 36.7363 138.556 60.9846 130.559 65.0655C130.359 65.1678 130.161 65.2732 129.964 65.3831C124.189 68.6266 120.577 59.3269 117.362 52.7966C117.26 52.5898 116.947 52.6858 116.977 52.9148Z" fill="url(#paint0_linear_725_312)" stroke="#1D1D1B" stroke-miterlimit="10"/>
<path d="M160.361 15.8769C160.355 14.8866 161.07 13.8168 161.771 13.2306C162.875 12.7428 163.941 12.2206 164.827 11.5293C169.072 8.21558 166.494 1.55329 161.134 1.96609C160.935 1.98138 160.732 2.00717 160.525 2.04343C159.157 2.28397 157.908 3.02231 157.029 4.10346C156.002 5.36537 155.69 6.82362 156.838 8.68391C157.824 10.2799 157.582 12.3838 156.245 13.6961C156.156 13.784 156.062 13.8701 155.965 13.9542L160.362 15.8771L160.361 15.8769Z" fill="url(#paint1_linear_725_312)" stroke="black" stroke-miterlimit="10"/>
<path d="M177.186 30.4775C167.715 27.4604 156.483 23.7469 153.338 23.2298C153.217 23.21 153.104 23.1556 153.016 23.07C150.849 20.976 141.67 15.8054 133.867 11.2389C133.715 11.1499 133.653 10.9629 133.72 10.7997L135.598 6.22549C135.67 6.05096 135.867 5.96512 136.043 6.03113C151.458 11.8293 165.78 18.0887 178.523 25.0145C178.894 25.2159 179.263 25.4179 179.631 25.6208C179.855 25.7437 179.939 26.0228 179.824 26.2509L177.826 30.206C177.707 30.4423 177.437 30.5576 177.186 30.4775Z" fill="url(#paint2_linear_725_312)" stroke="black" stroke-miterlimit="10"/>
<path d="M176.128 29.6348L178.369 25.3102C178.453 25.149 178.653 25.0909 178.81 25.1825L179.729 25.7208C179.845 25.7885 179.888 25.9347 179.829 26.0551L177.724 30.3069C177.619 30.5188 177.365 30.6081 177.152 30.508L176.287 30.1032C176.111 30.0207 176.039 29.8077 176.128 29.6346L176.128 29.6348Z" fill="#E41F28" stroke="black" stroke-miterlimit="10"/>
<path d="M133.875 10.9513L135.964 6.31531C136.042 6.14277 136.249 6.06967 136.418 6.15495L137.416 6.65784C137.542 6.72102 137.597 6.87062 137.541 6.99953L135.591 11.5514C135.494 11.7783 135.233 11.8868 135.003 11.7961L134.07 11.429C133.88 11.3542 133.792 11.1366 133.875 10.9513Z" fill="#E41F28" stroke="black" stroke-miterlimit="10"/>
<path d="M141.019 15.3045L143.893 9.71145C144 9.50321 144.281 9.4134 144.51 9.51454L145.859 10.1101C146.029 10.1849 146.101 10.3642 146.025 10.5198L143.34 16.0102C143.206 16.2839 142.851 16.4168 142.54 16.31L141.278 15.8771C141.022 15.789 140.904 15.5283 141.019 15.3045Z" fill="#E41F28" stroke="black" stroke-miterlimit="10"/>
<path d="M167.241 26.8796L170.116 21.2865C170.223 21.0783 170.504 20.9885 170.733 21.0896L172.082 21.6852C172.251 21.76 172.324 21.9393 172.248 22.0948L169.562 27.5853C169.428 27.859 169.074 27.9919 168.762 27.8851L167.501 27.4521C167.245 27.364 167.126 27.1034 167.241 26.8796Z" fill="#E41F28" stroke="black" stroke-miterlimit="10"/>
<path d="M162.564 6.11731C168.632 11.3242 167.143 16.7875 162.803 19.2586C162.307 19.5413 161.814 19.764 161.304 19.9292C157.671 21.1041 153.824 19.1645 152.428 15.595C151.935 14.335 151.241 12.9111 151.274 11.3919C151.143 9.45087 152.911 5.90851 155.797 5.94846C155.954 7.11262 156.171 8.17592 156.685 8.7454C156.204 8.7199 155.811 8.92106 155.493 9.30921C155.291 9.55456 155.203 9.87443 155.217 10.1923L155.324 12.668C155.357 13.4208 155.586 14.1565 156.003 14.7818C156.708 15.8352 157.565 16.4543 158.57 16.6534C160.006 16.9385 161.461 16.2455 162.281 15.0255C163.849 12.6898 163.832 10.4187 160.98 8.26319C160.286 6.865 160.948 6.22441 162.564 6.11731Z" fill="url(#paint3_linear_725_312)" stroke="black" stroke-miterlimit="10"/>
<path d="M151.885 10.7361C153.007 11.0613 153.997 11.7418 154.747 12.6674C154.836 12.7768 154.838 12.9324 154.762 13.0508C154.198 13.9333 153.413 14.4255 152.201 14.1583C152.168 14.1512 152.137 14.1387 152.108 14.122C151.217 13.6146 150.238 13.1026 149.183 12.5411C149.057 12.4737 148.989 12.3286 149.016 12.1875C149.204 11.1998 150.099 10.6913 151.79 10.7219C151.822 10.7225 151.855 10.7273 151.885 10.7361H151.885Z" fill="#F7C550" stroke="black" stroke-miterlimit="10"/>
<path d="M148.393 12.3793C149.39 12.6862 150.45 13.1265 151.335 13.7849C151.505 13.911 151.551 14.1509 151.424 14.3198C150.747 15.2159 149.418 15.9653 148.186 15.8673C146.901 15.8588 146.025 15.7843 144.877 15.1717C144.95 14.1356 145.914 12.5992 147.444 12.3145C147.76 12.2558 148.086 12.285 148.393 12.3793Z" fill="#F7C550" stroke="black" stroke-miterlimit="10"/>
<path d="M141.317 18.5041C142.728 18.5866 144.196 18.3701 145.721 17.8479C145.878 17.7941 146.026 17.7083 146.146 17.5927C146.549 17.2045 146.867 16.7736 147.1 16.2987C147.212 16.0704 147.078 15.7939 146.831 15.7355C145.298 15.3731 143.832 15.1255 142.545 15.1861C141.932 15.215 141.377 15.589 141.116 16.1477C140.799 16.8288 140.691 17.5218 140.965 18.2369C141.023 18.3865 141.158 18.4948 141.317 18.5041Z" fill="#F7C550" stroke="black" stroke-miterlimit="10"/>
<path d="M143.851 18.1577C142.514 18.1642 139.853 18.957 139.193 19.2185C139.105 19.2533 139.033 19.3202 138.997 19.408C138.707 20.1191 138.854 21.2558 139.081 22.1494C139.14 22.3823 139.406 22.4894 139.615 22.3715C140.989 21.5947 142.431 20.4625 143.909 19.1451C144.088 18.9714 144.183 18.7748 144.214 18.5606C144.245 18.3464 144.067 18.1566 143.851 18.1577Z" fill="#F7C550" stroke="black" stroke-miterlimit="10"/>
<path d="M142.916 21.1533C142.881 20.9541 142.532 20.7594 142.335 20.8051C140.692 21.1873 139.388 22.3837 138.48 23.9247C138.195 24.4284 138.225 25.0084 138.378 25.6181C138.494 26.0788 138.991 26.34 139.437 26.1816C140.877 25.6705 141.861 24.6194 142.565 23.2368C142.576 23.2133 142.586 23.1886 142.593 23.1634C142.782 22.4953 142.999 21.6329 142.916 21.1533Z" fill="#F7C550" stroke="black" stroke-miterlimit="10"/>
<path d="M141.542 25.2645C141.452 25.2005 141.33 25.1911 141.229 25.2345C139.554 25.947 138.728 26.8222 138.408 27.7946C138.004 29.3214 138.42 30.438 139.049 31.4483C139.156 31.6203 139.401 31.6367 139.529 31.48C140.626 30.1323 141.584 28.7514 141.972 27.2342C142.112 26.1618 141.941 25.5467 141.542 25.2648L141.542 25.2645Z" fill="#F7C550" stroke="black" stroke-miterlimit="10"/>
<path d="M141.042 29.2012C139.773 30.7286 139.447 32.5342 139.47 34.4424C139.47 34.4829 139.477 34.5251 139.489 34.5636C139.779 35.4736 140.386 35.8553 141.234 35.8357C141.445 35.8309 141.627 35.6807 141.679 35.4759C142.144 33.6669 142.549 31.9528 142.53 30.9048C142.439 29.7965 142.028 29.2346 141.373 29.0913C141.251 29.0646 141.122 29.1054 141.042 29.2012Z" fill="#F7C550" stroke="black" stroke-miterlimit="10"/>
<path d="M142.273 32.8594C142.368 32.5914 142.643 32.4305 142.922 32.4818C143.621 32.6113 144.116 33.064 144.328 33.961C144.534 35.0523 144.415 36.6052 144.23 38.2508C144.213 38.4015 144.091 38.5196 143.94 38.5321C142.913 38.6171 142.132 38.1898 141.81 36.8121C141.783 36.6976 141.772 36.5775 141.771 36.4602C141.771 35.1393 141.9 33.9117 142.273 32.8594Z" fill="#F7C550" stroke="black" stroke-miterlimit="10"/>
<path d="M144.865 34.339C145.588 34.2695 146.135 34.7143 146.524 35.6252L144.946 38.7134C144.873 38.8568 144.685 38.8982 144.561 38.7962C143.915 38.2649 144.036 36.5239 144.494 34.6662C144.537 34.4908 144.687 34.3562 144.865 34.339Z" fill="#F7C550" stroke="black" stroke-miterlimit="10"/>
<path d="M149.727 38.7355C150.74 38.859 151.29 39.2976 151.239 40.1461C150.59 40.9581 149.627 41.204 148.432 41.0324L149.727 38.7358L149.727 38.7355Z" fill="#F7C550" stroke="black" stroke-miterlimit="10"/>
<path d="M150.076 37.7912C149.853 38.2267 149.913 38.7624 150.214 39.1475C150.655 39.7115 151.181 40.1583 151.923 40.3088C153.621 40.9414 154.729 40.4487 155.624 39.5495C155.816 39.3571 155.798 39.0401 155.58 38.8783L153.162 37.0846C153.007 36.9701 152.83 36.8888 152.643 36.8443C151.489 36.5701 150.587 36.7928 150.076 37.7909L150.076 37.7912Z" fill="#F7C550" stroke="black" stroke-miterlimit="10"/>
<path d="M154.838 35.4624C154.568 35.4794 154.335 35.5332 154.137 35.6171C153.334 35.9568 153.18 37.0317 153.795 37.6519C154.455 38.3168 155.204 38.6727 156.062 38.6452L157.936 38.4687C158.282 38.4361 158.621 38.3307 158.913 38.1409C159.593 37.6984 159.787 37.1501 159.698 36.5404C159.657 36.2633 159.469 36.029 159.212 35.9211C157.853 35.3502 156.48 35.385 154.838 35.4624Z" fill="#F7C550" stroke="black" stroke-miterlimit="10"/>
<path d="M156.332 35.3719C157.643 35.4416 158.916 35.5532 159.859 36.023C160.471 35.9745 161.006 35.8487 161.438 35.617C162.036 35.296 162.394 34.6526 162.417 33.9717L162.44 33.2827C162.446 33.0864 162.315 32.9149 162.126 32.8628C161.096 32.5772 159.917 32.6656 158.653 32.9671C157.079 33.3657 155.647 35.3722 156.332 35.3722L156.332 35.3719Z" fill="#F7C550" stroke="black" stroke-miterlimit="10"/>
<path d="M159.03 32.7317C160.241 32.4551 161.391 32.4789 162.467 32.8583C164.062 32.456 164.741 31.0816 165.081 29.3471C165.11 29.1981 165.013 29.0499 164.865 29.0196C163.858 28.8142 162.893 28.8383 161.981 29.1511C159.462 30.0432 158.478 31.2369 159.03 32.7317Z" fill="#F7C550" stroke="black" stroke-miterlimit="10"/>
<path d="M162.366 28.9078L165.059 28.8774C165.324 28.8743 165.59 28.8406 165.845 28.7647C166.619 28.5338 167.219 28.1048 167.664 27.5005C167.836 27.267 167.92 26.9795 167.898 26.6899C167.882 26.4726 167.841 26.2275 167.793 25.974C167.738 25.683 167.51 25.4532 167.22 25.4C166.539 25.2747 165.902 25.2254 165.347 25.3172C161.55 25.5187 161.917 27.1424 162.147 28.7193C162.163 28.8284 162.256 28.9092 162.366 28.9078H162.366Z" fill="#F7C550" stroke="black" stroke-miterlimit="10"/>
<path d="M155.063 12.7754C154.462 11.8674 153.267 11.1851 151.779 10.6142C151.955 9.65548 152.572 9.08573 153.792 9.35545C153.974 9.39568 154.164 9.41211 154.35 9.40503C155.593 9.35658 156.107 10.2394 156.523 11.1891C156.643 11.4628 156.648 11.7807 156.515 12.0478C156.24 12.6 155.75 12.8329 155.063 12.7754Z" fill="#F7C550" stroke="black" stroke-miterlimit="10"/>
<path d="M164.256 25.1302C165.06 24.9554 166.502 25.0123 168.179 25.1543C169.482 24.8981 170.449 24.1862 171.286 23.2977C170.479 22.3114 169.325 21.7196 167.831 21.5133C165.67 22.3296 164.358 23.4872 164.256 25.1302Z" fill="#F7C550" stroke="black" stroke-miterlimit="10"/>
<path d="M168.059 21.4529C169.442 21.4283 170.48 22.0029 171.214 23.1047C171.85 23.4393 172.886 22.8718 174.021 22.0799C173.189 20.8937 172.352 19.7468 171.418 19.3793C169.808 19.283 168.736 20.0502 168.059 21.4529Z" fill="#F7C550" stroke="black" stroke-miterlimit="10"/>
<path d="M172.857 20.0667C172.973 20.5795 173.117 21.0574 173.28 21.5119C173.653 22.5551 174.509 23.354 175.581 23.6158C175.589 23.6178 175.598 23.6201 175.607 23.6221C175.817 23.6725 176.041 23.6002 176.175 23.4297C176.66 22.8092 176.754 22.1391 176.431 21.4161C176.376 21.294 176.329 21.1679 176.291 21.0399C176.009 20.0905 175.034 19.6915 174.042 19.3062C173.744 19.1909 173.399 19.2056 173.141 19.3932C172.932 19.5448 172.819 19.7584 172.857 20.0667H172.857Z" fill="#F7C550" stroke="black" stroke-miterlimit="10"/>
<path d="M176.527 21.5496C177.49 21.6074 178.117 22.2383 178.315 23.2495C178.529 23.8003 178.211 24.3935 177.979 24.8891L175.939 23.5628C176.527 23.0752 176.756 22.4196 176.527 21.5496Z" fill="#F7C550" stroke="black" stroke-miterlimit="10"/>
<path d="M172.995 29.3052L176.695 30.5861C176.923 30.6654 176.999 30.9502 176.843 31.136C176.353 31.7202 175.841 32.2353 175.148 32.1985C175.116 32.1968 175.084 32.1993 175.053 32.2075C173.629 32.5914 172.234 32.7144 170.872 32.5376C170.702 32.5155 170.577 32.3656 170.575 32.1934C170.56 30.9315 171.121 29.9016 172.763 29.3063C172.837 29.2794 172.921 29.2794 172.995 29.3052H172.995Z" fill="#F7C550" stroke="black" stroke-miterlimit="10"/>
<path d="M170.624 32.7787C168.567 33.1804 168.223 34.4678 167.999 35.6946C167.971 35.8513 168.061 36.0077 168.212 36.0564C169.549 36.4865 170.812 36.6231 171.91 36.1015C173.297 35.4495 174.746 34.8217 174.825 33.6541C175.165 33.2872 175.205 32.8674 175.038 32.4112C174.991 32.2829 174.867 32.1962 174.731 32.1982C173.148 32.2234 171.691 32.3375 170.673 32.7642C170.657 32.7707 170.641 32.7756 170.624 32.7787Z" fill="#F7C550" stroke="black" stroke-miterlimit="10"/>
<path d="M166.918 36.4465C168.189 35.8632 169.541 35.8787 170.927 36.1431C171.286 36.2117 171.568 36.4972 171.627 36.8599C171.816 38.0085 170.784 38.9468 169.195 39.7894C169.118 39.8302 169.036 39.8608 168.95 39.877C167.742 40.1079 166.22 39.9302 164.613 39.6432C164.055 39.5435 163.725 38.9273 163.984 38.4213C164.421 37.5688 165.402 36.931 166.845 36.4749C166.869 36.4672 166.894 36.4573 166.918 36.4465H166.918Z" fill="#F7C550" stroke="black" stroke-miterlimit="10"/>
<path d="M159.743 42.8502C159.571 42.7714 159.48 42.5802 159.515 42.3932C159.751 41.1571 160.632 40.2122 162.324 39.6337C163.537 39.2619 164.935 39.3719 166.395 39.6422C166.566 39.6739 166.699 39.8133 166.727 39.9855C166.994 41.6135 166.002 42.7709 163.95 43.5319C163.915 43.5452 163.875 43.5543 163.837 43.5582C162.2 43.7254 160.907 43.3831 159.743 42.8502Z" fill="#F7C550" stroke="black" stroke-miterlimit="10"/>
<path d="M154.635 44.2628C155.026 43.2618 156.072 42.8323 157.578 42.8057C157.63 42.8048 157.68 42.7955 157.729 42.7796C158.67 42.4784 160.15 42.8708 161.633 43.2655C161.954 43.3511 162.131 43.695 162.02 44.0101C161.603 45.1864 161.069 46.1367 160.086 46.2237C160.035 46.2282 159.984 46.2395 159.937 46.2585C158.506 46.8283 156.701 45.865 154.914 44.9739C154.654 44.8442 154.529 44.5345 154.635 44.2628Z" fill="#F7C550" stroke="black" stroke-miterlimit="10"/>
<path d="M150.217 46.2645C150.25 45.4089 151.001 44.98 152.032 44.7182C152.054 44.7125 152.078 44.7091 152.101 44.708C154.188 44.6065 155.992 45.0675 157.538 46.0413C157.678 46.1294 157.721 46.3203 157.631 46.4595C156.986 47.4525 156.145 48.1421 154.993 48.3506C153.243 48.5563 151.799 47.5188 150.347 46.5107C150.267 46.4549 150.213 46.3631 150.217 46.2648L150.217 46.2645Z" fill="#F7C550" stroke="black" stroke-miterlimit="10"/>
<path d="M144.275 47.3704C144.629 46.774 145.486 46.3606 146.5 46.0042C146.531 45.9931 146.565 45.9866 146.599 45.9852C148.903 45.8826 150.673 46.4725 152.004 47.6319C152.125 47.7375 152.141 47.9183 152.055 48.054C151.184 49.4261 149.606 49.8786 147.452 49.5825C147.441 49.5811 147.43 49.5803 147.419 49.5803C145.666 49.5896 144.868 48.7365 144.269 47.7038C144.209 47.6007 144.214 47.4729 144.275 47.3704Z" fill="#F7C550" stroke="black" stroke-miterlimit="10"/>
<path d="M139.003 49.3209C138.68 49.0503 139.832 47.9817 140.775 47.4487C141.077 47.2782 141.429 47.2158 141.769 47.2836C143.709 47.6706 145.372 48.3109 146.68 49.2756C146.869 49.4153 146.899 49.6923 146.732 49.8584C145.859 50.7248 144.599 51.0228 143.094 50.9605C141.809 51.1302 140.397 50.1451 139.003 49.3209Z" fill="#F7C550" stroke="black" stroke-miterlimit="10"/>
<path d="M135.244 51.8797C135.242 52.0862 135.379 52.2707 135.576 52.3313C137.173 52.8246 138.717 53.2255 139.901 53.0042C141.248 52.8977 142.183 52.386 142.694 51.4578C142.814 51.2397 142.727 50.9657 142.515 50.8368C141.274 50.0815 139.941 49.5188 138.398 49.4029C138.369 49.4006 138.338 49.4009 138.308 49.4035C136.372 49.5672 135.26 50.3274 135.244 51.8803L135.244 51.8797Z" fill="#F7C550" stroke="black" stroke-miterlimit="10"/>
<path d="M134.43 54.0167C134.514 52.7712 135.417 52.3921 136.686 52.4012C137.479 52.2961 137.951 52.6958 138.365 53.1849C137.862 54.7547 137.019 55.7455 135.606 55.7648C134.861 55.3027 133.993 54.8831 134.43 54.0167Z" fill="#F7C550" stroke="black" stroke-miterlimit="10"/>
<path d="M135.347 55.7787C135.853 54.8676 136.956 54.8299 137.874 54.9933L136.578 57.6818C135.785 57.2746 134.883 57.2157 135.206 56.3454L135.347 55.7787Z" fill="#F7C550" stroke="black" stroke-miterlimit="10"/>
<path d="M140.405 59.3698C141.44 59.6662 142.277 59.4205 142.921 58.6445C143.171 58.3428 143.247 57.9317 143.128 57.558C142.94 56.9704 142.548 56.5964 141.826 56.5667C140.832 56.7083 140.201 57.271 139.699 57.9844C139.478 58.2977 139.461 58.7363 139.701 59.0355C139.843 59.2126 140.057 59.3384 140.405 59.3698Z" fill="#F7C550" stroke="black" stroke-miterlimit="10"/>
<path d="M135.87 60.3464C135.764 60.5504 138.899 61.9903 139.055 61.8112C140.002 61.7035 140.788 61.4131 141.359 60.8762C141.723 60.5331 141.633 59.9322 141.205 59.673C140.473 59.2299 139.646 58.8539 138.727 58.5414C138.546 58.4796 138.345 58.4901 138.171 58.5703C137.04 59.0922 136.134 59.6574 135.87 60.3464Z" fill="#F7C550" stroke="black" stroke-miterlimit="10"/>
<path d="M133.09 61.6239C133.728 62.6274 135.053 63.2159 136.522 63.7171C136.613 63.7482 136.713 63.757 136.808 63.7386C137.773 63.5513 138.345 63.0751 138.709 62.4467C138.859 62.1874 138.783 61.848 138.529 61.6913C137.835 61.2644 136.662 60.8521 135.45 60.441C135.406 60.426 135.36 60.4161 135.313 60.4118C134.404 60.3328 133.67 60.4688 133.187 60.9173C132.992 61.0983 132.946 61.3989 133.089 61.6236L133.09 61.6239Z" fill="#F7C550" stroke="black" stroke-miterlimit="10"/>
<path d="M129.157 62.6399C129.29 62.4042 129.478 62.1942 129.704 62.003C129.77 61.9475 129.849 61.9092 129.933 61.8883C131.07 61.6027 132.227 61.2876 132.883 61.703C133.501 61.9747 134.046 62.3104 134.509 62.7178C134.79 62.9646 134.774 63.408 134.473 63.6279C133.585 64.2752 132.701 64.9521 131.642 64.5965C130.624 64.4387 129.801 64.0154 129.22 63.2649C129.082 63.0859 129.046 62.8374 129.157 62.6399Z" fill="#F7C550" stroke="black" stroke-miterlimit="10"/>
<path d="M126.685 64.9665C127.724 65.7496 128.901 66.0528 130.442 65.0895C130.567 65.0116 130.605 64.8455 130.52 64.7249C130.032 64.031 129.527 63.3938 128.867 63.2468C128.845 63.2419 128.822 63.2394 128.8 63.2391C127.71 63.2193 127.097 63.8321 126.625 64.6322C126.559 64.7438 126.582 64.8886 126.685 64.9665Z" fill="#F7C550" stroke="black" stroke-miterlimit="10"/>
<path d="M138.497 67.6524C139.136 67.2875 139.698 67.4244 140.201 67.9417C140.734 68.918 141.161 70.6157 141.568 72.4508C139.348 71.0123 137.771 69.4872 138.497 67.6524Z" fill="#F7C550" stroke="black" stroke-miterlimit="10"/>
<path d="M140.49 68.0382C142.001 67.2614 143.215 67.7529 144.161 69.3885C144.139 70.5844 143.793 71.7075 143.154 72.7643C142.665 73.1355 142.178 72.8224 141.69 72.3062L140.49 68.0382Z" fill="#F7C550" stroke="black" stroke-miterlimit="10"/>
<path d="M144.352 69.485C145.114 69.2127 145.769 69.6244 146.32 70.6905C147.04 72.4434 145.697 74.0246 144.4 75.6095C143.702 75.4707 143.138 75.1412 142.961 74.2592C143.227 72.5378 143.719 70.9653 144.352 69.485Z" fill="#F7C550" stroke="black" stroke-miterlimit="10"/>
<path d="M146.572 73.1868C147.635 74.126 148.104 75.2664 147.488 76.775C147.478 76.8011 147.462 76.826 147.443 76.847C146.408 78.0061 145.366 78.9096 144.307 79.0668C144.231 79.0782 144.152 79.0476 144.101 78.9892C143.678 78.4942 143.535 77.9265 143.653 77.291C143.656 77.2793 143.659 77.2675 143.662 77.2561C144.097 75.7435 144.989 74.3985 146.265 73.1936C146.35 73.1137 146.485 73.1094 146.572 73.1865L146.572 73.1868Z" fill="#F7C550" stroke="black" stroke-miterlimit="10"/>
<path d="M143.704 80.0703C143.195 80.6747 143.099 81.3014 143.343 81.9468C143.393 82.0771 143.519 82.1627 143.658 82.1527C145.481 82.021 147.264 81.8533 147.711 80.5047C148.092 79.5867 147.978 78.5769 147.62 77.5219C147.558 77.34 147.351 77.2553 147.182 77.3451C145.609 78.182 143.918 78.9985 143.704 80.0706L143.704 80.0703Z" fill="#F7C550" stroke="black" stroke-miterlimit="10"/>
<path d="M142.434 84.0972C143.47 82.3916 144.917 81.5623 146.752 81.5654C147.125 81.9561 147.534 82.3143 147.136 83.3739C146.161 84.8843 144.65 85.4928 142.865 85.6404C142.386 85.3078 142.211 84.8103 142.434 84.0972Z" fill="#F7C550" stroke="black" stroke-miterlimit="10"/>
<path d="M141.948 85.6915C143.173 85.3104 144.33 85.111 145.428 85.0696C145.65 85.0611 145.821 85.2659 145.785 85.4864C145.574 86.7848 144.967 87.847 143.833 88.593C143.796 88.6173 143.754 88.636 143.711 88.6465C142.901 88.8429 141.964 88.6539 141.003 88.3904C140.892 88.3598 140.797 88.2768 140.763 88.1652C140.497 87.2911 140.89 86.4924 141.824 85.7558C141.861 85.7272 141.904 85.7048 141.948 85.6912V85.6915Z" fill="#F7C550" stroke="black" stroke-miterlimit="10"/>
<path d="M139.53 88.7989C140.171 88.1807 141.589 88.4127 142.981 88.6156C143.136 88.6382 143.239 88.7847 143.215 88.9408C143.052 90.0407 142.478 90.9654 141.274 91.6207C141.218 91.6516 141.15 91.6621 141.087 91.6505C140.079 91.4663 139.159 91.2252 138.44 90.8518C138.33 90.7949 138.272 90.6677 138.3 90.547C138.493 89.7021 138.896 89.1102 139.53 88.7989Z" fill="#F7C550" stroke="black" stroke-miterlimit="10"/>
<path d="M136.555 90.704C137.18 90.4751 141.12 91.3279 140.85 91.4514C140.867 92.2733 139.998 93.0669 138.958 93.8545C138.85 93.9364 138.709 93.9661 138.577 93.9353C137.072 93.5831 135.82 93.0952 134.994 92.3778C134.817 92.2237 134.773 91.9546 134.914 91.7664C135.191 91.395 135.741 91.0411 136.555 90.7037V90.704Z" fill="#F7C550" stroke="black" stroke-miterlimit="10"/>
<path d="M134.75 92.5407C135.719 92.7892 136.578 93.1932 137.348 93.7228C137.506 93.8313 137.554 94.0531 137.447 94.2121C136.922 94.9869 135.82 95.3057 134.349 95.3326C134.317 95.3332 134.283 95.3303 134.252 95.3232C132.989 95.0464 132.294 93.7573 131.621 92.4294C131.546 92.2798 131.582 92.0976 131.709 91.9886L132.892 90.9692C133.046 90.8366 133.278 90.857 133.407 91.0139L134.562 92.422C134.61 92.4807 134.676 92.5218 134.75 92.5407Z" fill="#F7C550" stroke="black" stroke-miterlimit="10"/>
<path d="M129.627 91.2884L130.941 93.6031L131.84 90.981C130.991 90.7962 130.223 90.822 129.627 91.2884Z" fill="#F7C550" stroke="black" stroke-miterlimit="10"/>
<path d="M127.071 89.8418L127.035 92.6991C127.428 94.2245 128.608 94.8798 130.292 94.9778L131.102 94.1641C130.72 91.9146 129.279 90.5555 127.071 89.8421L127.071 89.8418Z" fill="#F7C550" stroke="black" stroke-miterlimit="10"/>
<path d="M127.071 89.01C127.207 90.2132 127.152 91.4304 126.873 92.6631C125.672 92.3492 124.68 91.8415 124.246 90.8184L124.366 90.058L124.912 86.6049C125.971 86.8717 126.827 87.4588 127.071 89.01Z" fill="#F7C550" stroke="black" stroke-miterlimit="10"/>
<path d="M121.692 88.0334C121.297 86.5956 122.199 84.9857 123.437 83.3314C124.161 83.7119 124.703 84.3485 124.967 85.375C125.108 87.0285 124.942 88.6171 124.337 90.113C123.149 89.7501 122.199 89.1299 121.692 88.0334Z" fill="#F7C550" stroke="black" stroke-miterlimit="10"/>
<path d="M121.745 85.6282C123.221 85.2905 123.706 83.9345 123.886 82.2646C124.441 81.4481 124.15 80.0139 123.976 78.6659C122.34 79.8856 120.341 81.0962 120.269 82.355C120.047 83.9436 120.723 84.906 121.745 85.6282Z" fill="#F7C550" stroke="black" stroke-miterlimit="10"/>
<path d="M120.683 80.9807L120.712 80.9589C121.954 80.8577 122.992 79.8049 123.976 78.503L122.572 75.7543C121.532 76.4311 120.597 77.1522 120.215 78.1053C119.983 79.1901 120.248 80.1132 120.683 80.9807H120.683Z" fill="#F7C550" stroke="black" stroke-miterlimit="10"/>
<path d="M120.792 77.1646L122.591 75.6454L121.53 73.7466C120.229 74.5963 120.157 75.7831 120.792 77.1646Z" fill="#F7C550" stroke="black" stroke-miterlimit="10"/>
<path d="M130.987 83.3135L134.91 82.6143C133.979 84.6533 132.863 86.2068 131.203 86.3396C130.619 85.4299 130.621 84.4068 130.987 83.3135Z" fill="#F7C550" stroke="black" stroke-miterlimit="10"/>
<path d="M134.406 84.5321C134.337 84.3701 134.135 84.3117 133.995 84.4188C132.619 85.473 131.509 86.6831 131 88.2445C130.762 89.0888 130.997 89.8838 131.484 90.6524C131.569 90.7861 131.748 90.8227 131.875 90.7281C133.177 89.7568 134.411 88.7851 134.825 87.8079C134.835 87.7852 134.842 87.7617 134.846 87.7376C135.054 86.6296 134.852 85.5674 134.406 84.5321Z" fill="#F7C550" stroke="black" stroke-miterlimit="10"/>
<path d="M134.234 89.4924C134.115 89.3273 133.887 89.2749 133.711 89.3768C132.624 90.0055 131.629 90.8144 130.713 91.7769C129.918 92.3407 129.996 93.6473 130.086 94.9651C130.106 95.2529 130.412 95.4255 130.669 95.2971C132.215 94.5271 133.51 93.4428 134.583 92.082C134.61 92.0477 134.633 92.0086 134.649 91.9678C134.994 91.0887 134.796 90.2702 134.234 89.4924H134.234Z" fill="#F7C550" stroke="black" stroke-miterlimit="10"/>
<path d="M129.644 96.4186C130.358 95.2346 131.806 94.1033 133.596 92.9966C133.779 92.8833 134.02 92.9946 134.055 93.208C134.219 94.1948 134.244 95.1269 133.746 95.8519C132.793 97.2184 131.679 98.3046 130.185 98.7282C130.062 98.763 129.931 98.7123 129.857 98.6084C129.351 97.8972 128.854 97.1861 129.644 96.4186Z" fill="#F7C550" stroke="black" stroke-miterlimit="10"/>
<path d="M129.064 100.989C128.874 100.97 128.744 100.786 128.785 100.599C128.931 99.9445 129.126 99.3098 129.765 98.8537L133.041 96.6701C133.201 96.5639 133.416 96.622 133.505 96.7925C134.115 97.9655 134.137 99.1101 133.354 100.216C133.338 100.24 133.318 100.262 133.296 100.282C132.304 101.17 130.735 101.158 129.064 100.989V100.989Z" fill="#F7C550" stroke="black" stroke-miterlimit="10"/>
</g>
<g clip-path="url(#clip1_725_312)">
<path d="M33.0446 158.951C31.5926 162.718 29.8012 166.007 27.2544 168.23C27.1403 168.33 26.9676 168.328 26.8566 168.224C23.3384 164.944 19.5361 157.901 15.7333 150.849C15.7103 150.806 15.7571 150.761 15.7994 150.784C21.9419 154.168 27.8408 157.132 32.8908 158.637C33.0242 158.677 33.0945 158.822 33.0443 158.951L33.0446 158.951Z" fill="#E41E27" stroke="black" stroke-miterlimit="10"/>
<path d="M32.2357 154.264C32.4377 155.615 32.9032 156.941 33.5583 158.249C33.6789 158.49 33.4545 158.756 33.1949 158.683C28.4101 157.337 23.1635 154.853 17.6477 151.705C17.4584 151.597 17.5872 151.308 17.7941 151.377C22.9802 153.09 28.0271 154.564 31.8824 154.001C32.0541 153.976 32.2098 154.092 32.2354 154.263L32.2357 154.264Z" fill="#07090A"/>
<path d="M63.0669 145.97C67.0354 147.158 70.066 148.205 73.4492 147.473C73.2781 142.64 71.6899 133.357 66.7007 126.399C65.6149 133.381 64.8256 140.707 62.912 145.655C62.8615 145.785 62.9324 145.93 63.0669 145.97Z" fill="#E41E27" stroke="black" stroke-miterlimit="10"/>
<path d="M59.2594 142.135C60.3551 143.277 61.5966 144.676 62.2858 146.251C64.5083 141.175 65.1631 134.009 66.0977 126.717C64.0984 132.453 62.3765 138.705 59.2685 141.696C59.1434 141.817 59.1391 142.009 59.2594 142.135Z" fill="#07090A"/>
<path d="M67.3984 142.694C66.0352 153.226 63.414 163.448 57.4355 172.843C57.1537 173.286 56.6385 173.531 56.1165 173.47C44.2879 172.1 34.8554 167.377 26.4032 161.284C26.1972 161.136 26.3481 160.814 26.5935 160.88C31.9988 162.329 37.9844 163.102 42.3561 162.34C44.3662 161.99 45.8009 160.187 45.722 158.151C45.375 149.19 34.0233 128.908 27.6333 113.45L32.0277 111.353C39.5133 126.516 45.6829 150.764 53.7297 154.845C53.9311 154.947 54.1308 155.053 54.3283 155.163C60.1401 158.406 63.7755 149.106 67.0106 142.576C67.113 142.369 67.428 142.465 67.3984 142.694Z" fill="url(#paint4_linear_725_312)" stroke="#1D1D1B" stroke-miterlimit="10"/>
<path d="M23.7396 105.656C23.7464 104.666 23.027 103.596 22.3211 103.01C21.2107 102.522 20.1371 102 19.246 101.309C14.9739 97.9951 17.5681 91.3328 22.9617 91.7456C23.1626 91.7609 23.3671 91.7867 23.5751 91.823C24.9522 92.0635 26.209 92.8018 27.0936 93.883C28.1263 95.1449 28.4407 96.6032 27.2851 98.4634C26.2936 100.059 26.5364 102.163 27.8818 103.476C27.972 103.564 28.0659 103.65 28.1641 103.734L23.7394 105.657L23.7396 105.656Z" fill="url(#paint5_linear_725_312)" stroke="black" stroke-miterlimit="10"/>
<path d="M6.81063 120.257C16.341 117.24 27.6447 113.526 30.8092 113.009C30.9309 112.99 31.0441 112.935 31.1332 112.85C33.3135 110.756 42.5511 105.585 50.4035 101.018C50.5562 100.929 50.6186 100.742 50.5511 100.579L48.6613 96.005C48.5892 95.8305 48.3903 95.7447 48.2133 95.8107C32.701 101.609 18.2883 107.868 5.46472 114.794C5.09165 114.995 4.71999 115.197 4.34947 115.4C4.12477 115.523 4.03966 115.802 4.15541 116.03L6.16577 119.986C6.28578 120.222 6.55785 120.337 6.81063 120.257Z" fill="url(#paint6_linear_725_312)" stroke="black" stroke-miterlimit="10"/>
<path d="M7.87551 119.414L5.62003 115.09C5.53606 114.929 5.33434 114.87 5.17716 114.962L4.25171 115.5C4.13539 115.568 4.09142 115.714 4.15156 115.835L6.26972 120.086C6.37526 120.298 6.6306 120.388 6.84537 120.288L7.71578 119.883C7.89282 119.8 7.96545 119.587 7.87523 119.414L7.87551 119.414Z" fill="#E41F28" stroke="black" stroke-miterlimit="10"/>
<path d="M50.3941 100.731L48.2918 96.0948C48.2135 95.9223 48.0053 95.8492 47.8348 95.9345L46.8305 96.4374C46.7042 96.5006 46.6492 96.6502 46.7048 96.7791L48.6675 101.331C48.7653 101.558 49.0278 101.666 49.2596 101.576L50.1981 101.209C50.389 101.134 50.4781 100.916 50.3941 100.731Z" fill="#E41F28" stroke="black" stroke-miterlimit="10"/>
<path d="M43.2058 105.084L40.3131 99.491C40.2053 99.2827 39.9224 99.1929 39.6921 99.2941L38.3348 99.8896C38.164 99.9644 38.0908 100.144 38.1674 100.299L40.87 105.79C41.0048 106.063 41.3617 106.196 41.6749 106.09L42.9442 105.657C43.2024 105.569 43.3213 105.308 43.2058 105.084Z" fill="#E41F28" stroke="black" stroke-miterlimit="10"/>
<path d="M16.8171 116.659L13.9244 111.066C13.8166 110.858 13.5338 110.768 13.3034 110.869L11.9461 111.465C11.7753 111.539 11.7021 111.719 11.7787 111.874L14.4814 117.365C14.6161 117.639 14.973 117.771 15.2862 117.665L16.5555 117.232C16.8137 117.144 16.9326 116.883 16.8171 116.659Z" fill="#E41F28" stroke="black" stroke-miterlimit="10"/>
<path d="M21.5251 95.8969C15.4183 101.104 16.9168 106.567 21.2837 109.038C21.7836 109.321 22.2792 109.544 22.7927 109.709C26.4489 110.884 30.3198 108.944 31.725 105.375C32.2209 104.115 32.9194 102.691 32.8856 101.171C33.0184 99.2304 31.239 95.688 28.3341 95.728C28.1766 96.8922 27.9582 97.9555 27.4407 98.5249C27.9253 98.4994 28.3199 98.7006 28.6408 99.0887C28.8436 99.3341 28.9324 99.654 28.9185 99.9719L28.8102 102.448C28.7773 103.2 28.5472 103.936 28.1267 104.561C27.418 105.615 26.5555 106.234 25.5444 106.433C24.0986 106.718 22.6344 106.025 21.8099 104.805C20.2317 102.469 20.249 100.198 23.119 98.0427C23.8169 96.6445 23.1508 96.004 21.5251 95.8969Z" fill="url(#paint7_linear_725_312)" stroke="black" stroke-miterlimit="10"/>
<path d="M32.2725 100.516C31.1436 100.841 30.1475 101.521 29.392 102.447C29.3029 102.556 29.3009 102.712 29.3773 102.83C29.9452 103.713 30.7345 104.205 31.9545 103.938C31.9874 103.931 32.0194 103.918 32.0487 103.902C32.9452 103.394 33.9302 102.882 34.9916 102.321C35.119 102.253 35.1873 102.108 35.1601 101.967C34.9706 100.979 34.0698 100.471 32.3681 100.501C32.3361 100.502 32.3029 100.507 32.2722 100.516H32.2725Z" fill="#F7C550" stroke="black" stroke-miterlimit="10"/>
<path d="M35.7864 102.159C34.7823 102.466 33.7156 102.906 32.825 103.564C32.6545 103.691 32.6077 103.93 32.7362 104.099C33.4174 104.995 34.7545 105.745 35.9938 105.647C37.2869 105.638 38.1687 105.564 39.3242 104.951C39.2505 103.915 38.2805 102.379 36.7405 102.094C36.4227 102.035 36.0953 102.065 35.7864 102.159Z" fill="#F7C550" stroke="black" stroke-miterlimit="10"/>
<path d="M42.9061 108.284C41.4862 108.366 40.0095 108.15 38.4749 107.627C38.3166 107.574 38.1676 107.488 38.0471 107.372C37.6414 106.984 37.3208 106.553 37.0867 106.078C36.9741 105.85 37.1088 105.573 37.3571 105.515C38.8999 105.153 40.3755 104.905 41.6703 104.966C42.2877 104.995 42.846 105.369 43.1081 105.927C43.4276 106.608 43.5363 107.301 43.2602 108.016C43.2026 108.166 43.0661 108.274 42.9061 108.284Z" fill="#F7C550" stroke="black" stroke-miterlimit="10"/>
<path d="M40.3554 107.937C41.7014 107.944 44.3784 108.737 45.0429 108.998C45.1314 109.033 45.2043 109.1 45.2403 109.188C45.532 109.899 45.3842 111.035 45.1555 111.929C45.0959 112.162 44.8284 112.269 44.6184 112.151C43.2357 111.374 41.7842 110.242 40.2973 108.925C40.1168 108.751 40.0215 108.554 39.9903 108.34C39.9591 108.126 40.1384 107.936 40.3554 107.937Z" fill="#F7C550" stroke="black" stroke-miterlimit="10"/>
<path d="M41.297 110.933C41.3319 110.734 41.6837 110.539 41.8811 110.585C43.5351 110.967 44.8476 112.163 45.7611 113.704C46.0477 114.208 46.0173 114.788 45.8632 115.398C45.7466 115.858 45.2468 116.12 44.7982 115.961C43.349 115.45 42.3586 114.399 41.6505 113.016C41.6386 112.993 41.6286 112.968 41.6215 112.943C41.432 112.275 41.2133 111.412 41.297 110.933Z" fill="#F7C550" stroke="black" stroke-miterlimit="10"/>
<path d="M42.6796 115.044C42.7704 114.98 42.8924 114.971 42.9948 115.014C44.6798 115.727 45.5107 116.602 45.8327 117.574C46.2401 119.101 45.8214 120.218 45.1882 121.228C45.0804 121.4 44.8341 121.416 44.7056 121.26C43.6014 119.912 42.6371 118.531 42.247 117.014C42.1057 115.941 42.2782 115.326 42.6793 115.044L42.6796 115.044Z" fill="#F7C550" stroke="black" stroke-miterlimit="10"/>
<path d="M43.1845 118.981C44.4612 120.508 44.7892 122.314 44.7665 124.222C44.7659 124.262 44.7594 124.305 44.7472 124.343C44.455 125.253 43.8442 125.635 42.991 125.615C42.7791 125.61 42.5961 125.46 42.5431 125.255C42.075 123.446 41.6678 121.732 41.6871 120.684C41.7785 119.576 42.1918 119.014 42.8515 118.871C42.9737 118.844 43.1042 118.885 43.1845 118.981Z" fill="#F7C550" stroke="black" stroke-miterlimit="10"/>
<path d="M41.9425 122.639C41.8469 122.371 41.5698 122.21 41.2897 122.261C40.5856 122.391 40.0882 122.844 39.8749 123.741C39.6672 124.832 39.7875 126.385 39.973 128.03C39.9901 128.181 40.1135 128.299 40.265 128.312C41.2988 128.397 42.0841 127.969 42.4087 126.592C42.4356 126.477 42.447 126.357 42.4473 126.24C42.4481 124.919 42.3182 123.691 41.9425 122.639Z" fill="#F7C550" stroke="black" stroke-miterlimit="10"/>
<path d="M39.335 124.118C38.6078 124.049 38.0569 124.494 37.6653 125.405L39.2538 128.493C39.3276 128.636 39.5163 128.678 39.6411 128.576C40.2916 128.044 40.1693 126.303 39.7083 124.446C39.6649 124.27 39.5148 124.136 39.335 124.118Z" fill="#F7C550" stroke="black" stroke-miterlimit="10"/>
<path d="M34.4425 128.515C33.4234 128.639 32.8696 129.077 32.9212 129.926C33.5737 130.738 34.5432 130.984 35.7461 130.812L34.4422 128.515L34.4425 128.515Z" fill="#F7C550" stroke="black" stroke-miterlimit="10"/>
<path d="M34.0932 127.571C34.3176 128.006 34.2572 128.542 33.9542 128.927C33.5108 129.491 32.9811 129.938 32.2344 130.088C30.5256 130.721 29.4106 130.228 28.5098 129.329C28.3169 129.137 28.3354 128.82 28.5547 128.658L30.988 126.864C31.1435 126.75 31.3219 126.668 31.51 126.624C32.6707 126.35 33.5788 126.572 34.0929 127.57L34.0932 127.571Z" fill="#F7C550" stroke="black" stroke-miterlimit="10"/>
<path d="M29.2994 125.242C29.5712 125.259 29.8055 125.313 30.005 125.397C30.8133 125.736 30.9682 126.811 30.3488 127.431C29.6847 128.096 28.9314 128.452 28.0678 128.425L26.1823 128.248C25.8339 128.216 25.4923 128.11 25.1987 127.92C24.5144 127.478 24.3195 126.93 24.4091 126.32C24.4497 126.043 24.6392 125.809 24.8979 125.701C26.2657 125.13 27.6474 125.165 29.2994 125.242Z" fill="#F7C550" stroke="black" stroke-miterlimit="10"/>
<path d="M27.7977 125.151C26.4785 125.221 25.1978 125.333 24.2482 125.803C23.6329 125.754 23.0938 125.628 22.6592 125.397C22.0572 125.076 21.6977 124.432 21.6747 123.751L21.6515 123.062C21.6449 122.866 21.7771 122.694 21.9669 122.642C23.0039 122.357 24.1904 122.445 25.4619 122.747C27.0462 123.145 28.4866 125.152 27.798 125.152L27.7977 125.151Z" fill="#F7C550" stroke="black" stroke-miterlimit="10"/>
<path d="M25.0804 122.511C23.8614 122.235 22.7047 122.258 21.6218 122.638C20.0168 122.236 19.3334 120.861 18.9915 119.127C18.9623 118.978 19.0596 118.829 19.2088 118.799C20.2222 118.594 21.1934 118.618 22.1109 118.931C24.6461 119.823 25.636 121.016 25.0804 122.511Z" fill="#F7C550" stroke="black" stroke-miterlimit="10"/>
<path d="M21.7238 118.687L19.0136 118.657C18.7466 118.654 18.4788 118.62 18.2229 118.544C17.4438 118.313 16.8404 117.884 16.3921 117.28C16.219 117.047 16.1348 116.759 16.1566 116.469C16.1731 116.252 16.2139 116.007 16.2625 115.754C16.3181 115.463 16.5467 115.233 16.8384 115.18C17.5241 115.054 18.1653 115.005 18.7233 115.097C22.5449 115.298 22.1749 116.922 21.9437 118.499C21.9278 118.608 21.8342 118.689 21.7235 118.687H21.7238Z" fill="#F7C550" stroke="black" stroke-miterlimit="10"/>
<path d="M29.074 102.555C29.6797 101.647 30.8821 100.965 32.3789 100.394C32.2019 99.435 31.5814 98.8653 30.3538 99.135C30.1702 99.1752 29.9796 99.1917 29.7918 99.1846C28.5415 99.1361 28.024 100.019 27.6049 100.969C27.4844 101.242 27.479 101.56 27.6132 101.827C27.8901 102.38 28.3834 102.612 29.074 102.555Z" fill="#F7C550" stroke="black" stroke-miterlimit="10"/>
<path d="M19.8223 114.91C19.0134 114.735 17.562 114.792 15.8745 114.934C14.5632 114.678 13.59 113.966 12.7477 113.077C13.5597 112.091 14.7209 111.499 16.2246 111.293C18.3995 112.109 19.719 113.267 19.8223 114.91Z" fill="#F7C550" stroke="black" stroke-miterlimit="10"/>
<path d="M15.9961 111.232C14.6039 111.208 13.5596 111.782 12.8208 112.884C12.1802 113.219 11.1382 112.651 9.99595 111.859C10.8332 110.673 11.6752 109.526 12.6157 109.159C14.2351 109.063 15.3141 109.83 15.9961 111.232Z" fill="#F7C550" stroke="black" stroke-miterlimit="10"/>
<path d="M11.1664 109.846C11.0493 110.359 10.9043 110.837 10.7406 111.291C10.365 112.335 9.5042 113.134 8.42554 113.395C8.41674 113.397 8.40823 113.4 8.39944 113.402C8.18807 113.452 7.96196 113.38 7.82777 113.209C7.33979 112.589 7.24503 111.919 7.56987 111.196C7.62463 111.074 7.67201 110.947 7.71031 110.819C7.99459 109.87 8.97565 109.471 9.9743 109.086C10.2733 108.97 10.6212 108.985 10.881 109.173C11.0913 109.324 11.2042 109.538 11.1667 109.846H11.1664Z" fill="#F7C550" stroke="black" stroke-miterlimit="10"/>
<path d="M7.47292 111.329C6.50406 111.387 5.87309 112.018 5.67421 113.029C5.45859 113.58 5.77805 114.173 6.01211 114.669L8.06445 113.342C7.47349 112.855 7.24284 112.199 7.47292 111.329Z" fill="#F7C550" stroke="black" stroke-miterlimit="10"/>
<path d="M11.0267 119.085L7.30386 120.366C7.07378 120.445 6.99718 120.73 7.15407 120.916C7.64715 121.5 8.16265 122.015 8.86028 121.978C8.89206 121.976 8.92469 121.979 8.95561 121.987C10.3889 122.371 11.7927 122.494 13.163 122.317C13.3341 122.295 13.4603 122.145 13.4626 121.973C13.4776 120.711 12.9125 119.681 11.2599 119.086C11.1856 119.059 11.1016 119.059 11.027 119.085H11.0267Z" fill="#F7C550" stroke="black" stroke-miterlimit="10"/>
<path d="M13.414 122.558C15.4842 122.96 15.8306 124.247 16.0553 125.474C16.084 125.631 15.9929 125.787 15.8408 125.836C14.4958 126.266 13.225 126.403 12.1203 125.881C10.7239 125.229 9.2656 124.601 9.18672 123.434C8.844 123.067 8.80371 122.647 8.97224 122.191C9.01962 122.062 9.14388 121.976 9.28092 121.978C10.8739 122.003 12.3407 122.117 13.3646 122.544C13.3805 122.55 13.3972 122.555 13.414 122.558Z" fill="#F7C550" stroke="black" stroke-miterlimit="10"/>
<path d="M17.1431 126.226C15.8636 125.643 14.503 125.658 13.1085 125.923C12.7468 125.991 12.4639 126.277 12.4041 126.639C12.2143 127.788 13.2529 128.726 14.8516 129.569C14.9288 129.61 15.0119 129.64 15.0979 129.657C16.3133 129.887 17.8453 129.71 19.4625 129.423C20.0236 129.323 20.3561 128.707 20.0951 128.201C19.6557 127.348 18.6684 126.711 17.2169 126.254C17.1922 126.247 17.167 126.237 17.1434 126.226H17.1431Z" fill="#F7C550" stroke="black" stroke-miterlimit="10"/>
<path d="M24.3647 132.63C24.538 132.551 24.6297 132.36 24.5939 132.173C24.357 130.937 23.4707 129.992 21.7676 129.413C20.5474 129.041 19.1399 129.151 17.6703 129.422C17.4984 129.453 17.3653 129.593 17.3369 129.765C17.0677 131.393 18.0658 132.55 20.1309 133.311C20.1669 133.325 20.2066 133.334 20.2447 133.338C21.8927 133.505 23.1935 133.163 24.3647 132.63Z" fill="#F7C550" stroke="black" stroke-miterlimit="10"/>
<path d="M29.503 134.042C29.1098 133.041 28.0578 132.612 26.5416 132.585C26.4897 132.584 26.4389 132.575 26.3896 132.559C25.4431 132.258 23.9531 132.65 22.4613 133.045C22.1379 133.131 21.9598 133.475 22.0718 133.79C22.4911 134.966 23.0285 135.916 24.0178 136.003C24.0691 136.008 24.1202 136.019 24.1681 136.038C25.6082 136.608 27.4243 135.645 29.2224 134.753C29.4843 134.624 29.6097 134.314 29.503 134.042Z" fill="#F7C550" stroke="black" stroke-miterlimit="10"/>
<path d="M33.9492 136.044C33.9157 135.188 33.1605 134.759 32.1224 134.498C32.1 134.492 32.0762 134.489 32.0529 134.488C29.9532 134.386 28.1377 134.847 26.5813 135.821C26.4403 135.909 26.3972 136.1 26.488 136.239C27.1377 137.232 27.984 137.922 29.1424 138.13C30.9039 138.336 32.3573 137.298 33.8179 136.29C33.899 136.234 33.9529 136.143 33.9489 136.044L33.9492 136.044Z" fill="#F7C550" stroke="black" stroke-miterlimit="10"/>
<path d="M39.9298 137.15C39.5737 136.554 38.7107 136.14 37.6907 135.784C37.6592 135.773 37.6249 135.766 37.5914 135.765C35.2724 135.662 33.491 136.252 32.1519 137.411C32.0299 137.517 32.0137 137.698 32.1005 137.834C32.9766 139.206 34.5648 139.658 36.7327 139.362C36.7434 139.361 36.7551 139.36 36.7661 139.36C38.5297 139.369 39.3328 138.516 39.936 137.483C39.9961 137.38 39.991 137.252 39.9298 137.15Z" fill="#F7C550" stroke="black" stroke-miterlimit="10"/>
<path d="M45.2354 139.1C45.5597 138.83 44.4007 137.761 43.4514 137.228C43.1476 137.058 42.7932 136.995 42.4511 137.063C40.4989 137.45 38.8253 138.09 37.5097 139.055C37.3191 139.195 37.2887 139.472 37.457 139.638C38.3353 140.504 39.6035 140.802 41.1185 140.74C42.4116 140.91 43.8325 139.925 45.2354 139.1Z" fill="#F7C550" stroke="black" stroke-miterlimit="10"/>
<path d="M49.0173 141.659C49.0196 141.866 48.8817 142.05 48.6839 142.111C47.0762 142.604 45.5223 143.005 44.331 142.784C42.9757 142.677 42.0352 142.166 41.5206 141.237C41.3997 141.019 41.4871 140.745 41.7005 140.616C42.9499 139.861 44.2907 139.298 45.8435 139.182C45.8732 139.18 45.9042 139.18 45.934 139.183C47.8825 139.347 49.0011 140.107 49.0176 141.66L49.0173 141.659Z" fill="#F7C550" stroke="black" stroke-miterlimit="10"/>
<path d="M49.8364 143.796C49.7522 142.551 48.844 142.172 47.5668 142.181C46.7684 142.076 46.2938 142.475 45.8767 142.964C46.3829 144.534 47.2314 145.525 48.6534 145.544C49.4026 145.082 50.277 144.663 49.8364 143.796Z" fill="#F7C550" stroke="black" stroke-miterlimit="10"/>
<path d="M48.913 145.558C48.4046 144.647 47.2943 144.609 46.3709 144.773L47.6748 147.461C48.4728 147.054 49.3804 146.995 49.0553 146.125L48.913 145.558Z" fill="#F7C550" stroke="black" stroke-miterlimit="10"/>
<path d="M43.824 149.149C42.7823 149.446 41.9397 149.2 41.2922 148.424C41.0406 148.122 40.964 147.711 41.084 147.338C41.2724 146.75 41.667 146.376 42.3936 146.346C43.3942 146.488 44.0295 147.051 44.5345 147.764C44.7563 148.077 44.7733 148.516 44.5325 148.815C44.3898 148.992 44.1739 149.118 43.824 149.149Z" fill="#F7C550" stroke="black" stroke-miterlimit="10"/>
<path d="M48.388 150.126C48.4949 150.33 45.3401 151.77 45.1826 151.591C44.2299 151.483 43.4384 151.193 42.8642 150.656C42.4973 150.313 42.5887 149.712 43.0194 149.453C43.7553 149.009 44.5883 148.633 45.5129 148.321C45.6953 148.259 45.897 148.27 46.0721 148.35C47.2109 148.872 48.1221 149.437 48.388 150.126Z" fill="#F7C550" stroke="black" stroke-miterlimit="10"/>
<path d="M51.1853 151.403C50.5427 152.407 49.2093 152.995 47.7309 153.497C47.6392 153.528 47.5388 153.537 47.4437 153.518C46.4718 153.331 45.8967 152.855 45.5304 152.226C45.3792 151.967 45.4558 151.628 45.7117 151.471C46.4096 151.044 47.5907 150.632 48.8095 150.221C48.8538 150.206 48.9009 150.196 48.9474 150.191C49.8621 150.112 50.6014 150.248 51.0871 150.697C51.2832 150.878 51.3294 151.178 51.1856 151.403L51.1853 151.403Z" fill="#F7C550" stroke="black" stroke-miterlimit="10"/>
<path d="M55.1431 152.419C55.0092 152.184 54.8208 151.974 54.593 151.783C54.5269 151.727 54.4469 151.689 54.3629 151.668C53.2184 151.382 52.0538 151.067 51.3936 151.483C50.7723 151.754 50.2239 152.09 49.7572 152.497C49.4746 152.744 49.4905 153.188 49.7941 153.407C50.6878 154.055 51.5766 154.732 52.6428 154.376C53.6673 154.218 54.4949 153.795 55.0796 153.044C55.2189 152.865 55.2549 152.617 55.1431 152.419Z" fill="#F7C550" stroke="black" stroke-miterlimit="10"/>
<path d="M57.6308 154.746C56.5853 155.529 55.4011 155.832 53.8504 154.869C53.7247 154.791 53.6864 154.625 53.7718 154.504C54.2623 153.811 54.7707 153.173 55.4354 153.026C55.4573 153.021 55.4806 153.019 55.5027 153.019C56.5998 152.999 57.2166 153.612 57.6912 154.412C57.7573 154.523 57.7346 154.668 57.6308 154.746Z" fill="#F7C550" stroke="black" stroke-miterlimit="10"/>
<path d="M45.7439 157.432C45.101 157.067 44.5359 157.204 44.0295 157.721C43.4933 158.698 43.0631 160.395 42.6532 162.23C44.888 160.792 46.4745 159.267 45.7439 157.432Z" fill="#F7C550" stroke="black" stroke-miterlimit="10"/>
<path d="M43.7383 157.818C42.2182 157.041 40.9965 157.532 40.0441 159.168C40.0662 160.364 40.4146 161.487 41.0581 162.544C41.5495 162.915 42.0403 162.602 42.5308 162.086L43.7383 157.818Z" fill="#F7C550" stroke="black" stroke-miterlimit="10"/>
<path d="M39.8519 159.265C39.085 158.992 38.4265 159.404 37.8719 160.47C37.1473 162.223 38.4988 163.804 39.8033 165.389C40.5058 165.25 41.0735 164.921 41.252 164.039C40.9841 162.317 40.4888 160.745 39.8519 159.265Z" fill="#F7C550" stroke="black" stroke-miterlimit="10"/>
<path d="M37.6178 162.966C36.5485 163.906 36.0761 165.046 36.696 166.555C36.7068 166.581 36.7224 166.606 36.7414 166.627C37.7835 167.786 38.8315 168.689 39.8979 168.846C39.9743 168.858 40.054 168.827 40.1045 168.769C40.5309 168.274 40.6747 167.706 40.5553 167.071C40.553 167.059 40.5502 167.047 40.5471 167.036C40.109 165.523 39.2108 164.178 37.927 162.973C37.8419 162.893 37.7057 162.889 37.6181 162.966L37.6178 162.966Z" fill="#F7C550" stroke="black" stroke-miterlimit="10"/>
<path d="M40.5039 169.85C41.0163 170.454 41.1128 171.081 40.8668 171.726C40.8172 171.857 40.6898 171.942 40.5505 171.932C38.7152 171.801 36.921 171.633 36.4716 170.284C36.0883 169.366 36.2029 168.356 36.5632 167.301C36.6254 167.12 36.8339 167.035 37.0038 167.125C38.5869 167.962 40.2886 168.778 40.5037 169.85L40.5039 169.85Z" fill="#F7C550" stroke="black" stroke-miterlimit="10"/>
<path d="M41.7826 173.877C40.7391 172.171 39.2837 171.342 37.4365 171.345C37.062 171.736 36.6495 172.094 37.0501 173.153C38.0311 174.664 39.5518 175.272 41.348 175.42C41.8306 175.087 42.0068 174.59 41.7826 173.877Z" fill="#F7C550" stroke="black" stroke-miterlimit="10"/>
<path d="M42.2709 175.471C41.0376 175.09 39.8733 174.89 38.7685 174.849C38.545 174.841 38.3731 175.045 38.4091 175.266C38.6219 176.564 39.2321 177.627 40.3735 178.373C40.4109 178.397 40.4529 178.416 40.4963 178.426C41.312 178.622 42.2542 178.433 43.2211 178.17C43.3337 178.139 43.429 178.056 43.4631 177.945C43.7303 177.071 43.3351 176.272 42.3949 175.535C42.3586 175.507 42.3152 175.484 42.2709 175.471V175.471Z" fill="#F7C550" stroke="black" stroke-miterlimit="10"/>
<path d="M44.7048 178.578C44.0591 177.96 42.632 178.192 41.2319 178.395C41.0756 178.418 40.9723 178.564 40.9956 178.72C41.1599 179.82 41.7372 180.745 42.9489 181.4C43.006 181.431 43.0743 181.442 43.1379 181.43C44.1516 181.246 45.0779 181.005 45.8016 180.631C45.9117 180.574 45.9701 180.447 45.9423 180.327C45.748 179.482 45.3429 178.89 44.7048 178.578Z" fill="#F7C550" stroke="black" stroke-miterlimit="10"/>
<path d="M47.6998 180.484C47.0708 180.255 43.1057 181.107 43.3778 181.231C43.3599 182.053 44.2346 182.846 45.2818 183.634C45.3904 183.716 45.5326 183.746 45.665 183.715C47.1795 183.363 48.4397 182.875 49.2704 182.157C49.4489 182.003 49.4931 181.734 49.3515 181.546C49.0724 181.175 48.5192 180.821 47.6998 180.483V180.484Z" fill="#F7C550" stroke="black" stroke-miterlimit="10"/>
<path d="M49.5154 182.32C48.5401 182.569 47.6756 182.973 46.9005 183.502C46.7416 183.611 46.6934 183.833 46.8015 183.992C47.3295 184.766 48.4382 185.085 49.9183 185.112C49.9509 185.113 49.9847 185.11 50.0165 185.103C51.2872 184.826 51.9863 183.537 52.6635 182.209C52.7398 182.059 52.7035 181.877 52.5758 181.768L51.3848 180.749C51.2302 180.616 50.9964 180.637 50.8667 180.793L49.7044 182.202C49.6559 182.26 49.5892 182.301 49.5154 182.32Z" fill="#F7C550" stroke="black" stroke-miterlimit="10"/>
<path d="M54.6699 181.068L53.3478 183.383L52.4425 180.761C53.2973 180.576 54.0699 180.602 54.6699 181.068Z" fill="#F7C550" stroke="black" stroke-miterlimit="10"/>
<path d="M57.243 179.621L57.2793 182.479C56.8835 184.004 55.6962 184.659 54.0016 184.757L53.1868 183.944C53.5715 181.694 55.0213 180.335 57.2433 179.622L57.243 179.621Z" fill="#F7C550" stroke="black" stroke-miterlimit="10"/>
<path d="M57.2429 178.79C57.1062 179.993 57.1618 181.21 57.4421 182.443C58.6512 182.129 59.649 181.621 60.0859 180.598L59.9651 179.838L59.4161 176.384C58.3502 176.651 57.4889 177.238 57.2429 178.79Z" fill="#F7C550" stroke="black" stroke-miterlimit="10"/>
<path d="M62.6575 177.813C63.0549 176.375 62.1468 174.765 60.9007 173.111C60.1725 173.491 59.6275 174.128 59.3613 175.155C59.2198 176.808 59.3866 178.397 59.9951 179.893C61.1913 179.53 62.1471 178.909 62.6575 177.813Z" fill="#F7C550" stroke="black" stroke-miterlimit="10"/>
<path d="M62.6033 175.408C61.1175 175.07 60.6292 173.714 60.4482 172.044C59.8899 171.228 60.183 169.793 60.3577 168.445C62.0044 169.665 64.0156 170.876 64.0882 172.135C64.3121 173.723 63.6309 174.686 62.6033 175.408Z" fill="#F7C550" stroke="black" stroke-miterlimit="10"/>
<path d="M63.6709 170.76L63.642 170.738C62.3917 170.637 61.3474 169.584 60.3572 168.283L61.7698 165.534C62.8167 166.211 63.7575 166.932 64.1422 167.885C64.3754 168.97 64.1087 169.893 63.6712 170.76H63.6709Z" fill="#F7C550" stroke="black" stroke-miterlimit="10"/>
<path d="M63.5631 166.944L61.7522 165.425L62.8207 163.526C64.1297 164.376 64.2023 165.563 63.5631 166.944Z" fill="#F7C550" stroke="black" stroke-miterlimit="10"/>
<path d="M53.3001 173.093L49.3523 172.394C50.2891 174.433 51.4129 175.986 53.0828 176.119C53.6706 175.209 53.6687 174.186 53.3001 173.093Z" fill="#F7C550" stroke="black" stroke-miterlimit="10"/>
<path d="M49.8605 174.312C49.9306 174.15 50.1337 174.091 50.2744 174.198C51.6595 175.253 52.7762 176.463 53.2883 178.024C53.5283 178.868 53.2917 179.663 52.8011 180.432C52.7157 180.566 52.5353 180.602 52.4079 180.508C51.0975 179.536 49.8557 178.565 49.4389 177.587C49.4293 177.565 49.4224 177.541 49.4179 177.517C49.2091 176.409 49.4122 175.347 49.8605 174.312Z" fill="#F7C550" stroke="black" stroke-miterlimit="10"/>
<path d="M50.0342 179.272C50.1545 179.107 50.3831 179.054 50.5605 179.156C51.655 179.785 52.6562 180.594 53.578 181.556C54.378 182.12 54.2994 183.427 54.2084 184.745C54.1885 185.032 53.881 185.205 53.6222 185.077C52.0658 184.307 50.763 183.222 49.6835 181.862C49.6563 181.827 49.633 181.788 49.6171 181.747C49.2693 180.868 49.469 180.05 50.0347 179.272H50.0342Z" fill="#F7C550" stroke="black" stroke-miterlimit="10"/>
<path d="M54.6524 186.198C53.9332 185.014 52.4764 183.883 50.6757 182.776C50.4913 182.663 50.2487 182.774 50.2132 182.988C50.0487 183.974 50.0229 184.906 50.5239 185.631C51.4831 186.998 52.6043 188.084 54.108 188.508C54.2311 188.543 54.3639 188.492 54.4382 188.388C54.9475 187.677 55.4471 186.966 54.6524 186.198Z" fill="#F7C550" stroke="black" stroke-miterlimit="10"/>
<path d="M55.2365 190.769C55.428 190.75 55.5593 190.566 55.5176 190.378C55.3712 189.724 55.1746 189.089 54.5312 188.633L51.2345 186.45C51.0742 186.343 50.8569 186.401 50.7678 186.572C50.1541 187.745 50.1323 188.89 50.9196 189.996C50.9363 190.019 50.9565 190.042 50.978 190.061C51.9761 190.949 53.5552 190.938 55.2365 190.769V190.769Z" fill="#F7C550" stroke="black" stroke-miterlimit="10"/>
</g>
<path d="M68.3605 71.2961L74.9392 71.174C75.0754 71.1714 75.1412 71.0029 75.0402 70.9114C73.781 69.7734 72.2312 68.9196 71.114 68.6438C69.9538 68.8648 67.6954 70.5329 68.3605 71.2958V71.2961Z" fill="url(#paint8_radial_725_312)" stroke="#020303" stroke-miterlimit="10"/>
<path d="M68.9102 73.4235C70.3111 73.358 71.9516 73.1072 73.0677 72.9367C73.1497 72.9243 73.1603 72.8118 73.0827 72.7823C71.9352 72.3463 70.5381 71.7234 69.933 71.2689L68.3607 71.2966C67.9048 71.977 68.1781 72.9044 68.9318 73.3779L68.9102 73.4235Z" fill="#0A0C0C" stroke="#020303" stroke-miterlimit="10"/>
<path d="M29.7168 49.8153C36.119 51.5875 45.0202 59.2858 53.4141 69.3625H54.9613C61.4145 63.9394 66.5733 63.2547 69.9164 69.2151C68.2241 70.944 67.9609 72.2358 69.0323 73.1196C66.159 75.8746 62.8186 78.1345 58.9394 79.8236C51.0663 82.0962 45.1988 78.6074 40.5634 71.5803C39.6871 70.2515 39.0722 68.7647 38.7403 67.208C37.3828 60.8416 33.5905 54.8391 29.7168 49.8153Z" fill="#E41D29"/>
<path d="M29.7168 49.8153C36.119 51.5875 45.0202 59.2858 53.4141 69.3625H54.9613C61.4145 63.9394 66.5733 63.2547 69.9164 69.2151C68.2241 70.944 67.9609 72.2358 69.0323 73.1196C66.159 75.8746 62.8186 78.1345 58.9394 79.8236C51.0663 82.0962 45.1988 78.6074 40.5634 71.5803C39.6871 70.2515 39.0722 68.7647 38.7403 67.208C37.3828 60.8416 33.5905 54.8391 29.7168 49.8153Z" fill="url(#paint9_linear_725_312)" fill-opacity="0.2"/>
<path d="M29.7168 49.8153C36.119 51.5875 45.0202 59.2858 53.4141 69.3625H54.9613C61.4145 63.9394 66.5733 63.2547 69.9164 69.2151C68.2241 70.944 67.9609 72.2358 69.0323 73.1196C66.159 75.8746 62.8186 78.1345 58.9394 79.8236C51.0663 82.0962 45.1988 78.6074 40.5634 71.5803C39.6871 70.2515 39.0722 68.7647 38.7403 67.208C37.3828 60.8416 33.5905 54.8391 29.7168 49.8153Z" stroke="black" stroke-miterlimit="10"/>
<path d="M66.4911 69.868L63.625 69.5342C63.6853 67.9977 64.7125 66.802 66.8477 66.4404C67.5143 66.9806 68.01 67.4847 68.4558 68.0263L66.4911 69.868Z" fill="#E9E2CF"/>
<path d="M49.5047 78.9948C47.6194 77.0188 45.1198 73.1997 45.4583 72.1659C45.4753 72.1142 45.4572 72.0559 45.4188 72.0256L39.0208 66.9831C38.9365 66.9164 38.8349 67.0246 38.8738 67.1366C41.9672 76.0479 49.5738 79.0672 49.5044 78.9948H49.5047Z" fill="url(#paint10_linear_725_312)" fill-opacity="0.8"/>
<path d="M68.3324 68.7346C68.3896 68.1496 67.8134 67.6144 67.0453 67.5392C66.2772 67.4641 65.6081 67.8775 65.5509 68.4626C65.4937 69.0477 66.0699 69.5829 66.838 69.658C67.6061 69.7331 68.2752 69.3197 68.3324 68.7346Z" fill="black" stroke="black" stroke-width="2" stroke-miterlimit="10"/>
<path d="M66.9291 66.5313C64.9425 66.9852 64.4978 67.7279 63.8082 69.5529L63.5197 69.5489C62.9478 68.0909 63.8896 66.2032 65.5175 66.0344C66.0271 65.9721 66.5199 66.0443 66.9556 66.2439L66.9294 66.5313H66.9291Z" fill="#1D1D1C"/>
<path d="M71.8409 68.776C72.3609 60.2929 63.6931 57.005 55.2077 63.3462C48.313 53.0958 40.793 49.2262 35.6359 42.5958C29.2029 35.1783 25.2652 24.7512 22.5226 12.8821C24.2527 23.9344 27.3167 34.718 32.234 45.1315C32.4894 45.6722 32.2052 46.3263 31.6255 46.4735C25.816 47.9474 12.8547 42.3875 0.814453 37.7336L30.2333 49.9628C37.3282 51.9108 45.2464 60.1264 53.4147 69.3626H54.9618C61.1987 64.5226 66.0369 62.8061 69.8679 69.0925C70.6091 68.8144 70.992 68.4165 71.7246 68.8363C71.774 68.8646 71.8372 68.8328 71.8406 68.7763L71.8409 68.776Z" fill="black" stroke="black" stroke-miterlimit="10"/>
<path d="M66.9753 60.0638L75.6993 51.8571C76.1067 51.4739 76.4591 51.0338 76.7384 50.5494C80.4857 44.0471 79.3589 40.9689 78.6214 36.6062C78.0763 39.3537 77.4557 42.5037 76.3578 45.0631C75.7311 46.5239 74.7203 47.7826 73.4718 48.7662C69.116 52.1984 65.7144 56.1534 63.5312 59.7507L66.9753 60.0638Z" fill="#EF8C22" stroke="black" stroke-miterlimit="10"/>
<path d="M79.1512 36.7785C79.8261 23.0491 84.1572 14.5497 92.6654 7.33275C92.6888 7.31313 92.6674 7.27648 92.6394 7.28831C85.4325 10.3039 77.1067 13.8789 76.5879 34.7021L76.7818 42.9719C76.7873 43.2005 77.1067 43.2492 77.1797 43.0325L78.8717 38.0171L79.1512 36.7785Z" fill="#F5D850" stroke="black" stroke-miterlimit="10"/>
<path d="M72.9055 48.1105L71.4322 40.8171C71.0462 30.0239 73.3799 24.2447 77.0311 24.2046C75.9476 30.4131 75.5719 37.053 76.2575 44.3719L72.9055 48.1105Z" fill="#F5D850" stroke="black" stroke-miterlimit="10"/>
<path d="M69.7924 50.081L68.2453 44.4452C67.519 33.8104 69.5353 30.5906 71.4868 30.1901C70.6053 35.3832 71.3379 41.8743 72.96 48.3131L69.7921 50.0812L69.7924 50.081Z" fill="#F5D850" stroke="black" stroke-miterlimit="10"/>
<path d="M65.8201 54.395L64.7739 50.0303C64.7673 50.0029 64.7626 49.974 64.76 49.946C64.0456 41.8331 65.1008 38.8461 66.7775 37.6593C67.1616 37.3875 67.6861 37.7041 67.6495 38.1732C67.2952 42.7331 68.172 47.2089 69.3914 51.6614C69.4451 51.857 69.3897 52.0665 69.2451 52.2093L66.7634 54.6645C66.4515 54.973 65.9223 54.8221 65.8201 54.3956V54.395Z" fill="#F5D850" stroke="black" stroke-miterlimit="10"/>
<path d="M62.5536 58.3875L61.1908 55.146C59.6165 44.9112 61.561 43.1906 64.0272 42.7327C63.6498 46.9938 64.1308 51.8639 65.0218 57.0247L62.5536 58.3875Z" fill="#F5D850" stroke="black" stroke-miterlimit="10"/>
<path d="M58.3187 60.6344L57.3611 54.0779C56.8362 50.1298 58.1499 47.7271 60.4551 46.1583L62.2233 59.1242L58.3187 60.6344Z" fill="#F5D850" stroke="black" stroke-miterlimit="10"/>
<path d="M56.7343 61.6286L54.8926 57.503L57.1025 54.0039L58.2076 60.9655L56.7343 61.6286Z" fill="#F5D850" stroke="black" stroke-miterlimit="10"/>
<path d="M55.3204 63.3084L52.6973 59.6297L54.1697 55.7618L56.633 62.3663L55.3204 63.3084Z" fill="#F5D850" stroke="black" stroke-miterlimit="10"/>
<path d="M78.8983 33.2292C75.9038 39.4611 67.5367 49.5892 59.0564 59.7995L55.5694 62.5499L53.7031 60.1925C63.3283 45.21 72.5625 32.1431 80.4209 25.8131L78.8983 33.2292Z" fill="url(#paint11_linear_725_312)" fill-opacity="0.8"/>
<path d="M79.748 34.9178C79.063 38.0234 78.8667 44.4241 74.4953 48.1899C65.3601 55.9989 63.8107 57.1248 64.3779 59.6334L58.8281 61.4997C59.7122 54.2801 65.4095 50.9893 68.9686 44.1783C73.5342 38.2245 78.4059 38.0883 79.7012 30.2083L79.7477 34.9178H79.748Z" fill="black" stroke="black" stroke-miterlimit="10"/>
<path d="M39.0287 1.62466C38.3538 12.4282 45.9032 22.6642 53.5735 31.4226L55.9923 39.0843C45.0517 33.1319 33.375 7.81994 37.955 1.25677C38.2972 0.766253 39.0659 1.02796 39.0287 1.62466Z" fill="#F5D850" stroke="black" stroke-miterlimit="10"/>
<path d="M40.5474 20.7896C39.2383 17.9786 38.6095 18.3877 38.4846 21.1826C37.6989 27.42 48.8605 36.1945 57.5898 44.3149C57.3604 42.0328 57.7346 43.3388 55.9936 39.0842C52.6929 39.8746 47.6037 33.9592 40.5474 20.7896Z" fill="#F5D850" stroke="black" stroke-miterlimit="10"/>
<path d="M41.1489 31.6068C44.3214 40.8041 50.9108 44.2066 57.1967 47.9002L57.5403 44.4377C51.3921 39.5432 45.0756 34.608 42.3397 30.5387C40.768 29.5686 40.6944 30.4772 41.1486 31.6068H41.1489Z" fill="#F5D850" stroke="black" stroke-miterlimit="10"/>
<path d="M56.7772 48.3423C51.5248 44.3708 46.0509 40.3018 44.1059 37.7828C44.032 41.1481 45.6963 44.8501 50.7117 49.2016L55.0828 52.001L56.7772 48.3423Z" fill="#F5D850" stroke="black" stroke-miterlimit="10"/>
<path d="M53.1689 55.0954C50.5051 54.4935 47.5066 52.1502 43.911 46.6971C42.9779 44.4012 43.6929 43.5696 44.7461 43.0381C47.2319 46.7026 50.7878 49.635 54.7406 52.2959L53.1689 55.0954Z" fill="#F5D850" stroke="black" stroke-miterlimit="10"/>
<path d="M44.0106 47.1637C41.8829 46.3261 41.532 47.3665 42.1198 49.3984C43.8779 52.3193 47.7019 55.7374 51.6968 59.1964L53.1701 55.562C49.2243 52.9836 45.4675 50.3584 44.0106 47.1637Z" fill="#F5D850" stroke="black" stroke-miterlimit="10"/>
<path d="M51.5227 59.9328C47.104 58.8753 42.9311 57.5838 40.3495 54.776C39.3627 52.0531 39.3665 50.243 41.4301 50.3313C45.4752 55.5938 48.7545 57.5968 51.8176 58.6806L51.523 59.9328H51.5227Z" fill="#F5D850" stroke="black" stroke-miterlimit="10"/>
<path d="M46.636 58.6312C44.3891 58.2105 42.3257 56.9568 40.4231 54.9722C38.7227 54.6052 37.7241 55.0856 38.7778 58.0417C40.3905 61.3112 44.192 62.221 47.299 61.1851L51.0071 61.087L51.4491 59.6873L46.636 58.6312Z" fill="#F5D850" stroke="black" stroke-miterlimit="10"/>
<path d="M47.0293 61.038C43.8181 61.8952 41.1791 61.6009 39.4657 59.4418C32.2992 61.1468 39.5555 65.8814 46.1697 64.2795L48.429 63.0762L48.3309 61.1116L47.0293 61.038Z" fill="#F5D850" stroke="black" stroke-miterlimit="10"/>
<path d="M48.6257 66.023C46.7854 68.1426 44.4577 69.0584 41.5042 68.4294C37.1331 67.6143 35.5828 63.2504 38.6064 63.8127C43.5979 65.9811 45.9622 64.8172 48.3554 63.6898L48.6254 66.0227L48.6257 66.023Z" fill="#F5D850" stroke="black" stroke-miterlimit="10"/>
<path d="M51.5477 70.1732C50.1491 72.9019 47.7415 72.7793 44.2329 72.4108C41.2389 72.1445 40.1263 71.0339 40.8581 69.3812C40.9741 69.1189 41.2277 68.946 41.5145 68.9365C46.9192 68.7599 50.1214 66.1186 50.0496 66.0231C49.976 65.925 53.021 68.9209 53.021 68.9209L51.5477 70.1732Z" fill="#F5D850" stroke="black" stroke-miterlimit="10"/>
<g filter="url(#filter0_d_725_312)">
<path d="M47.0537 23.7607C50.4813 31.0265 51.1472 39.181 49.4044 48.1107C46.2516 55.8373 47.3394 62.8131 52.2775 69.1068C51.3282 70.9067 50.2086 72.2464 48.6309 72.3482C44.8839 69.6368 44.3631 62.5586 43.7969 55.5421C43.7098 54.4607 43.8665 53.3752 44.2424 52.3575C47.6181 43.2128 48.0111 33.1063 47.0537 23.7607Z" fill="url(#paint12_linear_725_312)" fill-opacity="0.8" shape-rendering="crispEdges"/>
</g>
<path d="M54.4217 32.6014C55.2322 37.832 59.5785 42.7678 57.7613 48.2441C50.3943 61.5294 50.3934 65.4328 52.1685 67.2938L50.5172 68.6996C45.2741 65.1621 46.9202 56.1619 49.9277 46.0829C50.7878 38.6296 49.9897 31.1878 47.0547 23.7607L54.4217 32.6011V32.6014Z" fill="black" stroke="black" stroke-miterlimit="10"/>
<path d="M49.7806 26.2548C55.5479 31.8808 61.3032 37.3472 62.0338 45.1569C62.0341 45.1603 62.0338 45.1641 62.0338 45.1675C61.3517 49.9161 56.2474 54.301 52.0961 62.3958C52.0803 62.4266 52.0324 62.4177 52.0298 62.3831C51.6327 57.3287 54.9772 53.275 56.9373 49.3569C58.1624 46.908 58.386 44.0867 57.6038 41.4627C56.561 37.9641 54.8269 34.3383 53.8023 32.9397C53.7893 32.9221 53.778 32.9054 53.7668 32.8866L49.7281 26.2969C49.707 26.2626 49.7523 26.2265 49.7812 26.2548H49.7806Z" fill="#EF8C22" stroke="black" stroke-miterlimit="10"/>
<path d="M159.536 120.511L166.115 120.633C166.251 120.636 166.317 120.804 166.216 120.896C164.957 122.034 163.407 122.888 162.29 123.163C161.13 122.942 158.871 121.274 159.536 120.511V120.511Z" fill="url(#paint13_radial_725_312)" stroke="#020303" stroke-miterlimit="10"/>
<path d="M160.086 118.384C161.487 118.449 163.127 118.7 164.243 118.871C164.325 118.883 164.336 118.996 164.259 119.025C163.111 119.461 161.714 120.084 161.109 120.538L159.537 120.511C159.081 119.83 159.354 118.903 160.108 118.429L160.086 118.384Z" fill="#0A0C0C" stroke="#020303" stroke-miterlimit="10"/>
<path d="M120.893 141.992C127.295 140.22 136.196 132.521 144.59 122.445H146.137C152.59 127.868 157.749 128.553 161.092 122.592C159.4 120.863 159.137 119.571 160.208 118.688C157.335 115.933 153.994 113.673 150.115 111.984C142.242 109.711 136.375 113.2 131.739 120.227C130.863 121.556 130.248 123.043 129.916 124.599C128.559 130.966 124.766 136.968 120.893 141.992Z" fill="#E41D29"/>
<path d="M120.893 141.992C127.295 140.22 136.196 132.521 144.59 122.445H146.137C152.59 127.868 157.749 128.553 161.092 122.592C159.4 120.863 159.137 119.571 160.208 118.688C157.335 115.933 153.994 113.673 150.115 111.984C142.242 109.711 136.375 113.2 131.739 120.227C130.863 121.556 130.248 123.043 129.916 124.599C128.559 130.966 124.766 136.968 120.893 141.992Z" fill="url(#paint14_linear_725_312)" fill-opacity="0.2"/>
<path d="M120.893 141.992C127.295 140.22 136.196 132.521 144.59 122.445H146.137C152.59 127.868 157.749 128.553 161.092 122.592C159.4 120.863 159.137 119.571 160.208 118.688C157.335 115.933 153.994 113.673 150.115 111.984C142.242 109.711 136.375 113.2 131.739 120.227C130.863 121.556 130.248 123.043 129.916 124.599C128.559 130.966 124.766 136.968 120.893 141.992Z" stroke="black" stroke-width="2" stroke-miterlimit="10"/>
<path d="M157.667 121.939L154.801 122.273C154.861 123.81 155.888 125.005 158.024 125.367C158.69 124.827 159.186 124.323 159.632 123.781L157.667 121.939Z" fill="#E9E2CF"/>
<path d="M140.68 112.812C138.795 114.788 136.296 118.608 136.634 119.641C136.651 119.693 136.633 119.751 136.595 119.782L130.197 124.824C130.112 124.891 130.011 124.783 130.05 124.671C133.143 115.759 140.75 112.74 140.68 112.812H140.68Z" fill="url(#paint15_linear_725_312)" fill-opacity="0.8"/>
<path d="M159.508 123.073C159.565 123.658 158.989 124.193 158.221 124.268C157.453 124.343 156.784 123.93 156.727 123.345C156.669 122.76 157.246 122.224 158.014 122.149C158.782 122.074 159.451 122.488 159.508 123.073Z" fill="black" stroke="black" stroke-width="2" stroke-miterlimit="10"/>
<path d="M158.105 125.276C156.118 124.822 155.674 124.079 154.984 122.254L154.695 122.258C154.124 123.716 155.065 125.604 156.693 125.773C157.203 125.835 157.696 125.763 158.131 125.563L158.105 125.276H158.105Z" fill="#1D1D1C"/>
<path d="M163.017 123.031C163.537 131.514 154.869 134.802 146.383 128.461C139.489 138.711 131.969 142.581 126.812 149.211C120.379 156.629 116.441 167.056 113.698 178.925C115.428 167.873 118.492 157.089 123.41 146.676C123.665 146.135 123.381 145.481 122.801 145.334C116.992 143.86 104.03 149.42 91.9902 154.074L121.409 141.844C128.504 139.896 136.422 131.681 144.59 122.445H146.138C152.374 127.285 157.213 129.001 161.044 122.715C161.785 122.993 162.168 123.391 162.9 122.971C162.95 122.943 163.013 122.974 163.016 123.031L163.017 123.031Z" fill="black" stroke="black" stroke-miterlimit="10"/>
<path d="M158.151 131.744L166.875 139.95C167.283 140.333 167.635 140.773 167.914 141.258C171.661 147.76 170.535 150.838 169.797 155.201C169.252 152.454 168.631 149.304 167.534 146.744C166.907 145.283 165.896 144.025 164.648 143.041C160.292 139.609 156.89 135.654 154.707 132.057L158.151 131.744Z" fill="#EF8C22" stroke="black" stroke-miterlimit="10"/>
<path d="M170.327 155.029C171.002 168.758 175.333 177.258 183.841 184.475C183.865 184.494 183.843 184.531 183.815 184.519C176.608 181.503 168.282 177.928 167.764 157.105L167.958 148.835C167.963 148.607 168.282 148.558 168.355 148.775L170.047 153.79L170.327 155.029Z" fill="#F5D850" stroke="black" stroke-miterlimit="10"/>
<path d="M164.081 143.697L162.608 150.99C162.222 161.783 164.556 167.563 168.207 167.603C167.123 161.394 166.748 154.754 167.433 147.435L164.081 143.697Z" fill="#F5D850" stroke="black" stroke-miterlimit="10"/>
<path d="M160.968 141.726L159.421 147.362C158.695 157.997 160.711 161.217 162.663 161.617C161.781 156.424 162.514 149.933 164.136 143.494L160.968 141.726L160.968 141.726Z" fill="#F5D850" stroke="black" stroke-miterlimit="10"/>
<path d="M156.996 137.412L155.95 141.777C155.943 141.804 155.938 141.833 155.936 141.861C155.221 149.974 156.277 152.961 157.953 154.148C158.337 154.42 158.862 154.103 158.825 153.634C158.471 149.074 159.348 144.598 160.567 140.146C160.621 139.95 160.565 139.741 160.421 139.598L157.939 137.143C157.627 136.834 157.098 136.985 156.996 137.412V137.412Z" fill="#F5D850" stroke="black" stroke-miterlimit="10"/>
<path d="M153.729 133.42L152.367 136.661C150.792 146.896 152.737 148.617 155.203 149.075C154.826 144.813 155.307 139.943 156.198 134.783L153.729 133.42Z" fill="#F5D850" stroke="black" stroke-miterlimit="10"/>
<path d="M149.495 131.173L148.537 137.729C148.012 141.677 149.326 144.08 151.631 145.649L153.399 132.683L149.495 131.173Z" fill="#F5D850" stroke="black" stroke-miterlimit="10"/>
<path d="M147.91 130.179L146.068 134.304L148.278 137.803L149.383 130.842L147.91 130.179Z" fill="#F5D850" stroke="black" stroke-miterlimit="10"/>
<path d="M146.496 128.499L143.873 132.178L145.345 136.045L147.809 129.441L146.496 128.499Z" fill="#F5D850" stroke="black" stroke-miterlimit="10"/>
<path d="M170.074 158.578C167.08 152.346 158.712 142.218 150.232 132.008L146.745 129.257L144.879 131.615C154.504 146.597 163.738 159.664 171.597 165.994L170.074 158.578Z" fill="url(#paint16_linear_725_312)" fill-opacity="0.8"/>
<path d="M170.924 156.889C170.239 153.784 170.043 147.383 165.671 143.617C156.536 135.808 154.986 134.682 155.554 132.174L150.004 130.308C150.888 137.527 156.585 140.818 160.144 147.629C164.71 153.583 169.582 153.719 170.877 161.599L170.923 156.889H170.924Z" fill="black" stroke="black" stroke-miterlimit="10"/>
<path d="M130.206 190.183C129.532 179.379 137.081 169.143 144.751 160.385L147.17 152.723C136.229 158.675 124.553 183.987 129.133 190.55C129.475 191.041 130.244 190.779 130.206 190.183Z" fill="#F5D850" stroke="black" stroke-miterlimit="10"/>
<path d="M131.725 171.018C130.416 173.829 129.787 173.42 129.662 170.625C128.877 164.387 140.038 155.613 148.768 147.492C148.538 149.774 148.912 148.468 147.171 152.723C143.871 151.933 138.781 157.848 131.725 171.018Z" fill="#F5D850" stroke="black" stroke-miterlimit="10"/>
<path d="M132.327 160.2C135.499 151.003 142.089 147.601 148.374 143.907L148.718 147.369C142.57 152.264 136.253 157.199 133.517 161.268C131.946 162.239 131.872 161.33 132.326 160.2H132.327Z" fill="#F5D850" stroke="black" stroke-miterlimit="10"/>
<path d="M147.955 143.465C142.703 147.436 137.229 151.505 135.284 154.024C135.21 150.659 136.874 146.957 141.889 142.606L146.261 139.806L147.955 143.465Z" fill="#F5D850" stroke="black" stroke-miterlimit="10"/>
<path d="M144.347 136.712C141.683 137.314 138.684 139.657 135.089 145.11C134.156 147.406 134.871 148.238 135.924 148.769C138.41 145.105 141.966 142.172 145.918 139.511L144.347 136.712Z" fill="#F5D850" stroke="black" stroke-miterlimit="10"/>
<path d="M135.186 144.643C133.059 145.481 132.708 144.441 133.296 142.409C135.054 139.488 138.878 136.07 142.873 132.611L144.346 136.245C140.4 138.824 136.643 141.449 135.186 144.643Z" fill="#F5D850" stroke="black" stroke-miterlimit="10"/>
<path d="M142.7 131.874C138.282 132.932 134.109 134.223 131.527 137.031C130.54 139.754 130.544 141.564 132.608 141.476C136.653 136.213 139.932 134.21 142.995 133.127L142.701 131.874H142.7Z" fill="#F5D850" stroke="black" stroke-miterlimit="10"/>
<path d="M137.814 133.176C135.567 133.597 133.503 134.85 131.601 136.835C129.9 137.202 128.902 136.722 129.956 133.765C131.568 130.496 135.37 129.586 138.477 130.622L142.185 130.72L142.627 132.12L137.814 133.176Z" fill="#F5D850" stroke="black" stroke-miterlimit="10"/>
<path d="M138.207 130.769C134.996 129.912 132.357 130.206 130.643 132.365C123.477 130.66 130.733 125.926 137.347 127.528L139.607 128.731L139.509 130.696L138.207 130.769Z" fill="#F5D850" stroke="black" stroke-miterlimit="10"/>
<path d="M139.803 125.784C137.963 123.665 135.635 122.749 132.682 123.378C128.311 124.193 126.761 128.557 129.784 127.995C134.776 125.826 137.14 126.99 139.533 128.117L139.803 125.785L139.803 125.784Z" fill="#F5D850" stroke="black" stroke-miterlimit="10"/>
<path d="M142.725 121.634C141.327 118.905 138.919 119.028 135.411 119.396C132.417 119.663 131.304 120.773 132.036 122.426C132.152 122.688 132.405 122.861 132.692 122.871C138.097 123.047 141.299 125.689 141.227 125.784C141.154 125.882 144.199 122.886 144.199 122.886L142.725 121.634Z" fill="#F5D850" stroke="black" stroke-miterlimit="10"/>
<g filter="url(#filter1_d_725_312)">
<path d="M138.231 168.046C141.659 160.781 142.325 152.626 140.582 143.696C137.429 135.97 138.517 128.994 143.455 122.7C142.506 120.9 141.386 119.561 139.809 119.459C136.062 122.17 135.541 129.249 134.975 136.265C134.888 137.346 135.044 138.432 135.42 139.45C138.796 148.594 139.189 158.701 138.231 168.046Z" fill="url(#paint17_linear_725_312)" fill-opacity="0.8" shape-rendering="crispEdges"/>
</g>
<path d="M145.599 159.206C146.41 153.975 150.756 149.039 148.939 143.563C141.572 130.278 141.571 126.374 143.346 124.513L141.695 123.108C136.452 126.645 138.098 135.645 141.105 145.724C141.966 153.178 141.167 160.619 138.232 168.047L145.599 159.206V159.206Z" fill="black" stroke="black" stroke-miterlimit="10"/>
<path d="M140.956 165.552C146.724 159.926 152.479 154.46 153.21 146.65C153.21 146.647 153.21 146.643 153.21 146.64C152.527 141.891 147.423 137.506 143.272 129.411C143.256 129.381 143.208 129.39 143.206 129.424C142.809 134.479 146.153 138.532 148.113 142.45C149.338 144.899 149.562 147.721 148.78 150.345C147.737 153.843 146.003 157.469 144.978 158.868C144.965 158.885 144.954 158.902 144.943 158.921L140.904 165.51C140.883 165.545 140.928 165.581 140.957 165.552H140.956Z" fill="#EF8C22" stroke="black" stroke-miterlimit="10"/>
<defs>
<filter id="filter0_d_725_312" x="39.7734" y="23.7607" width="16.5039" height="56.5875" filterUnits="userSpaceOnUse" color-interpolation-filters="sRGB">
<feFlood flood-opacity="0" result="BackgroundImageFix"/>
<feColorMatrix in="SourceAlpha" type="matrix" values="0 0 0 0 0 0 0 0 0 0 0 0 0 0 0 0 0 0 127 0" result="hardAlpha"/>
<feOffset dy="4"/>
<feGaussianBlur stdDeviation="2"/>
<feComposite in2="hardAlpha" operator="out"/>
<feColorMatrix type="matrix" values="0 0 0 0 0 0 0 0 0 0 0 0 0 0 0 0 0 0 0.25 0"/>
<feBlend mode="normal" in2="BackgroundImageFix" result="effect1_dropShadow_725_312"/>
<feBlend mode="normal" in="SourceGraphic" in2="effect1_dropShadow_725_312" result="shape"/>
</filter>
<filter id="filter1_d_725_312" x="130.951" y="119.459" width="16.5039" height="56.5875" filterUnits="userSpaceOnUse" color-interpolation-filters="sRGB">
<feFlood flood-opacity="0" result="BackgroundImageFix"/>
<feColorMatrix in="SourceAlpha" type="matrix" values="0 0 0 0 0 0 0 0 0 0 0 0 0 0 0 0 0 0 127 0" result="hardAlpha"/>
<feOffset dy="4"/>
<feGaussianBlur stdDeviation="2"/>
<feComposite in2="hardAlpha" operator="out"/>
<feColorMatrix type="matrix" values="0 0 0 0 0 0 0 0 0 0 0 0 0 0 0 0 0 0 0.25 0"/>
<feBlend mode="normal" in2="BackgroundImageFix" result="effect1_dropShadow_725_312"/>
<feBlend mode="normal" in="SourceGraphic" in2="effect1_dropShadow_725_312" result="shape"/>
</filter>
<linearGradient id="paint0_linear_725_312" x1="126.466" y1="83.6857" x2="155.745" y2="17.9208" gradientUnits="userSpaceOnUse">
<stop offset="0.166281" stop-color="#020101"/>
<stop offset="0.318454" stop-color="#DDBF79"/>
<stop offset="0.344407" stop-opacity="0.889716"/>
<stop offset="0.500054" stop-color="#FFC94A"/>
<stop offset="0.572823"/>
<stop offset="0.739583"/>
<stop offset="1" stop-color="#FFC131"/>
</linearGradient>
<linearGradient id="paint1_linear_725_312" x1="160.862" y1="15.2637" x2="157.447" y2="1.38882" gradientUnits="userSpaceOnUse">
<stop/>
<stop offset="0.399274"/>
<stop offset="1" stop-opacity="0"/>
</linearGradient>
<linearGradient id="paint2_linear_725_312" x1="157.902" y1="14.4137" x2="152.075" y2="26.9996" gradientUnits="userSpaceOnUse">
<stop stop-color="#919191"/>
<stop offset="0.307292"/>
<stop offset="0.978298"/>
</linearGradient>
<linearGradient id="paint3_linear_725_312" x1="155.223" y1="6.05584" x2="161.194" y2="21.0516" gradientUnits="userSpaceOnUse">
<stop offset="0.390144" stop-color="#E42129"/>
<stop offset="1"/>
</linearGradient>
<linearGradient id="paint4_linear_725_312" x1="57.8491" y1="173.465" x2="28.6938" y2="107.564" gradientUnits="userSpaceOnUse">
<stop offset="0.166281" stop-color="#020101"/>
<stop offset="0.318454" stop-color="#DDBF79"/>
<stop offset="0.344407" stop-opacity="0.889716"/>
<stop offset="0.500054" stop-color="#FFC94A"/>
<stop offset="0.572823"/>
<stop offset="0.739583"/>
<stop offset="1" stop-color="#FFC131"/>
</linearGradient>
<linearGradient id="paint5_linear_725_312" x1="23.2363" y1="105.043" x2="26.632" y2="91.1584" gradientUnits="userSpaceOnUse">
<stop/>
<stop offset="0.399274"/>
<stop offset="1" stop-opacity="0"/>
</linearGradient>
<linearGradient id="paint6_linear_725_312" x1="26.2163" y1="104.193" x2="32.0193" y2="116.807" gradientUnits="userSpaceOnUse">
<stop stop-color="#919191"/>
<stop offset="0.307292"/>
<stop offset="0.978298"/>
</linearGradient>
<linearGradient id="paint7_linear_725_312" x1="28.9118" y1="95.8354" x2="22.968" y2="110.857" gradientUnits="userSpaceOnUse">
<stop offset="0.390144" stop-color="#E42129"/>
<stop offset="1"/>
</linearGradient>
<radialGradient id="paint8_radial_725_312" cx="0" cy="0" r="1" gradientUnits="userSpaceOnUse" gradientTransform="translate(71.6645 69.9699) scale(2.59658)">
<stop offset="0.075" stop-color="#393533" stop-opacity="0.9"/>
<stop offset="0.11" stop-color="#33302E" stop-opacity="0.9"/>
<stop offset="0.241" stop-color="#22211F" stop-opacity="0.9"/>
<stop offset="0.349" stop-color="#1D1D1B" stop-opacity="0.9"/>
<stop offset="0.913" stop-color="#1D1D1B"/>
</radialGradient>
<linearGradient id="paint9_linear_725_312" x1="52.6279" y1="66.0552" x2="55.4282" y2="74.3796" gradientUnits="userSpaceOnUse">
<stop stop-opacity="0.37"/>
<stop offset="1" stop-opacity="0"/>
</linearGradient>
<linearGradient id="paint10_linear_725_312" x1="36.7365" y1="72.0765" x2="51.0692" y2="81.0345" gradientUnits="userSpaceOnUse">
<stop/>
<stop offset="1" stop-opacity="0"/>
</linearGradient>
<linearGradient id="paint11_linear_725_312" x1="71.9398" y1="63.9015" x2="62.8508" y2="28.5552" gradientUnits="userSpaceOnUse">
<stop/>
<stop offset="1" stop-opacity="0"/>
</linearGradient>
<linearGradient id="paint12_linear_725_312" x1="56.6462" y1="56.8325" x2="39.478" y2="60.5836" gradientUnits="userSpaceOnUse">
<stop/>
<stop offset="1" stop-opacity="0"/>
</linearGradient>
<radialGradient id="paint13_radial_725_312" cx="0" cy="0" r="1" gradientUnits="userSpaceOnUse" gradientTransform="translate(162.84 121.837) scale(2.59658)">
<stop offset="0.075" stop-color="#393533" stop-opacity="0.9"/>
<stop offset="0.11" stop-color="#33302E" stop-opacity="0.9"/>
<stop offset="0.241" stop-color="#22211F" stop-opacity="0.9"/>
<stop offset="0.349" stop-color="#1D1D1B" stop-opacity="0.9"/>
<stop offset="0.913" stop-color="#1D1D1B"/>
</radialGradient>
<linearGradient id="paint14_linear_725_312" x1="143.804" y1="125.752" x2="146.604" y2="117.428" gradientUnits="userSpaceOnUse">
<stop stop-opacity="0.37"/>
<stop offset="1" stop-opacity="0"/>
</linearGradient>
<linearGradient id="paint15_linear_725_312" x1="127.912" y1="119.731" x2="142.245" y2="110.773" gradientUnits="userSpaceOnUse">
<stop/>
<stop offset="1" stop-opacity="0"/>
</linearGradient>
<linearGradient id="paint16_linear_725_312" x1="163.116" y1="127.906" x2="154.027" y2="163.252" gradientUnits="userSpaceOnUse">
<stop/>
<stop offset="1" stop-opacity="0"/>
</linearGradient>
<linearGradient id="paint17_linear_725_312" x1="147.824" y1="134.975" x2="130.656" y2="131.224" gradientUnits="userSpaceOnUse">
<stop/>
<stop offset="1" stop-opacity="0"/>
</linearGradient>
<clipPath id="clip0_725_312">
<rect width="69.196" height="99.4145" fill="white" transform="translate(110.82 1.80603)"/>
</clipPath>
<clipPath id="clip1_725_312">
<rect width="69.6339" height="99.4145" fill="white" transform="matrix(-1 0 0 1 73.5957 91.5856)"/>
</clipPath>
</defs>
</svg>
