<svg width="367" height="165" viewBox="0 0 367 165" fill="none" xmlns="http://www.w3.org/2000/svg">
<g clip-path="url(#clip0_723_82)">
<path d="M78.6971 34.654C79.8861 31.009 78.2042 28.154 73.7612 26.058C41.7132 30.078 27.1232 61.207 30.4422 77.207C33.4382 85.805 37.4831 86.087 42.0161 82.484C47.3101 58.726 55.3851 38.102 78.6971 34.654Z" fill="url(#paint0_linear_723_82)" stroke="#1D1D1B" stroke-miterlimit="10"/>
<path d="M39.6164 73.369C44.0894 56.075 55.5204 42.602 77.1654 34.739C108.444 33.318 143.446 29.665 154.527 40.356L206.101 84.782L257.224 130.899C258.685 132.217 259.316 134.304 258.615 136.142C257.928 137.943 256.509 139.418 254.077 140.443C250.144 142.101 245.636 141.665 241.913 139.578L236.078 136.307C235.388 135.92 234.543 135.963 233.881 136.397C230.306 138.739 226.648 140.482 222.833 141.085C221.635 141.274 220.41 141.229 219.216 141.019C215.349 140.338 211.581 139.522 208.015 138.429C207.604 138.303 207.166 138.342 206.783 138.537C200.536 141.73 193.893 144.047 185.421 142.315L175.932 137.083C175.413 136.797 174.765 136.832 174.308 137.209C173.408 137.953 172.347 138.596 171.116 139.134C165.308 141.673 158.517 140.303 153.826 136.04C146.833 129.685 139.234 121.293 131.549 112.613C114.538 112.143 98.6894 112.547 83.5494 111.336C67.4034 110.045 53.3054 98.328 40.6594 79.362C39.4854 77.602 39.0874 75.419 39.6174 73.371L39.6164 73.369Z" fill="#FDD6AC" stroke="#1D1D1B" stroke-miterlimit="10"/>
<path d="M130.5 112C124.5 103.2 115 101.333 111 101.5C101 110.5 57.8997 98.4998 63.4997 104.5C70.4998 112 115.5 113 130.5 112Z" fill="url(#paint1_linear_723_82)"/>
<path d="M243.5 140.5C254.7 144.5 258.333 137.333 259 133L239 115L202.5 85C211.333 102 232.3 136.5 243.5 140.5Z" fill="url(#paint2_linear_723_82)" fill-opacity="0.6"/>
<path d="M153.166 107.846L175.379 136.952" stroke="#1D1D1B" stroke-miterlimit="10"/>
<path d="M140.145 103.59C143.866 102.916 147.081 102.966 148.826 105.122" stroke="#1D1D1B" stroke-miterlimit="10"/>
<path d="M169.848 105.973C173.726 104.872 178.624 107.384 180.146 110.143" stroke="#1D1D1B" stroke-miterlimit="10"/>
<path d="M195.355 104.361C199.233 103.26 204.131 105.772 205.653 108.531" stroke="#1D1D1B" stroke-miterlimit="10"/>
<path d="M214.357 115.761L235.548 135.931" stroke="#1D1D1B" stroke-miterlimit="10"/>
<path d="M182.783 113.973C191.541 123.958 199.866 132.917 206.784 138.535" stroke="#1D1D1B" stroke-miterlimit="10"/>
<path d="M243.698 140.059C238.784 135.144 237.245 130.368 242.932 125.889" stroke="#1D1D1B" stroke-miterlimit="10"/>
<path d="M246.314 125.441C248.445 124.628 250.301 124.447 251.42 125.952" stroke="#1D1D1B" stroke-miterlimit="10"/>
<path d="M132.783 114.059C130.372 110.912 127.621 108.429 124.443 106.782" stroke="#1D1D1B" stroke-miterlimit="10"/>
<path d="M113.592 101.165C115.583 100.948 118.154 101.594 121.72 103.718" stroke="#1D1D1B" stroke-miterlimit="10"/>
<path d="M69.7619 26.314C66.3299 22.958 64.1479 19.322 62.7409 15.591C56.4669 17.069 49.3218 21.696 41.2938 29.506C25.9748 31.972 12.9359 37.514 16.0169 58.485C12.9609 65.137 13.1189 72.018 15.2509 79.038C20.6729 75.883 25.9349 75.262 30.9529 78.527C28.8729 54.401 40.6659 36.484 69.7619 26.314Z" fill="url(#paint3_linear_723_82)" stroke="#1D1D1B" stroke-miterlimit="10"/>
<path d="M14.6136 79.803C14.1216 83.031 10.2816 83.294 5.80457 82.995C0.0345721 76.305 0.0415719 68.234 4.40057 59.122C-5.85143 34.648 4.98657 22.99 26.6136 17.888C39.6056 7.32702 51.3726 2.05202 62.2726 0.515023C63.5046 0.341023 64.3606 1.72102 63.6836 2.76502C61.1896 6.61602 60.9756 10.91 62.7416 15.59C54.9396 17.488 47.9916 22.969 41.2946 29.505C24.2696 31.875 13.6716 39.692 16.0176 58.484C12.6086 64.369 12.8346 71.764 14.6136 79.803Z" fill="black" stroke="#1D1D1B" stroke-miterlimit="10"/>
<path d="M14.3574 72.016C20.4764 70.021 26.0524 69.575 30.5274 72.271" stroke="#1D1D1B" stroke-miterlimit="10"/>
<path d="M13.9648 64.545C20.6408 63.119 26.6068 63.187 31.1308 66.285" stroke="#1D1D1B" stroke-width="1.033" stroke-miterlimit="10"/>
<path d="M19.7211 40.843C23.7101 44.57 28.3641 47.903 33.6771 49.463C28.2081 48.201 23.3371 45.132 19.0371 41.572L19.7211 40.843Z" fill="#1D1D1B"/>
<path d="M37.6935 31.757C39.1515 33.869 40.8965 36.221 43.2915 37.222L42.8725 38.13C40.4435 36.687 38.7405 34.429 36.8965 32.361L37.6935 31.757Z" fill="#1D1D1B"/>
<path d="M48.4004 24.016C49.6544 27.54 51.2934 30.568 53.7624 32.527" stroke="#1D1D1B" stroke-miterlimit="10"/>
<path d="M58.1747 18.53C58.5227 20.468 58.6917 26.323 60.8197 26.844L61.0007 27.827C57.5077 28.484 57.3957 20.881 57.1777 18.609L58.1747 18.53Z" fill="#1D1D1B"/>
<path d="M239.72 49.803L336.231 84.271C335.069 99.723 327.885 114.122 315.38 127.59C319.763 121.621 311.55 114.271 293.806 104.824C254.423 98.256 237.191 85.351 229.678 72.696L239.721 49.802L239.72 49.803Z" fill="black" stroke="#1D1D1B" stroke-width="0.843" stroke-miterlimit="10"/>
<path d="M232.4 73.931C253.016 81.608 245.965 109.33 233.932 113.122L202.512 84.329L232.4 73.931Z" fill="url(#paint4_linear_723_82)" stroke="#1D1D1B" stroke-width="1.109" stroke-miterlimit="10"/>
<path d="M218.189 71.08C238.805 78.757 236.481 99.37 224.448 103.163L201.895 83.158L218.189 71.08Z" fill="#030303" stroke="#1D1D1B" stroke-width="1.109" stroke-miterlimit="10"/>
<path d="M214.274 73.633C232.867 80.557 232.616 97.617 221.763 101.037L201.252 82.484L214.274 73.633Z" fill="#030303" stroke="#1D1D1B" stroke-miterlimit="10"/>
<path d="M142.399 53.378C139.859 54.761 137.706 56.229 136.264 57.854C134.712 59.602 134.511 62.188 135.674 64.215C141.688 74.699 148.882 80.231 157.59 79.42L152.994 79.675C160.496 88.662 169.603 86.904 177.632 81.718L172.781 84.527C181.591 87.113 209.972 78.417 233.93 72.272C240.736 67.914 241.71 61.786 239.802 54.783L142.398 53.379L142.399 53.378Z" fill="url(#paint5_linear_723_82)" stroke="#1D1D1B" stroke-miterlimit="10"/>
<path d="M172.209 60.463C190.863 55.471 204.387 54.865 220.401 58.931C208.351 69.773 197.375 75.917 174.89 66.08L172.209 60.463Z" fill="white"/>
<path d="M221.041 58.676L224.488 59.442C220.253 63.96 213.611 66.703 205.977 68.889C212.417 65.159 218.423 61.787 221.041 58.676Z" fill="white"/>
<path d="M171.125 59.91L167.252 60.891C170.907 64.79 176.282 67.002 182.869 68.889C177.311 65.67 173.385 62.594 171.125 59.91Z" fill="white"/>
<path d="M195.19 67.207C201.453 67.207 206.53 63.2349 206.53 58.335C206.53 53.4351 201.453 49.463 195.19 49.463C188.927 49.463 183.85 53.4351 183.85 58.335C183.85 63.2349 188.927 67.207 195.19 67.207Z" fill="white"/>
<path d="M193.763 63.377C195.643 63.377 197.167 61.853 197.167 59.973C197.167 58.0931 195.643 56.569 193.763 56.569C191.883 56.569 190.359 58.0931 190.359 59.973C190.359 61.853 191.883 63.377 193.763 63.377Z" fill="white"/>
<path d="M197.43 59.973C197.114 64.448 190.518 64.5 190.147 59.973C190.046 54.84 197.528 54.801 197.43 59.973ZM196.902 59.973C196.613 56.201 190.903 56.077 190.568 59.973C190.449 64.464 197.004 64.464 196.902 59.973Z" fill="white"/>
<path d="M172.209 60.463C190.863 55.471 204.387 54.865 220.401 58.931C208.351 69.773 197.375 75.917 174.89 66.08L172.209 60.463Z" fill="white" stroke="#1D1D1B" stroke-miterlimit="10"/>
<path d="M221.041 58.676L224.488 59.442C220.253 63.96 213.611 66.703 205.977 68.889C212.417 65.159 218.423 61.787 221.041 58.676Z" fill="white" stroke="#1D1D1B" stroke-miterlimit="10"/>
<path d="M171.125 59.91L167.252 60.891C170.907 64.79 176.282 67.002 182.869 68.889C177.311 65.67 173.385 62.594 171.125 59.91Z" fill="white" stroke="#1D1D1B" stroke-miterlimit="10"/>
<path d="M195.19 67.207C201.453 67.207 206.53 63.2349 206.53 58.335C206.53 53.4351 201.453 49.463 195.19 49.463C188.927 49.463 183.85 53.4351 183.85 58.335C183.85 63.2349 188.927 67.207 195.19 67.207Z" fill="url(#paint6_linear_723_82)" stroke="#1D1D1B" stroke-miterlimit="10"/>
<path d="M197.43 59.973C197.114 64.448 190.518 64.5 190.147 59.973C190.046 54.84 197.528 54.801 197.43 59.973ZM196.902 59.973C196.613 56.201 190.903 56.077 190.568 59.973C190.449 64.464 197.004 64.464 196.902 59.973Z" fill="#1D1D1B"/>
<path d="M172.209 60.463C190.863 55.471 204.387 54.865 220.401 58.931C208.351 69.773 197.375 75.917 174.89 66.08L172.209 60.463Z" stroke="#1D1D1B" stroke-miterlimit="10"/>
<path d="M221.041 58.676L224.488 59.442C220.253 63.96 213.611 66.703 205.977 68.889C212.417 65.159 218.423 61.787 221.041 58.676Z" fill="url(#paint7_linear_723_82)" stroke="black" stroke-miterlimit="10"/>
<path d="M171.125 59.91L167.252 60.891C170.907 64.79 176.282 67.002 182.869 68.889C177.311 65.67 173.385 62.594 171.125 59.91Z" fill="url(#paint8_linear_723_82)" stroke="black" stroke-miterlimit="10"/>
<path d="M195.19 67.207C201.453 67.207 206.53 63.2349 206.53 58.335C206.53 53.4351 201.453 49.463 195.19 49.463C188.927 49.463 183.85 53.4351 183.85 58.335C183.85 63.2349 188.927 67.207 195.19 67.207Z" stroke="#1D1D1B" stroke-miterlimit="10"/>
<path d="M193.763 63.377C195.643 63.377 197.167 61.853 197.167 59.973C197.167 58.0931 195.643 56.569 193.763 56.569C191.883 56.569 190.359 58.0931 190.359 59.973C190.359 61.853 191.883 63.377 193.763 63.377Z" fill="black" stroke="#1D1D1B" stroke-miterlimit="10"/>
<path d="M197.43 59.973C197.114 64.448 190.518 64.5 190.147 59.973C190.046 54.84 197.528 54.801 197.43 59.973ZM196.902 59.973C196.613 56.201 190.903 56.077 190.568 59.973C190.449 64.464 197.004 64.464 196.902 59.973Z" fill="black" stroke="#1D1D1B" stroke-miterlimit="10"/>
<path d="M280.273 51.59C266.399 58.351 252.841 60.437 239.805 54.782C248.358 45.335 249.465 47.34 254.231 39.271C263.405 43.009 277.234 48.847 280.273 51.59Z" fill="url(#paint9_linear_723_82)" stroke="#1D1D1B" stroke-miterlimit="10"/>
<path d="M255.635 58.229C269.12 67.632 285.054 70.585 295.975 61.293C290.651 58.239 286.128 55.474 278.39 52.772C272.919 55.854 263.548 56.866 255.635 58.229Z" fill="url(#paint10_linear_723_82)" stroke="#1D1D1B" stroke-miterlimit="10"/>
<path d="M277.592 67.293C299.624 82.106 308.405 78.631 317.581 74.474C312.499 70.242 303.495 66.951 293.932 62.825C290.282 66.587 285.096 68.406 277.592 67.293Z" fill="url(#paint11_linear_723_82)" stroke="#1D1D1B" stroke-miterlimit="10"/>
<path d="M301.209 78.782C305.847 79.203 310.071 77.63 315.124 75.846C321.931 76.956 328.994 79.271 335.167 81.718C328.565 88.682 318.999 90.656 301.209 78.782Z" fill="url(#paint12_linear_723_82)" stroke="#1D1D1B" stroke-miterlimit="10"/>
<path d="M246.698 45.463C242.818 54.564 235.001 58.981 223.592 59.123C204.486 54.653 184.322 56.387 163.464 62.187C151.27 65.385 145.452 60.778 143.166 51.847C168.548 20.433 208.359 16.878 261.379 38.826C256.215 45.772 250.913 51.999 244.017 49.932L246.698 45.463Z" fill="url(#paint13_linear_723_82)" stroke="#1D1D1B" stroke-miterlimit="10"/>
<path d="M177.294 85.122C176.6 88.855 177.304 91.828 180.22 94.563C180.861 94.225 182.148 94.277 183.332 94.451C181.464 91.174 181.267 88.11 182.273 84.696L177.294 85.122Z" fill="url(#paint14_linear_723_82)" stroke="#1D1D1B" stroke-width="0.935" stroke-miterlimit="10"/>
<path d="M177.549 96.867C179.554 94.603 181.736 93.461 184.358 95.122C188.102 97.747 190.764 98.172 191.592 94.867" stroke="#1D1D1B" stroke-width="0.935" stroke-miterlimit="10"/>
<path d="M158.91 96.8669C159.75 99.9329 162.344 100.159 166.399 98.0159C169.291 96.9039 171.5 97.2029 172.782 99.4199" stroke="#1D1D1B" stroke-width="0.935" stroke-miterlimit="10"/>
<path d="M159.548 85.165C158.608 90.375 159.897 95.066 163.548 99.208C164.52 99.314 165.35 98.793 166.101 97.931C163.595 94.412 163.248 90.412 164.484 86.059L159.548 85.165Z" fill="url(#paint15_linear_723_82)" stroke="#1D1D1B" stroke-width="0.935" stroke-miterlimit="10"/>
<path d="M156.589 95.5529C155.583 97.4199 154.739 100.449 154.414 101.701C154.319 102.068 153.993 102.328 153.614 102.327C152.743 102.325 151.287 102.026 151.04 100.102C151.019 99.9379 151.034 99.7619 151.089 99.6059C151.671 97.9679 153.72 96.6169 156.432 95.3949C156.535 95.3479 156.643 95.4529 156.589 95.5529Z" fill="#E41D29" stroke="black" stroke-miterlimit="10"/>
<path d="M154.306 93.768C152.284 94.407 149.569 95.993 148.463 96.665C148.139 96.862 147.724 96.822 147.453 96.557C146.83 95.949 145.993 94.721 147.156 93.168C147.255 93.035 147.388 92.919 147.537 92.846C149.096 92.076 151.507 92.533 154.303 93.545C154.41 93.584 154.414 93.734 154.306 93.768Z" fill="#E41D29" stroke="black" stroke-miterlimit="10"/>
<path d="M138.357 82.4839C140.614 79.9799 142.984 80.7209 145.421 83.3349C147.676 85.1649 149.62 84.81 151.251 82.271" stroke="black" stroke-width="0.935" stroke-miterlimit="10"/>
<path d="M146.826 77.165C146.169 79.108 146.005 81.146 146.374 83.285C146.42 83.552 146.093 83.724 145.896 83.537C144.92 82.611 143.763 81.805 142.485 81.08C142.072 78.992 141.859 75.953 141.719 72.569L146.825 77.165H146.826Z" fill="url(#paint16_linear_723_82)" stroke="#1D1D1B" stroke-width="0.935" stroke-miterlimit="10"/>
<path d="M136.363 77.016C135.357 78.883 134.513 81.912 134.188 83.164C134.093 83.531 133.767 83.791 133.388 83.79C132.517 83.788 131.061 83.489 130.814 81.565C130.793 81.401 130.808 81.225 130.863 81.069C131.445 79.431 133.494 78.08 136.206 76.858C136.309 76.811 136.417 76.916 136.363 77.016Z" fill="#E41D29" stroke="black" stroke-miterlimit="10"/>
<path d="M134.317 75.406C132.198 75.499 129.164 76.326 127.922 76.689C127.558 76.795 127.168 76.649 126.974 76.323C126.53 75.574 126.041 74.171 127.567 72.973C127.697 72.871 127.856 72.793 128.018 72.761C129.723 72.421 131.933 73.488 134.371 75.191C134.464 75.256 134.429 75.401 134.315 75.406H134.317Z" fill="#E41D29" stroke="black" stroke-miterlimit="10"/>
<path d="M130.705 49.849C136.816 44.279 142.585 39.715 147.404 37.95C148.443 37.57 149.187 36.66 149.335 35.563C150.108 29.834 147.754 28.221 141.678 31.505C136.129 35.41 132.93 42.138 130.364 49.628C130.294 49.831 130.545 49.993 130.704 49.848L130.705 49.849Z" fill="#E41D29" stroke="#1D1D1B" stroke-width="0.935" stroke-miterlimit="10"/>
<path d="M129.443 61.101C126.156 49.288 124.067 35.905 114.842 31.866C113.962 31.481 113.255 30.724 113.005 29.797C112.508 27.96 114.208 27.178 117.791 27.303C118.237 27.318 118.69 27.377 119.121 27.493C129.496 30.28 129.911 45.156 129.444 61.102L129.443 61.101Z" fill="#E41D29" stroke="#1D1D1B" stroke-width="0.935" stroke-miterlimit="10"/>
<path d="M240.491 55.029L242.996 55.931C246.541 64.95 241.771 69.233 234.462 72.07C234.383 72.101 234.327 71.992 234.396 71.942C241.021 67.122 241.997 61.536 240.04 55.476C239.949 55.195 240.213 54.929 240.491 55.029Z" stroke="#1D1D1B" stroke-width="1.109" stroke-miterlimit="10"/>
<path d="M240.4 69.207C251.546 70.647 255.726 66.002 256.911 58.739L242.996 55.93C245.886 60.84 244.409 65.186 240.4 69.207Z" fill="url(#paint17_linear_723_82)" stroke="#1D1D1B" stroke-width="1.109" stroke-miterlimit="10"/>
<path d="M240.443 79.91C242.02 81.056 250.667 77.828 247.528 70.101L238.954 70.399C225.933 70.314 240.443 79.91 240.443 79.91Z" fill="url(#paint18_linear_723_82)" stroke="#1D1D1B" stroke-width="1.109" stroke-miterlimit="10"/>
<path d="M249.337 69.207C251.012 73.361 249.896 76.82 246.018 79.59L251.039 81.888C258.466 76.371 261.49 70.238 256.571 62.994L249.337 69.207Z" fill="url(#paint19_linear_723_82)" stroke="#1D1D1B" stroke-width="0.843" stroke-miterlimit="10"/>
<path d="M261.08 62.399C262.666 67.809 262.957 71.625 259.91 75.973C268.716 76.483 273.422 74.249 274.357 66.569L261.08 62.399Z" fill="url(#paint20_linear_723_82)" stroke="#1D1D1B" stroke-width="0.843" stroke-miterlimit="10"/>
<path d="M253.08 83.186C254.699 82.577 256.344 79.916 258.782 78.314C261.558 78.448 263.996 79.013 266.356 79.676C268.957 85.185 266.419 90.12 260.313 94.655L251.121 93.889L253.078 83.187L253.08 83.186Z" fill="url(#paint21_linear_723_82)" stroke="#1D1D1B" stroke-width="0.843" stroke-miterlimit="10"/>
<path d="M269.979 79.338C271.085 82.062 270.639 84.126 269.506 87.413C269.303 88.001 269.81 88.599 270.42 88.478C281.487 86.284 287.323 82.662 287.124 73.974L277.847 68.357C276.744 72.743 274.389 76.066 270.476 78.066C270.007 78.306 269.78 78.851 269.978 79.339L269.979 79.338Z" fill="url(#paint22_linear_723_82)" stroke="#1D1D1B" stroke-width="0.843" stroke-miterlimit="10"/>
<path d="M263.891 94.973C269.558 98.205 276.288 100.757 283.146 100.739C286.115 96.789 285.583 91.79 282.189 87.739C277.826 89.585 268.232 90.548 268.232 90.548L263.892 94.974L263.891 94.973Z" fill="url(#paint23_linear_723_82)" stroke="#1D1D1B" stroke-width="0.843" stroke-miterlimit="10"/>
<path d="M285.211 87.921C286.772 89.294 287.637 90.478 287.739 92.696C296.703 91.428 301.757 87.824 303.888 80.526L289.505 74.654C290.596 79.42 289.241 83.391 285.232 86.499C284.777 86.852 284.778 87.541 285.21 87.921H285.211Z" fill="url(#paint24_linear_723_82)" stroke="#1D1D1B" stroke-width="0.843" stroke-miterlimit="10"/>
<path d="M287.463 95.335C287.067 97.718 286.034 100.595 285.123 102.08C289.685 103.317 295.177 103.32 299.421 105.016C302.882 100.148 302.584 96.356 298.783 92.356C295.324 94.046 291.534 95.002 287.464 95.335H287.463Z" fill="url(#paint25_linear_723_82)" stroke="#1D1D1B" stroke-width="0.843" stroke-miterlimit="10"/>
<path d="M301.29 91.179C303.511 92.858 304.663 95.312 304.826 98.484C313.398 98.453 318.393 94.375 320.996 87.59C314.953 86.358 309.524 84.724 305.932 81.888C305.369 85.861 304.064 88.961 301.359 90.412C301.069 90.568 301.027 90.981 301.29 91.179Z" fill="url(#paint26_linear_723_82)" stroke="#1D1D1B" stroke-width="0.843" stroke-miterlimit="10"/>
<path d="M301.848 106.484C306.78 108.346 309.496 109.681 313.21 114.016C317.185 107.184 317.706 105.579 313.274 99.505C310.423 101.138 307.328 101.777 303.997 101.462C303.822 103.764 303.794 104.726 301.848 106.484Z" fill="url(#paint27_linear_723_82)" stroke="#1D1D1B" stroke-width="0.843" stroke-miterlimit="10"/>
<path d="M316.06 98.229C318.129 100.087 318.931 102.704 318.783 105.889C331.682 99.94 336.006 92.546 333.591 84.017L324.144 87.591C323.457 91.622 320.658 95.143 316.059 98.229H316.06Z" fill="url(#paint28_linear_723_82)" stroke="#1D1D1B" stroke-width="0.843" stroke-miterlimit="10"/>
<path d="M318.932 108.378C321.833 108.091 324.653 106.306 327.443 103.952C329.974 108.876 329.628 115.014 316.805 126.42C316.465 119.122 316.273 120.846 314.592 118.08L318.932 108.378Z" fill="url(#paint29_linear_723_82)" stroke="#1D1D1B" stroke-width="0.843" stroke-miterlimit="10"/>
<path d="M241.081 116.782C258.874 115.68 277.532 122.358 297.336 139.335L319.208 125.292C313.161 114.175 302.933 105.745 284.399 102.654L243.803 90.654L241.081 116.782Z" fill="black" stroke="#1D1D1B" stroke-width="0.843" stroke-miterlimit="10"/>
<path d="M239.209 114.654C242.304 118.335 243.039 116.952 251.294 117.122C255.026 113.297 256.837 103.398 257.422 94.569L245.848 91.42L235.805 112.611L239.209 114.654Z" fill="url(#paint30_linear_723_82)" stroke="#1D1D1B" stroke-width="0.843" stroke-miterlimit="10"/>
<path d="M252.984 117.239C256.991 118.473 260.133 119.457 262.558 118.643C268.955 116.497 270.513 107.398 270.888 99.015C267.271 94.781 262.692 93.398 257.165 94.824C260.513 103.853 260.225 111.862 252.984 117.239Z" fill="url(#paint31_linear_723_82)" stroke="#1D1D1B" stroke-width="0.843" stroke-miterlimit="10"/>
<path d="M264.06 119.25C267.84 121.361 271.018 123.617 274.017 123.463C281.576 123.075 286.964 114.686 290.357 103.846C285.439 100.266 279.601 99.004 272.995 99.676C272.357 108.399 272.74 112.804 264.059 119.25H264.06Z" fill="url(#paint32_linear_723_82)" stroke="#1D1D1B" stroke-width="0.843" stroke-miterlimit="10"/>
<path d="M276.027 124.516C288.187 121.739 290.038 115.484 292.335 104.122C297.765 103.917 301.739 105.057 303.186 108.526C299.86 121.597 292.782 128.186 284.995 129.654C282.31 130.16 279.338 126.82 276.027 124.516Z" fill="url(#paint33_linear_723_82)" stroke="#1D1D1B" stroke-width="0.843" stroke-miterlimit="10"/>
<path d="M286.656 130.995C296.199 129.111 304.613 119.165 305.805 109.038C311.059 110.1 317.111 115.36 316.273 120.783C312.125 130.878 304.213 135.723 294.954 137.889C290.746 136.556 286.983 134.868 286.656 130.995Z" fill="url(#paint34_linear_723_82)" stroke="#1D1D1B" stroke-width="0.843" stroke-miterlimit="10"/>
<path d="M186.657 84.3789C193.369 86.4709 199.693 86.486 205.57 84.107C206.992 83.532 208.151 82.3959 208.661 80.9499C209.477 78.6349 207.922 77.803 204.476 78.153C203.602 78.242 202.772 78.55 202.008 78.984C198.755 80.833 192.818 82.4759 186.662 84.1029C186.526 84.1389 186.523 84.3379 186.657 84.3789Z" fill="url(#paint35_linear_723_82)" stroke="#1D1D1B" stroke-miterlimit="10"/>
<path d="M239.303 96.387C233.592 99.649 229.722 104.045 227.977 109.75C227.555 111.13 227.725 112.706 228.533 114.041C229.825 116.176 235.999 112.604 237.83 109.965C238.294 109.296 241.666 102.396 239.513 96.577C239.568 96.458 239.417 96.322 239.303 96.387Z" fill="url(#paint36_linear_723_82)" stroke="#1D1D1B" stroke-width="1.199" stroke-miterlimit="10"/>
<path d="M243.94 89.9272C239.978 95.1772 238.157 100.743 238.803 106.674C238.959 108.109 239.738 109.49 241.006 110.397C243.036 111.849 247.3 106.132 247.942 102.985C248.105 102.187 248.482 94.5172 244.208 90.0182C244.212 89.8872 244.019 89.8212 243.94 89.9272Z" fill="url(#paint37_linear_723_82)" stroke="#1D1D1B" stroke-width="1.199" stroke-miterlimit="10"/>
<path d="M244.347 86.0168C244.473 92.5928 246.478 98.0958 250.649 102.361C251.658 103.393 253.123 103.998 254.681 103.929C257.174 103.818 256.997 96.6878 255.558 93.8158C255.193 93.0878 250.753 86.8218 244.613 85.9228C244.535 85.8178 244.343 85.8848 244.346 86.0168H244.347Z" fill="url(#paint38_linear_723_82)" stroke="#1D1D1B" stroke-width="1.199" stroke-miterlimit="10"/>
<path d="M240.579 80.22C243.323 85.238 247.015 88.822 251.797 90.752C252.954 91.219 254.274 91.21 255.39 90.652C257.176 89.759 254.17 84.331 251.956 82.588C251.395 82.146 245.607 78.764 240.737 80.061C240.637 80.005 240.524 80.119 240.578 80.219L240.579 80.22Z" fill="url(#paint39_linear_723_82)" stroke="#1D1D1B" stroke-miterlimit="10"/>
<path d="M221.302 77.0808C227.273 80.7928 233.39 82.3978 239.676 81.5728C241.197 81.3738 242.604 80.5658 243.461 79.2938C244.833 77.2588 238.335 73.2658 234.911 72.7388C234.043 72.6048 225.805 72.4838 221.376 76.8158C221.235 76.8158 221.183 77.0068 221.302 77.0808Z" fill="url(#paint40_linear_723_82)" stroke="#1D1D1B" stroke-miterlimit="10"/>
<path d="M208.871 79.584C215.019 80.621 220.472 79.672 225.122 76.434C226.247 75.651 227.048 74.356 227.236 72.854C227.536 70.45 226.051 69.868 223.142 70.738C222.405 70.959 221.742 71.389 221.16 71.933C218.679 74.249 213.849 76.772 208.826 79.312C208.715 79.368 208.747 79.563 208.87 79.584H208.871Z" fill="url(#paint41_linear_723_82)" stroke="#1D1D1B" stroke-width="0.935" stroke-miterlimit="10"/>
<path d="M206.5 108.142C201.3 102.542 195.333 103.809 193 105.142C202 116.976 220.5 140.743 222.5 141.143C224.5 141.543 232 137.309 235.5 135.143C228 128.476 211.7 113.742 206.5 108.142Z" fill="url(#paint42_linear_723_82)" fill-opacity="0.6"/>
<path d="M179.5 109.142C174.3 103.542 168.333 104.809 166 106.142C175 117.976 193.5 141.743 195.5 142.143C197.5 142.543 202.5 140.667 206 138.5C198.5 131.833 184.7 114.742 179.5 109.142Z" fill="url(#paint43_linear_723_82)" fill-opacity="0.6"/>
<path d="M152.5 107.142C147.3 101.542 141.333 102.809 139 104.142C148 115.976 166.5 139.743 168.5 140.143C170.5 140.543 171.5 138.167 175 136C167.5 129.333 157.7 112.742 152.5 107.142Z" fill="url(#paint44_linear_723_82)" fill-opacity="0.6"/>
<path d="M344.23 84.612C348.431 87.377 354.365 87.301 361.166 85.803L352.57 130.484L313.676 159.08C310.948 152.359 307.221 147.031 302.016 143.761L305.651 140.481L328.995 119.42L344.229 84.611L344.23 84.612Z" fill="url(#paint45_linear_723_82)" stroke="#1D1D1C" stroke-miterlimit="10"/>
<path d="M318.699 153.122C315.459 147.41 311.69 142.912 307.039 140.441" stroke="#1D1D1C" stroke-miterlimit="10"/>
<path d="M334.726 140.454C331.486 134.742 327.717 130.244 323.066 127.773" stroke="#1D1D1C" stroke-miterlimit="10"/>
<path d="M326.471 146.496C323.231 140.784 319.462 136.286 314.811 133.815" stroke="#1D1D1C" stroke-miterlimit="10"/>
<path d="M345.167 133.037C341.927 127.325 335.633 122.159 330.982 119.688" stroke="#1D1D1C" stroke-miterlimit="10"/>
<path d="M336.486 109.973C341.182 115.336 346.73 118.124 353.167 118.228" stroke="#1D1D1C" stroke-miterlimit="10"/>
<path d="M337.533 102.752C343.833 106.087 350.011 106.711 356.061 104.513" stroke="#1D1D1C" stroke-miterlimit="10"/>
<path d="M340.359 93.534C346.659 96.869 352.837 97.493 358.887 95.295" stroke="#1D1D1C" stroke-miterlimit="10"/>
<path d="M355.209 86.824C349.501 91.555 349.531 97.558 351.659 104.026C353.407 109.338 353.597 115.096 351.651 120.339C348.525 128.761 341.752 134.164 332.23 137.292C323.559 138.289 317.052 145.734 310.698 153.632C309.684 156.322 310.701 159.953 312.093 162.9C312.856 164.514 315.053 164.761 316.184 163.379C323.548 154.377 331.01 145.898 341.847 142.398C353.902 139.884 360.824 128.339 360.97 119.428C361.022 116.239 361.669 113.08 362.682 110.055C368.307 93.268 367.218 84.675 361.336 84.014L355.208 86.823L355.209 86.824Z" fill="black" stroke="#1D1D1B" stroke-miterlimit="10"/>
<path d="M336.485 84.186C337.888 106.522 321.79 124.141 296.06 139.165C294.253 144.051 297.071 146.31 302.358 147.165C326.315 127.756 346.977 107.731 343.805 83.25C341.132 81.456 338.593 80.878 336.486 84.186H336.485Z" fill="url(#paint46_linear_723_82)" stroke="#1D1D1B" stroke-miterlimit="10"/>
<path d="M72.6592 14.258C93.8812 28.652 120.365 48.639 108.144 89.547C105.524 103.946 113.064 108.542 120.055 113.669C121.829 114.97 124.111 115.361 126.219 114.729L132.123 113.441L139.208 121.292C130.336 127.682 113.102 128.76 102.017 122.909C100.143 121.653 88.2962 112.366 86.1692 101.52C82.3712 82.157 69.7942 76.47 58.7832 81.717C66.2142 71.077 84.1472 73.4 92.8262 99.419C96.9292 111.72 104.766 112.962 109.366 116.565C110.223 117.236 110.888 115.095 110.141 114.303C93.0972 96.237 98.6882 84.855 103.379 73.207C111.158 52.914 90.1502 30.752 72.5182 14.432C72.4152 14.336 72.5422 14.179 72.6592 14.258Z" fill="url(#paint47_linear_723_82)" stroke="#1D1D1B" stroke-miterlimit="10"/>
</g>
<defs>
<linearGradient id="paint0_linear_723_82" x1="41.5" y1="45.4999" x2="66" y2="62.4999" gradientUnits="userSpaceOnUse">
<stop stop-color="#FDD104"/>
<stop offset="1" stop-color="#A96113"/>
</linearGradient>
<linearGradient id="paint1_linear_723_82" x1="131" y1="107.5" x2="66.5" y2="110.5" gradientUnits="userSpaceOnUse">
<stop stop-color="#EF8C22"/>
<stop offset="1" stop-color="#EF8C22" stop-opacity="0"/>
</linearGradient>
<linearGradient id="paint2_linear_723_82" x1="231" y1="87" x2="230.75" y2="142.12" gradientUnits="userSpaceOnUse">
<stop stop-color="#EF8C22"/>
<stop offset="1" stop-color="#EF8C22" stop-opacity="0"/>
</linearGradient>
<linearGradient id="paint3_linear_723_82" x1="16" y1="32.0002" x2="39.5" y2="53.5002" gradientUnits="userSpaceOnUse">
<stop/>
<stop offset="1" stop-color="#E5262B"/>
</linearGradient>
<linearGradient id="paint4_linear_723_82" x1="250" y1="91.4999" x2="219.5" y2="95.4999" gradientUnits="userSpaceOnUse">
<stop stop-color="#E41D29"/>
<stop offset="1"/>
</linearGradient>
<linearGradient id="paint5_linear_723_82" x1="239.499" y1="56" x2="95.499" y2="106.5" gradientUnits="userSpaceOnUse">
<stop stop-color="#16D03F"/>
<stop offset="1" stop-color="#09571A"/>
</linearGradient>
<linearGradient id="paint6_linear_723_82" x1="207.002" y1="57.5001" x2="175.002" y2="61.5001" gradientUnits="userSpaceOnUse">
<stop stop-color="#FF0000"/>
<stop offset="1"/>
</linearGradient>
<linearGradient id="paint7_linear_723_82" x1="215.232" y1="58.676" x2="215.232" y2="68.889" gradientUnits="userSpaceOnUse">
<stop stop-color="#E41D29"/>
<stop offset="1"/>
</linearGradient>
<linearGradient id="paint8_linear_723_82" x1="175.06" y1="59.91" x2="175.06" y2="68.889" gradientUnits="userSpaceOnUse">
<stop stop-color="#E41D29"/>
<stop offset="1"/>
</linearGradient>
<linearGradient id="paint9_linear_723_82" x1="260.039" y1="39.271" x2="260.039" y2="58.0488" gradientUnits="userSpaceOnUse">
<stop stop-color="#09571A"/>
<stop offset="1" stop-color="#16D03F"/>
</linearGradient>
<linearGradient id="paint10_linear_723_82" x1="275.805" y1="52.772" x2="275.805" y2="66.9502" gradientUnits="userSpaceOnUse">
<stop stop-color="#09571A"/>
<stop offset="1" stop-color="#16D03F"/>
</linearGradient>
<linearGradient id="paint11_linear_723_82" x1="297.586" y1="62.825" x2="297.586" y2="78.0673" gradientUnits="userSpaceOnUse">
<stop stop-color="#09571A"/>
<stop offset="1" stop-color="#16D03F"/>
</linearGradient>
<linearGradient id="paint12_linear_723_82" x1="318.188" y1="75.846" x2="318.188" y2="87.3189" gradientUnits="userSpaceOnUse">
<stop stop-color="#09571A"/>
<stop offset="1" stop-color="#16D03F"/>
</linearGradient>
<linearGradient id="paint13_linear_723_82" x1="202.273" y1="24.8419" x2="202.273" y2="63.202" gradientUnits="userSpaceOnUse">
<stop stop-color="#09571A"/>
<stop offset="1" stop-color="#16D03F"/>
</linearGradient>
<linearGradient id="paint14_linear_723_82" x1="180.189" y1="84.696" x2="180.189" y2="94.563" gradientUnits="userSpaceOnUse">
<stop stop-color="#EF8C22"/>
<stop offset="1" stop-color="#EF8C22" stop-opacity="0"/>
</linearGradient>
<linearGradient id="paint15_linear_723_82" x1="162.676" y1="85.165" x2="162.676" y2="99.2216" gradientUnits="userSpaceOnUse">
<stop stop-color="#EF8C22"/>
<stop offset="1" stop-color="#EF8C22" stop-opacity="0"/>
</linearGradient>
<linearGradient id="paint16_linear_723_82" x1="144.272" y1="72.569" x2="144.272" y2="83.6155" gradientUnits="userSpaceOnUse">
<stop stop-color="#EF8C22"/>
<stop offset="1" stop-color="#EF8C22" stop-opacity="0"/>
</linearGradient>
<linearGradient id="paint17_linear_723_82" x1="248.656" y1="55.93" x2="248.656" y2="69.4686" gradientUnits="userSpaceOnUse">
<stop stop-color="#16D03F"/>
<stop offset="1" stop-color="#09571A"/>
</linearGradient>
<linearGradient id="paint18_linear_723_82" x1="240.869" y1="70.101" x2="240.869" y2="80.1349" gradientUnits="userSpaceOnUse">
<stop stop-color="#16D03F"/>
<stop offset="1" stop-color="#09571A"/>
</linearGradient>
<linearGradient id="paint19_linear_723_82" x1="252.495" y1="62.994" x2="252.495" y2="81.888" gradientUnits="userSpaceOnUse">
<stop stop-color="#16D03F"/>
<stop offset="1" stop-color="#09571A"/>
</linearGradient>
<linearGradient id="paint20_linear_723_82" x1="267.134" y1="62.399" x2="267.134" y2="76.042" gradientUnits="userSpaceOnUse">
<stop stop-color="#16D03F"/>
<stop offset="1" stop-color="#09571A"/>
</linearGradient>
<linearGradient id="paint21_linear_723_82" x1="259.246" y1="78.314" x2="259.246" y2="94.655" gradientUnits="userSpaceOnUse">
<stop stop-color="#16D03F"/>
<stop offset="1" stop-color="#09571A"/>
</linearGradient>
<linearGradient id="paint22_linear_723_82" x1="278.295" y1="68.357" x2="278.295" y2="88.4937" gradientUnits="userSpaceOnUse">
<stop stop-color="#16D03F"/>
<stop offset="1" stop-color="#09571A"/>
</linearGradient>
<linearGradient id="paint23_linear_723_82" x1="274.488" y1="87.739" x2="274.488" y2="100.739" gradientUnits="userSpaceOnUse">
<stop stop-color="#16D03F"/>
<stop offset="1" stop-color="#09571A"/>
</linearGradient>
<linearGradient id="paint24_linear_723_82" x1="294.389" y1="74.654" x2="294.389" y2="92.696" gradientUnits="userSpaceOnUse">
<stop stop-color="#16D03F"/>
<stop offset="1" stop-color="#09571A"/>
</linearGradient>
<linearGradient id="paint25_linear_723_82" x1="293.48" y1="92.356" x2="293.48" y2="105.016" gradientUnits="userSpaceOnUse">
<stop stop-color="#16D03F"/>
<stop offset="1" stop-color="#09571A"/>
</linearGradient>
<linearGradient id="paint26_linear_723_82" x1="311.056" y1="81.888" x2="311.056" y2="98.484" gradientUnits="userSpaceOnUse">
<stop stop-color="#16D03F"/>
<stop offset="1" stop-color="#09571A"/>
</linearGradient>
<linearGradient id="paint27_linear_723_82" x1="309.123" y1="99.505" x2="309.123" y2="114.016" gradientUnits="userSpaceOnUse">
<stop stop-color="#16D03F"/>
<stop offset="1" stop-color="#09571A"/>
</linearGradient>
<linearGradient id="paint28_linear_723_82" x1="325.144" y1="84.017" x2="325.144" y2="105.889" gradientUnits="userSpaceOnUse">
<stop stop-color="#16D03F"/>
<stop offset="1" stop-color="#09571A"/>
</linearGradient>
<linearGradient id="paint29_linear_723_82" x1="321.638" y1="103.952" x2="321.638" y2="126.42" gradientUnits="userSpaceOnUse">
<stop stop-color="#16D03F"/>
<stop offset="1" stop-color="#09571A"/>
</linearGradient>
<linearGradient id="paint30_linear_723_82" x1="246.613" y1="91.42" x2="246.613" y2="117.24" gradientUnits="userSpaceOnUse">
<stop offset="0.739583" stop-color="#EF8C22"/>
<stop offset="1"/>
</linearGradient>
<linearGradient id="paint31_linear_723_82" x1="261.936" y1="94.2817" x2="261.936" y2="118.941" gradientUnits="userSpaceOnUse">
<stop offset="0.739583" stop-color="#EF8C22"/>
<stop offset="1"/>
</linearGradient>
<linearGradient id="paint32_linear_723_82" x1="277.208" y1="99.5028" x2="277.208" y2="123.47" gradientUnits="userSpaceOnUse">
<stop offset="0.739583" stop-color="#EF8C22"/>
<stop offset="1"/>
</linearGradient>
<linearGradient id="paint33_linear_723_82" x1="289.607" y1="104.099" x2="289.607" y2="129.705" gradientUnits="userSpaceOnUse">
<stop offset="0.739583" stop-color="#EF8C22"/>
<stop offset="1"/>
</linearGradient>
<linearGradient id="paint34_linear_723_82" x1="301.504" y1="109.038" x2="301.504" y2="137.889" gradientUnits="userSpaceOnUse">
<stop offset="0.739583" stop-color="#EF8C22"/>
<stop offset="1"/>
</linearGradient>
<linearGradient id="paint35_linear_723_82" x1="197.717" y1="78.0762" x2="197.717" y2="85.921" gradientUnits="userSpaceOnUse">
<stop stop-color="#FFF5C6"/>
<stop offset="1" stop-color="#FFD200"/>
</linearGradient>
<linearGradient id="paint36_linear_723_82" x1="233.99" y1="96.3701" x2="233.99" y2="114.693" gradientUnits="userSpaceOnUse">
<stop stop-color="#FFF5C6"/>
<stop offset="1" stop-color="#FFD200"/>
</linearGradient>
<linearGradient id="paint37_linear_723_82" x1="243.353" y1="89.8745" x2="243.353" y2="110.629" gradientUnits="userSpaceOnUse">
<stop stop-color="#FFF5C6"/>
<stop offset="1" stop-color="#FFD200"/>
</linearGradient>
<linearGradient id="paint38_linear_723_82" x1="250.476" y1="85.8711" x2="250.476" y2="103.934" gradientUnits="userSpaceOnUse">
<stop stop-color="#FFF5C6"/>
<stop offset="1" stop-color="#FFD200"/>
</linearGradient>
<linearGradient id="paint39_linear_723_82" x1="248.249" y1="79.7666" x2="248.249" y2="91.0875" gradientUnits="userSpaceOnUse">
<stop stop-color="#FFF5C6"/>
<stop offset="1" stop-color="#FFD200"/>
</linearGradient>
<linearGradient id="paint40_linear_723_82" x1="232.443" y1="72.6934" x2="232.443" y2="81.7844" gradientUnits="userSpaceOnUse">
<stop stop-color="#FFF5C6"/>
<stop offset="1" stop-color="#FFD200"/>
</linearGradient>
<linearGradient id="paint41_linear_723_82" x1="218.016" y1="70.3564" x2="218.016" y2="79.9849" gradientUnits="userSpaceOnUse">
<stop stop-color="#FFF5C6"/>
<stop offset="1" stop-color="#FFD200"/>
</linearGradient>
<linearGradient id="paint42_linear_723_82" x1="237" y1="120.643" x2="214.25" y2="141.169" gradientUnits="userSpaceOnUse">
<stop stop-color="#EF8C22"/>
<stop offset="1" stop-color="#EF8C22" stop-opacity="0"/>
</linearGradient>
<linearGradient id="paint43_linear_723_82" x1="210" y1="121.643" x2="187.25" y2="142.169" gradientUnits="userSpaceOnUse">
<stop stop-color="#EF8C22"/>
<stop offset="1" stop-color="#EF8C22" stop-opacity="0"/>
</linearGradient>
<linearGradient id="paint44_linear_723_82" x1="183" y1="119.643" x2="160.25" y2="140.169" gradientUnits="userSpaceOnUse">
<stop stop-color="#EF8C22"/>
<stop offset="1" stop-color="#EF8C22" stop-opacity="0"/>
</linearGradient>
<linearGradient id="paint45_linear_723_82" x1="324.499" y1="116" x2="353.499" y2="140" gradientUnits="userSpaceOnUse">
<stop stop-color="#E5282B"/>
<stop offset="1"/>
</linearGradient>
<linearGradient id="paint46_linear_723_82" x1="341" y1="122.5" x2="283" y2="104" gradientUnits="userSpaceOnUse">
<stop stop-color="#F5D850"/>
<stop offset="1" stop-color="#A96113"/>
</linearGradient>
<linearGradient id="paint47_linear_723_82" x1="73.999" y1="14.0002" x2="138.999" y2="123" gradientUnits="userSpaceOnUse">
<stop stop-color="#F5D850"/>
<stop offset="1" stop-color="#E41D29"/>
</linearGradient>
<clipPath id="clip0_723_82">
<rect width="366.872" height="164.78" fill="white"/>
</clipPath>
</defs>
</svg>
