<?xml version="1.0" encoding="UTF-8"?>
<svg id="Calque_2" data-name="Calque 2" xmlns="http://www.w3.org/2000/svg" viewBox="0 0 221.915 374.489">
  <g id="carpeKoi">
    <g id="corps">
      <path d="m58.541,125.82c2.564,39.887,20.194,74.819,55.83,103.83,18.003,7.674,31.626,14.558,34.723,26.213l52.766-58.213c-9.31-51.451-11.671-108.731-45.958-139.234-30.812,5.412-63.921,34.682-97.362,67.404Z" fill="#fff" stroke="#000" stroke-miterlimit="10"/>
      <g id="ecaileGrpVentre">
        <g id="ecaille">
          <path d="m94.416,119.852c15.856,5.936,23.251-1.13,26.301-14.873.059-.264-.176-.506-.442-.456-6.039,1.127-11.577,1.226-15.701-1.569-.222-.15-.516-.038-.573.224-1.348,6.2-4.152,11.733-9.68,16.017-.234.181-.181.553.097.657Z" fill="#fff" stroke="#000" stroke-miterlimit="10"/>
          <path d="m96.36,118.171c11.189,2.508,20.722-5.225,21.223-12.479-3.59,1.011-7.926.293-12.989-2.043-.638,4.851-5.087,11.568-8.234,14.521Z" fill="#fff" stroke="#000" stroke-miterlimit="10"/>
        </g>
        <g id="ecaille-2" data-name="ecaille">
          <path d="m105.253,102.903c15.856,5.936,23.251-1.13,26.301-14.873.059-.264-.176-.506-.442-.456-6.039,1.127-11.577,1.226-15.701-1.569-.222-.15-.516-.038-.573.224-1.348,6.2-4.152,11.733-9.68,16.017-.234.181-.181.553.097.657Z" fill="#fff" stroke="#000" stroke-miterlimit="10"/>
          <path d="m107.197,101.222c11.189,2.508,20.722-5.225,21.223-12.479-3.59,1.011-7.926.293-12.989-2.043-.638,4.851-5.087,11.568-8.234,14.521Z" fill="#fff" stroke="#000" stroke-miterlimit="10"/>
        </g>
        <g id="ecaille-3" data-name="ecaille">
          <path d="m101.026,138.101c15.856,5.936,23.251-1.13,26.301-14.873.059-.264-.176-.506-.442-.456-6.039,1.127-11.577,1.226-15.701-1.569-.222-.15-.516-.038-.573.224-1.348,6.2-4.152,11.733-9.68,16.017-.234.181-.181.553.097.657Z" fill="#fff" stroke="#000" stroke-miterlimit="10"/>
          <path d="m102.97,136.42c11.189,2.508,20.722-5.225,21.223-12.479-3.59,1.011-7.926.293-12.989-2.043-.638,4.851-5.087,11.568-8.234,14.521Z" fill="#fff" stroke="#000" stroke-miterlimit="10"/>
        </g>
        <g id="ecaille-4" data-name="ecaille">
          <path d="m111.863,121.152c15.856,5.936,23.251-1.13,26.301-14.873.059-.264-.176-.506-.442-.456-6.039,1.127-11.577,1.226-15.701-1.569-.222-.15-.516-.038-.573.224-1.348,6.2-4.152,11.733-9.68,16.017-.234.181-.181.553.097.657Z" fill="#fff" stroke="#000" stroke-miterlimit="10"/>
          <path d="m113.807,119.471c11.189,2.508,20.722-5.225,21.223-12.479-3.59,1.011-7.926.293-12.989-2.043-.638,4.851-5.087,11.568-8.234,14.521Z" fill="#fff" stroke="#000" stroke-miterlimit="10"/>
        </g>
        <g id="ecaille-5" data-name="ecaille">
          <path d="m123.154,104.399c15.856,5.936,23.251-1.13,26.301-14.873.059-.264-.176-.506-.442-.456-6.039,1.127-11.577,1.226-15.701-1.569-.222-.15-.516-.038-.573.224-1.348,6.2-4.152,11.733-9.68,16.017-.234.181-.181.553.097.657Z" fill="#fff" stroke="#000" stroke-miterlimit="10"/>
          <path d="m125.098,102.718c11.189,2.508,20.722-5.225,21.223-12.479-3.59,1.011-7.926.293-12.989-2.043-.638,4.851-5.087,11.568-8.234,14.521Z" fill="#fff" stroke="#000" stroke-miterlimit="10"/>
        </g>
        <g id="ecaille-6" data-name="ecaille">
          <path d="m133.99,87.45c15.856,5.936,23.251-1.13,26.301-14.873.059-.264-.176-.506-.442-.456-6.039,1.127-11.577,1.226-15.701-1.569-.222-.15-.516-.038-.573.224-1.348,6.2-4.152,11.733-9.68,16.017-.234.181-.181.553.097.657Z" fill="#fff" stroke="#000" stroke-miterlimit="10"/>
          <path d="m135.934,85.769c11.189,2.508,20.722-5.225,21.223-12.479-3.59,1.011-7.926.293-12.989-2.043-.638,4.851-5.087,11.568-8.234,14.521Z" fill="#fff" stroke="#000" stroke-miterlimit="10"/>
        </g>
        <g id="ecaille-7" data-name="ecaille">
          <path d="m84.487,136.095c15.856,5.936,23.251-1.13,26.301-14.873.059-.264-.176-.506-.442-.456-6.039,1.127-11.577,1.226-15.701-1.569-.222-.15-.516-.038-.573.224-1.348,6.2-4.152,11.733-9.68,16.017-.234.181-.181.553.097.657Z" fill="#fff" stroke="#000" stroke-miterlimit="10"/>
          <path d="m86.431,134.413c11.189,2.508,20.722-5.225,21.223-12.479-3.59,1.011-7.926.293-12.989-2.043-.638,4.851-5.087,11.568-8.234,14.521Z" fill="#fff" stroke="#000" stroke-miterlimit="10"/>
        </g>
        <g id="ecaille-8" data-name="ecaille">
          <path d="m73.239,153.353c15.856,5.936,23.251-1.13,26.301-14.873.059-.264-.176-.506-.442-.456-6.039,1.127-11.577,1.226-15.701-1.569-.222-.15-.516-.038-.573.224-1.348,6.2-4.152,11.733-9.68,16.017-.234.181-.181.553.097.657Z" fill="#fff" stroke="#000" stroke-miterlimit="10"/>
          <path d="m75.183,151.672c11.189,2.508,20.722-5.225,21.223-12.479-3.59,1.011-7.926.293-12.989-2.043-.638,4.851-5.087,11.568-8.234,14.521Z" fill="#fff" stroke="#000" stroke-miterlimit="10"/>
        </g>
        <g id="ecaille-9" data-name="ecaille">
          <path d="m79.849,171.602c15.856,5.936,23.251-1.13,26.301-14.873.059-.264-.176-.506-.442-.456-6.039,1.127-11.577,1.226-15.701-1.569-.222-.15-.516-.038-.573.224-1.348,6.2-4.152,11.733-9.68,16.017-.234.181-.181.553.097.657Z" fill="#fff" stroke="#000" stroke-miterlimit="10"/>
          <path d="m81.793,169.921c11.189,2.508,20.722-5.225,21.223-12.479-3.59,1.011-7.926.293-12.989-2.043-.638,4.851-5.087,11.568-8.234,14.521Z" fill="#fff" stroke="#000" stroke-miterlimit="10"/>
        </g>
        <g id="ecaille-10" data-name="ecaille">
          <path d="m90.685,154.653c15.856,5.936,23.251-1.13,26.301-14.873.059-.264-.176-.506-.442-.456-6.039,1.127-11.577,1.226-15.701-1.569-.222-.15-.516-.038-.573.224-1.348,6.2-4.152,11.733-9.68,16.017-.234.181-.181.553.097.657Z" fill="#fff" stroke="#000" stroke-miterlimit="10"/>
          <path d="m92.629,152.972c11.189,2.508,20.722-5.225,21.223-12.479-3.59,1.011-7.926.293-12.989-2.043-.638,4.851-5.087,11.568-8.234,14.521Z" fill="#fff" stroke="#000" stroke-miterlimit="10"/>
        </g>
        <g id="ecaille-11" data-name="ecaille">
          <path d="m89.168,154.267c-6.039,1.127-11.577,1.226-15.701-1.569-.222-.15-.516-.038-.573.224-.954,4.387-2.652,8.433-5.513,11.946.061.286.145.563.273.827.09.184.056.357-.031.493.341.624.763,1.221,1.054,1.836.271.573.471,1.176.753,1.745.279.562.622,1.083,1.018,1.569.042.052.066.107.086.162,10.967,1.489,16.534-5.32,19.077-16.777.059-.264-.176-.506-.442-.456Z" fill="#fff" stroke="#000" stroke-miterlimit="10"/>
          <path d="m73.488,153.393c-.494,3.755-3.27,8.61-5.959,11.99.038.105.075.21.125.312.091.187.056.362-.035.499.34.623.767,1.217,1.057,1.831.054.115.1.234.15.352,9.577.367,17.203-6.474,17.651-12.941-3.59,1.011-7.926.293-12.989-2.043Z" fill="#fff" stroke="#000" stroke-miterlimit="10"/>
        </g>
        <g id="ecaille-12" data-name="ecaille">
          <path d="m129.239,122.715c15.856,5.936,23.251-1.13,26.301-14.873.059-.264-.176-.506-.442-.456-6.039,1.127-11.577,1.226-15.701-1.569-.222-.15-.516-.038-.573.224-1.348,6.2-4.152,11.733-9.68,16.017-.234.181-.181.553.097.657Z" fill="#fff" stroke="#000" stroke-miterlimit="10"/>
          <path d="m131.183,121.034c11.189,2.508,20.722-5.225,21.223-12.479-3.59,1.011-7.926.293-12.989-2.043-.638,4.851-5.087,11.568-8.234,14.521Z" fill="#fff" stroke="#000" stroke-miterlimit="10"/>
        </g>
        <g id="ecaille-13" data-name="ecaille">
          <path d="m135.849,140.964c15.856,5.936,23.251-1.13,26.301-14.873.059-.264-.176-.506-.442-.456-6.039,1.127-11.577,1.226-15.701-1.569-.222-.15-.516-.038-.573.224-1.348,6.2-4.152,11.733-9.68,16.017-.234.181-.181.553.097.657Z" fill="#fff" stroke="#000" stroke-miterlimit="10"/>
          <path d="m137.793,139.283c11.189,2.508,20.722-5.225,21.223-12.479-3.59,1.011-7.926.293-12.989-2.043-.638,4.851-5.087,11.568-8.234,14.521Z" fill="#fff" stroke="#000" stroke-miterlimit="10"/>
        </g>
        <g id="ecaille-14" data-name="ecaille">
          <path d="m146.685,124.015c15.856,5.936,23.251-1.13,26.301-14.873.059-.264-.176-.506-.442-.456-6.039,1.127-11.577,1.226-15.701-1.569-.222-.15-.516-.038-.573.224-1.348,6.2-4.152,11.733-9.68,16.017-.234.181-.181.553.097.657Z" fill="#fff" stroke="#000" stroke-miterlimit="10"/>
          <path d="m148.629,122.334c11.189,2.508,20.722-5.225,21.223-12.479-3.59,1.011-7.926.293-12.989-2.043-.638,4.851-5.087,11.568-8.234,14.521Z" fill="#fff" stroke="#000" stroke-miterlimit="10"/>
        </g>
        <g id="ecaille-15" data-name="ecaille">
          <path d="m119.31,138.958c15.856,5.936,23.251-1.13,26.301-14.873.059-.264-.176-.506-.442-.456-6.039,1.127-11.577,1.226-15.701-1.569-.222-.15-.516-.038-.573.224-1.348,6.2-4.152,11.733-9.68,16.017-.234.181-.181.553.097.657Z" fill="#fff" stroke="#000" stroke-miterlimit="10"/>
          <path d="m121.254,137.276c11.189,2.508,20.722-5.225,21.223-12.479-3.59,1.011-7.926.293-12.989-2.043-.638,4.851-5.087,11.568-8.234,14.521Z" fill="#fff" stroke="#000" stroke-miterlimit="10"/>
        </g>
        <g id="ecaille-16" data-name="ecaille">
          <path d="m107.792,156.247c15.856,5.936,23.251-1.13,26.301-14.873.059-.264-.176-.506-.442-.456-6.039,1.127-11.577,1.226-15.701-1.569-.222-.15-.516-.038-.573.224-1.348,6.2-4.152,11.733-9.68,16.017-.234.181-.181.553.097.657Z" fill="#fff" stroke="#000" stroke-miterlimit="10"/>
          <path d="m109.736,154.566c11.189,2.508,20.722-5.225,21.223-12.479-3.59,1.011-7.926.293-12.989-2.043-.638,4.851-5.087,11.568-8.234,14.521Z" fill="#fff" stroke="#000" stroke-miterlimit="10"/>
        </g>
        <g id="ecaille-17" data-name="ecaille">
          <path d="m114.402,174.496c15.856,5.936,23.251-1.13,26.301-14.873.059-.264-.176-.506-.442-.456-6.039,1.127-11.577,1.226-15.701-1.569-.222-.15-.516-.038-.573.224-1.348,6.2-4.152,11.733-9.68,16.017-.234.181-.181.553.097.657Z" fill="#fff" stroke="#000" stroke-miterlimit="10"/>
          <path d="m116.346,172.815c11.189,2.508,20.722-5.225,21.223-12.479-3.59,1.011-7.926.293-12.989-2.043-.638,4.851-5.087,11.568-8.234,14.521Z" fill="#fff" stroke="#000" stroke-miterlimit="10"/>
        </g>
        <g id="ecaille-18" data-name="ecaille">
          <path d="m125.238,157.547c15.856,5.936,23.251-1.13,26.301-14.873.059-.264-.176-.506-.442-.456-6.039,1.127-11.577,1.226-15.701-1.569-.222-.15-.516-.038-.573.224-1.348,6.2-4.152,11.733-9.68,16.017-.234.181-.181.553.097.657Z" fill="#fff" stroke="#000" stroke-miterlimit="10"/>
          <path d="m127.183,155.866c11.189,2.508,20.722-5.225,21.223-12.479-3.59,1.011-7.926.293-12.989-2.043-.638,4.851-5.087,11.568-8.234,14.521Z" fill="#fff" stroke="#000" stroke-miterlimit="10"/>
        </g>
        <g id="ecaille-19" data-name="ecaille">
          <path d="m97.863,172.49c15.856,5.936,23.251-1.13,26.301-14.873.059-.264-.176-.506-.442-.456-6.039,1.127-11.577,1.226-15.701-1.569-.222-.15-.516-.038-.573.224-1.348,6.2-4.152,11.733-9.68,16.017-.234.181-.181.553.097.657Z" fill="#fff" stroke="#000" stroke-miterlimit="10"/>
          <path d="m99.807,170.808c11.189,2.508,20.722-5.225,21.223-12.479-3.59,1.011-7.926.293-12.989-2.043-.638,4.851-5.087,11.568-8.234,14.521Z" fill="#fff" stroke="#000" stroke-miterlimit="10"/>
        </g>
        <g id="ecaille-20" data-name="ecaille">
          <path d="m152.728,142.97c15.856,5.936,23.251-1.13,26.301-14.873.059-.264-.176-.506-.442-.456-6.039,1.127-11.577,1.226-15.701-1.569-.222-.15-.516-.038-.573.224-1.348,6.2-4.152,11.733-9.68,16.017-.234.181-.181.553.097.657Z" fill="#fff" stroke="#000" stroke-miterlimit="10"/>
          <path d="m154.672,141.289c11.189,2.508,20.722-5.225,21.223-12.479-3.59,1.011-7.926.293-12.989-2.043-.638,4.851-5.087,11.568-8.234,14.521Z" fill="#fff" stroke="#000" stroke-miterlimit="10"/>
        </g>
        <g id="ecaille-21" data-name="ecaille">
          <path d="m159.338,161.219c15.856,5.936,23.251-1.13,26.301-14.873.059-.264-.176-.506-.442-.456-6.039,1.127-11.577,1.226-15.701-1.569-.222-.15-.516-.038-.573.224-1.348,6.2-4.152,11.733-9.68,16.017-.234.181-.181.553.097.657Z" fill="#fff" stroke="#000" stroke-miterlimit="10"/>
          <path d="m161.282,159.538c11.189,2.508,20.722-5.225,21.223-12.479-3.59,1.011-7.926.293-12.989-2.043-.638,4.851-5.087,11.568-8.234,14.521Z" fill="#fff" stroke="#000" stroke-miterlimit="10"/>
        </g>
        <g id="ecaille-22" data-name="ecaille">
          <path d="m189.909,129.663c-3.621.115-6.898-.475-9.577-2.29-.222-.15-.516-.038-.573.224-1.348,6.2-4.151,11.733-9.68,16.017-.234.181-.181.553.096.657,11.221,4.201,17.895,2.035,22.1-4.546-.016-.094-1.832-8.05-2.366-10.061Z" fill="#fff" stroke="#000" stroke-miterlimit="10"/>
          <path d="m190.148,130.541c-2.885.038-6.148-.791-9.795-2.473-.638,4.851-5.087,11.568-8.234,14.521,8.498,1.905,16.035-2.099,19.392-7.312-.418-1.588-.914-3.156-1.363-4.737Z" fill="#fff" stroke="#000" stroke-miterlimit="10"/>
        </g>
        <g id="ecaille-23" data-name="ecaille">
          <path d="m142.799,159.213c15.856,5.936,23.251-1.13,26.301-14.873.059-.264-.176-.506-.442-.456-6.039,1.127-11.577,1.226-15.701-1.569-.222-.15-.516-.038-.573.224-1.348,6.2-4.152,11.733-9.68,16.017-.234.181-.181.553.097.657Z" fill="#fff" stroke="#000" stroke-miterlimit="10"/>
          <path d="m144.743,157.532c11.189,2.508,20.722-5.225,21.223-12.479-3.59,1.011-7.926.293-12.989-2.043-.638,4.851-5.087,11.568-8.234,14.521Z" fill="#fff" stroke="#000" stroke-miterlimit="10"/>
        </g>
        <g id="ecaille-24" data-name="ecaille">
          <path d="m131.622,176.162c15.856,5.936,23.251-1.13,26.301-14.873.059-.264-.176-.506-.442-.456-6.039,1.127-11.577,1.226-15.701-1.569-.222-.15-.516-.038-.573.224-1.348,6.2-4.152,11.733-9.68,16.017-.234.181-.181.553.097.657Z" fill="#fff" stroke="#000" stroke-miterlimit="10"/>
          <path d="m133.566,174.48c11.189,2.508,20.722-5.225,21.223-12.479-3.59,1.011-7.926.293-12.989-2.043-.638,4.851-5.087,11.568-8.234,14.521Z" fill="#fff" stroke="#000" stroke-miterlimit="10"/>
        </g>
        <g id="ecaille-25" data-name="ecaille">
          <path d="m138.232,194.411c15.856,5.936,23.251-1.13,26.301-14.873.059-.264-.176-.506-.442-.456-6.039,1.127-11.577,1.226-15.701-1.569-.222-.15-.516-.038-.573.224-1.348,6.2-4.152,11.733-9.68,16.017-.234.181-.181.553.097.657Z" fill="#fff" stroke="#000" stroke-miterlimit="10"/>
          <path d="m140.176,192.729c11.189,2.508,20.722-5.225,21.223-12.479-3.59,1.011-7.926.293-12.989-2.043-.638,4.851-5.087,11.568-8.234,14.521Z" fill="#fff" stroke="#000" stroke-miterlimit="10"/>
        </g>
        <g id="ecaille-26" data-name="ecaille">
          <path d="m149.068,177.462c15.856,5.936,23.251-1.13,26.301-14.873.059-.264-.176-.506-.442-.456-6.039,1.127-11.577,1.226-15.701-1.569-.222-.15-.516-.038-.573.224-1.348,6.2-4.152,11.733-9.68,16.017-.234.181-.181.553.097.657Z" fill="#fff" stroke="#000" stroke-miterlimit="10"/>
          <path d="m151.012,175.781c11.189,2.508,20.722-5.225,21.223-12.479-3.59,1.011-7.926.293-12.989-2.043-.638,4.851-5.087,11.568-8.234,14.521Z" fill="#fff" stroke="#000" stroke-miterlimit="10"/>
        </g>
        <g id="ecaille-27" data-name="ecaille">
          <path d="m121.693,192.404c15.856,5.936,23.251-1.13,26.301-14.873.059-.264-.176-.506-.442-.456-6.039,1.127-11.577,1.226-15.701-1.569-.222-.15-.516-.038-.573.224-1.348,6.2-4.152,11.733-9.68,16.017-.234.181-.181.553.097.657Z" fill="#fff" stroke="#000" stroke-miterlimit="10"/>
          <path d="m123.637,190.723c11.189,2.508,20.722-5.225,21.223-12.479-3.59,1.011-7.926.293-12.989-2.043-.638,4.851-5.087,11.568-8.234,14.521Z" fill="#fff" stroke="#000" stroke-miterlimit="10"/>
        </g>
        <g id="ecaille-28" data-name="ecaille">
          <path d="m87.537,189.609c15.856,5.936,23.251-1.13,26.301-14.873.059-.264-.176-.506-.442-.456-6.039,1.127-11.577,1.226-15.701-1.569-.222-.15-.516-.038-.573.224-1.348,6.2-4.152,11.733-9.68,16.017-.234.181-.181.553.097.657Z" fill="#fff" stroke="#000" stroke-miterlimit="10"/>
          <path d="m89.481,187.927c11.189,2.508,20.722-5.225,21.223-12.479-3.59,1.011-7.926.293-12.989-2.043-.638,4.851-5.087,11.568-8.234,14.521Z" fill="#fff" stroke="#000" stroke-miterlimit="10"/>
        </g>
        <g id="ecaille-29" data-name="ecaille">
          <path d="m94.147,207.858c15.856,5.936,23.251-1.13,26.301-14.873.059-.264-.176-.506-.442-.456-6.039,1.127-11.577,1.226-15.701-1.569-.222-.15-.516-.038-.573.224-1.348,6.2-4.152,11.733-9.68,16.017-.234.181-.181.553.097.657Z" fill="#fff" stroke="#000" stroke-miterlimit="10"/>
          <path d="m96.091,206.176c11.189,2.508,20.722-5.225,21.223-12.479-3.59,1.011-7.926.293-12.989-2.043-.638,4.851-5.087,11.568-8.234,14.521Z" fill="#fff" stroke="#000" stroke-miterlimit="10"/>
        </g>
        <g id="ecaille-30" data-name="ecaille">
          <path d="m104.983,190.909c15.856,5.936,23.251-1.13,26.301-14.873.059-.264-.176-.506-.442-.456-6.039,1.127-11.577,1.226-15.701-1.569-.222-.15-.516-.038-.573.224-1.348,6.2-4.152,11.733-9.68,16.017-.234.181-.181.553.097.657Z" fill="#fff" stroke="#000" stroke-miterlimit="10"/>
          <path d="m106.927,189.227c11.189,2.508,20.722-5.225,21.223-12.479-3.59,1.011-7.926.293-12.989-2.043-.638,4.851-5.087,11.568-8.234,14.521Z" fill="#fff" stroke="#000" stroke-miterlimit="10"/>
        </g>
        <g id="ecaille-31" data-name="ecaille">
          <path d="m103.466,190.522c-6.039,1.127-11.577,1.226-15.701-1.569-.222-.15-.516-.038-.573.224-.611,2.811-1.526,5.483-2.854,7.965.454.808,1.271,1.423,1.809,2.177.625.875,1.11,1.846,1.781,2.689,1.416,1.776,2.853,3.532,4.205,5.356,6.28-1.843,9.873-7.815,11.775-16.386.059-.264-.176-.506-.442-.456Z" fill="#fff" stroke="#000" stroke-miterlimit="10"/>
          <path d="m87.786,189.649c-.318,2.419-1.584,5.302-3.164,7.951.465.599,1.091,1.112,1.525,1.72.625.875,1.11,1.846,1.781,2.689.485.609.973,1.215,1.46,1.822,6.455-1.97,11.043-7.166,11.387-12.138-3.59,1.011-7.926.293-12.99-2.043Z" fill="#fff" stroke="#000" stroke-miterlimit="10"/>
        </g>
        <g id="ecaille-32" data-name="ecaille">
          <path d="m111.366,209.694c15.856,5.936,23.251-1.13,26.301-14.873.059-.264-.176-.506-.442-.456-6.039,1.127-11.577,1.226-15.701-1.569-.222-.15-.516-.038-.573.224-1.348,6.2-4.152,11.733-9.68,16.017-.234.181-.181.553.097.657Z" fill="#fff" stroke="#000" stroke-miterlimit="10"/>
          <path d="m113.311,208.012c11.189,2.508,20.722-5.225,21.223-12.479-3.59,1.011-7.926.293-12.989-2.043-.638,4.851-5.087,11.568-8.234,14.521Z" fill="#fff" stroke="#000" stroke-miterlimit="10"/>
        </g>
        <g id="ecaille-33" data-name="ecaille">
          <path d="m117.976,227.943c15.856,5.936,23.251-1.13,26.301-14.873.059-.264-.176-.506-.442-.456-6.039,1.127-11.577,1.226-15.701-1.569-.222-.15-.516-.038-.573.224-1.348,6.2-4.152,11.733-9.68,16.017-.234.181-.181.553.097.657Z" fill="#fff" stroke="#000" stroke-miterlimit="10"/>
          <path d="m119.92,226.261c11.189,2.508,20.722-5.225,21.223-12.479-3.59,1.011-7.926.293-12.989-2.043-.638,4.851-5.087,11.568-8.234,14.521Z" fill="#fff" stroke="#000" stroke-miterlimit="10"/>
        </g>
        <g id="ecaille-34" data-name="ecaille">
          <path d="m128.813,210.994c15.856,5.936,23.251-1.13,26.301-14.873.059-.264-.176-.506-.442-.456-6.039,1.127-11.577,1.226-15.701-1.569-.222-.15-.516-.038-.573.224-1.348,6.2-4.152,11.733-9.68,16.017-.234.181-.181.553.097.657Z" fill="#fff" stroke="#000" stroke-miterlimit="10"/>
          <path d="m130.757,209.312c11.189,2.508,20.722-5.225,21.223-12.479-3.59,1.011-7.926.293-12.989-2.043-.638,4.851-5.087,11.568-8.234,14.521Z" fill="#fff" stroke="#000" stroke-miterlimit="10"/>
        </g>
        <g id="ecaille-35" data-name="ecaille">
          <path d="m127.296,210.608c-6.039,1.127-11.577,1.226-15.701-1.569-.222-.15-.516-.038-.573.224-.958,4.404-2.656,8.469-5.538,11.992.099.107.202.209.299.319.653.731,1.305,1.469,2.055,2.103.692.585,1.552.938,2.207,1.569.71.684,1.281,1.414,2.117,1.958.363.237.727.479,1.052.762,8.006-.771,12.361-7.153,14.524-16.902.059-.264-.176-.506-.442-.456Z" fill="#fff" stroke="#000" stroke-miterlimit="10"/>
          <path d="m111.615,209.734c-.486,3.695-3.183,8.469-5.832,11.842.652.73,1.304,1.468,2.054,2.101.45.38.968.666,1.457.991,8.453-.713,14.9-6.961,15.31-12.891-3.59,1.011-7.926.293-12.989-2.043Z" fill="#fff" stroke="#000" stroke-miterlimit="10"/>
        </g>
        <g id="ecaille-36" data-name="ecaille">
          <path d="m135.196,229.098c15.856,5.936,23.251-1.13,26.301-14.873.059-.264-.176-.506-.442-.456-6.039,1.127-11.577,1.226-15.701-1.569-.222-.15-.516-.038-.573.224-1.348,6.2-4.152,11.733-9.68,16.017-.234.181-.181.553.097.657Z" fill="#fff" stroke="#000" stroke-miterlimit="10"/>
          <path d="m137.14,227.417c11.189,2.508,20.722-5.225,21.223-12.479-3.59,1.011-7.926.293-12.989-2.043-.638,4.851-5.087,11.568-8.234,14.521Z" fill="#fff" stroke="#000" stroke-miterlimit="10"/>
        </g>
        <g id="ecaille-37" data-name="ecaille">
          <path d="m167.665,232.018c-6.04,1.127-11.577,1.226-15.701-1.569-.222-.15-.516-.038-.573.224-1.305,6-3.157,10.796-8.338,15.019.387.196,22.211-.403,25.055-13.218.059-.264-.176-.506-.442-.456Z" fill="#fff" stroke="#000" stroke-miterlimit="10"/>
          <path d="m143.75,245.666c11.189,2.508,20.722-5.225,21.223-12.479-3.59,1.011-7.926.293-12.989-2.043-.638,4.851-5.087,11.568-8.234,14.521Z" fill="#fff" stroke="#000" stroke-miterlimit="10"/>
        </g>
        <g id="ecaille-38" data-name="ecaille">
          <path d="m152.643,230.398c15.856,5.936,23.251-1.13,26.301-14.873.059-.264-.176-.506-.442-.456-6.039,1.127-11.577,1.226-15.701-1.569-.222-.15-.516-.038-.573.224-1.348,6.2-4.152,11.733-9.68,16.017-.234.181-.181.553.097.657Z" fill="#fff" stroke="#000" stroke-miterlimit="10"/>
          <path d="m154.587,228.717c11.189,2.508,20.722-5.225,21.223-12.479-3.59,1.011-7.926.293-12.989-2.043-.638,4.851-5.087,11.568-8.234,14.521Z" fill="#fff" stroke="#000" stroke-miterlimit="10"/>
        </g>
        <g id="ecaille-39" data-name="ecaille">
          <path d="m151.125,230.012c-6.039,1.127-11.577,1.226-15.701-1.569-.222-.15-.516-.038-.573.224-.728,3.348-1.886,6.499-3.663,9.367,1.88.878,3.829,1.658,5.537,2.848.88.613,4.822,3.591,5.753,4.278.193.142.304.3.511.415,5.033-2.45,6.895-7.514,8.58-15.107.059-.264-.176-.506-.442-.456Z" fill="#fff" stroke="#000" stroke-miterlimit="10"/>
          <path d="m137.103,240.626c.759.529,1.384,1.149,1.96,1.853,5.583-2.287,9.436-7.015,9.75-11.555-3.59,1.011-7.926.293-12.989-2.042-.364,2.768-1.97,6.141-3.865,9.078,1.757.806,3.555,1.559,5.144,2.667Z" fill="#fff" stroke="#000" stroke-miterlimit="10"/>
        </g>
        <g id="ecaille-40" data-name="ecaille">
          <path d="m156.132,196.417c15.856,5.936,23.251-1.13,26.301-14.873.059-.264-.176-.506-.442-.456-6.039,1.127-11.577,1.226-15.701-1.569-.222-.15-.516-.038-.573.224-1.348,6.2-4.152,11.733-9.68,16.017-.234.181-.181.553.097.657Z" fill="#fff" stroke="#000" stroke-miterlimit="10"/>
          <path d="m158.077,194.736c11.189,2.508,20.722-5.225,21.223-12.479-3.59,1.011-7.926.293-12.989-2.043-.638,4.851-5.087,11.568-8.234,14.521Z" fill="#fff" stroke="#000" stroke-miterlimit="10"/>
        </g>
        <g id="ecaille-41" data-name="ecaille">
          <path d="m162.742,214.666c15.856,5.936,23.251-1.13,26.301-14.873.059-.264-.176-.506-.442-.456-6.039,1.127-11.577,1.226-15.701-1.569-.222-.15-.516-.038-.573.224-1.348,6.2-4.152,11.733-9.68,16.017-.234.181-.181.553.097.657Z" fill="#fff" stroke="#000" stroke-miterlimit="10"/>
          <path d="m164.686,212.985c11.189,2.508,20.722-5.225,21.223-12.479-3.59,1.011-7.926.293-12.989-2.043-.638,4.851-5.087,11.568-8.234,14.521Z" fill="#fff" stroke="#000" stroke-miterlimit="10"/>
        </g>
        <g id="ecaille-42" data-name="ecaille">
          <path d="m173.579,197.717c15.856,5.936,23.251-1.13,26.301-14.873.059-.264-.176-.506-.442-.456-6.039,1.127-11.577,1.226-15.701-1.569-.222-.15-.516-.038-.573.224-1.348,6.2-4.152,11.733-9.68,16.017-.234.181-.181.553.097.657Z" fill="#fff" stroke="#000" stroke-miterlimit="10"/>
          <path d="m175.523,196.036c11.189,2.508,20.722-5.225,21.223-12.479-3.59,1.011-7.926.293-12.989-2.043-.638,4.851-5.087,11.568-8.234,14.521Z" fill="#fff" stroke="#000" stroke-miterlimit="10"/>
        </g>
        <g id="ecaille-43" data-name="ecaille">
          <path d="m146.203,212.66c15.856,5.936,23.251-1.13,26.301-14.873.059-.264-.176-.506-.442-.456-6.039,1.127-11.577,1.226-15.701-1.569-.222-.15-.516-.038-.573.224-1.348,6.2-4.152,11.733-9.68,16.017-.234.181-.181.553.097.657Z" fill="#fff" stroke="#000" stroke-miterlimit="10"/>
          <path d="m148.147,210.978c11.189,2.508,20.722-5.225,21.223-12.479-3.59,1.011-7.926.293-12.989-2.043-.638,4.851-5.087,11.568-8.234,14.521Z" fill="#fff" stroke="#000" stroke-miterlimit="10"/>
        </g>
        <g id="ecaille-44" data-name="ecaille">
          <path d="m66.955,134.222c15.856,5.936,23.251-1.13,26.301-14.873.059-.264-.176-.506-.442-.456-6.039,1.127-11.577,1.226-15.701-1.569-.222-.15-.516-.038-.573.224-1.348,6.2-4.152,11.733-9.68,16.017-.234.181-.181.553.097.657Z" fill="#fff" stroke="#000" stroke-miterlimit="10"/>
          <path d="m68.899,132.541c11.189,2.508,20.722-5.225,21.223-12.479-3.59,1.011-7.926.293-12.989-2.043-.638,4.851-5.087,11.568-8.234,14.521Z" fill="#fff" stroke="#000" stroke-miterlimit="10"/>
        </g>
        <g id="ecaille-45" data-name="ecaille">
          <path d="m76.997,117.882c15.856,5.936,23.251-1.13,26.301-14.873.059-.264-.176-.506-.442-.456-6.039,1.127-11.577,1.226-15.701-1.569-.222-.15-.516-.038-.573.224-1.348,6.2-4.152,11.733-9.68,16.017-.234.181-.181.553.097.657Z" fill="#fff" stroke="#000" stroke-miterlimit="10"/>
          <path d="m78.942,116.201c11.189,2.508,20.722-5.225,21.223-12.479-3.59,1.011-7.926.293-12.989-2.043-.638,4.851-5.087,11.568-8.234,14.521Z" fill="#fff" stroke="#000" stroke-miterlimit="10"/>
        </g>
        <g id="ecaille-46" data-name="ecaille">
          <path d="m116.146,86.222c15.856,5.936,23.251-1.13,26.301-14.873.059-.264-.176-.506-.442-.456-6.039,1.127-11.577,1.226-15.701-1.569-.222-.15-.516-.038-.573.224-1.348,6.2-4.152,11.733-9.68,16.017-.234.181-.181.553.097.657Z" fill="#fff" stroke="#000" stroke-miterlimit="10"/>
          <path d="m118.09,84.541c11.189,2.508,20.722-5.225,21.223-12.479-3.59,1.011-7.926.293-12.989-2.043-.638,4.851-5.087,11.568-8.234,14.521Z" fill="#fff" stroke="#000" stroke-miterlimit="10"/>
        </g>
        <g id="ecaille-47" data-name="ecaille">
          <path d="m82.26,135.575c-6.039,1.127-11.577,1.226-15.701-1.569-.222-.15-.516-.038-.573.224-.887,4.08-2.286,7.333-4.795,10.67.062,1.016,1.874,6.411,2.376,7.901,11.007,1.522,16.589-5.292,19.137-16.77.059-.264-.176-.506-.442-.456Z" fill="#fff" stroke="#000" stroke-miterlimit="10"/>
          <path d="m66.58,134.701c-.402,3.052-2.83,7.396-4.975,10.523.163.697.857,4.252,1.032,4.606,8.928-.293,16.507-6.931,16.932-13.087-3.59,1.011-7.926.293-12.989-2.043Z" fill="#fff" stroke="#000" stroke-miterlimit="10"/>
        </g>
        <g id="ecaille-48" data-name="ecaille">
          <path d="m67.367,164.802c2.567-2.94,4.324-7.127,5.463-12.261.059-.264-.176-.506-.442-.456-3.291.614-6.431.918-9.277.62.191.719,4.084,11.227,4.256,12.097Z" fill="#fff" stroke="#000" stroke-miterlimit="10"/>
          <path d="m65.881,160.841c1.996-2.167,3.643-5.101,3.815-7.587-1.924.542-4.068.571-6.417.137.104.501,2.309,6.8,2.602,7.45Z" fill="#fff" stroke="#000" stroke-miterlimit="10"/>
        </g>
        <g id="ecaille-49" data-name="ecaille">
          <path d="m60.328,138.82c.267,1.321.907,5.033.979,5.351,1.44-2.551,3.075-6.29,3.864-9.842.059-.264-.176-.506-.442-.456-1.505.281-3.865.6-5.294.724.068.669.751,3.518.894,4.223Z" fill="#fff" stroke="#000" stroke-miterlimit="10"/>
          <path d="m61.088,138.581c.001.006.002.011.003.017.535-1.167.864-2.368.946-3.557-.524.148-1.068.247-1.624.321.044.373.532,2.513.675,3.218Z" fill="#fff" stroke="#000" stroke-miterlimit="10"/>
        </g>
        <g id="ecaille-50" data-name="ecaille">
          <path d="m75.281,117.021c-2.419.451-5.69.776-7.889.777-.112.087-8.605,7.512-8.723,9.362-.031.49,1.463,6.62,1.565,7.283,8.624-.337,13.241-6.832,15.49-16.966.059-.264-.176-.506-.442-.456Z" fill="#fff" stroke="#000" stroke-miterlimit="10"/>
          <path d="m67.449,118.515c-.656.594-7.076,5.836-7.844,6.582-1.352,1.314-.234,5.585-.191,5.936,7.663-1.304,12.793-7.289,13.177-12.843-1.569.442-3.289.534-5.142.325Z" fill="#fff" stroke="#000" stroke-miterlimit="10"/>
        </g>
        <g id="ecaille-51" data-name="ecaille">
          <path d="m96.388,173.362c-6.039,1.127-11.577,1.226-15.701-1.569-.222-.15-.516-.038-.573.224-.9,4.137-2.453,7.974-5.025,11.344.094.225.195.446.308.66.433.821,1.098,1.476,1.676,2.192,1.116,1.384,2.112,2.873,2.671,4.572,9.662.44,14.703-6.223,17.087-16.967.059-.264-.176-.506-.442-.456Z" fill="#fff" stroke="#000" stroke-miterlimit="10"/>
          <path d="m80.708,172.488c-.443,3.368-2.723,7.632-5.128,10.915.512.666.695,1.491,1.037,2.254.217.484.548.94.852,1.373.106.151.234.284.345.43,8.733-.472,15.464-6.866,15.884-12.929-3.59,1.011-7.926.293-12.989-2.043Z" fill="#fff" stroke="#000" stroke-miterlimit="10"/>
        </g>
        <g id="ecaille-52" data-name="ecaille">
          <path d="m83.818,197.437c1.001-2.135,2.108-4.52,2.255-6.702-1.717.497-4.294,1.144-6.213,1.163" fill="#fff" stroke="#000" stroke-miterlimit="10" stroke-width="1.706"/>
        </g>
        <g id="ecaille-53" data-name="ecaille">
          <path d="m70.481,173.694c.493.785.972,1.579,1.5,2.342,1.095,1.582,1.926,3.33,2.422,5.189.152.57.319,1.147.524,1.708,1.98-2.909,3.476-7.095,4.422-11.592-3.443.693-6.538,1.223-9.489.947.281.425.375,1.014.621,1.406Z" fill="#fff" stroke="#000" stroke-miterlimit="10"/>
          <path d="m70.448,173.374c.53.845,1.045,1.701,1.622,2.516.627.887,1.114,1.794,1.517,2.745,1.388-1.867,2.234-3.93,2.375-5.956-1.762.496-3.706.571-5.825.247.11.151.219.301.312.448Z" fill="#fff" stroke="#000" stroke-miterlimit="10"/>
        </g>
        <g id="ecaille-54" data-name="ecaille">
          <path d="m94.992,211.255c.74.856,1.616,1.5,2.455,2.246.762.678,1.46,1.429,2.268,2.053.76.587,1.622,1.042,2.303,1.73.675.683,1.094,1.572,1.779,2.245.535.525,1.057,1.054,1.567,1.599,2.182-2.875,3.711-6.753,4.742-11.397.059-.264-.176-.506-.442-.456-6.039,1.127-11.577,1.226-15.701-1.569-.222-.15-.516-.038-.573.224-.065.299-.137.595-.208.891.569.836,1.148,1.667,1.811,2.432Z" fill="#fff" stroke="#000" stroke-miterlimit="10"/>
          <path d="m94.992,211.255c.74.856,1.616,1.5,2.455,2.246.762.678,1.46,1.429,2.268,2.053.76.587,1.622,1.042,2.303,1.73.322.325.584.698.846,1.071,2.409-2.311,3.917-5.145,4.108-7.911-3.59,1.011-7.926.293-12.99-2.043-.052.398-.139.812-.24,1.233.395.556.801,1.104,1.248,1.62Z" fill="#fff" stroke="#000" stroke-miterlimit="10"/>
        </g>
        <g id="ecaille-55" data-name="ecaille">
          <path d="m124.156,234.693c2.191,1.034,4.377,2.071,6.56,3.122.328.158.661.308.993.46,1.077-2.253,1.921-4.863,2.568-7.777.059-.264-.176-.506-.442-.456-6.039,1.127-11.577,1.226-15.701-1.569-.222-.15-.516-.038-.573.224-.129.595-.277,1.182-.434,1.765,2.111,1.765,4.552,3.062,7.031,4.231Z" fill="#fff" stroke="#000" stroke-miterlimit="10"/>
          <path d="m124.156,234.693c1.59.75,3.175,1.508,4.76,2.266,1.299-1.812,2.092-3.797,2.227-5.748-3.59,1.011-7.926.293-12.989-2.043-.076.574-.208,1.176-.382,1.792,1.959,1.508,4.151,2.679,6.384,3.732Z" fill="#fff" stroke="#000" stroke-miterlimit="10"/>
        </g>
        <g id="ecaille-56" data-name="ecaille">
          <path d="m165.848,179.84c15.856,5.936,23.251-1.13,26.301-14.873.059-.264-.176-.506-.442-.456-6.039,1.127-11.577,1.226-15.701-1.569-.222-.15-.516-.038-.573.224-1.348,6.2-4.152,11.733-9.68,16.017-.234.181-.181.553.097.657Z" fill="#fff" stroke="#000" stroke-miterlimit="10"/>
          <path d="m167.793,178.158c11.189,2.508,20.722-5.225,21.223-12.479-3.59,1.011-7.926.293-12.989-2.043-.638,4.851-5.087,11.568-8.234,14.521Z" fill="#fff" stroke="#000" stroke-miterlimit="10"/>
        </g>
        <g id="ecaille-57" data-name="ecaille">
          <path d="m140.487,106.137c15.856,5.936,23.251-1.13,26.301-14.873.059-.264-.176-.506-.442-.456-6.039,1.127-11.577,1.226-15.701-1.569-.222-.15-.516-.038-.573.224-1.348,6.2-4.152,11.733-9.68,16.017-.234.181-.181.553.097.657Z" fill="#fff" stroke="#000" stroke-miterlimit="10"/>
          <path d="m142.431,104.456c11.189,2.508,20.722-5.225,21.223-12.479-3.59,1.011-7.926.293-12.989-2.043-.638,4.851-5.087,11.568-8.234,14.521Z" fill="#fff" stroke="#000" stroke-miterlimit="10"/>
        </g>
        <g id="ecaille-58" data-name="ecaille">
          <path d="m181.315,98.363c-.073-.328-.24-.609-.384-.908-.153-.319-.297-.645-.483-.947-.187-.303-.391-.586-.527-.917-.134-.327-.213-.674-.339-1.004-.144-.379-.27-.78-.423-1.168-4.518.461-8.609.05-11.835-2.136-.222-.15-.516-.038-.573.224-1.348,6.2-4.151,11.733-9.68,16.017-.234.181-.181.553.096.656,13.233,4.954,20.57.847,24.409-8.635-.109-.384-.172-.78-.262-1.182Z" fill="#fff" stroke="#000" stroke-miterlimit="10"/>
          <path d="m179.921,95.59c-.134-.327-.213-.674-.339-1.004-.046-.122-.09-.249-.133-.375-3.412.676-7.446-.086-12.103-2.234-.638,4.851-5.087,11.568-8.234,14.521,10.276,2.303,19.148-4.031,20.918-10.699-.036-.07-.079-.135-.109-.209Z" fill="#fff" stroke="#000" stroke-miterlimit="10"/>
        </g>
        <g id="ecaille-59" data-name="ecaille">
          <path d="m173.997,81.787c-.545-1.019-1.148-2.006-1.675-3.034-.83-1.622-2.217-2.854-3.31-4.286-2.78-.151-5.309-.817-7.453-2.27-.222-.15-.516-.038-.573.224-1.348,6.2-4.151,11.733-9.68,16.017-.234.181-.181.553.097.657,11.972,4.482,19.118,1.548,23.214-6.072-.195-.424-.408-.84-.62-1.236Z" fill="#fff" stroke="#000" stroke-miterlimit="10"/>
          <path d="m172.322,78.753c-.668-1.306-1.698-2.358-2.645-3.465-2.452-.241-5.147-1.035-8.097-2.395-.638,4.851-5.087,11.568-8.234,14.521,8.646,1.938,16.298-2.24,19.563-7.585-.199-.357-.401-.712-.587-1.076Z" fill="#fff" stroke="#000" stroke-miterlimit="10"/>
        </g>
        <g id="ecaille-60" data-name="ecaille">
          <path d="m154.562,58.628c-.563,4.522-9.351,8.309-11.351,12.309,3,2,7.521,3.351,11.521,2.351,3-1,7.416-.585,9.91-5.287" fill="#fff" stroke="#000" stroke-miterlimit="10"/>
          <path d="m155.243,59.096c-1.728,3.8-7.875,8.515-10.063,10.569,6.689,1.499,12.784-.663,16.713-4.193-.139-.088-5.707-6.301-6.65-6.376Z" fill="#fff" stroke="#000" stroke-miterlimit="10"/>
        </g>
      </g>
      <g id="queue">
        <path d="m121.399,288.18c-10.157,13.483-23.383,25-39.078,34.936-2.156,1.365-3.477,3.76-3.462,6.311.04,6.76,5.091,10.505,13.996,11.932.519.083,1.056.071,1.573-.024l6.878-1.261c2.163-.222,3.989.044,5.234,1.149,3.397,5.169,8.097,6.819,13.401,6.835,1.333.004,2.599-.569,3.53-1.523,5.35-5.482,10.097-12.941,14.601-21.196,1.012-1.855,2.417-3.487,4.165-4.672,3.604-2.444,6.158-2.24,6.941,2.429.717,5.337-.305,10.481-4.085,15.319,33.697,6.323,36.079-11.492,41.783-26.746l-57.114-32.467-8.365,8.978Z" fill="#fff" stroke="#000" stroke-miterlimit="10"/>
        <g id="decorsQueue">
          <path d="m129.264,289.267c-8.781,15.934-20.644,27.204-35.928,33.296-.501.2-.957.516-1.317.918-1.705,1.904-1.555,2.86-.043,3.122.799.138,1.623-.018,2.36-.355,14.413-6.605,27.358-18.402,39.397-33.406l-4.468-3.574Z" fill="#fff" stroke="#000" stroke-miterlimit="10" stroke-width=".808"/>
          <path d="m139.5,293.493c-8.821,18.15-20.736,30.988-36.088,37.927-.503.228-.962.588-1.323,1.045-1.713,2.168-1.562,3.258-.043,3.556.802.157,1.63-.02,2.37-.405,14.477-7.523,27.48-20.961,39.573-38.052l-4.488-4.072Z" fill="#fff" stroke="#000" stroke-miterlimit="10" stroke-width=".865"/>
          <path d="m147.836,292.203c-7.658,20.711-18.002,35.362-31.331,43.28-.437.26-.835.671-1.149,1.193-1.487,2.474-1.356,3.718-.037,4.058.697.18,1.415-.023,2.058-.462,12.568-8.585,23.857-23.919,34.355-43.422l-3.896-4.646Z" fill="#fff" stroke="#000" stroke-miterlimit="10" stroke-width=".861"/>
          <path d="m161.179,298.756c-2.005,15.053-6.217,28.416-13.191,39.66l2.553,1.362c7.405-10.625,12.399-22.771,15.404-36.17l-4.766-4.851Z" fill="#fff" stroke="#000" stroke-miterlimit="10" stroke-width=".861"/>
          <path d="m168.935,301.388c-1.696,15.053-5.259,28.416-11.16,39.66l2.16,1.362c6.264-10.625,10.489-22.771,13.032-36.17l-4.032-4.851Z" fill="#fff" stroke="#000" stroke-miterlimit="10" stroke-width=".792"/>
        </g>
        <g id="ecailleGrp">
          <g id="ecaille-61" data-name="ecaille">
            <path d="m151.905,254.376c11.124,11.315,20.202,8.237,28.229-2.233.154-.201.05-.499-.196-.562-5.577-1.431-10.321-3.538-12.72-7.544-.129-.215-.424-.236-.576-.037-3.598,4.734-8.168,8.327-14.56,9.78-.27.061-.372.398-.178.596Z" fill="#fff" stroke="#000" stroke-miterlimit="10" stroke-width=".937"/>
            <path d="m154.163,253.936c8.515,6.557,19.673,3.757,22.968-2.207-3.412-.554-6.774-2.834-10.115-6.74-.057-.066-.158-.064-.206.009-2.526,3.823-8.853,7.69-12.648,8.939Z" fill="#fff" stroke="#000" stroke-miterlimit="10" stroke-width=".937"/>
          </g>
          <g id="ecaille-62" data-name="ecaille">
            <path d="m167.164,244.377c11.124,11.315,20.202,8.237,28.229-2.233.154-.201.05-.499-.196-.562-5.577-1.431-10.321-3.538-12.72-7.544-.129-.215-.424-.236-.576-.037-3.598,4.734-8.168,8.327-14.56,9.78-.27.061-.372.398-.178.596Z" fill="#fff" stroke="#000" stroke-miterlimit="10" stroke-width=".937"/>
            <path d="m169.422,243.937c8.515,6.557,19.673,3.757,22.968-2.207-3.412-.554-6.774-2.834-10.115-6.74-.057-.066-.158-.064-.206.009-2.526,3.823-8.853,7.69-12.648,8.939Z" fill="#fff" stroke="#000" stroke-miterlimit="10" stroke-width=".937"/>
          </g>
          <g id="ecaille-63" data-name="ecaille">
            <path d="m166.091,243.454c-2.5-.642-4.702-1.387-6.731-2.411-.621.66-9.209,11.378-9.894,12.271,6.412,1.412,11.58-2.465,16.82-9.298.154-.201.05-.499-.195-.562Z" fill="#fff" stroke="#000" stroke-miterlimit="10" stroke-width=".937"/>
            <path d="m152.291,249.947c5.239-.06,9.647-2.749,11.585-6.255-1.596-.527-3.735-.988-5.293-1.971-.389.429-5.718,7.075-6.292,8.226Z" fill="#fff" stroke="#000" stroke-miterlimit="10" stroke-width=".937"/>
          </g>
          <g id="ecaille-64" data-name="ecaille">
            <path d="m181.07,233.071c-3.95-1.014-6.973-1.869-9.55-3.996-.744,1.018-1.767,1.657-2.502,2.71-.974,1.395-2.241,2.345-3.623,3.302-.724.501-1.439,1.02-2.054,1.654-.675.697-1.308,1.434-1.992,2.125-.668.675-1.347,1.339-2.004,2.025-.002.003-.005.005-.007.008,8.334,4.787,15.471,1.155,21.928-7.267.154-.201.05-.499-.196-.562Z" fill="#fff" stroke="#000" stroke-miterlimit="10" stroke-width=".937"/>
            <path d="m161.627,238.571c7.011,1.898,14.117-.795,16.635-5.352-2.558-.416-4.717-1.446-7.232-3.761-.564.875-8.825,8.509-9.403,9.113Z" fill="#fff" stroke="#000" stroke-miterlimit="10" stroke-width=".937"/>
          </g>
          <g id="ecaille-65" data-name="ecaille">
            <path d="m200.539,238.858c.19-1.081.247-2.137.314-3.229.066-1.086.185-2.169.253-3.255.098-1.559-.041-3.109-.077-4.663-2.004-1.17-3.663-2.621-4.789-4.502-.129-.215-.424-.236-.576-.036-3.598,4.734-8.168,8.327-14.561,9.78-.27.061-.372.398-.178.596,7.311,7.437,13.739,8.655,19.565,5.644.018-.111.028-.223.048-.333Z" fill="#fff" stroke="#000" stroke-miterlimit="10" stroke-width=".937"/>
            <path d="m201.106,232.373c.075-1.199.01-2.394-.041-3.589-1.684-1.127-3.358-2.673-5.028-4.625-.057-.066-.158-.064-.206.009-2.526,3.823-8.853,7.69-12.648,8.939,5.772,4.445,12.753,4.582,17.682,2.356.068-1.031.176-2.059.24-3.09Z" fill="#fff" stroke="#000" stroke-miterlimit="10" stroke-width=".937"/>
          </g>
          <g id="ecaille-66" data-name="ecaille">
            <path d="m201.028,226.372c.034-.985.215-1.895.432-2.85.186-.817.12-1.596.066-2.398-1.584.77-3.287,1.401-5.164,1.827-.27.061-.372.398-.178.596,1.659,1.688,3.272,3.049,4.844,4.12-.01-.431-.016-.862,0-1.294Z" fill="#fff" stroke="#000" stroke-miterlimit="10" stroke-width=".937"/>
            <path d="m200.838,223.809c.135-.596.134-1.172.104-1.751-1.129.574-2.201,1.033-3.122,1.336.891.686,1.949,1.761,2.886,2.249.074-.439.031-1.389.132-1.835Z" fill="#fff" stroke="#000" stroke-miterlimit="10" stroke-width=".937"/>
          </g>
          <g id="ecaille-67" data-name="ecaille">
            <path d="m195.113,222.624c-4.475-1.149-8.39-2.751-11.012-5.401-1.566.832-2.872,2.225-3.943,3.597-1.136,1.455-2.098,2.623-3.661,3.611-1.515.957-4.922,4.44-5.254,4.921,9.423,7.128,16.97,3.088,24.065-6.165.154-.201.05-.499-.195-.562Z" fill="#fff" stroke="#000" stroke-miterlimit="10" stroke-width=".937"/>
            <path d="m184.119,217.5c-1.279.845-2.227,2.053-3.171,3.263-1.136,1.455-2.354,2.62-3.917,3.608-1.313.83-2.142,2.013-3.363,2.98,7.896,3.808,16.281.59,19.17-4.638-2.937-.477-5.838-2.241-8.72-5.213Z" fill="#fff" stroke="#000" stroke-miterlimit="10" stroke-width=".937"/>
          </g>
          <g id="ecaille-68" data-name="ecaille">
            <path d="m201.66,220c.673-1.159.741-2.565.771-3.875.032-1.405.069-2.808.112-4.212.025-.819.029-1.64.028-2.463-2.196-1.209-3.994-2.74-5.199-4.752-.129-.215-.424-.236-.576-.036-2.749,3.617-12.223,12.16-12.54,12.445,6.364,5.526,12.047,6.265,17.251,3.631-.006-.122-.016-.241-.019-.364-.004-.174.069-.294.172-.373Z" fill="#fff" stroke="#000" stroke-miterlimit="10" stroke-width=".937"/>
            <path d="m202.357,211.872c.014-.47.021-.942.024-1.414-1.808-1.144-3.606-2.755-5.398-4.849-.057-.066-.158-.064-.206.009-2.273,3.44-6.363,6.632-10.177,8.204-.226.276-1.091,1.143-1.309,1.426,5.825,4.163,11.818,3.946,16.611,1.605.009-.214.412-3.575.454-4.98Z" fill="#fff" stroke="#000" stroke-miterlimit="10" stroke-width=".937"/>
          </g>
          <g id="ecaille-69" data-name="ecaille">
            <path d="m134.288,281.547c11.124,11.315,20.202,8.237,28.229-2.233.154-.201.05-.499-.196-.562-5.577-1.431-10.321-3.538-12.72-7.544-.129-.215-.424-.236-.576-.037-3.598,4.734-8.168,8.327-14.56,9.78-.27.061-.372.398-.178.596Z" fill="#fff" stroke="#000" stroke-miterlimit="10" stroke-width=".937"/>
            <path d="m136.546,281.107c8.515,6.557,19.673,3.757,22.968-2.207-3.412-.554-6.774-2.834-10.115-6.74-.057-.066-.158-.064-.206.009-2.526,3.823-8.853,7.69-12.648,8.939Z" fill="#fff" stroke="#000" stroke-miterlimit="10" stroke-width=".937"/>
          </g>
          <g id="ecaille-70" data-name="ecaille">
            <path d="m149.547,271.547c11.124,11.315,20.202,8.237,28.229-2.233.154-.201.05-.499-.196-.562-5.577-1.431-10.321-3.538-12.72-7.544-.129-.215-.424-.236-.576-.037-3.598,4.734-8.168,8.327-14.56,9.78-.27.061-.372.398-.178.596Z" fill="#fff" stroke="#000" stroke-miterlimit="10" stroke-width=".937"/>
            <path d="m151.804,271.108c8.515,6.557,19.673,3.757,22.968-2.207-3.412-.554-6.774-2.834-10.115-6.74-.057-.066-.158-.064-.206.009-2.526,3.823-8.853,7.69-12.648,8.939Z" fill="#fff" stroke="#000" stroke-miterlimit="10" stroke-width=".937"/>
          </g>
          <g id="ecaille-71" data-name="ecaille">
            <path d="m148.474,270.624c-3.457-.887-6.591-2.036-9.048-3.734-.577.943-1.267,1.833-1.974,2.656-1.019,1.186-2.186,2.185-3.321,3.252-1.148,1.079-2.01,2.399-2.806,3.747-.627,1.062-1.209,2.165-1.919,3.177,7.206,2.68,13.505-1.026,19.263-8.535.154-.201.05-.499-.196-.562Z" fill="#fff" stroke="#000" stroke-miterlimit="10" stroke-width=".937"/>
            <path d="m137.453,269.546c-1.019,1.186-2.186,2.185-3.321,3.252-1.148,1.079-2.01,2.399-2.806,3.747-.009.015-.017.03-.026.045,6.223.834,12.121-1.754,14.366-5.818-2.228-.362-4.435-1.474-6.629-3.28-.489.72-1.03,1.409-1.584,2.053Z" fill="#fff" stroke="#000" stroke-miterlimit="10" stroke-width=".937"/>
          </g>
          <g id="ecaille-72" data-name="ecaille">
            <path d="m163.453,260.241c-5.577-1.431-10.321-3.538-12.72-7.544-.129-.215-.424-.236-.576-.036-.725.953-1.501,1.846-2.312,2.698-.552,1.064-1.13,2.115-1.789,3.117-.493.75-1.025,1.501-1.631,2.165-.526.577-1.187.989-1.84,1.405-.67.426-1.349.839-1.712,1.573-.327.661-.48,1.394-.79,2.064-.155.334-.33.661-.519.983,9.269,6.78,17.076,3.275,24.083-5.863.154-.201.05-.499-.196-.562Z" fill="#fff" stroke="#000" stroke-miterlimit="10" stroke-width=".937"/>
            <path d="m150.53,253.65c-.057-.066-.158-.064-.206.009-.855,1.295-9.673,10.479-9.766,10.745,7.985,4.08,17.151,1.297,20.086-4.014-3.412-.555-6.774-2.834-10.115-6.74Z" fill="#fff" stroke="#000" stroke-miterlimit="10" stroke-width=".937"/>
          </g>
          <g id="ecaille-73" data-name="ecaille">
            <path d="m198.98,263.61c-1.508-1.042-2.764-2.288-3.677-3.812-.129-.215-.424-.236-.576-.036-3.598,4.734-8.168,8.327-14.56,9.78-.27.061-.372.398-.178.596,6.198,6.305,11.761,8.137,16.861,6.715-.086-1.659,1.985-12.359,2.129-13.242Z" fill="#fff" stroke="#000" stroke-miterlimit="10" stroke-width=".937"/>
            <path d="m198.286,264.054c-1.25-.998-1.942-1.85-3.185-3.303-.057-.066-.158-.064-.206.009-2.526,3.823-8.853,7.69-12.648,8.939,4.607,3.548,10.123,4.37,14.613,3.42.013-.403,1.318-8.455,1.426-9.064Z" fill="#fff" stroke="#000" stroke-miterlimit="10" stroke-width=".937"/>
          </g>
          <g id="ecaille-74" data-name="ecaille">
            <path d="m199.212,261.963c.133-1.218.093-2.432.034-3.647-1.202.492-2.462.917-3.821,1.226-.27.061-.372.398-.178.596,1.279,1.301,2.529,2.403,3.756,3.334.08-.501.153-1.004.208-1.509Z" fill="#fff" stroke="#000" stroke-miterlimit="10" stroke-width=".937"/>
          </g>
          <g id="ecaille-75" data-name="ecaille">
            <path d="m166.142,262.01c11.124,11.315,20.202,8.237,28.229-2.233.154-.201.05-.499-.196-.562-5.577-1.431-10.321-3.538-12.72-7.544-.129-.215-.424-.236-.576-.037-3.598,4.734-8.168,8.327-14.56,9.78-.27.061-.372.398-.178.596Z" fill="#fff" stroke="#000" stroke-miterlimit="10" stroke-width=".937"/>
            <path d="m168.399,261.571c8.515,6.557,19.673,3.757,22.968-2.207-3.412-.554-6.774-2.834-10.115-6.74-.057-.066-.158-.064-.206.009-2.526,3.823-8.853,7.69-12.648,8.939Z" fill="#fff" stroke="#000" stroke-miterlimit="10" stroke-width=".937"/>
          </g>
          <g id="ecaille-76" data-name="ecaille">
            <path d="m199.913,245.437c.003-.045.006-.09.009-.135,0-.042-.002-.084.009-.122.005-.066.009-.132.014-.199-1.434-1.018-2.632-2.226-3.511-3.694-.129-.215-.424-.236-.576-.036-3.598,4.734-8.168,8.327-14.561,9.779-.27.061-.372.398-.178.596,6.707,6.823,12.67,8.406,18.108,6.298-.029-.569-.058-1.139-.073-1.71-.05-1.817-.023-3.623.374-5.403.377-1.69.878-3.365.468-5.081-.055-.076-.094-.169-.084-.294Z" fill="#fff" stroke="#000" stroke-miterlimit="10" stroke-width=".937"/>
            <path d="m199.529,250.812c.358-1.608.832-3.201.526-4.829-1.279-1.01-2.553-2.257-3.824-3.743-.057-.066-.158-.064-.206.009-2.526,3.823-8.853,7.69-12.648,8.939,5.064,3.9,11.052,4.473,15.776,3.056.028-1.151.123-2.297.375-3.432Z" fill="#fff" stroke="#000" stroke-miterlimit="10" stroke-width=".937"/>
          </g>
          <g id="ecaille-77" data-name="ecaille">
            <path d="m163.589,279.781c11.124,11.315,20.202,8.237,28.229-2.233.154-.201.05-.499-.196-.562-5.577-1.431-10.321-3.538-12.72-7.544-.129-.215-.424-.236-.576-.037-3.598,4.734-8.168,8.327-14.56,9.78-.27.061-.372.398-.178.596Z" fill="#fff" stroke="#000" stroke-miterlimit="10" stroke-width=".937"/>
            <path d="m165.464,279.022c8.515,6.557,19.673,3.757,22.968-2.207-3.412-.554-6.774-2.834-10.115-6.74-.057-.066-.158-.064-.206.009-2.526,3.823-8.853,7.69-12.648,8.939Z" fill="#fff" stroke="#000" stroke-miterlimit="10" stroke-width=".937"/>
          </g>
          <g id="ecaille-78" data-name="ecaille">
            <path d="m148.951,289.653c11.124,11.315,20.202,8.237,28.229-2.233.154-.201.05-.499-.196-.562-5.577-1.431-10.321-3.538-12.72-7.544-.129-.215-.424-.236-.576-.037-3.598,4.734-8.168,8.327-14.56,9.78-.27.061-.372.398-.178.596Z" fill="#fff" stroke="#000" stroke-miterlimit="10" stroke-width=".937"/>
            <path d="m151.209,289.214c8.515,6.557,19.673,3.757,22.968-2.207-3.412-.554-6.774-2.834-10.115-6.74-.057-.066-.158-.064-.206.009-2.526,3.823-8.853,7.69-12.648,8.939Z" fill="#fff" stroke="#000" stroke-miterlimit="10" stroke-width=".937"/>
          </g>
          <g id="ecaille-79" data-name="ecaille">
            <path d="m200.539,238.858c.002-.01.002-.019.004-.029-1.523.72-3.156,1.311-4.946,1.717-.27.061-.372.398-.178.596,1.546,1.573,3.052,2.857,4.522,3.893.147-2.066.239-4.134.598-6.177Z" fill="#fff" stroke="#000" stroke-miterlimit="10" stroke-width=".937"/>
          </g>
          <g id="ecaille-80" data-name="ecaille">
            <path d="m203.275,196.841c-1.482.688-3.574,4.979-5.295,7.28-.166.222-.372.398-.178.596,1.632,1.66,3.319,2.966,4.867,4.028-.007-2.107.378-9.816.606-11.904Z" fill="#fff" stroke="#000" stroke-miterlimit="10" stroke-width=".937"/>
          </g>
          <g id="ecaille-81" data-name="ecaille">
            <path d="m159.841,303.738c6.304,12.75,14.589,13.345,23.892,7.7.179-.109.169-.381-.018-.514-4.243-3.013-7.625-6.284-8.585-10.281-.052-.215-.29-.331-.466-.222-4.18,2.563-8.872,3.891-14.523,2.902-.239-.042-.409.192-.299.415Z" fill="#fff" stroke="#000" stroke-miterlimit="10" stroke-width=".808"/>
            <path d="m161.818,304.146c5.362,8.083,15.295,9.599,19.539,5.954-2.677-1.587-4.873-4.532-6.638-8.766-.03-.072-.114-.104-.172-.062-3.062,2.198-9.275,3.154-12.729,2.874Z" fill="#fff" stroke="#000" stroke-miterlimit="10" stroke-width=".808"/>
          </g>
          <g id="ecaille-82" data-name="ecaille">
            <path d="m151.144,292.475c6.304,12.75,14.589,13.345,23.892,7.7.179-.109.169-.381-.018-.514-4.243-3.013-7.625-6.284-8.585-10.281-.052-.215-.29-.331-.466-.222-4.18,2.563-8.872,3.891-14.523,2.902-.239-.042-.409.192-.299.415Z" fill="#fff" stroke="#000" stroke-miterlimit="10" stroke-width=".808"/>
            <path d="m153.121,292.883c5.362,8.083,15.295,9.599,19.539,5.954-2.677-1.587-4.873-4.532-6.638-8.766-.03-.072-.114-.104-.172-.062-3.062,2.198-9.275,3.154-12.729,2.874Z" fill="#fff" stroke="#000" stroke-miterlimit="10" stroke-width=".808"/>
          </g>
          <g id="ecaille-83" data-name="ecaille">
            <path d="m189.269,305.99c.608-1.197,1.275-2.354,1.917-3.532.268-.491,1.711-4.063,1.929-4.575-.649-1.05-1.87.267-2.149-.894-.052-.215-.824.315-1,.423-4.18,2.563-8.872,3.891-14.523,2.902-.239-.042-.409.192-.299.415,3.389,6.853,7.35,10.19,11.733,10.939.287-2.057,1.449-3.823,2.392-5.679Z" fill="#fff" stroke="#000" stroke-miterlimit="10" stroke-width=".808"/>
            <path d="m189.269,305.99c.608-1.197,1.275-2.354,1.917-3.532.16-.293,1.546-3.972,1.674-4.277-.561-.98-1.763.756-2.255-.426-.03-.072-.696.466-.755.508-3.062,2.198-9.275,3.154-12.729,2.874,2.823,4.254,6.909,6.673,10.768,7.494.432-.887.93-1.755,1.381-2.642Z" fill="#fff" stroke="#000" stroke-miterlimit="10" stroke-width=".808"/>
          </g>
          <g id="ecaille-84" data-name="ecaille">
            <path d="m166.378,289.496c6.304,12.75,14.589,13.345,23.892,7.7.179-.109.169-.381-.018-.514-4.243-3.013-7.625-6.284-8.585-10.281-.052-.215-.29-.331-.466-.222-4.18,2.563-8.872,3.891-14.523,2.902-.239-.042-.409.192-.299.415Z" fill="#fff" stroke="#000" stroke-miterlimit="10" stroke-width=".808"/>
            <path d="m168.355,289.904c5.362,8.083,15.295,9.599,19.539,5.954-2.677-1.587-4.873-4.532-6.638-8.766-.03-.072-.114-.104-.172-.062-3.062,2.198-9.275,3.154-12.729,2.874Z" fill="#fff" stroke="#000" stroke-miterlimit="10" stroke-width=".808"/>
          </g>
          <g id="ecaille-85" data-name="ecaille">
            <path d="m194.341,290.713c.792-2.022,1.02-4.095,1.513-6.191.114-.484.266-.958.411-1.433-4.117,2.463-8.73,3.727-14.269,2.758-.239-.042-.409.192-.299.415,3.199,6.469,6.909,9.805,11.001,10.788.785-2.045.84-4.29,1.642-6.337Z" fill="#fff" stroke="#000" stroke-miterlimit="10" stroke-width=".808"/>
            <path d="m194.341,290.713c.792-2.022,1.02-4.095,1.513-6.191.035-.15.079-.298.121-.447-3.182,1.997-8.998,2.862-12.3,2.595,2.595,3.912,6.26,6.272,9.834,7.267.213-1.091.425-2.184.833-3.224Z" fill="#fff" stroke="#000" stroke-miterlimit="10" stroke-width=".808"/>
          </g>
          <g id="ecaille-86" data-name="ecaille">
            <path d="m195.853,284.522c.238-1.012.643-1.974.801-3.005.164-1.068.232-2.158.237-3.238.003-.6-.026-1.202-.061-1.806-2.916.12-5.569-.28-7.783-1.553-.192-.11-.439-.017-.482.186-1.011,4.798-3.272,9.118-7.875,12.543-.195.145-.141.429.096.502,6.205,1.91,10.851,1.775,14.29.057.277-1.217.487-2.447.778-3.686Z" fill="#fff" stroke="#000" stroke-miterlimit="10" stroke-width=".808"/>
            <path d="m196.655,281.517c.164-1.068.232-2.158.237-3.238.001-.321-.007-.642-.02-.964-2.259-.012-4.791-.553-7.605-1.622-.073-.028-.154.011-.164.082-.509,3.735-4.084,8.904-6.662,11.221,5.438.945,10.343-.649,13.616-3.226.222-.746.479-1.48.598-2.253Z" fill="#fff" stroke="#000" stroke-miterlimit="10" stroke-width=".808"/>
          </g>
          <g id="ecaille-87" data-name="ecaille">
            <path d="m122.139,289.873c6.304,12.75,14.589,13.345,23.892,7.7.179-.109.169-.381-.018-.514-4.243-3.013-7.625-6.284-8.585-10.281-.052-.215-.29-.331-.466-.222-4.18,2.563-8.872,3.891-14.523,2.902-.239-.042-.409.192-.299.415Z" fill="#fff" stroke="#000" stroke-miterlimit="10" stroke-width=".808"/>
            <path d="m124.116,290.28c5.362,8.083,15.295,9.599,19.539,5.954-2.677-1.587-4.873-4.532-6.638-8.766-.03-.072-.114-.104-.172-.062-3.062,2.198-9.275,3.154-12.729,2.874Z" fill="#fff" stroke="#000" stroke-miterlimit="10" stroke-width=".808"/>
          </g>
          <g id="ecaille-88" data-name="ecaille">
            <path d="m130.08,278.692c-.322.533-.658,1.056-1.04,1.546-.801,1.025-1.767,1.897-2.756,2.736-1.82,1.541-3.781,3.06-4.884,5.207,4.765,2.733,10.153,1.638,15.935-1.871.179-.109.169-.381-.018-.514-3.06-2.174-5.657-4.486-7.236-7.104Z" fill="#fff" stroke="#000" stroke-miterlimit="10" stroke-width=".808"/>
            <path d="m129.764,279.202c-.228.355-.465.703-.724,1.036-.801,1.025-1.767,1.897-2.756,2.736-1.002.849-2.049,1.689-2.973,2.631,4.452,1.871,9.086,1.567,11.648-.633-1.991-1.18-3.715-3.115-5.194-5.769Z" fill="#fff" stroke="#000" stroke-miterlimit="10" stroke-width=".808"/>
          </g>
          <g id="ecaille-89" data-name="ecaille">
            <path d="m137.442,286.865c6.304,12.75,14.589,13.345,23.892,7.7.179-.109.169-.381-.018-.514-4.243-3.013-7.625-6.284-8.585-10.281-.052-.215-.29-.331-.466-.222-4.18,2.563-8.872,3.891-14.523,2.902-.239-.042-.409.192-.299.415Z" fill="#fff" stroke="#000" stroke-miterlimit="10" stroke-width=".808"/>
            <path d="m139.419,287.272c5.362,8.083,15.295,9.599,19.539,5.954-2.677-1.587-4.873-4.532-6.638-8.766-.03-.072-.114-.104-.172-.062-3.062,2.198-9.275,3.154-12.729,2.874Z" fill="#fff" stroke="#000" stroke-miterlimit="10" stroke-width=".808"/>
          </g>
          <g id="ecaille-90" data-name="ecaille">
            <path d="m152.549,282.817c-4.243-3.013-7.625-6.284-8.585-10.281-.052-.215-.29-.331-.466-.222-3.418,2.096-7.188,3.341-11.535,3.194-.219.342-.43.689-.637,1.038-.371.629-.725,1.274-1.098,1.907,6.086,9.975,13.782,10.072,22.339,4.878.179-.109.169-.381-.018-.514Z" fill="#fff" stroke="#000" stroke-miterlimit="10" stroke-width=".808"/>
            <path d="m143.554,273.226c-.03-.072-.114-.104-.172-.062-2.798,2.008-8.221,2.976-11.771,2.916-.094.155-.192.309-.284.465-.045.076-.088.153-.132.23,5.464,7.419,14.89,8.746,18.998,5.217-2.677-1.587-4.873-4.532-6.638-8.766Z" fill="#fff" stroke="#000" stroke-miterlimit="10" stroke-width=".808"/>
          </g>
        </g>
        <g id="replisQueue">
          <path d="m186.945,310.969c-4.089,19.99-14.376,33.816-41.851,27.447-7.312,2.039-15.64,7.686-24.295,14.493-1.899,1.493-4.218,2.355-6.631,2.465-3.812.173-7.78-.114-11.874-.768-.758-.121-1.459.42-1.532,1.184-1.639,17.023,9.703,18.76,23.284,17.863,1.011-.067,2.009-.295,2.941-.692,3.786-1.612,7.767-1.348,11.868.066.673.232,1.36.442,2.061.56,14.783,2.494,22.192-4.665,29.709-11.682,12.183-13.692,15.7-31.845,16.319-50.936Z" fill="#fff" stroke="#000" stroke-miterlimit="10" stroke-width=".792"/>
          <path d="m142.924,347.352c10.052,4.583,24.145-.365,39.814-8.218l-1.133,3.686c-14.474,6.76-27.901,10.487-38.936,7.277-1.291-1.498-1.172-2.399.255-2.745Z" fill="#fff" stroke="#000" stroke-miterlimit="10" stroke-width=".792"/>
          <path d="m176.318,353.969c-15.625,6.775-30.428,7.182-43.16-.362-2.995-.153-3.545.901-2.234,2.872,14.876,5.997,29.462,8.5,43.213.894l2.181-3.404Z" fill="#fff" stroke="#000" stroke-miterlimit="10" stroke-width=".792"/>
          <path d="m164.772,367.017c-18.004.701-34.748-1.162-50.252-6.644-2.29.116-3.299.659-1.404,2.17,15.725,4.963,31.824,7.22,48.797,6.691l2.86-2.217Z" fill="#fff" stroke="#000" stroke-miterlimit="10" stroke-width=".792"/>
        </g>
      </g>
    </g>
    <g id="nageoires">
      <g id="NageaoireGauche">
        <path d="m37.264,113.054c-17.117,11.284-27.912,25.434-36.234,42.138-1.705,3.166.852,7.832,5.51,12.542.474.479,1.086.807,1.75.918,4.146.688,8.152,3.501,10.211,7.787.672,1.399,1.439,2.76,2.48,3.912,6.69,7.398,14.816,9.897,20.879,8.108,7.351-.523,12.594-1.085,16-2.894,1.45-2.301,3.38-3.945,5.787-4.936,12.081-17.963,17.264-37.297,12.766-58.553l-39.149-9.021Z" fill="#fff" stroke="#000" stroke-miterlimit="10"/>
        <g id="decorsGaucheNG">
          <g>
            <path d="m58.115,130.015c3.432,8.845,4.579,21.738,5.225,35.518.041.878,1.248,1.073,1.563.252,1.848-4.811,1.273-24.137-2.267-36.46-.104-.362-.447-.597-.823-.577l-2.994.16c-.553.03-.905.59-.704,1.107Z" fill="#fff"/>
            <path d="m58.188,129.987c.635.659.807,1.508,1.085,2.304.798,2.409,1.393,4.882,1.894,7.365,1.629,8.219,2.177,16.762,2.63,25.122,0,0,.033.63.033.63.012.212.027.215.076.291.084.124.336.14.436.047,1.32-3.717,1.096-8.057,1.172-12.043-.103-6.698-.712-13.414-2.015-19.991-.28-1.403-.644-2.896-1.007-4.283-.132-.747-.802-.704-1.425-.638,0,0-1.259.066-1.259.066-.577.074-1.41-.124-1.686.544-.061.178-.149.467.066.586h0Zm-.147.057c.072-.249-.035-.415.081-.643.275-.669,1.11-.47,1.687-.547.419-.025,1.484-.08,1.889-.101.453-.094,1.004.077,1.112.586,0,0,.167.61.167.61l.333,1.22c2.495,10.651,3.763,21.748,2.569,32.671-.095.631-.254,1.301-.452,1.918-.033.171-.18.546-.453.758-.858.723-2.206-.008-2.135-1.061,0,0-.03-.629-.03-.629-.406-8.323-.936-16.826-2.419-25.02-.464-2.465-1.017-4.914-1.773-7.304-.195-.818-.655-1.531-.575-2.458h0Z"/>
          </g>
          <g>
            <path d="m52.318,128.32c1.759,10.448-3,25.155-4.899,40.671-.121.989,1.034,1.402,1.496.535,2.708-5.081,7.118-26.659,5.892-41.015-.036-.422.212-.506-.163-.545l-2.167-.03c-.552-.057-.262-.227-.16.383Z" fill="#fff"/>
            <path d="m52.4,128.306c.512.829.506,1.758.588,2.655.206,2.701.068,5.421-.19,8.109-.906,8.928-3.098,17.632-4.378,26.494-.034.488-.536,3.33-.453,3.723.54,1.186,1.966-3.979,2.15-4.445,3.146-11.568,5.036-23.668,4.546-35.679,0,0-.04-.674-.04-.674.016-.063-.038-.138.053-.193.219-.003.111-.042.146-.067l.018-.082c.069-.136-.096-.183-.198-.181-.091-.049-2.35.022-2.368-.062-.062-.014-.167-.06-.086.03.105.135.051.325.211.371h0Zm-.165.028c.117-.088.04-.146.036-.213-.021-.065-.046-.128-.082-.187-.081-.09.024-.044.086-.03.066.015.134.024.202.032,0,0,2.167.03,2.167.03.102-.002.267.045.198.181,0,0-.018.082-.018.082.023.03-.092.046.119.099.08.056.02.093.044.142,0,0,.056.665.056.665.734,10.303-.529,20.672-2.653,30.751-.702,3.077-1.422,6.178-2.641,9.106-.26.511-.33.994-.917,1.365-1.101.624-2.215-.542-1.916-1.612.046-.388.393-2.885.457-3.337,1.446-10.61,4.552-21.016,4.936-31.743.143-1.809-.344-3.518-.073-5.331h0Z"/>
          </g>
          <g>
            <path d="m45.779,124.48c-4.689,11.284-17.711,23.756-28.677,38.386-.699.933.079,1.891,1.008,1.241,5.443-3.807,22.264-23.319,29.764-38.262.22-.439.491-.407.181-.622l-1.905-1.051c-.456-.317-.097-.351-.371.308Z" fill="#fff"/>
            <path d="m45.863,124.515c-.075,1.103-.583,2.048-1.075,2.972-.354.709-1.117,2.083-1.533,2.756-6.278,10.323-15.724,20.068-23.109,29.608-.808,1.012-1.587,2.065-2.377,3.09-.177.234-.433.508-.332.763.025.034.023.039.106.042,1.525-.891,3.097-2.556,4.445-3.825,9.693-10.095,18.56-21.208,25.339-33.482,0,0,.373-.686.373-.686.037-.065.076-.129.122-.188-.013-.033.112.035.17.06.038.009.028-.02.044-.027,0,0,.064-.074.064-.074.038-.048.105-.095.091-.163-.024-.062-.086-.097-.136-.136-.096-.088-2.062-1.082-2.076-1.189,0,0-.076-.079-.076-.079-.012.021-.003.069-.008.102.007.179-.151.33-.031.457h0Zm-.167-.07c.158-.013.121-.109.157-.172.037-.103.038-.218.05-.318,0,0,.076.079.076.079.027.079,1.968,1.128,2.076,1.189.138.103.195.166.045.3,0,0-.064.074-.064.074-.004.018-.034.015-.016.049.038.05.144.145.112.139-.031.046-.056.096-.08.146l-.359.696s-.72,1.393-.72,1.393c-6.505,11.928-14.857,22.834-24.217,32.665-1.127,1.111-2.24,2.238-3.484,3.234-.47.313-.873.852-1.579.961-.989.163-1.718-.937-1.342-1.814,1.96-3.041,4.571-5.944,6.823-8.807,6.842-8.496,14.542-16.391,20.166-25.779.803-1.289,1.353-2.971,2.356-4.035h0Z"/>
          </g>
          <g>
            <path d="m42.26,121.891c-5.078,7.866-17.216,13.731-27.868,22.166-.679.538-.131,1.63.71,1.415,4.927-1.26,20.962-11.718,28.76-21.669.229-.292.451-.167.216-.461l-1.477-1.578c-.346-.433-.044-.332-.341.127Z" fill="#fff"/>
            <path d="m42.326,121.933c-.14.849-.703,1.44-1.184,2.063-1.48,1.85-3.222,3.48-5.028,4.998-6.634,5.489-14.163,9.734-20.912,15.058,0,0-.459.359-.459.359-.117.096-.126.124-.151.196-.03.247.162.487.465.366,1.281-.357,2.482-.951,3.675-1.548,9.315-5.138,18.139-11.625,25.039-19.776,0,0,.065-.062.065-.062.029-.01.017-.082.154.057.067.008.089-.043.137-.061.114-.061-.004-.179-.05-.243-.104-.145-1.633-1.681-1.64-1.816-.008-.011-.014-.034-.024-.036l-.007.048c-.004.163-.16.258-.081.396h0Zm-.131-.085c.136.013.12-.076.157-.127.034-.074.052-.152.062-.232.01.001.016.025.024.036.032.104,1.516,1.698,1.64,1.816.046.064.164.182.05.243-.035.035-.098.031-.109.099.097.167.05.128.04.149-1.81,2.336-3.827,4.508-5.969,6.542-5.706,5.376-12.037,10.12-18.926,13.88-1.24.639-2.502,1.276-3.853,1.666-.202.07-.591.11-.878-.016-.95-.329-1.121-1.735-.305-2.271,6.868-5.478,14.583-9.842,21.471-15.265,1.802-1.463,3.529-3.022,5.01-4.808.522-.575.856-1.266,1.586-1.713h0Z"/>
          </g>
          <g>
            <path d="m47.797,128.106c-1.128,12.167-9.861,27.943-15.99,45.168-.391,1.098.637,1.782,1.331.886,4.067-5.251,14.339-28.877,17.065-45.373.08-.485.348-.534-.011-.648l-2.131-.438c-.529-.167-.197-.307-.263.404Z" fill="#fff"/>
            <path d="m47.888,128.115c.255,1.076.051,2.128-.144,3.157-.128.782-.448,2.321-.646,3.087-2.931,11.721-9.058,23.831-13.279,35.133-.471,1.206-.902,2.443-1.353,3.656-.1.276-.263.613-.091.828.034.025.034.03.113.008,1.192-1.303,2.199-3.36,3.109-4.972,6.26-12.517,11.428-25.761,14.259-39.495,0,0,.152-.766.152-.766.016-.073.034-.146.061-.216-.022-.027.117,0,.18.007.039-.003.021-.027.034-.039l.039-.089c.022-.057.072-.122.038-.183-.041-.052-.111-.068-.17-.09-.118-.056-2.29-.422-2.336-.519,0,0-.096-.053-.096-.053-.005.024.018.067.022.1.06.168-.047.359.106.446h0Zm-.181-.017c.147-.059.083-.14.099-.211.005-.109-.029-.219-.046-.318,0,0,.096.053.096.053.049.067,2.214.494,2.336.519.06.022.129.038.17.09.042.081-.054.191-.078.273.002.018-.028.024,0,.052.051.037.181.096.148.099-.016.053-.025.108-.033.163l-.137.771c-1.32,7.729-3.64,15.259-6.276,22.633-2.915,7.557-5.804,15.269-10.254,22.08-.673,1.272-2.613,1.071-2.583-.614,3.709-11.444,9.323-22.24,13.313-33.588.847-2.434,1.603-4.943,2.193-7.451.385-1.47.41-3.238,1.052-4.552h0Z"/>
          </g>
        </g>
      </g>
      <g id="nageaoireDroite">
        <path d="m155.052,54.586c34.627,7.978,44.97,19.18,48.744,30.582.628,1.898-.172,4.017-1.933,4.963-5.144,2.76-13.03,3.786-19.364,3.562-13.956-21.776-21.206-31.017-26.766-32.468l-.681-6.638Z" fill="#fff" stroke="#000" stroke-miterlimit="10" stroke-width=".656"/>
        <g>
          <path d="m154.626,56.586c12.583,6.638,22.52,12.572,31.614,18.392.435.278.833.609,1.188.984,1.171,1.236,1.814,1.974-.557,1.479-.678-.142-1.322-.414-1.9-.795-6.928-4.562-18.001-10.483-29.452-16.528l-.894-3.532Z" fill="#fff"/>
          <path d="m154.626,56.586c-.251-.429.34.011.444.084.587.387,1.162.567,1.758.908,9.948,5.248,19.855,10.98,29.351,17.008.721.395,3.75,2.852,2.12,3.296-2.909.185-5.075-2.225-7.491-3.481-2.752-1.678-5.552-3.28-8.366-4.859-2.791-1.552-9.995-5.553-12.719-7.013-1.406-.794-2.877-1.466-4.205-2.409-.152-.584-.341-1.183-.475-1.778,0,0-.418-1.756-.418-1.756h0Zm0,0l.476,1.776c.163.58.274,1.168.419,1.754,1.527.565,2.911,1.403,4.357,2.121,4.17,2.176,8.745,4.551,12.84,6.81,2.827,1.564,5.642,3.152,8.415,4.818,2.261,1.152,4.173,3.235,6.809,3.413.17.039.361-.098.224.047-.528-.779-1.413-1.715-2.308-2.237-8.753-5.655-17.89-11.085-27.04-16.074,0,0-2.117-1.15-2.117-1.15-.546-.266-1.074-.696-1.634-.855-.075-.045-.133-.092-.442-.424h0Z"/>
        </g>
        <g>
          <path d="m164.169,67.458c6.75,5.261,13.106,9.429,17.984,14.043,1.452,1.181.585,2.879-.687,2.486-.364-.112-.709-.328-1.019-.63-3.717-3.615-6.082-6.225-12.225-11.016l-4.053-4.883Z" fill="#fff"/>
          <path d="m164.169,67.458c-.11-.118-.052-.095.005-.06.677.49,1.656,1.191,2.325,1.711,1.441,1.081,5.386,3.976,6.89,5.079,3.058,2.263,6.104,4.565,8.898,7.172.312.237.693.719.783,1.199.29,1.14-.887,2.09-1.928,1.529-.882-.337-4.153-3.972-4.922-4.626-2.548-2.498-5.26-4.823-8.064-7.034-1.171-1.399-2.818-3.594-3.986-4.969h0Zm0,0c1.137,1.403,2.966,3.405,4.137,4.813,2.741,2.092,5.599,4.486,8.16,6.933,0,0,3.852,3.73,3.852,3.73.523.548,1.338,1.227,2.044.72.646-.556.282-1.555-.343-2.013-2.751-2.611-5.769-4.933-8.805-7.221-1.508-1.126-5.399-4.034-6.847-5.14-.696-.532-1.576-1.19-2.199-1.823h0Z"/>
        </g>
      </g>
      <g id="nageaoireDorsale">
        <path d="m132.328,98.543c47.259,34.347,51.407,85.854,24.936,145.064,18.001-16.075,34.592-29.884,35.32-34.059.073-.416.218-.822.5-1.137,21.398-23.892,27.53-41.398,25.64-66.527-.012-.159.005-.324.05-.477,9.019-31.226-6.426-38.824-25.68-46.822-22.276-19.859-42.009-12.071-60.766,3.957Z" fill="#fff" stroke="#000" stroke-miterlimit="10"/>
        <path d="m133.35,99.118c29.126-18.475,45.499-13.26,56.681,1.596,15.85,6.48,27.434,16.337,25.021,37.277-3.501,26.793-9.72,51.092-23.872,68.106-10.48,11.833-24.142,27.681-32.808,35.34,24.137-56.572,21.408-109.418-25.021-142.319Z" fill="#fff" stroke="#000" stroke-miterlimit="10"/>
        <g id="decorNageaoireCentrale">
          <path d="m138.743,103.346c6.14-3.478,13.076-6.549,20.603-9.468.132-.051.086-.249-.055-.236-10.049.913-19.385,2.341-25.09,6.391,1.207,1.335,2.655,2.558,4.542,3.314Z" fill="#fff" stroke="#000" stroke-miterlimit="10"/>
          <path d="m151.126,114.277c9.111-6.626,22.841-10.607,37.11-10.453.232.003.14-.171-.094-.236-15.44-4.297-31.179-2.001-42.25,5.855,1.792,1.425,2.001,4.079,5.234,4.835Z" fill="#fff" stroke="#000" stroke-miterlimit="10" stroke-width="1.309"/>
          <path d="m162.432,129.104c12.104-4.491,31.175-7.458,47.728-4.681.142.024.197-.174.064-.228-17.608-7.103-37.777-7.596-52.32-2.305-.371.135-.476.609-.199.892,1.49,1.522,3.165,3.83,3.472,5.642.096.57.713.882,1.255.681Z" fill="#fff" stroke="#000" stroke-miterlimit="10" stroke-width="1.447"/>
          <path d="m169.078,145.043c10.943-2.504,25.856-2.417,38.665,2.774.11.044.203-.139.107-.211-12.622-9.532-28.928-13.065-42.051-10.158-.335.074.042.45.199.765.846,1.696,2.773,4.474,2.585,6.271-.059.565.005.671.495.559Z" fill="#fff" stroke="#000" stroke-miterlimit="10" stroke-width="1.313"/>
          <path d="m173.307,165.772c8.901-2.611,21.048-2.891,29.996,1.776.077.04.181-.136.121-.203-8.018-8.797-19.966-11.814-30.623-8.774-.272.078-.506.502-.442.798.346,1.595,1.115,3.876.645,5.588-.148.539-.095.931.303.814Z" fill="#fff" stroke="#000" stroke-miterlimit="10" stroke-width="1.122"/>
          <path d="m174.025,183.533c8.12-1.204,17.466-.334,23.127,4.972.048.045.194-.099.168-.166-3.489-8.879-12.151-13.091-21.843-11.726-.247.035-1.849.009-1.899.281-.267,1.469-.186,3.798-.335,5.553-.064.75.418,1.139.782,1.085Z" fill="#fff" stroke="#000" stroke-miterlimit="10" stroke-width=".983"/>
          <path d="m171.83,200.205c5.429-.965,12.251-.292,15.916,3.149.031.029.131-.07.115-.114-2.149-5.876-8.885-8.976-15.364-7.872-.165.028-.396.269-.434.452-.206.989.362,2.869-.312,3.873-.212.316-.164.555.079.512Z" fill="#fff" stroke="#000" stroke-miterlimit="10" stroke-width=".656"/>
          <path d="m167.207,216.874c3.345-.795,7.478-.632,9.585,1.355.018.017.082-.048.074-.075-1.093-3.543-4.46-4.967-8.45-4.048-.102.023-.251.18-.281.295-.162.617-.51,1.517-.958,2.16-.141.202-.12.348.03.313Z" fill="#fff" stroke="#000" stroke-miterlimit="10" stroke-width=".402"/>
        </g>
      </g>
    </g>
    <g id="tete">
      <path id="fondTete" d="m122.541,70.501c4.085,15.404-9.744,26.309-25.532,34.043l-57.362-5.106,2.383-10.213c-2.684-5.625-.399-11.005,2.16-16.37.248-.52.241-1.12.003-1.645-3.546-7.827-2.686-16.542,11.058-27.854.463-.381.736-.942.781-1.541.398-5.258,3.351-10.153,9.115-14.65.634-.494.821-1.396.413-2.089-2.355-3.99.035-7.255,5.407-10.064C81.306-1.397,93.677-3.82,108.073,7.692c5.398,2.666,5.9,6.384,4.27,10.56-.188.481.003,1.185.517,1.24,8.586.923,22.657,11.161,24.977,19.256.139.485.468.891.927,1.101,12.083,5.536,17.297,14.267,17.941,25.124.042.714-.147,1.434-.555,2.021-6.224,8.956-18.193,11.266-32.246,11.165l-1.362-7.66Z" fill="#fff" stroke="#000" stroke-miterlimit="10"/>
      <g id="branchieFond">
        <path d="m42.201,88.713c-3.433,5.665-6.002,11.395-7.149,17.234-.811,2.126-.321,4.73,1.404,7.787,1.121,1.359,3.162,1.792,5.911,1.511.386-.039.664.309.616.694-.227,1.822,1.795,3.319,4.707,4.688,2.713,2.338,5.941,2.838,9.574,1.892.24-.063.499-.01.693.144,5.173,4.104,10.624,5.354,16.542,1.793,1.858-2.552,4.255-3.952,7.66-3.192,3.614.393,4.862-2.546,5.745-6,.251-3.22,2.078-5.029,5.143-5.73.466-.107.897-.354,1.183-.737,7.425-9.962,4.914-17.95-.07-25.448-3.142,7.517-10.078,13.7-25.63,16.852-.864.175-1.752.282-2.634.292-10.182.119-18.056-3.85-23.694-11.783Z" fill="#fff"/>
        <path d="m42.219,89.213c0,.621-.502,1.268-.769,1.769-2.662,4.703-4.86,9.748-5.908,15.061-1.013,2.378.266,5.548,1.3,7.373,1.036,1.261,2.982,1.473,4.582,1.397.556.015,1.178-.249,1.666.17.31.247.445.701.389,1.05.016,2.211,2.793,3.254,4.49,4.173,2.555,2.371,6.192,2.674,9.44,1.789.43-.038.804.212,1.122.475,2.607,2.028,5.812,3.64,9.157,3.565,2.326-.014,4.563-.824,6.554-2.006,0,0-.146.134-.146.134.898-1.229,2.042-2.382,3.517-3.028,1.394-.667,3.381-.683,4.601-.366,1.422.181,2.755-.329,3.565-1.533.82-1.158,1.258-2.632,1.641-4.094-.03-1.187.771-3.364,2.01-4.397.951-.843,2.109-1.351,3.317-1.648.394-.088.619-.177.861-.367,6.563-8.198,6.009-16.662.135-25.102,0,0,.878-.084.878-.084-3.952,10.285-15.136,14.849-25.227,16.567-9.689,1.832-21.719-2.538-27.174-10.899h0Zm-.037-.999c1.059.996,1.782,2.221,2.725,3.286,2.128,2.398,4.601,4.572,7.425,6.116,4.085,2.004,8.656,2.859,13.189,2.824,3.877-.082,7.629-1.532,11.243-2.798,7.139-2.637,13.944-7.242,16.933-14.482,0,0,.379-.866.379-.866,0,0,.499.782.499.782,5.79,8.309,6.713,17.024.472,25.42-.392.712-1.187,1.475-2.061,1.573-2.562.503-4.504,2.553-4.584,5.237-.576,2.245-1.382,5.094-3.778,6.146-.832.343-1.733.406-2.574.304-2.882-.766-5.611.667-7.208,3.083-1.093.64-2.239,1.2-3.455,1.599-4.538,1.541-9.461-.055-13.1-2.898,0,0-.673-.505-.673-.505-.045-.149-.837.165-1.416.23-3.083.62-6.47-.127-8.832-2.256-1.268-.6-4.409-2.064-4.841-4.253-.079-.281-.041-.646-.037-.927-.033-.086-.024-.088-.088-.083-.309.029-.618.054-.93.068-1.93.072-4.062-.157-5.426-1.795-1.372-2.448-2.508-5.429-1.457-8.248.944-4.997,3.315-10.609,5.996-15.28.431-.709.971-1.765,1.602-2.276h0Z"/>
      </g>
      <g id="branchieFilGrp">
        <g>
          <path d="m45.215,92.499c-.064-.044-.152-.027-.189.042-2.215,4.11-3.737,12.152-3.442,12.258s3.365-7.024,6.53-10.109c.057-.056.048-.146-.018-.192l-2.881-1.999Z" fill="#fff"/>
          <path d="m45.001,92.807c.096.09.306.029.354-.082-.063.111-.23.47-.292.591-1.557,3.554-2.591,7.52-3.035,11.322-.023-.016.052.042-.11-.19-.149-.145-.419-.181-.574-.052-.075.059-.004-.002.02-.048l.108-.17.435-.766c1.707-3.079,3.371-6.356,5.871-8.915.139-.166.092.164.285.099.142-.071-.018-.127-.069-.17-.11-.09-.44-.295-.555-.385-.468-.271-1.008-.808-1.524-.965-.314-.074-.667-.093-.911-.268h0Zm.427-.616c.25.167.391.491.57.76.676.673,1.397,1.043,2.239,1.611.136.042.178.382.068.468-2.401,2.561-3.929,5.734-5.576,8.826-.302.464-.774,1.913-1.5,1.261-.194-.26-.144-.341-.161-.492.516-4.161,1.699-8.273,3.515-12.052.137-.361.47-.63.846-.381h0Z"/>
        </g>
        <g>
          <path d="m50.038,96.411c-.017-.01-.038-.009-.052.005-3.218,2.984-2.657,16.914-2.529,16.914.123,0,2.516-10.331,6.002-14.395.165-.192.095-.486-.145-.568l-3.275-1.956Z" fill="#fff"/>
          <path d="m49.845,96.733c.133.101.354.011.389-.036,0,0-.039.043-.039.043-1.732,2.085-1.881,5.031-2.235,7.631-.266,2.928-.353,5.899-.183,8.83.022.116-.025-.164-.177-.192-.155-.04-.346-.073-.413.084,0,0,.03-.098.03-.098.046-.141.327-1.091.377-1.259,1.375-4.352,2.712-8.938,5.502-12.621.167-.238.44-.418.171-.61-.525-.382-.998-.846-1.611-1.081-.588-.243-1.261-.354-1.809-.69h0Zm.385-.644c1.076.802,1.793,1.754,3.156,2.154.131.002.422.315.313.595-3.029,4.115-4.395,9.221-5.759,14.097,0,0-.075.262-.075.262l-.048.155c-.084.176-.265.4-.514.273-.145-.058-.21-.289-.198-.281-.236-3.016-.117-6.035.134-9.042.36-2.75.537-5.902,2.434-8.098.076-.115.364-.257.558-.114h0Z"/>
        </g>
        <g>
          <path d="m55.445,99.37c-.122-.005-.233.071-.26.19-1.187,5.121,1.845,18.076,2.057,18.044.69-.103.68-13.349,1.901-17.775.043-.157-.068-.305-.23-.312l-3.467-.147Z" fill="#fff"/>
          <path d="m55.429,99.745c.036.004.093-.021.118-.082,0,0-.031.17-.045.247-.64,5.762.738,11.82,2.128,17.403.076.178-.059-.177-.277-.187-.222-.017-.213.011-.274.018-.257.17-.141.125-.168.127.932-5.731.506-11.782,1.865-17.504.013-.038.037-.03.058-.013.036.01.077.011.113-.001.075-.021.138-.113.11-.166-.058-.114-.354-.054-.452-.08,0,0-.632-.028-.632-.028-.858-.161-1.709.238-2.544.266h0Zm.032-.749c.83.098,1.644.569,2.512.48.207.009.748.03.948.039.229.063.566.111.571.448-.06.257-.178.784-.224,1.053-.941,5.429-.621,10.956-1.407,16.43-.076.203-.062.379-.416.59-.082.024-.095.076-.332.024-.209-.03-.375-.344-.335-.287-.84-2.039-3.819-18.506-1.316-18.776h0Z"/>
        </g>
        <g>
          <path d="m62.21,100.505c-.158-.002-.293.117-.296.275-.105,5.675,5.266,18.056,5.467,17.982.658-.241-1.45-13.055-1.099-17.902.012-.165-.114-.298-.279-.3l-3.792-.055Z" fill="#fff"/>
          <path d="m62.205,100.88c.024,0,.054-.01.075-.047.01.004.013-.092.013-.008,0,0,.003.156.003.156.468,6.058,2.944,11.891,5.397,17.394.1.161-.035-.056-.163-.08-.225-.082-.469.06-.532.193-.034-5.526-1.218-11.104-1.133-16.686.029-.303-.023-.697.073-.962.05.033.174-.051.13-.16-.075-.206-.445-.097-.608-.128-.414-.007-1.522-.021-1.95-.028,0,0-.65-.009-.65-.009-.215-.106-.439.376-.655.366h0Zm.011-.75c.217-.004.426.484.645.384.407.006,1.527.022,1.95.028.418-.026.939.094,1.337-.061.16-.032.428.092.479.343.046.175.012.23.015.351-.096,5.639,1.066,11.172,1.343,16.826-.02.285.048.646-.186,1.014-.18.284-.643.283-.836.005-.18-.26-.417-.795-.554-1.087-2.213-5.426-4.536-11.04-4.87-16.953-.06-.416.197-.864.678-.852h0Z"/>
        </g>
        <g>
          <path d="m70.522,100.017c-.149.05-.245.194-.22.348.896,5.621,8.668,17.558,8.853,17.45.601-.351-4.46-13.627-5.057-18.587-.024-.203-.223-.332-.417-.267l-3.158,1.056Z" fill="#fff"/>
          <path d="m70.64,100.373c1.58,5.842,5.247,11.859,8.772,17.029,0,0,.03.035.03.035,0,0,.007.009.007.009-.039-.041-.12-.099-.224-.115-.231-.045-.463.138-.503.294-1.329-6.137-4.052-12.078-4.995-18.352.018.033.07.002.051-.038-.139-.016-.45-.009-.661.002-.962.007-1.629.845-2.476,1.137h0Zm-.238-.711c.852-.278,1.89-.008,2.662-.582.218-.128.331-.279.626-.418.329-.116.738.159.774.514,1.027,6.356,3.895,12.175,5.214,18.478.025.544-.584.908-1.003.365-3.441-5.137-6.795-10.717-8.559-16.676-.114-.544-.47-1.41.286-1.682h0Z"/>
        </g>
        <g>
          <path d="m76.336,98.31c.046,4.376,10.895,13.241,10.979,13.146.082-.092-6.062-8.736-6.79-14.04-.034-.251-.301-.393-.521-.268l-3.668,1.163Z" fill="#fff"/>
          <path d="m76.64,98.529c.727,2.547,2.532,4.664,4.328,6.608,2.006,2.144,4.15,4.203,6.457,6.018-.13-.113-.557.12-.438.343,0,0-.067-.109-.067-.109-.425-.681-1.377-2.215-1.807-2.92-2.024-3.468-4.113-7.1-4.82-11.092-.045-.072-.138-.091-.206-.041-1.145.179-2.574.453-3.448,1.195h0Zm-.607-.44c1.195-.139,2.056-.235,3.024-.713.511-.23,1.141-.809,1.587-.227.972,4.65,3.57,8.81,6.097,12.797.137.213.662,1.018.792,1.233.207.342-.051.764-.449.512-3.163-2.492-11.348-9.449-11.052-13.601h0Z"/>
        </g>
        <g>
          <path d="m84.405,95.229c.249,3.689,8.156,6.719,8.21,6.603.052-.112-4.607-4.898-5.372-9.091-.036-.198-.227-.209-.372-.012l-2.466,2.5Z" fill="#fff"/>
          <path d="m84.757,95.36c.423,1.668,1.813,2.813,3.201,3.756,1.4.944,2.932,1.75,4.515,2.35,0,0,.138.044.138.044l.019.006c-.005,0,.019.003-.011,0-.244-.039-.419.309-.307.428-2.165-2.662-4.634-5.771-5.257-9.159.087.017.021-.006-.042.086-.903.619-1.89,1.45-2.256,2.49h0Zm-.703-.261c1.203-.615,2.036-1.519,2.657-2.487.136-.268.663-.356.74.103.809,3.445,3.124,6.181,5.372,8.847.168.203.134.611-.264.591-.051.003-.235-.062-.29-.075-2.816-1.055-8.106-3.53-8.215-6.979h0Z"/>
        </g>
        <g>
          <path d="m89.846,91.212c.634,2.577,5.162,2.704,5.174,2.607.012-.094-3.066-2.317-4.038-5.122-.046-.133-.146-.091-.195.088l-.941,2.428Z" fill="#fff"/>
          <path d="m90.22,91.236c.686,1.668,3.014,2.155,4.665,2.226-.256.052-.331.432-.166.583-1.631-1.425-3.222-3.096-3.959-5.184-.058-.189-.045.045.193.016.18-.096.067-.057.083-.025-.064.214-.182.398-.371.574-.451.472-.554,1.209-.445,1.81h0Zm-.748-.048c.54-.601.963-1.087.966-1.831-.038-.202.047-.57.099-.641.056-.091-.011-.206.302-.353.245-.042.356.152.374.2.162.396.345.814.572,1.177.858,1.448,2.105,2.593,3.382,3.686.124.094.237.258.231.423.009.105-.172.336-.336.353-2.166.008-4.965-.562-5.589-3.014h0Z"/>
        </g>
      </g>
      <g id="oeuil">
        <ellipse cx="73.158" cy="50.288" rx="6.574" ry="6.766" fill="#fff" stroke="#000" stroke-miterlimit="10"/>
        <ellipse cx="72.116" cy="48.82" rx="2.021" ry="1.447" transform="translate(-11.593 72.837) rotate(-50.105)" fill="#fff" stroke="#000" stroke-miterlimit="10"/>
        <path d="m69.988,44.203c2.399-3.355,7.312-4.127,12.17.213" fill="none" stroke="#000" stroke-miterlimit="10"/>
        <path d="m67.451,52.418c.297,2.951.893,6.229,4.115,6.901.463.023.81.659,1.232.777,1.677.505,3.357-.068,4.874-.652,1.265-.755,2.945-1.247,3.956-2.403.565-.772.968-1.606,1.325-2.477.619-1.734.528-3.665.537-5.615l.999-.045c.217,2.377.208,5.341-1.488,7.353-1.114,1.014-2.477,1.74-3.819,2.372-.413,1.166-1.593,2.028-2.852,2.193-1.236.167-2.386-.473-3.532-.682-.443.094-.984.632-1.494.441-1.534-.233-3.016-1.098-3.83-2.455-1.045-1.742-1.17-3.762-1.021-5.691,0,0,1-.017,1-.017h0Z"/>
      </g>
      <g id="barbiche">
        <g>
          <path d="m67.392,20.501c-4.64-.648-7.925-3.07-9.521-6.34-.424-2.855.754-2.822,2.473-2.027.732,2.499,6.016,6.375,7.644,6.41l-.596,1.957Z" fill="#fff"/>
          <path d="m67.392,20.501c-4.064-.096-8.134-2.507-10.006-6.184-.47-2.565.573-3.948,3.168-2.636,0,0,.204.092.204.092.785,2.349,3.051,4.124,5.009,5.571.701.495,1.437.834,2.22,1.2,0,0-.596,1.957-.596,1.957h0Zm0,0l.596-1.957c-.904.17-1.702-.422-2.47-.796-2.238-1.405-4.577-2.919-5.653-5.473,0,0,.27.313.27.313-.339-.155-.683-.295-1.002-.369-1.164-.351-.812,1.161-.766,1.868.001.002-.049-.155-.044-.143,1.389,3.08,4.39,5.282,7.643,6.129.459.112.953.234,1.427.428h0Z"/>
        </g>
        <g>
          <path d="m49.216,16.124c4.435,6.415,10.276,8.487,17.112,7.483l-.979,3.532c-5.569-.252-11.148-.562-18.043-8.255-1.385-1.972-1.292-3.002-.319-3.471.79-.38,1.729-.011,2.228.711Z" fill="#fff"/>
          <path d="m49.627,15.839c2.722,4.018,6.933,6.984,11.809,7.425,1.597.165,3.22.102,4.824-.122l.716-.1c-.094.267-.233.868-.321,1.13-.019.314-.44.359-.633.538,0,0-.061.221-.061.221-.079.289-.523,1.885-.612,2.207-5.17.264-10.502-1.042-14.576-4.408-1.734-1.527-3.699-2.954-4.696-5.097-1.262-2.522,2.054-3.935,3.55-1.795h0Zm-.823.569c-.756-1.172-2.699-.716-1.901.884.118.385.597,1.097.723,1.305,2.244,2.526,4.795,4.835,7.836,6.319,3.057,1.551,6.546,1.901,9.887,2.223,0,0,.489-1.766.489-1.766.042-.146.143-.521.183-.662-.064-.177-.225-.38-.304-.56.009-.151.111-.51.157-.669,0,0,.52.59.52.59-7.021,1.301-13.72-1.696-17.592-7.663h0Z"/>
        </g>
        <g>
          <path d="m107.371,13.107c4.935-.315,8.468-4.614,11.745-9.638.537-3.086-.15-3.578-1.628-2.394-3.041,4.738-6.304,8.606-10.947,7.085l.83,4.947Z" fill="#fff"/>
          <path d="m107.371,13.107c.248-.131.377-.176.521-.199,2.398-.364,4.481-1.77,6.144-3.487,1.795-1.86,3.255-4.03,4.661-6.225,0,0-.074.187-.074.187.11-.817.319-1.733.04-2.398-.202.01-.572.245-.862.48,0,0,.108-.12.108-.12-2.388,3.584-6.434,9-11.368,6.815,0,0,.83,4.947.83,4.947h0Zm0,0l-.83-4.947c1.175.169,2.331.278,3.428-.082,3.381-1.141,5.285-4.505,7.141-7.342.377-.281.682-.563,1.276-.719,1.927-.267,1.38,2.506,1.206,3.637-2.678,3.939-6.938,9.733-12.221,9.452h0Z"/>
        </g>
        <g>
          <path d="m108.296,16.841c1.48-3.113,4.476-5.819,8.553-8.234,5.642-1.748,10.95-1.44,15.938.832.223.101.425.251.589.432,1.083,1.194,1.612,1.958-.767,1.883-.268-.008-.535-.081-.78-.19-3.908-1.738-8.092-1.68-12.491-.212-3.219,1.536-5.766,4.51-7.892,8.385-.12.219-.419.255-.583.067l-2.567-2.962Z" fill="#fff"/>
          <path d="m108.296,16.841c.058-1.023.721-1.959,1.353-2.74,1.927-2.409,4.462-4.283,7.096-5.828,4.816-1.568,10.189-1.554,14.92.336,1.135.383,2.048.874,2.7,1.96,1.093,1.646-1.644,1.735-2.612,1.311-3.834-1.811-8.466-1.561-12.291-.27-3.052,1.434-5.33,4.103-7.081,6.93-.182.266-.564,1.079-.851,1.273-.184.15-.387.145-.544.091-.942-.982-1.791-2.047-2.69-3.064h0Zm0,0c.902,1.014,1.767,2.081,2.698,3.046.454.157.288-.44.517-.676,1.833-3.283,4.264-6.44,7.718-8.125,4.074-1.445,8.774-1.63,12.773.203.522.221,1.342.181,1.855.033.128-.062.107-.057.106-.078-.106-.385-.5-.773-.791-1.108-4.783-2.847-10.984-2.788-16.219-1.196-2.58,1.551-5.869,3.898-7.654,6.758-.255.367-.691.814-1.003,1.142h0Z"/>
        </g>
      </g>
      <g id="decorTete">
        <g>
          <path d="m85.35,16.65c-3.819,6.75-9.197,8.886-17.094,9.391-1.8.115-3.51.867-4.783,2.145-1.435,1.442-2.838,3.43-4.23,5.602" fill="#fff"/>
          <path d="m85.386,16.67c-1.772,5.297-7.816,8.459-13.052,9.197-2.71.532-5.639-.001-7.85,1.693-2.155,1.629-3.7,4.02-5.241,6.227.715-1.17,1.454-2.326,2.26-3.44,1.538-2.28,3.762-4.392,6.682-4.533,4.007-.335,8.206-1.042,11.556-3.361,1.106-.757,2.109-1.659,2.989-2.673.827-.808,1.66-2.65,2.656-3.111h0Z"/>
        </g>
        <g>
          <path d="m100.084,12.479c2.481-.191,6.608,2.721,11.447,6.979,7.775.992,14.567,5.069,20.638,11.404,4.746,4.595,7.277,9.412,7.872,14.426" fill="#fff"/>
          <path d="m100.084,12.479c2.364-.487,4.495,1.19,6.398,2.335,1.904,1.293,3.681,2.742,5.379,4.268,0,0-.267-.12-.267-.12,6.915.787,13.277,4.282,18.337,8.947,4.657,4.473,10.028,9.869,10.043,16.744.014.162.027.317.046.477.01.026-.01.055.024.077.053.02.19.03.493.022,0,0-.993.118-.993.118.295-.061.425-.104.47-.136.026-.03,0-.053.001-.081,0,0-.028-.157-.028-.157-.979-3.074-2.112-6.178-3.98-8.848-1.874-2.759-4.369-5.09-6.829-7.384-4.982-4.535-11.128-7.936-17.861-8.807-3.492-2.813-6.773-6.312-11.234-7.454h0Z"/>
        </g>
        <path d="m122.815,70.045c2.813,6.718.802,14.421-4.507,19.296-2.189,3.445-5.618,7.301-9.188,9.945-3.655,2.759-7.853,4.756-12.225,6.056,0,0-.283-.959-.283-.959,4.282-1.256,8.355-3.213,11.938-5.863,3.607-2.645,6.675-5.995,9.171-9.723,1.229-1.197,2.358-2.498,3.275-3.938,1.861-2.851,2.663-6.287,2.379-9.675-.087-1.709-.576-3.347-.768-5.078l.208-.06h0Z"/>
        <g>
          <path d="m58.669,78.309c-6.344-.554-11.973-2.441-15.128-8.936-1.612-4.873-1.737-9.347.638-13.149" fill="#fff"/>
          <path d="m58.669,78.309c-3.16.513-6.336-.492-8.909-2.285-.384-.208-.876-.635-1.255-.725-.135.028-.293.085-.442.125-.313.098-.399-.131-.576-.226-3.797-2.93-5.361-7.85-5.447-12.504-.026-2.316.534-4.68,1.716-6.734l.848.53c-1.251,1.794-1.872,3.992-1.913,6.21-.071,2.167.487,4.61,1.11,6.548,1.004,2.057,2.649,3.627,4.381,5.042,0,0,.214.176.214.176.303.176-.01.821.385.942,3.043,1.781,6.608,1.666,9.888,2.902h0Z"/>
        </g>
        <g>
          <path d="m75.775,77.139c3.356.208,5.923-1.212,7.66-4.34" fill="#fff"/>
          <path d="m75.775,77.139c2.358-.272,4.296-1.195,5.704-2.987.543-.491.735-1.162,1.956-1.353.459,1.168-.237,1.791-.742,2.455-1.701,1.831-4.611,2.553-6.917,1.885h0Z"/>
        </g>
        <g>
          <path d="m81.903,68.798c-1.076,2.523-2.663,4.348-5.404,4.596" fill="#fff"/>
          <path d="m81.903,68.798c.347,2.456-2.948,5.783-5.404,4.596,1.044-.868,2.028-1.043,2.911-1.969.974-.793,1.37-1.872,2.493-2.627h0Z"/>
        </g>
        <g>
          <path d="m65.562,62.543c.845,1.294,1.978,2.138,3.383,2.553" fill="#fff"/>
          <path d="m65.597,62.52c1.18.94,2.23,1.697,3.34,2.603-1.511.046-3.092-1.04-3.41-2.558,0,0,.07-.046.07-.046h0Z"/>
        </g>
        <g>
          <path d="m82.03,35.862c-1.345,1.841-.306,3.354,1.787,4.723" fill="#fff"/>
          <path d="m82.03,35.862c-.708,2.045.525,3.196,1.787,4.723-2.108-.392-4.08-3.226-1.787-4.723h0Z"/>
        </g>
        <g>
          <path d="m86.02,11.926l1.207.977c.085.069.149.167.156.276.056.786-.586,1.704-1.491,2.672" fill="#fff"/>
          <path d="m86.02,11.926c3.409.688,1.322,2.44-.128,3.926.273-.316.527-.652.73-1.015.194-.359.402-.741.346-1.143-.019-.193-.064-.351-.082-.478.003.064.03.078.037.065-.381-.38-.701-.789-.903-1.354h0Z"/>
        </g>
        <g>
          <path d="m97.222,9.644l-.667,1.105c-.092.153-.035.352.125.432l2.433,1.224" fill="#fff"/>
          <path d="m97.266,9.671c.072.541-.048.933-.261,1.327.024-.028.006-.175-.077-.198-.148-.052.293.255.321.283,0,0,1.864,1.322,1.864,1.322l-2.173-.708c-.265-.099-.389-.05-.67-.252-.692-.693.152-1.555.908-1.827,0,0,.088.053.088.053h0Z"/>
        </g>
      </g>
    </g>
  </g>
</svg>