<?xml version="1.0" encoding="UTF-8"?>
<svg id="Calque_2" data-name="Calque 2" xmlns="http://www.w3.org/2000/svg" viewBox="0 0 263.801 317.495">
  <g id="dragon">
    <g id="fleche2">
      <path d="m27.984,167.877c-.49.891-2.044,3.804-3.286,3.097-3.918-3.906-7.368-8.237-10.949-12.447,0,0,.384-.32.384-.32,2.423,2.827,7.832,9.433,10.307,12.042.28.245.491.668.904.444,1.094-.641,1.838-1.829,2.639-2.815h0Z"/>
      <path d="m29.804,165.962c.667-.622,2.718-2.008,1.521-2.864-4.611-3.19-10.318-5.926-14.897-8.538-.513-.067-1.22-.003-1.362.33l-.46-.197c.19-.409.6-.556.915-.611.356-.051.718-.082,1.061.01,3.126,1.685,6.224,3.417,9.286,5.214,1.986,1.223,4.098,2.301,5.888,3.818.805,1.164-1.102,2.377-1.952,2.838h0Z"/>
      <path d="m21.752,162.661c.103.328.191.658.313.969.125.305.26.656.646.517.619-.09,1.429-.234,1.852-.689.078-.075-.052-.246-.076-.424l-.109-.504c-.11-.391-.171-1.163-.683-1.15-.462.167-.952.347-1.434.457,1.682-1.159,1.999-.678,2.42,1.151.327.737-.448.852-.953.984-.43.09-.838.205-1.266.297-.303,0-.458-.346-.552-.578-.072-.23-.295-.902-.158-1.03h0Z"/>
      <path d="m27.123,160.122s2.487-3.02,2.936-3.447c.436-.415,1.774-.701,1.713-1.223-9.851-3.574-30.901-10.665-30.901-10.665-.329-.114-.621.246-.441.545l17.255,28.606c.118.196.412.165.479-.055.48-1.583,1.884-5.982,2.927-6.868" fill="none" stroke="#000" stroke-miterlimit="10" stroke-width=".75"/>
      <polyline points="30.843 165.258 66.218 190.808 68.612 200.59 26.392 170.088" fill="none" stroke="#000" stroke-miterlimit="10" stroke-width=".5"/>
      <path d="m158.516,250.303l15.602,8.833c.273.155.381.493.249.777l-.873,1.879s-1.915-.851-2.043.298.383,2.213.383,2.213l-.291.707c-.161.392-.631.553-.999.343l-10.497-5.987" fill="none" stroke="#000" stroke-miterlimit="10" stroke-width=".5"/>
      <path d="m155.867,245.143s6.128,0,6.543-.479c.308-.355-1.319.644-2.178,1.182-.186.116-.136.397.079.441,1.255.257,4.141.799,4.589.451.574-.447,8.617,4.34,8.617,4.34,0,0-3.734,2.074-4.181,2.011s4.372.638,5.074.223c.574-.339,3.989,2.183,5.213,3.112.168.127.101.39-.107.426-1.649.279-6.483,1.123-6.51,1.441-.032.383-14.681-8.17-14.681-8.17" fill="none" stroke="#000" stroke-miterlimit="10" stroke-width=".25"/>
      <polyline points="170.389 265.601 168.761 267.899 163.24 268.665 160.75 267.516 160.378 266.143 158.261 266.941" fill="none" stroke="#000" stroke-miterlimit="10" stroke-width=".25"/>
    </g>
    <g id="fleche_1" data-name="fleche 1">
      <path d="m54.905,23.033c2.058,6.286,5.129,15.473,7.083,21.695,0,0-.372-.35-.372-.35,3.061.586,6.649,1.202,9.42-.622,0,0,.067.074.067.074-2.597,2.504-6.724,2.12-10.01,1.487,0,0-.09-.29-.09-.29-.965-3.158-2.189-7.757-3.125-10.974,0,0-3.069-10.991-3.069-10.991l.096-.029h0Z"/>
      <path d="m57.793,20.814c.345-.069,1.203-.247,1.535-.321,0,0,.26-.051.26-.051.113-.039.198.023.26-.137.041-.13.085-.396.134.026.028.219-.038.195.132.201.598.049,1.237.105,1.765.409-.303-.173-.654-.221-.995-.236-.281-.016-.585-.008-.867.011-.039-.021-.018.119-.03.197-.037.423-.08.158-.125.029-.044-.113-.087-.101-.129-.106-.642-.076-1.297-.104-1.939-.023h0Z"/>
      <path d="m62.682,21.866c3.73,4.13,7.517,8.346,11.083,12.626.3.421.722.911.953,1.385.243,1.211.073,2.106-.093,3.242-.22,1.001-.406,2.149-1.225,2.86,0,0-.066-.075-.066-.075.532-.829.534-1.897.597-2.861.006-.866.061-2.059-.155-2.828,0,0-3.608-4.707-3.608-4.707l-7.563-9.577.076-.065h0Z"/>
      <path d="m53.198,51.917c-.096.024-.205.108-.254.201-.041.081-.004.009-.01.02.016-.032.057-.112.073-.144,0,0,.098-.191.098-.191.336-.665,1.058-1.959,1.432-2.629,1.752-2.85,3.285-6.2,6.213-8.024.133-.072.081-.046.071.055-.978,4.58,4.035,4.757,7.203,3.864,4.915-1.017,8.401-5.349,5.123-10.025-.067-.162-.227-.333-.261-.513,0-.039-.06-.151.098-.286.153-.073.184-.029.238-.03,2.962-1.451,7.68-2.587,11.539-2.066,0,0-.161.002-.161.002.082-.015.137-.045.128-.041-.015.005-.027.067-.021.024-.603-1.578-2.183-2.764-3.371-3.968C70.69,18.645,56.065,8.823,45.424.998c.1-.009.258-.09.314-.234,0,0-.268.258-.268.258-.527,1.71-.426,4.074-.408,6.038.2,6.643.925,13.273,1.819,19.859.615,4.393,1.335,8.775,2.267,13.104.72,3.219,1.471,6.464,2.767,9.492.406.857.804,1.769,1.556,2.352,0,0,.031.022.031.022-.056-.062-.241-.036-.303.029h0Zm.338.941c-5.302-.97-8.682-33.266-9.107-39.089-.225-4.193-.778-8.472-.039-12.645.159-.412.172-.747.703-1.029,0,0-.267.257-.267.257.096-.233.35-.346.541-.352.29.004.339.018.502.144l10.494,7.475c9.529,7.085,19.541,13.717,27.972,22.137.6.767,1.992,2.096,1.046,3.111-.261.2-.518.291-.772.272-3.81-.676-7.803.122-11.477,1.497l-.004-.034c-.001-.009-.032.017.069-.026.105-.101.058-.141.068-.128.003.019.023.072.046.117l.155.298c1.385,2.2,1.74,5.159-.142,7.186-2.489,3.428-13.807,6.171-12.603-.861,0,0,.071.055.071.055-1.949,1.14-3.036,3.319-4.16,5.204-1.035,1.918-1.945,3.916-2.733,5.948-.077.221-.147.366-.364.464h0Z"/>
      <path d="m64.37,45.471c.866.741,1.607,2.173,2.17,3.118,8.892,14.901,24.601,38.798,34.056,53.656,0,0-.467-.227-.467-.227,3.291.279,6.873-1.951,7.779-5.19.698,2.474-34.383-56.961-34.268-56.351,0,.002.912-.114.905-.107-.651.383-.772.824-1.088,1.259-.885,1.251-2.115,2.26-3.512,2.883-1.647.724-3.475.971-5.262,1.115-.166.04-.181-.024-.314-.155h0Zm-.835-.55c.676-.157,1.303.026,1.946.151,2.499.407,5.216-.429,6.928-2.326.34-.376.641-.784.902-1.215.231-.423.596-.884.282-1.463l.354-1.023.551.914,34.274,56.847s.122.389.122.39c-2.362,2.724-5.247,4.659-8.672,5.816,0,0-.3.033-.3.033l-.167-.26c-8.48-13.295-23.819-36.828-31.895-50.047-1.209-2.16-3.583-5.549-4.326-7.818h0Z"/>
      <path d="m146.243,154.276c.093.131,40.135,56.557,40.221,56.678-.615,4.507-3.404,7.918-8.095,8.333-3.644-2.879-6.233-6.675-9.099-10.244-8.106-10.647-15.524-21.817-23.307-32.68l-.106-.147.012-.189c.077-6.36-1.574-12.723-2.882-18.927,0,0-.071-.304-.071-.304,1.061-.89,2.222-1.748,3.327-2.52h0Zm-.134.991c-.78.76-1.508,1.449-2.318,2.104l.17-.502c.735,3.155,1.389,6.317,1.95,9.506.52,3.238,1.115,6.414.956,9.737,0,0-.093-.336-.093-.336,5.207,7.259,10.213,14.632,15.393,21.886,3.888,5.426,7.784,10.857,12.049,15.989,1.436,1.672,2.893,3.394,4.562,4.722l-.302-.101c2.966.595,6.036-1.326,6.756-4.281.279-.933.365-1.962.234-2.878l.092.288-39.446-56.133h0Z"/>
      <path d="m158.133,170.771s5.191,2.128,8,1.362c2.245-.612-.427.807-1.59,1.402-.165.085-.133.328.048.37l11.585,2.654s.511,3.064-2.128,3.66c1.229-.069,6.138.826,7.928,1.162.154.029.154.247.001.283l-5.291,1.278,5.957,1.213,9.094,11.31c.384.477.057,1.186-.555,1.199-2.926.063-9.221.326-10.582,1.427-1.447,1.171,4.412,1.06,6.697.975.295-.011.431.358.2.542-.847.675-2.393,1.747-4.089,2.143-2.105.491,6.202.867,9.184.983.687.027,1.191.539,1.843.756,1.165.388,5.777,5.488,5.91,7.878.17,3.064-12.085-2.553-13.532-1.106s-28.681-39.489-28.681-39.489Z" fill="none" stroke="#000" stroke-miterlimit="10" stroke-width=".5"/>
      <path d="m147.878,178.473s1.787,14.979,1.277,17.106,1.872-1.872,1.872-1.872c0,0,.936,6.894.851,8.596s2.043,3.83,2.553,3.915,4.596-3.404,4.596-3.915-.681,6.383-1.191,7.149,5.277-2.383,5.191-2.979-.936,5.277-1.787,5.702,2.723,6.894,4,7.064,3.574-2.894,3.404,3.83c3.489,5.106,6.043,5.617,6.043,5.617,0,0,.388-10.904,2.229-11.309.266,1.904-29.037-38.904-29.037-38.904Z" fill="none" stroke="#000" stroke-miterlimit="10" stroke-width=".5"/>
      <path d="m66.79,37.211c.867-.726,1.377.504,1.771,1.104.163.241.092.651-.154.81-.497.476-1.661.12-2.211-.179-.192-.178-.507-.328-.419-.849l.438.236c-.24.253.401.79.718.856.235.082.485.13.734.148.299.021.35-.253.541-.435.158-.151.26-.284.209-.535-.12-.386-.525-.944-.859-1.132-.194-.086-.405.052-.515.207l-.253-.231h0Z"/>
      <path d="m105.41,91.218s1.851-3,2.872-1.787-.638,1.404,1.085,1.66,2.872-.702,1.723-1.085-2.745.128-1.149-.766,2.681-1.723,3.319-1.277.766-.255,2.426-.128,1.787-.894,1.851.319-1.021,1.532.128,1.723,1.468-.766,1.596.255.957,1.787-.702,3.064-2.745.894-2.617,1.915.894,4.213-.064,4.404-.128.319-1.596.383-1.915.191-1.915.191c0,0,1.149.702.383,2.106s.319,2.17-1.66,1.979-2.809-.128-2.553-.957,1.851-1.723.702-1.851-2.234.447-2.681.83.064-.574-.511.83.128,1.851-1.404,1.979-2.426-.766-2.617.191,1.404.957-.447,2.106-.128,1.787-2.617,1.532-2.489.511-3.255-.83-1.596-1.213-1.596-1.213c0,0-.957.894-1.277.894s-.511,1.532-1.915.064-1.468-2.17-.191-2.745,2.745-.766,1.723-1.213-.83,1.277-1.851-.766-1.915-1.66-.702-2.362,1.66-.255,2.17-.894-.83-.766-.383-1.596.255-.894,1.34-1.277,2.936-.766,2.936-.766" fill="none" stroke="#c4c4c4" stroke-miterlimit="10" stroke-width=".25"/>
      <path d="m94.24,101.909c3.2,1.096,6.68,1.089,9.711-.486,2.947-1.389,5.819-4.091,5.416-7.621.327.802.269,1.721.031,2.55-1.881,5.239-10.351,8.747-15.159,5.556h0Z"/>
    </g>
    <g id="mains">
      <path d="m88.601,83.962c-1.872,1.191-29.702,19.957-29.702,50.426" fill="none" stroke="#000" stroke-miterlimit="10"/>
      <path d="m92.569,71.347c2.601-7.261,8.142-13.014,14.073-17.726.999-.779,2.01-1.541,3.053-2.263,1.07-.69,2.016-1.567,3.439-1.662-.68,1.278-1.87,1.728-2.839,2.508-6.872,5.162-13.425,11.433-16.786,19.483,0,0-.94-.341-.94-.341h0Z"/>
      <g id="doigts_1" data-name="doigts 1">
        <path d="m41.612,181.007c-3.901,14.064-2.46,19.237.351,19.381" fill="none" stroke="#000" stroke-miterlimit="10"/>
        <path d="m65.282,127.877c-3.574,5.106-17.702,16.17-19.234,16.34s-9.702,6.979-3.574,27.915c-.041.466-.027.98-.124,1.378" fill="none" stroke="#000" stroke-miterlimit="10"/>
        <path d="m44.346,195.282s-2.383,7.66-6.638,8,.17,18.894,1.532,20.426c1.313,1.477-4.316,11.398.197,29.039.321,1.255.927,2.434,1.765,3.422,8.627,10.163,6.76,10.503,9.612,11.623,2.213,1.872,2.766,3,3.957,2.489" fill="none" stroke="#000" stroke-miterlimit="10"/>
        <path d="m124.655,269.909c-.682,3.07.24,5.999,3.266,7.245" fill="none" stroke="#000" stroke-miterlimit="10"/>
        <path d="m137.94,286.827c4.653-3.227,6.043-3.662,7.938-8.907" fill="none" stroke="#000" stroke-miterlimit="10"/>
        <path d="m56.325,263.814c-.83,5.021-3.83,10.021-.83,15.021,7,8,16,12,25,17,7,5,14.606,14.386,24.319,9.947" fill="none" stroke="#000" stroke-miterlimit="10"/>
        <path d="m116.389,276.303c1.587-1.29,3.15-3.536,8.426-3.021" fill="none" stroke="#000" stroke-miterlimit="10"/>
      </g>
      <g id="DOIGTS_2" data-name="DOIGTS 2">
        <path d="m75.474,131.111s7.723,3.383-1.213,12.383c0,0-11.617,4.213-11.426,14.362s-3,8.936.702,21.894,5.809,27.191,8.17,29.553" fill="none" stroke="#000" stroke-miterlimit="10"/>
        <path d="m73.24,202.345c1.021,3.957-2.617,9.128-4.34,15.574-2.17,5.681-2.489,27.574-2.489,27.574,0,0-7.851,12.702,7.66,17.043,0,0,1.468,1.851-.702,3.064" fill="none" stroke="#000" stroke-miterlimit="10"/>
        <path d="m69.155,260.303s-2.298,5.106,1.149,9.574,16.66,21.766,18.191,21.702,6.255-2.872,9.191-.128" fill="none" stroke="#000" stroke-miterlimit="10"/>
        <path d="m90.08,291.335s12.521,17.032,23.181,17.543c9.085.191,9.319-.511,9.319-.511,0,0,4.468-10.723-.574-9.255" fill="none" stroke="#000" stroke-miterlimit="10"/>
        <path d="m142.798,308.305c-2.96,2.34-5.631,4.906-7.984,7.819-3.07,1.945-8.117-1.536-10.584-3.392-3.881-2.501-.993-6.4-.215-9.697,0,0,.28.026.28.026.119,2.486-1.79,5.291-.779,7.584.714.939,1.848,1.789,2.915,2.536,2.015,1.28,6.759,4.327,8.558,1.681,2.181-2.644,4.942-4.736,7.714-6.688,0,0,.096.131.096.131h0Z"/>
        <path d="m137.258,312.998c3.407,2.79,8.205,4.169,12.458,2.674,4.429-.931,9.036-2.448,12.174-5.823,2.369-2.475,3.441-5.922,3.656-9.308.126-1.203-.137-2.354.501-3.495.382.576.505,1.165.556,1.754.009,1.806-.104,3.616-.535,5.385-1.49,7.636-9.082,11.481-16.115,12.704-3.019,1.125-7.359.641-10.417-1.116-1.058-.566-2.029-1.222-2.954-2.039l.675-.737h0Z"/>
        <path d="m149.17,281.631c-2.92,1.587-5.718,3.21-7.824,7.268-.743,1.206-.191,5.298,1.404,5.489" fill="none" stroke="#000" stroke-miterlimit="10"/>
        <path d="m174.774,273.147c-1.511-2.643-2.981-4.227-2.981-4.227,0,0-8.362-3.766-13.596,4.915" fill="none" stroke="#000" stroke-miterlimit="10"/>
        <path d="m166.346,300.303s5.51-1.821,8.953-6.779" fill="none" stroke="#000" stroke-miterlimit="10"/>
        <path d="m141.155,289.473s-5.745-7.532-20.043-4.34" fill="none" stroke="#000" stroke-miterlimit="10"/>
        <path d="m102.41,256.218s11.489,6.383,13.851,18.319,5.234,10.532,5.234,10.532" fill="none" stroke="#000" stroke-miterlimit="10"/>
        <path d="m96.601,258.197c.191.128,5.809,1.021,6.957-5.234s-1.532-21.926-1.532-21.926" fill="none" stroke="#000" stroke-miterlimit="10"/>
      </g>
      <g id="doigts_3" data-name="doigts 3">
        <path d="m98.261,120.005s-5.27,10.422-11.547,14.667c-.507.343-.751.953-.637,1.554.598,3.153,2.332,12.766,2.226,17.737-.128,6-2.426,10.723-2.043,13.66s5.872,19.404,10.723,21.702" fill="none" stroke="#000" stroke-miterlimit="10"/>
        <path d="m99.793,185.494s-2.936,3.447-5.362,6.255-.638,16.085.766,17.489,6.128,12.638,7.66,13.277" fill="none" stroke="#000" stroke-miterlimit="10"/>
        <path d="m106.942,215.75c.511,2.17-3.319,7.149-5.745,8.17s7.106,26.383,10.809,28.298" fill="none" stroke="#000" stroke-miterlimit="10"/>
        <path d="m155.963,270.867c1.787-1.787,7.915-13.372-.511-25.5,0,0-6-4.213-18.255-9.191,0,0-3.574-2.17-4.34-8.043" fill="none" stroke="#000" stroke-miterlimit="10"/>
        <path d="m113.945,247.95c-.958,3.473-2.798,7.233-.004,10.297,4.507,5.629,10.212,11.336,16.89,14.189,3.446,1.181,7.353.866,10.97.585,0,0,.104.994.104.994-1.889.211-3.79.349-5.707.338-5.936.368-11.158-3.401-15.341-7.127-2.824-2.554-5.479-5.281-7.753-8.379-2.987-3.387-1.124-7.518.621-10.957,0,0,.219.06.219.06h0Z"/>
        <path d="m138.218,236.175s6.894-10.213-3.83-20.553" fill="none" stroke="#000" stroke-miterlimit="10"/>
        <path d="m134.527,215.835c-1.043-1.649-5.182-3.331-3.33-4.936" fill="none" stroke="#000" stroke-miterlimit="10"/>
        <path d="m134.737,215.481s10.247-8.795,6.545-17.859-10.851-12.766-9.957-15.191" fill="none" stroke="#000" stroke-miterlimit="10"/>
        <path d="m136.293,188.772s10.734-9.405,10.096-13.873-1.66-19.277-6.383-24.638,1.021-6.766,1.021-6.766" fill="none" stroke="#000" stroke-miterlimit="10"/>
      </g>
      <path d="m144.091,156.516s15.319-10.213,13.277-24.128c-2.043-13.915-3.191-19.277-2.426-21.191s7.149-21.064,6-29.489c0,0,4.851-5.745,3.83-8.553s-2.17-6-4.085-7.149-28.213-25.234-46.723-20.34c0,0-5.277,4.766-4.936,6.638" fill="none" stroke="#000" stroke-miterlimit="10"/>
      <g id="sous_pattes" data-name="sous pattes">
        <path d="m153.046,112.476s-2.894,6.468-5.191,6.979-13.617,9.191-12.681,22.723" fill="none" stroke="#848484" stroke-miterlimit="10" stroke-width=".25"/>
        <path d="m132.535,149.753s-6.213,8.681-7.489,9.617-3.66,12.255-2.638,13.872,3.574,5.447,2.723,6.894-4.511,4.936-3.745,7.915,7.66,7.574,6.128,12.17-4.936,8.681-1.957,9.787" fill="none" stroke="#848484" stroke-miterlimit="10" stroke-width=".25"/>
        <path d="m130.237,215.029s.851,2.723-1.957,2.979-2.128,4.511-.851,5.277,1.106,6.298.766,6.979,4.17,10.809,10.809,12.681,16.747,5.316,19.811,19.188" fill="none" stroke="#848484" stroke-miterlimit="10" stroke-width=".25"/>
        <path d="m96.367,212.271s-3.024,2.929-2.258,5.099.128,11.234-.255,11.745.511,16.979-.511,17.745-4.213,2.17-3.83,4.213,2.298,2.553.894,3.319-3.574-.511-.894,2.426,6.128,4.085,6.128,6.766,11.872,6.128,14.298,19.149c0,0-2.043,4.596-1.277,5.489s6.638,3.702,8.681,3.064,10.34-.638,15.191,1.787,10.213,6.255,13.787,2.043" fill="none" stroke="#848484" stroke-miterlimit="10" stroke-width=".25"/>
        <path d="m147.918,291.455c2.137-1.518,4.67-2.822,6.42-4.758,0,0,.25,0,.25,0-.099.476-.395.655-.636.911-1.838,1.528-3.957,2.682-6.033,3.847h0Z" fill="#848484"/>
        <path d="m162.918,269.753c-.086,2.014.083,4.169-.762,6.051,0,.01-.036-.011.082.103l-.189-.164c.126.1.099.065.106.061.25-.44.276-.968.331-1.462.093-1.487.357-3.108.432-4.589h0Z" fill="#848484"/>
        <path d="m118.325,280.494s5.17-3.766,6.319-2.085,2.021.915,2.021.915" fill="none" stroke="#848484" stroke-miterlimit="10" stroke-width=".25"/>
        <path d="m128.155,276.345s.34-2.213,1.745-2.447.957-.234.957-.234" fill="none" stroke="#848484" stroke-miterlimit="10" stroke-width=".25"/>
      </g>
      <g id="entre_doigts" data-name="entre doigts">
        <path d="m90.243,184.977c.023,5.024-.277,10.055-.995,15.027-.66,1.795-.836,3.798-.925,5.725,0,0-.5-.015-.5-.015.116-1.839-.027-3.515.68-5.31.241-.783.29-1.624.397-2.44.497-4.301.714-8.698,1.343-12.988h0Z"/>
        <path d="m87.689,209.551c.165,1.667.031,3.641.334,5.147.599.256,2.005.571,2.877.046,0,0,.088.082.088.082-.668,1.147-2.301,1.146-3.392.616-.102-.018-.389-.374-.36-.439-.388-1.82.063-3.693.453-5.452h0Z"/>
        <path d="m89.197,213.062c.614-1.112,1.625-1.95,2.552-2.787.477-.385.969-.845,1.694-.885.646.009,1.253.089,1.876.168l-.071.495c-.614-.089-1.241-.213-1.834-.343-1.99-.15-2.836,2.26-3.787,3.605,0,0-.431-.254-.431-.254h0Z"/>
        <path d="m64.62,199.611c-.087,4.252-.423,8.978-.785,13.24-.086.732-.061,1.474-.25,2.198-.238.72-.583,1.431-.495,2.178.064.744.411,1.514.284,2.243-.344,2.899-1.394,5.771-1.192,8.714.101.605.096,1.498.803,1.666,1.419.48,2.122-.919,3.132-1.585.187-.093.29-.255.697-.232l-.121.485c-.143-.014-.567.328-.746.454-.883.799-1.77,1.665-3.051,1.237-1.774-.44-1.009-5.08-.695-6.421.275-1.445.041-2.952.156-4.407,0-.738.476-1.436.658-2.16.21-.722-.015-1.479-.138-2.228-.043-1.521.339-5.052.407-6.616.244-2.936.489-5.872.837-8.8l.499.034h0Z"/>
        <path d="m67.583,225.112c-1.531.011-2.917.882-3.94,1.962-.12.137-.204.309-.27.478-.028.07-.049.037.125.131,0,0-.467-.178-.467-.178.2.045.154.055.196-.015.191-.359.455-.715.752-.992.561-.538,1.621-.871,2.296-1.245.389-.204.779-.389,1.181-.624l.127.484h0Z"/>
      </g>
      <g id="griffes_1" data-name="griffes 1">
        <path d="m141.518,272.155c.368.036.285.056.355-.102.182-.416.314-.871.519-1.28.3-.552.844-1.235,1.533-1.309.38.182.748-.188,1.1-.322.661-.405,1.394-.723,1.961-1.254.674-.44,1.588-.383,2.33-.332,1.019.066,2.02.069,2.987-.317-.835.669-1.991.726-3.002.701-.791-.03-1.475-.035-2.209.201-.269-.006-.519.071-.739.224-.723.422-1.4.925-2.142,1.312-.126.223-.216.302-.435.397-.765.451-1.534,1.228-1.799,2.12-.02.024.004.074.26.173l-.72-.21h0Z" fill="#bcbcbb"/>
        <path d="m149.976,262.19c.265-.268.71-.205.888.128,5.458,10.232,13.947,23.822,34.61,26.155,17.808,2.011,15.199.462,16.441.069.83-.262,1.765.272,1.945,1.123.513,2.415-4.525,4.458-9.216,5.19-5.447.851-33.828-.11-46.298-13.957-7.702-8.553-9.191-11.064-9.191-11.064,0,0-.958-2.947.851-4.17,6.662.153,8.364-1.85,9.97-3.474Z" fill="none" stroke="#000" stroke-miterlimit="10" stroke-width=".75"/>
        <path d="m150.056,272.423c4.553,4.635,8.612,10.009,14.689,12.751,2.036.809,3.843,2.034,5.756,3.074,7.999,3.633,16.879,4.195,25.547,3.459-8.627,2.109-17.637.296-25.564-3.42-4.303-1.126-7.874-3.814-11.26-6.585-3.37-2.725-7.008-5.364-9.354-9.136l.186-.143h0Z" fill="#bcbcbb"/>
      </g>
      <g id="griffes_3" data-name="griffes 3">
        <path d="m154.75,244.728s7.611-29.441-7.262-40.519c-.181-.135-.438.026-.396.247,3.126,4.697,2.135,28.664-.512,35.804" fill="none" stroke="#000" stroke-miterlimit="10" stroke-width=".75"/>
        <path d="m149.58,208.537c1.706,3.738,2.446,7.823,2.674,11.901-.006,2.727-.398,5.427-.543,8.146-.096,4.085-.516,8.151-1.174,12.186.06-8.112,2.522-16.31,1.19-24.377-.584-2.655-1.362-5.25-2.148-7.857h0Z" fill="#969696"/>
      </g>
      <g id="griffes2">
        <path d="m177.41,287.111s15.191-17.745,16.809-32.128c.723-13.064-1.872-18.043-5.702-21.872s4.553,10.936-5.787,28.766c-5.319,10.085-8.862,13.585-14.766,14.511-1.372-.287-3.862,2.521-3.862,3.287" fill="none" stroke="#000" stroke-miterlimit="10" stroke-width=".75"/>
        <path d="m171.325,275.111s-3.713-3.112-8.803,3.271" fill="none" stroke="#000" stroke-miterlimit="10" stroke-width=".5"/>
        <path d="m162.708,290.268s-.468,1.673-.873,2.29.809,1.83,2.787,1.128,3.149-1.883,3.149-1.883" fill="none" stroke="#000" stroke-miterlimit="10" stroke-width=".75"/>
        <path d="m160.581,289.584s-2.608,3.241-2.161,4.07,1.66,2.84,2.84,2.489,6.543-1.372,7.053-1.915.638-1.691.574-1.915" fill="none" stroke="#000" stroke-miterlimit="10" stroke-width=".5"/>
        <path d="m190.742,239.451c.25,3.064.412,6.143.297,9.218-.098.963-.046,2.248-.506,3.029.592-3.478.114-8.733.21-12.246h0Z" fill="#999"/>
        <path d="m172.772,281.069c1.482-1.316,3.087-2.837,4.522-4.219,2.157-1.73,3.775-3.985,5.504-6.121,3.691-4.361,5.572-10.422,6.991-15.885.059-.327.151-.686.074-.996.273.531.007,1.418-.083,2.047-.372,2.057-1.328,3.917-1.942,5.889-.338,1.344-.849,2.641-1.573,3.823-2.042,3.614-4.381,7.03-7.417,9.881-1.734,2.145-3.858,3.952-6.077,5.581h0Z" fill="#999"/>
      </g>
      <path d="m88.846,158.75c-.131-1.431.455-3.07,1.836-3.73,2.292-.78,4.814-.574,7.196-.544-1.92.048-3.835.199-5.724.484-2.041.04-3.367,1.825-3.308,3.79h0Z" fill="#9c9b9b"/>
      <path d="m88.128,145.074c.01-.34.36-.533.62-.683,2.016-.944,4.359-.865,6.535-.809-2.182.072-4.39.295-6.479.927-.263.125-.613.246-.675.566h0Z" fill="#9c9b9b"/>
      <g id="decor_doigt_1" data-name="decor doigt 1">
        <path d="m128.804,270.469c-4.14-5.386-4.209-11.709,1.233-16.191.805-.551,1.546-1.203,2.409-1.667,1.465-.646,3.106-.155,4.618-.583,2.771-.452,3.763-3.189,1.453-5.005-1.223-.974-2.76-1.445-4.278-1.741l.023-.123c2.177.444,5.014,1.29,5.65,3.73.409,1.75-1.265,3.048-2.81,3.299-1.495.433-3.164-.041-4.58.586-.817.442-1.584,1.111-2.364,1.649-5.331,4.416-5.243,10.608-1.164,15.884,0,0-.19.162-.19.162h0Z"/>
        <path d="m126.481,248.626c2.035-1.758,4.524-3.067,7.21-3.409.907-.065,2.001-.106,1.476-1.344-.763-1.535-2.58-2.722-4.326-2.476-1.718.401-3.453,1.272-4.914,2.078,1.492-1.003,3.17-1.683,4.9-2.159,1.802-.257,3.639.928,4.444,2.513.557,1.328-.573,1.455-1.565,1.515-.879.113-1.745.339-2.576.653-1.659.633-3.203,1.587-4.529,2.756l-.119-.126h0Z"/>
        <path d="m121.795,240.177l3.774-1.837c2.311-.619,4.613.677,5.025,3.091,0,0-.244.052-.244.052-.356-2.328-2.549-3.531-4.715-3.005,0,0-3.801,1.78-3.801,1.78l-.039-.081h0Z"/>
        <path d="m119.003,235.045c.988-.892,2.176-1.951,3.6-1.859,2.598.499,4.015,2.608,3.282,5.189,0,0-.243-.06-.243-.06.745-2.478-.58-4.464-3.058-4.995-1.401-.184-2.591,1.113-3.581,1.724h0Z"/>
        <path d="m115.961,228.793c1.711-.825,3.521-1.765,5.492-1.563,1.364.456,2.57,1.724,2.754,3.175.029.463-.084,1.067-.377,1.375.927-1.775-.82-3.755-2.427-4.31-1.846-.265-3.801.851-5.443,1.323h0Z"/>
        <path d="m116.999,221.605c1.847.3,6.154,1.005,4.865,3.735,0,0-.541,1.044-.541,1.044-.126.239-.351.679-.476.913-.007.009-.022.045-.029.054-.063-.08.153.172-.233-.082.011-.048.03-.068.049-.112.216.121.249.08.191.176,0,0-.001.003-.001.003.003-.012-.009.028.007-.026-.385-.254-.168-.003-.23-.085.004-.01.02-.037.025-.047.124-.232.351-.674.475-.911.175-.35.648-1.199.754-1.56.154-.556-.107-1.083-.536-1.453-1.155-1.039-3.004-1.222-4.319-1.651h0Z"/>
        <path d="m108.777,219.101c2.611-1.104,5.436-1.958,8.306-1.765,1.422.2,2.923.357,4.098,1.282.284.254.476.649.466,1.042-.095,1.124-.765,2.106-1.646,2.784,0,0-.139-.208-.139-.208,3.392-3.276.507-4.253-2.803-4.662-2.819-.264-5.652.555-8.282,1.527h0Z"/>
        <path d="m117.655,261.792c-.169-3.47,1.203-7.142,3.862-9.426-2.431,2.549-3.359,6.057-3.862,9.426h0Z" fill="#adadad"/>
        <path d="m113.569,254.632c.006-2.274,1.588-4.205,3.01-5.834,1.377-1.578,3.143-2.75,5.039-3.609.115-.058.378-.146.5-.187,0,0-.224.112-.224.112.126.082.098-.042.087-.056-.1.009-.263.106-.356.146-1.842.936-3.398,2.317-4.731,3.877-1.414,1.622-2.821,3.53-3.326,5.551h0Z" fill="#adadad"/>
        <path d="m108.346,245.734c.481-4.698,4.645-8.08,8.91-9.438,0,0,.031.086.031.086-3.116,1.234-6.067,3.224-7.699,6.226-.538.984-.929,2.037-1.115,3.158l-.128-.032h0Z" fill="#adadad"/>
        <path d="m102.161,230.113c1.218-5.91,6.887-8.604,12.504-8.471,0,0,0,.091,0,.091-5.457-.041-11.073,2.713-12.262,8.441,0,0-.243-.061-.243-.061h0Z" fill="#adadad"/>
        <path d="m110.906,250.57c.434-4.725,4.699-8.088,8.968-9.424,0,0,.031.086.031.086-4.171,1.509-8.143,4.779-8.849,9.376,0,0-.149-.037-.149-.037h0Z" fill="#adadad"/>
        <path d="m104.823,236.391c.919-3.285,4.004-6.384,7.416-6.567-3.322.89-5.837,3.557-7.179,6.646,0,0-.237-.079-.237-.079h0Z" fill="#adadad"/>
        <path d="m100.377,218.708c2.412-5.683,9.043-6.159,14.408-6.267.755-.06,1.692.087,2.047-.692-.103-.961-.124-2.569-.768-3.6-.602-1.14-1.836-1.732-3.091-1.814,1.274-.03,2.601.585,3.213,1.745.653,1.126.711,2.482.794,3.734-.4.837-1.406.76-2.189.797-5.243.124-11.861.628-14.179,6.181,0,0-.236-.084-.236-.084h0Z"/>
        <path d="m109.335,199.792c2.391-.826,5.43-.407,5.574,2.66.15,1.447.278,2.992-.601,4.289,0,0-.179-.174-.179-.174.968-1.518.794-3.794.258-5.457-.844-1.87-3.347-1.714-5.051-1.318h0Z"/>
        <path d="m108.313,192.952c1.85-.15,4.178-.289,5.492,1.303.895,1.322.247,3.072-.81,4.085-.172.216-.827.738-.741,1.009,0,0-.219.12-.219.12-.137-.375.134-.598.265-.781,1.164-1.071,2.271-2.767,1.318-4.305-1.172-1.558-3.569-1.419-5.304-1.43h0Z"/>
        <path d="m94.176,192.883c0-3.569,8.074-5.41,13.596-4.356s4.681,4.191,4.617,4.734" fill="none" stroke="#000" stroke-miterlimit="10" stroke-width=".25"/>
        <path d="m97.527,211.314c1.251-2.024,3.655-3.044,5.892-3.556,2.274-.515,4.593-.912,6.927-.944-4.407.694-9.646.979-12.819,4.5h0Z" fill="#929292"/>
        <path d="m94.631,205.214c1.789-1.415,3.702-2.744,5.875-3.5,2.218-.5,4.546-.413,6.716-1.241-2.171.973-4.42.937-6.65,1.442-2.133.767-4.055,2.051-5.941,3.3h0Z" fill="#929292"/>
        <path d="m93.883,198.857c1.403-1.767,3.044-3.873,5.441-4.162,2.298-.4,4.591-.825,6.895-1.2-2.287.465-4.583.879-6.876,1.318-2.391.252-3.977,2.463-5.46,4.044h0Z" fill="#929292"/>
        <path d="m94.35,186.563c.637-4.218,4.036-7.299,8.397-6.509,2.261.545,4.841-.205,6.847-1.272.233-.169.467-.342.493-.59.175-1.423.03-3.06-1.054-4.102-.398-.396-.874-.766-1.419-.94-.017-.008-.032-.026-.087.096l.068-.233c-.021.141,0,.133.019.136.565.164,1.159.338,1.59.764,1.147,1.1,1.313,2.813,1.129,4.309-.047.378-.363.594-.601.767-2.116,1.118-4.672,1.867-7.045,1.305-.341-.005-.978-.101-1.418-.085-3.57-.12-6.188,3.061-6.669,6.387,0,0-.248-.033-.248-.033h0Z"/>
        <path d="m103.176,167.622c2.883-.378,5.947,1.262,5.489,4.533,0,0-.042-.002-.042-.002.073-3.155-2.583-4.609-5.447-4.531h0Z"/>
        <path d="m102.568,161.664c2.615.345,4.912,2.638,3.237,5.238-.2.282-.41.584-.632.824.137-.32.293-.621.434-.925.755-1.642.33-3.237-1.244-4.18-.558-.358-1.174-.649-1.814-.872l.019-.086h0Z"/>
        <path d="m100.984,155.133c3.378.251,4.798,2.592,2.941,5.547,0,0-.053-.03-.053-.03,1.686-3.017.361-4.969-2.889-5.517h0Z"/>
        <path d="m98.835,149.835c2.856-.186,6.474,1.18,4.279,4.532,0,0-.705.915-.705.915,2.683-3.856.186-5.1-3.574-5.447h0Z"/>
        <path d="m97.857,143.622c1.87-.157,4.944-.289,5.487,2.022.139,1.08-.293,2.194-1.095,2.917-.784.74-1.807,1.166-2.839,1.36,1.013-.277,1.987-.749,2.733-1.47.752-.708,1.166-1.762,1.056-2.784-.521-2.233-3.515-2.086-5.342-2.044h0Z"/>
        <path d="m102.63,137.57c1.145.747,2.165,2.038,1.993,3.496-.328,1.323-1.219,2.71-2.573,3.079,0,0-.002-.023-.002-.023,1.19-.498,1.962-1.922,2.244-3.097.131-1.348-.868-2.5-1.661-3.454h0Z"/>
        <path d="m103.472,130.097c2.347,1.463,4.727,4.155,2.001,6.566-.623.643-1.365,1.177-2.191,1.491.759-.447,1.409-1.039,1.96-1.697,2.369-2.457-.013-4.424-1.852-6.246,0,0,.082-.114.082-.114h0Z"/>
        <path d="m107.176,126.601c.77.788,1.43,2.082.713,3.115-.762.887-1.625,1.615-2.697,2.111,0,0-.074-.239-.074-.239.975-.414,1.938-1.171,2.644-1.961.702-.952.082-2.213-.629-2.983,0,0,.043-.043.043-.043h0Z"/>
        <path d="m90.814,178.048c1.017-4.889,6.135-4.858,10.146-4.872,1.364-.015,2.727-.008,4.088.063-2.724.061-5.44.243-8.144.497-2.74-.007-5.387,1.546-6.09,4.312h0Z" fill="#9c9b9b"/>
        <path d="m88.415,172.234c.029-2.936,3.099-4.395,5.701-4.397,2.621-.182,5.249-.204,7.868-.088-2.62.065-5.235.22-7.835.474-2.556-.026-5.472,1.118-5.734,4.01h0Z" fill="#9c9b9b"/>
        <path d="m87.554,166.058c.285-2.296,2.075-4.497,4.501-4.632,2.283-.256,4.584-.282,6.87-.177-2.288.053-4.569.231-6.829.516-2.363.085-4.083,2.07-4.542,4.293h0Z" fill="#9c9b9b"/>
        <path d="m88.894,151.601c1.592-2.788,5.47-2.342,8.227-2.351-1.488.039-2.973.161-4.431.421-1.428.225-2.98.626-3.796,1.93h0Z" fill="#9c9b9b"/>
        <path d="m87.043,136.569c4.053-1.555,8.472-1.593,12.702-.851-4.263-.475-8.549-.23-12.702.851h0Z" fill="#9c9b9b"/>
        <path d="m93.899,128.096c2.306-.14,4.887-.186,6.958.952-2.176-.896-4.724-.532-6.958-.952h0Z" fill="#9c9b9b"/>
        <path d="m97.389,123.5c2.306-.14,4.887-.186,6.958.952-2.176-.896-4.724-.532-6.958-.952h0Z" fill="#9c9b9b"/>
      </g>
      <g id="decor_doigt_2" data-name="decor doigt 2">
        <path d="m136.984,285.877s-3.277-3.149-2.34-5.362,2.043-2.468,2.468-1.915,3.447,5.404,4.255,5.277" fill="none" stroke="#000" stroke-miterlimit="10" stroke-width=".25"/>
        <path d="m140.431,276.771s3.957,3.191,4,3.702" fill="none" stroke="#000" stroke-miterlimit="10" stroke-width=".25"/>
        <path d="m136.814,278.26s-.319-3.596,1.468-3.34,2.809.271,2.809.271" fill="none" stroke="#000" stroke-miterlimit="10" stroke-width=".25"/>
        <path d="m127.176,283.92s.287-2.17,2.298-1.34,2.681,1.787,2.681,1.787" fill="none" stroke="#000" stroke-miterlimit="10" stroke-width=".25"/>
        <g>
          <path d="m54.975,276.349c3.108-.419,6.66-1.279,8.602-3.937,1.891-3.183,7.133-.863,7.955,2.044-.221-.743-.796-1.428-1.442-1.923-1.752-1.504-4.908-2.37-6.304.018-.959,1.398-2.452,2.293-3.977,2.905-1.541.615-3.163.977-4.813,1.141l-.02-.249h0Z"/>
          <path d="m59.624,282.142c2.76-1.275,5.687-2.212,8.3-3.73.877-.696,1.798-1.813,3.003-2.173,2.003-.851,3.914.906,4.431,2.76.614,2.09.33,4.483-.854,6.306-1.056,1.131-2.518,1.779-3.861,2.487,1.494-.921,3.446-1.654,4.145-3.379,1.017-2.544.84-6.617-2.044-7.757-1.808-.526-3.222,1.186-4.476,2.262-2.65,1.615-5.609,2.606-8.563,3.46,0,0-.082-.236-.082-.236h0Z"/>
          <path d="m75.32,280.897c.754-.649,2.164-1.948,3.08-.916.972,1.568,1.337,3.482,1.287,5.309,0,0-.011.145-.011.145.028.051-.093.088.114.157l-.249-.024c.213-.028.099-.088.133-.133l.008-.145c.08-1.188-.604-6.057-2.346-5.529-.714.241-1.311.774-1.836,1.31l-.18-.173h0Z"/>
          <path d="m77.035,293.332c1.99-.658,3.872-1.654,5.225-3.292.437-.519.978-1.072.916-1.801.086.344.004.728-.173,1.038-1.242,2.2-3.515,3.607-5.899,4.295,0,0-.07-.24-.07-.24h0Z"/>
          <path d="m82.137,296.251c1.233-1.188,2.662-2.309,3.443-3.863-.5,1.692-2.038,2.878-3.28,4.052,0,0-.163-.19-.163-.19h0Z" fill="#8b8b8c"/>
          <path d="m87.963,300.941c1.364-1.676,3.231-3.139,3.915-5.234-.408,2.182-2.338,3.803-3.915,5.234h0Z" fill="#8b8b8c"/>
          <path d="m92.984,304.388c1.179-1.303,2.234-2.777,2.383-4.565.024-.281.08-.6-.057-.816-.163-.198-.504-.247-.762-.374.278.099.597.057.854.299.801,2.1-1.007,4.105-2.418,5.456h0Z" fill="#8b8b8c"/>
          <path d="m47.269,263.721c-.849-2.769,2.083-4.779,4.462-5.247,1.241-.268,2.571-.315,3.799.128,1.139.464,2.431.446,3.573.007,5.264-2.365,1.206-5.875-1.874-7.888-1.022-.623-2.156-1.357-3.399-1.277-.018.009-.048-.035-.033.13l-.051-.245c1.321.132,2.463.62,3.576,1.238,3.484,1.985,7.34,5.854,1.886,8.315-1.198.467-2.586.487-3.782.001-1.146-.413-2.432-.372-3.628-.109-2.239.46-5.056,2.245-4.29,4.876,0,0-.24.071-.24.071h0Z"/>
          <path d="m48.984,242.877c5.393-.313,10.021,2.057,8.734,8.151,0,0-.234-.088-.234-.088.744-5.954-3.204-7.861-8.5-8.062h0Z"/>
          <path d="m47.963,236.367c2.87.198,10.501,2.667,6.088,6.208-.42.332-.883.699-1.465.702l.009-.065c.993-.209,1.761-1.21,2.3-2.004,1.233-2.676-5.104-4.241-6.932-4.841h0Z"/>
          <path d="m48.479,228.376c3.89,1.393,7.231,3.935,4.43,8.222-.072.081-.186.21-.307.152.122.028.188-.109.243-.197.348-.736.467-1.561.633-2.355.634-2.878-3.086-4.491-4.999-5.822h0Z"/>
          <path d="m47.963,221.367c1.678.675,3.433,1.415,4.494,2.998.269.417.222,1.01.08,1.463-.38,1.323-1.131,2.497-1.968,3.569,0,0-.201-.148-.201-.148.773-1.285,1.634-2.641,1.839-4.142-.417-1.748-2.826-2.763-4.244-3.739h0Z"/>
          <path d="m47.899,214.409c1.626.485,3.247,1.048,4.617,2.1.322.28.695.607.751,1.148.026.272-.115.525-.203.693-.489.942-1.092,1.84-1.815,2.62,0,0-.189-.164-.189-.164.632-.941,1.539-2.079,1.832-3.125-.022-.321-.307-.645-.6-.908-1.278-1.043-2.875-1.707-4.392-2.364h0Z"/>
          <path d="m36.474,209.494s8.043-3.638,12.128-1.021,4.213,5.17,3.383,5.936-1.34,1.149-1.34,1.149" fill="none" stroke="#000" stroke-miterlimit="10" stroke-width=".25"/>
          <path d="m40.112,251.287c2.725-3.663,7.578-1.824,11.383-1.92-.993.175-2.007.096-3.006.068-2.934-.239-6.178-.494-8.377,1.852h0Z" fill="#b3b2b2"/>
          <path d="m39.202,244.728c1.157-2.388,3.417-2.547,5.747-2.075.72.071,1.446.228,2.168.155-.717.163-1.463.081-2.188.042-1.407-.111-2.931-.408-4.19.378-.605.367-1.08.934-1.537,1.5h0Z" fill="#b3b2b2"/>
          <path d="m38.947,230.005c1.157-2.388,3.417-2.547,5.747-2.075.72.071,1.446.228,2.168.155-.717.163-1.463.081-2.188.042-1.407-.111-2.931-.408-4.19.378-.605.367-1.08.934-1.537,1.5h0Z" fill="#b3b2b2"/>
          <path d="m38.724,220.856c.771-1.467,2.643-1.143,3.997-.957,1.409.251,2.928.283,4.222.941-.652-.293-1.405-.303-2.107-.42,0,0-2.15-.258-2.15-.258-1.357-.163-3.014-.602-3.961.694h0Z" fill="#b3b2b2"/>
          <path d="m37.585,215.75c1.894-3.516,5.525-1.874,8.633-1.92-.774.163-1.574.085-2.355.048-1.524-.101-3.149-.412-4.545.344-.677.353-1.218.937-1.732,1.528h0Z" fill="#b3b2b2"/>
          <path d="m38.181,237.792c1.157-2.388,3.417-2.547,5.747-2.075.72.071,1.446.228,2.168.155-.717.163-1.463.081-2.188.042-1.407-.111-2.931-.408-4.19.378-.605.367-1.08.934-1.537,1.5h0Z" fill="#b3b2b2"/>
          <path d="m44.273,194.132c2.705-.277,5.906-.133,8.427-1.178.434-.213.645-.509.67-.979.041-.371.137-.787.038-1.144-.016-.003.068.014.051-.002l-.181-.201c.073-.105.317-.069.359.042.21.426.096.901.08,1.348.01.599-.322,1.03-.826,1.29-2.705,1.159-5.743,1.099-8.62.932,0,0,.002-.108.002-.108h0Z"/>
          <path d="m53.58,179.537c1.256-.648,2.888-1.96,2.201-3.525-.18-.462-.495-.855-.734-1.35l.13-.124c2.364,1.792.789,4.324-1.597,4.998h0Z"/>
          <path d="m42.304,169.026c2.504-.961,5.136-1.643,7.815-1.869.857-.007,1.919-.154,2.602.473-1.505-.74-3.593.04-5.195.257,0,0-5.222,1.139-5.222,1.139h0Z" fill="#7f7f80"/>
          <path d="m54.983,169.058c1.389-.294,1.901,1.386,1.71,2.467-.144,1.013-.336,2.689-1.656,2.745,0,0,.002-.062.002-.062,1.164-.222,1.208-1.751,1.353-2.71.148-1.064-.138-2.404-1.409-2.44h0Z"/>
          <path d="m53.197,163.122c1.696.562,2.805,2.609,2.465,4.268-.02.557-.225,1.253-.822,1.404l-.008-.025c.535-.222.609-.874.56-1.361.114-1.725-.557-3.495-2.195-4.286h0Z"/>
          <path d="m53.387,156.203c1.799,2.087,3.634,6.6-.677,6.797,4.365-.568,1.924-4.518.677-6.797h0Z"/>
          <path d="m54.035,157.05c3.195-2.585,2.266-4.87-.208-7.52-.088-.077-.167.017-.143.125-.037-.121.031-.229.161-.163,2.945,2.368,3.483,5.182.19,7.558h0Z"/>
          <path d="m55.43,149.235c2.839-.271,3.553-1.735,3.397-4.371,0,0,.271.001.271.001.229,2.688-.742,4.479-3.668,4.37h0Z"/>
          <path d="m59.294,145.179c1.435.056,3.228.126,4.276-.995.491-.561.411-1.401.562-2.144l.313-2.281h.009c-.029.769-.094,1.535-.173,2.299-.112.681-.051,1.708-.569,2.246-1.133,1.139-2.977,1.103-4.418.875h0Z"/>
          <path d="m64.747,140.203c-.03.196.005.125.12.155,3.422.296,2.511-2.835,1.824-4.98-.125-.655-.749-2.151-.643-2.321.381.716.651,1.477.917,2.235.977,2.414,1.648,5.67-2.172,5.058-.072-.004-.038-.054-.102.118,0,0,.057-.265.057-.265h0Z"/>
          <path d="m40.429,188.983c1.247-2.325,3.877-3.78,6.404-2.534,0,0,2.363.833,2.363.833l-2.413-.676c-2.557-1.12-4.823.353-6.355,2.377h0Z" fill="#7f7f80"/>
          <path d="m43.36,174.189c2.211-1,4.878-2.174,7.296-1.241.735.405,1.444.843,2.158,1.28-.755-.356-1.507-.73-2.249-1.101-2.368-.776-4.925.381-7.205,1.062h0Z" fill="#7f7f80"/>
          <path d="m41.286,163.682c1.579-.852,3.258-1.53,5.012-1.931,1.296-.297,2.792-.425,3.961.344.188.104.706.369.889.472,0,0,.147.081.147.081.091.047,0,.036-.045,0,.2.075-.049-.02-.115-.054-.188-.084-.73-.305-.927-.389-2.915-1.334-6.157.681-8.921,1.477h0Z" fill="#7f7f80"/>
          <path d="m41.261,154.013c1.657-.649,3.477-.93,5.255-.712,1.811.185,3.328,1.237,4.894,2.065-1.653-.524-3.199-1.483-4.943-1.629-1.716-.15-3.456.036-5.206.276h0Z" fill="#7f7f80"/>
          <path d="m45.761,145.952c2.701-.121,5.445.357,6.925,2.872-.504-.413-.976-.875-1.449-1.302-1.568-1.101-3.624-1.176-5.476-1.57h0Z" fill="#7f7f80"/>
          <path d="m51.697,141.516c2.254.546,4.753.644,6.032,2.872-1.633-1.834-3.994-1.744-6.032-2.872h0Z" fill="#7f7f80"/>
          <path d="m56.931,137.207c1.642-.73,3.921-.399,5.059,1.1.278.297.787.84,1.076,1.117.208.173.025.387-.178.213,0,0-.18-.138-.18-.138-.223-.173-.816-.664-1.041-.852-1.239-1.346-2.982-1.646-4.735-1.441h0Z" fill="#7f7f80"/>
          <path d="m62.894,131.629c1.048-.04,2.228.432,2.471,1.553-.167-.15-.272-.462-.424-.642-.501-.601-1.365-.639-2.047-.911h0Z" fill="#7f7f80"/>
        </g>
      </g>
      <g id="décord_doigt_3" data-name="décord doigt 3">
        <path d="m78.102,147.027c2.55.564,2.722,2.936,1.204,4.728,0,0-.133-.095-.133-.095,1.256-1.877,1.177-3.587-1.094-4.548,0,0,.023-.085.023-.085h0Z"/>
        <path d="m69.538,151.367c2.659-.403,7.89-1.208,8.485,2.457.122,1.977-1.763,3.69-3.546,4.198,0,0-.005-.033-.005-.033,1.231-.323,2.326-1.198,2.938-2.302.323-.575.197-1.24.191-1.815-.092-.59-.225-1.209-.688-1.622-1.986-1.606-4.984-1.156-7.375-.884h0Z"/>
        <path d="m75.757,157.715c.8,1.141,1.515,2.968.359,4.124-1.173.903-2.534,1.526-3.981,1.816,0,0-.005-.065-.005-.065.705-.136,1.373-.45,2.024-.76,1.292-.596,2.719-1.411,2.317-3.068-.135-.697-.439-1.367-.813-1.977l.099-.07h0Z"/>
        <path d="m73.452,164.335c1.31,1.222,4.439,3.718,2.182,5.395,0,0-.844.704-.844.704-.137.112-.494.426-.624.54-.06.053-.163.15-.245.093.16.048.302-.226.414-.314.532-.668,1.51-1.186,1.818-1.962.168-1.816-1.539-3.243-2.786-4.349,0,0,.085-.107.085-.107h0Z"/>
        <path d="m75.08,170.664c.977.471,1.895,1.385,1.979,2.54-.03.376.219.768.044,1.125-.568,1.341-.703,2.9-1.554,4.08,0,0-.021-.043-.021-.043.253-.227.361-.607.476-.936.335-1.029.54-2.104.444-3.186-.081-.357.239-.686.199-1.031.123-1.145-.784-1.966-1.566-2.549h0Z"/>
        <path d="m74.401,178.939c1.189.343,2.194.996,3.099,1.822.201.127.167.396.258.579.322,1.014-.163,2.049-.542,2.943-.349.712-.758,1.432-1.413,1.909.503-.514,1.033-1.216,1.292-1.962.325-.905.727-1.878.39-2.792-.08-.174-.248-.284-.294-.471.002-.227-.147-.366-.274-.511-.683-.708-1.599-1.166-2.541-1.427,0,0,.024-.09.024-.09h0Z"/>
        <path d="m78.355,191.357c.326-1.182.579-2.41.547-3.636-.028-.606-.132-1.246-.664-1.586l-1.415-1.18.152-.198c.438.466,1.816,1.422,1.918,2.028.267,1.35-.051,3.428-.539,4.572h0Z"/>
        <path d="m78.146,192.147c1.26.13,3.004.998,2.665,2.545-.085.458-.202.866-.272,1.309-.136.884-.248,2.107-1.405,2.175-3.078.197-8.245-.985-8.918,3.221-.164.86-.217,1.753-.203,2.632l-.25.011c-.458-6.98,4.139-6.144,9.322-6.159,1.044-.074.99-1.142,1.171-1.933.142-.88.621-1.763.101-2.495-.461-.735-1.45-1.035-2.212-1.306h0Z"/>
        <path d="m70.097,146.327c2.037-.315,4.304-.85,6.278-.039,0,0-.037.072-.037.072-2.002-.546-4.301.029-6.242-.033h0Z" fill="#a5a4a4"/>
        <path d="m64.586,152.929c1.104-.75,2.414-1.549,3.808-1.356,0,0-.007.077-.007.077-1.346.055-2.64.889-3.801,1.28h0Z" fill="#a5a4a4"/>
        <path d="m63.538,158.718c1.093-1.172,2.589-2.082,4.225-2.175,1.626.052,3.159.567,4.777.683,0,0-.003.111-.003.111-1.605-.022-3.192-.535-4.767-.603-1.599.038-3.074.921-4.231,1.984h0Z" fill="#a5a4a4"/>
        <path d="m62.296,167.15c.593-.977,1.165-2.058,2.188-2.661,1.884-.416,3.818-.256,5.733-.394-1.431.217-3.059.264-4.547.468,0,0-.564.07-.564.07-1.355.061-2.053,1.608-2.81,2.516h0Z" fill="#a5a4a4"/>
        <path d="m63.176,175.785c1.309-1.8,2.905-3.946,5.215-4.378,1.388-.066,2.772-.012,4.144.128,0,0,.005.047.005.047-1.795-.115-3.738-.409-5.37.48-1.585.9-2.821,2.335-3.909,3.78,0,0-.084-.057-.084-.057h0Z" fill="#a5a4a4"/>
        <path d="m65.392,183.214c1.283-1.936,2.866-4.234,5.339-4.607,0,0,1.187-.08,1.187-.08.266-.02.763-.056,1.021-.103,0,0,.061-.014.061-.014.012,0,.035-.018.001.008-.004-.032-.081.147.033.187l.112-.224c.127.047.044.243.029.217-.092.075-.228.077-.337.103-.187.031-.702.088-.898.107,0,0-1.193.081-1.193.081-2.346.38-3.905,2.59-5.277,4.373,0,0-.079-.049-.079-.049h0Z" fill="#a5a4a4"/>
        <path d="m67.083,188.814c1.263-1.537,3.155-2.772,5.202-2.748.663-.05,1.328-.082,1.994-.1l.007.078c-1.288.234-2.674.137-3.891.633-1.225.464-2.289,1.299-3.211,2.221l-.1-.084h0Z" fill="#a5a4a4"/>
        <path d="m68.535,195.476c1.306-1.806,3.268-4.004,5.721-3.694.557.09,1.177.158,1.741.204.05.005.319.022.364.025.011.034.026-.073.039-.114.027-.053.201-.046.124-.006.015-.002-.024-.005-.063.075l.237.079c-.066.104-.055.062-.1.093-.053.028-.11.042-.165.016-.058.005-.049-.177-.072-.142-.226-.002-.718-.027-.949-.039,0,0-1.169-.052-1.169-.052-2.4-.04-4.045,2.262-5.709,3.555h0Z" fill="#a5a4a4"/>
        <path d="m74.085,261.87c2.964-.231,5.983-.364,8.847-1.189,1.185-.255,2.066-1.184,1.712-2.428-.14-.531-.413-1.154-.945-1.345l.017-.104c1.203.458,1.6,2.187.912,3.229-.401.529-1.028.787-1.595.963-2.903.824-5.943,1.006-8.937,1.145,0,0-.011-.271-.011-.271h0Z"/>
        <path d="m78.69,253.876c3.644-.309,5.019-1.008,3.702-4.804-.277-.847-.52-1.8-1.365-2.259.443.14.83.475,1.084.877.715,1.366,1.631,3.243,1.129,4.786-.829,1.618-2.989,1.711-4.556,1.488,0,0,.007-.088.007-.088h0Z"/>
        <path d="m79.069,245.665c2.617-1.287,4.887-3.107,2.362-5.872-.236-.289-.47-.623-.841-.745.39.073.682.381.956.646,2.829,2.688.468,5.072-2.478,5.971h0Z"/>
        <path d="m76.133,238.388c1.353.222,5.006,1.282,5.592-.391.132-.762.167-1.652.041-2.429-.07-.381-.218-.836-.654-.925.461-.002.72.496.828.882.217.844.228,1.676.095,2.544-.631,2.059-4.466.818-5.902.318h0Z"/>
        <path d="m79.75,232.888c1.327-.957,3.348-1.878,3.501-3.661-.351-1.233-.228-1.907-.392-2.953-.159-.332-.626-.415-1.003-.503.385.032.863.03,1.14.43.21.412.146.831.212,1.222.051.63.29,1.151.396,1.781-.061,2.008-2.21,3.098-3.854,3.685h0Z"/>
        <path d="m77.325,223.728c1.538.252,3.421.506,4.528-.765,1.04-1.178,2.059-2.749,1.224-4.32-.274-1.104-1.338-1.647-2.305-2.159,1.034.381,2.187.935,2.542,2.063.985,1.618-.07,3.421-1.164,4.673-1.179,1.395-3.336,1.101-4.825.509h0Z"/>
        <path d="m82.602,210.112c2.551,1.296,3.632,3.318,1.046,5.367-.57.483-1.176,1.003-1.927,1.165.672-.326,1.188-.873,1.698-1.399.483-.54,1.069-1.08,1.294-1.693.442-1.47-1.233-2.598-2.111-3.44h0Z"/>
        <path d="m68.101,231.516c2.861-1.382,5.586,1.085,8.374,1.179-1.439.32-2.88-.387-4.205-.834-1.33-.475-2.771-.628-4.169-.345h0Z" fill="#a3a2a2"/>
        <path d="m67.531,237.686c2.338-.964,4.733-.081,7.067.257-.49.192-1.222-.119-1.772-.165-1.739-.389-3.607-.361-5.295-.092h0Z" fill="#a3a2a2"/>
        <path d="m68.931,222.667c1.946-1.303,4.013-.012,5.79.924.259.125.526.251.809.206l.013.075c-1.175.024-2.171-.918-3.258-1.275-1.069-.441-2.302-.438-3.355.07h0Z" fill="#a3a2a2"/>
        <path d="m70.431,216.005c1.231-1.127,2.873-2.118,4.633-1.783,1.209.451,2.242,1.061,3.477,1.405.393.122.792.241,1.209.251-.842.122-1.682-.123-2.483-.35-.776-.204-1.571-.666-2.307-.884-1.578-.338-3.181.577-4.529,1.362h0Z" fill="#a3a2a2"/>
        <path d="m72.559,210.048c4.419-3.758,4.984-.714,9.319-.127-.838.084-1.674-.147-2.472-.381-.777-.205-1.576-.646-2.314-.867-1.569-.238-3.231.489-4.532,1.375h0Z" fill="#a3a2a2"/>
        <path d="m67.399,245.048c2.905,1.08,6.054,1.366,9.078,1.082.399-.186,1.07-.406,1.445-.628.081-.042.206-.078.227.109,0,0-.247-.041-.247-.041.013.162.133.099.038.075-.515-.04-.98.347-1.432.556-2.998,1.024-6.467.609-9.111-1.154h0Z" fill="#a3a2a2"/>
        <path d="m65.708,254.239c2.884.964,5.859,1.341,8.872,1.316.983-.011,1.99-.059,2.841-.646-2.426,2.449-9.022.905-11.713-.67h0Z" fill="#a3a2a2"/>
        <path d="m139.835,271.026s-3.234.383-4.128-.851.766-2.681-.383-3.574-3.604-3.414-3.532-4.213c-.043-.17.894-3.702,1.957-2.723s6.34,1.957,6.723,1.191,3.765-3.408,7.489-3.191c3.66.213,8.298,2.894,7.191,7.532-.55,2.304-1.191,2.17-1.191,2.17" fill="none" stroke="#000" stroke-miterlimit="10" stroke-width=".5"/>
        <path d="m152.814,265.154s.511-4.383-1.83-4.851-3.106.979-6.128,1.745-4.936,1.021-6.596.723-2.894-.723-2.638.34.085,2.426.979,3.106,1.064,1.787,1.106,2.511-.553,1.489.511,1.362l1.064-.128" fill="none" stroke="#000" stroke-miterlimit="10" stroke-width=".25"/>
        <path d="m69.963,267.877c2.748-.729,5.591-1.415,8.149-2.648.48-.228.893-.566,1.242-.939,1.534-.989,3.464.03,4.832.847,2.182,1.446,2.158,3.32-.627,3.946-.947.29-1.968.367-2.848.837-.051.034-.066.154.103.239l-.466-.181c.256-.013.311-.011.363-.058.86-.489,1.886-.619,2.788-1.015,2.197-.8,2.408-1.991.353-3.269-1.174-.689-2.887-1.678-4.194-.976-.393.385-.87.734-1.36.94-2.669,1.162-5.501,1.728-8.334,2.277h0Z"/>
        <path d="m78.814,276.899c2.412-.686,4.897-1.425,7.034-2.75.511-.327,1.047-.751,1.191-1.277.228-1.18.618-2.446.315-3.63-.153-.577-.664-1.009-1.307-1.108.314.015.647.055.939.234,1.38,1.07.884,3.192.424,4.618-.302.689-.881,1.05-1.418,1.391-2.226,1.272-4.715,1.913-7.179,2.522h0Z"/>
        <path d="m87.282,280.665c3.023-.884,6.84-2.533,4.091-6.061-.707-.709-1.778-1.008-2.83-1.231,1.066-.055,2.262.086,3.16.878.9.796,1.155,2.023,1.047,3.186-.611,2.3-3.447,2.867-5.467,3.228h0Z"/>
        <path d="m91.08,285.037c2.902-.769,7.57-2.474,3.808-5.749-.829-.629-1.848-1.125-2.946-1.177,1.109-.2,2.259.204,3.206.826.942.645,1.68,1.738,1.597,2.992-.585,2.299-3.678,2.775-5.665,3.108h0Z"/>
        <path d="m94.974,289.01c2.629-.675,6.117-2.143,3.518-5.163-.622-.64-1.58-.85-2.513-.933.924-.118,1.973-.008,2.761.661,2.966,3.21-.677,5.214-3.766,5.435h0Z"/>
        <path d="m81.112,282.005c1.516-.548,3.177-.367,4.681-.894-1.494.506-3.086.89-4.681.894h0Z"/>
        <path d="m72.814,271.665c2.189-.604,4.493-.359,6.681-.894-2.18.511-4.425.944-6.681.894h0Z"/>
        <path d="m84.591,286.601c1.516-.548,3.177-.367,4.681-.894-1.494.506-3.086.89-4.681.894h0Z"/>
        <path d="m113.623,307.792s4.936-3.404,5.106-5.957" fill="none" stroke="#aaaaac" stroke-miterlimit="10" stroke-width=".25"/>
        <path d="m119.069,298.808c-1.025-1.173-2.868-1.277-4.291-1.096-.755.419-1.433,1.235-1.885,1.989.13-.648.561-1.18.954-1.685.349-.604,1.156-.863,1.812-.799,1.245.022,2.859.323,3.41,1.591h0Z"/>
        <path d="m108.825,296.718c1.094-1.569,3.016-2.141,4.833-1.65.659.255,1.502.897,1.212,1.703-.081.255-.219.501-.326.742-.079.236-.111.24.056.257,0,0-.251,0-.251,0,.187-.025.116-.043.134-.066.003-.043.038-.151.053-.194.587-1.154.108-1.697-1.035-2.029-1.546-.979-3.648-.138-4.677,1.236h0Z"/>
        <path d="m104.532,294.659c1.955-2.197,5.251-2.959,5.394.926-.14-.609-.367-1.193-.734-1.651-1.315-1.656-3.493-.536-4.66.725h0Z"/>
        <path d="m99.873,289.633c1.895-.471,3.914-.515,5.676.415.992.686,1.128,2.17.803,3.224.119-.749.041-1.528-.287-2.187-.535-1.239-1.645-1.221-2.798-1.217-.758-.102-2.609-.177-3.395-.234h0Z"/>
        <path d="m97.591,298.058c1.634-.72,3.467-.725,5.081-1.46.68-.251.782-.682,1.142-1.221.021.645-.549,1.127-1.115,1.282-1.676.575-3.306,1.331-5.108,1.399h0Z" fill="#8d8d8e"/>
        <path d="m102.864,302.029c.994-.644,1.937-1.356,3.017-1.83.579-.185,1.005-.616,1.467-.97.53-.334.742-.878.767-1.483.162,1.405-1.338,1.796-2.151,2.585-.9.77-2.018,1.225-3.1,1.698h0Z" fill="#8d8d8e"/>
        <path d="m108.335,306.228c1.29-1.142,2.548-2.333,3.673-3.638.444-.407.655-.873.745-1.461.105.598-.141,1.211-.562,1.624-1.215,1.235-2.563,2.327-3.857,3.475h0Z" fill="#8d8d8e"/>
        <path d="m129.069,301.239c3.709-1.526,6.291-.389,4.712,3.894-.318.884-.87,1.876-1.84,2.128.9-.385,1.31-1.344,1.576-2.214,1.255-4.191-.842-4.6-4.448-3.807h0Z"/>
        <path d="m133.921,301.957c1.35-.759,3.798-1.411,4.602.404.276.809.301,1.773-.263,2.459-.512.68-1.209,1.183-1.94,1.584.715-.427,1.39-.958,1.863-1.638.519-.683.453-1.568.147-2.32-.879-1.584-3.002-.904-4.409-.489h0Z"/>
        <path d="m139.048,302.856c.908-.531,1.965-1.159,3.065-.839.589.22.764.911.765,1.431.094,1.618-.261,3.347-1.347,4.604-.786.746-1.531,1.5-2.291,2.261.681-.823,1.403-1.635,2.148-2.387.987-1.243,1.229-2.92,1.24-4.471.018-.511-.116-1.067-.585-1.27-.986-.347-2.101.236-2.994.671h0Z"/>
        <path d="m126.197,312.516c1.753-.919,4.528-2.005,4.37-4.366-.006-.129-.037-.329.151-.37.084-.003.13.022.187.055l-.183.17c-.02-.032.021-.08-.029-.043-.114.179-.081.425-.077.633-.157,2.218-2.496,3.433-4.419,3.92h0Z" fill="#8d8d8e"/>
        <path d="m131.335,314.686c2.32-1.031,4.386-3.355,4.343-5.994.004-.155-.07-.33.102-.443.104-.033.167.008.231.043l-.183.17c-.011-.038.012-.097-.048-.015-.117.237-.039.518-.061.773-.127,2.519-1.907,4.857-4.384,5.465h0Z" fill="#8d8d8e"/>
        <path d="m147.325,303.282c2.104-1.678,6.693-3.119,5.099,1.385-.8,1.867-2.13,3.371-3.208,5.054-.334.556-.697,1.152-.677,1.813-.204-.552.288-1.347.553-1.887.976-1.72,2.346-3.246,3.08-5.08,1.461-4.17-2.822-2.307-4.846-1.285h0Z"/>
        <path d="m153.112,302.431c.411-.86,1.067-1.638,1.945-2.103,2.057-.976,4.261.511,3.609,2.825-.207.936-.596,1.83-1.076,2.645.472-.827.827-1.728.996-2.66.231-.934-.059-1.9-.831-2.47-1.594-1.298-3.691.374-4.642,1.764h0Z"/>
        <path d="m159.538,300.34c.753-1.739,2.483-3.354,4.51-2.929.422.041.914.243,1.091.677.354.697.359,1.783.476,2.54,0,0-.25,0-.25,0-.115-.725-.071-1.819-.329-2.488-.181-.381-.599-.525-1.009-.551-1.936-.296-3.393,1.288-4.49,2.752h0Z"/>
        <path d="m155.452,313.516c.47-1.458.99-2.904,1.21-4.415-.056-.888-.071-1.973.694-2.585-1.013.916-.492,2.328-.589,3.527-.098,1.251-.654,2.426-1.315,3.473h0Z" fill="#8b8b8c"/>
        <path d="m147.921,315.494c.192-.528.409-1.286.539-1.838.191-.595-.123-1.371.44-1.821-.533.481-.244,1.218-.3,1.843-.052.651-.344,1.266-.679,1.817h0Z" fill="#8b8b8c"/>
        <path d="m140.559,313.771c1.298-1.647,2.67-3.246,3.677-5.078.346-1.176.877-2.536,2.134-2.982-1.749.68-1.763,2.763-2.453,4.24-.725,1.557-2.013,2.789-3.358,3.82h0Z" fill="#8b8b8c"/>
      </g>
    </g>
    <g id="socle">
      <path d="m161.963,81.324s10.085,3.319,10.468-1.66-29.106-28.851-32.553-28.723c-3.872-1.702-29.298-15.894-35.426-8.745-5.553,6.957-.319,13.468-.319,13.468" fill="none" stroke="#000" stroke-miterlimit="10"/>
      <path d="m133.559,30.516s2.792-1.747,3.094-2.264c.41-.703,2.911-2.03,4.552-1.952,1.265.06,1.353,1.054,1.722.625s2.624-2.499,2.788-3.436-.164-1.679-.082-2.343,2.05-3.046,3.24-2.811,8.693-.508,9.637.156,12.302,6.716,15.788,9.84,13.532,15.189,13.86,15.853.943,5.388-.984,5.935-3.732.351-4.06.781-1.517,2.187-1.558,2.85.861,2.811.123,3.241-1.968,3.788-1.517,4.334" fill="none" stroke="#000" stroke-miterlimit="10" stroke-width=".94"/>
      <path d="m171.937,80.081c.772-1.115,1.715-2.313,2.03-3.628-.003-.111-.023-.235-.013-.338.302-1.337,1.418-2.146,2.294-3.003.732-.617,1.411-1.203,2.368-1.686.638-.236,1.187-1.03,1.676-1.731.614-1.034,1.415-2.156,1.401-3.369-.293-1.237-1.317-2.276-2.162-3.212,0,0-2.227-3.639-2.227-3.639-2.718-3.151-6.174-5.845-9.406-8.457,0,0-13.886-10.048-13.886-10.048-.119-.064-.351-.462-.44-.566-.026,0,.098.099.039.054l-.089-.055c-1.796-1.002-5.114-2.469-6.989-3.387-1.451-.69-8.463-3.938-9.771-4.616-2.175-1.152-4.673-1.475-7.089-1.844-.372-.057-.609-.045-.96-.019-1.861.3-3.755.808-5.359,1.872-1.326.528-3.305.519-4.382.276-3.973,1.864-7.711,4.437-11.465,6.744-.477.333-2.201,1.438-2.672,1.806-1.899,1.033-3.67,11.391-1.963,12.82.136.142.222.009.38-.252,0,0-.407.913-.407.913.125-.584-.019-.414-.271-.749-.708-1.088-.599-2.488-.575-3.729.231-2.884.693-5.765,1.86-8.441.304-.591,1.138-1.075,1.625-1.496,2.888-2.13,5.852-4.245,8.88-6.164,1.421-.846,2.764-1.835,4.36-2.447.078-.013.121-.044.328-.026,1.201.23,2.66.216,3.806-.162,1.637-1.088,3.759-1.706,5.751-2.006,2.222-.04,4.414.533,6.563,1.099,1.237.309,2.832,1.274,4.003,1.79,2.613,1.217,9.212,4.293,11.727,5.481.848.459,2.521,1.157,3.321,1.671.175.054.442.517.562.662,0,0-.126-.127-.126-.127,4.847,3.539,16.373,11.467,20.533,15.587,1.099,1.033,2.155,1.916,3.09,3.171.689,1.063,1.827,2.971,2.15,3.568,2.819,2.938,3.142,4.43.774,7.909-.495.713-1.03,1.45-1.784,1.936-.898.403-1.674.966-2.478,1.668-.722.677-1.652,1.442-1.962,2.275-.019,1.746-1.354,3.119-2.248,4.497,0,0-.798-.603-.798-.603h0Z"/>
      <path d="m185.491,26.993c1.699,4.536-2.432,10.448-2.432,10.448" fill="none" stroke="#000" stroke-miterlimit="10"/>
      <path d="m170.58,25.409s2.723-1.89,6.058-2.5" fill="none" stroke="#000" stroke-miterlimit="10"/>
      <path d="m190.862,25.081c2.29,8.089-3.044,18.379-3.814,17.626" fill="none" stroke="#000" stroke-miterlimit="10"/>
      <path d="m164.835,22.133s12.537-10.432,22.064-3.021c.362.281.95.242.932.627" fill="none" stroke="#000" stroke-miterlimit="10"/>
      <path d="m146.261,21.005c8.27,1.339,15.054,6.893,21.245,12.16,3.163,2.65,6.329,5.297,9.461,7.985,2.246,2.097,4.922,3.897,6.693,6.425.426.916,1.265,1.778,1.643,2.616-.696-.77-1.241-1.657-1.758-2.554-1.768-2.504-4.435-4.297-6.673-6.378-3.135-2.682-6.305-5.324-9.472-7.969-6.179-5.389-12.982-10.474-21.14-12.286h0Z" fill="#ededed"/>
      <path d="m148.58,18.856c8.398,1.313,15.11,7.168,21.379,12.472,3.225,2.651,6.452,5.298,9.642,7.993,2.249,2.114,5.162,3.863,6.619,6.643.505.908,1.031,1.81,1.562,2.71-.988-1.193-1.741-2.634-2.619-3.868-4.774-4.799-10.105-9.03-15.214-13.467-6.265-5.439-13.143-10.571-21.369-12.484h0Z" fill="#ededed"/>
      <path d="m142.76,27.521c6.778,2.52,13.421,5.954,19.018,10.487,3.616,2.712,6.788,5.91,10.069,8.997,2.5,2.466,6.627,6.367,8.995,8.894,0,0,.288.309.288.309l.147.152.073.076.037.038c.025,0-.019.069.125-.051l-.177.177c.12-.144.051-.101.051-.125-.022-.021-.09-.087-.114-.11-.261-.255-.806-.749-1.083-1.004-5.955-5.695-12.052-12.115-18.562-17.153-5.581-4.658-12.197-7.898-18.868-10.686h0Z" fill="#ededed"/>
      <path d="m146.03,23.933s16.136,6.136,19.859,10.699c5.181,2.745,16.181,14.489,16.883,15.83" fill="none" stroke="#afafaf" stroke-miterlimit="10" stroke-width=".05"/>
      <g id="corde">
        <path d="m177.119,22.384c2.688,12.809,30.69-4.699,19.179-12.558-.639-.392-1.399-.571-2.008-.289l.166-.15c-.632,1.161-1.25,2.469-1.291,3.798-.003.418.096.805.339,1.044l-.166-.096c1.549.646,3.784,1.649,3.667,3.617-.138-1.87-2.357-2.494-3.865-2.894-.087-.02-.107-.03-.166-.097-1.354-1.731.017-4.09.836-5.753,0,0,.057-.1.057-.1l.109-.05c2.831-.939,4.958,2.146,5.758,4.457,1.799,8.25-17.218,19.713-22.399,11.612-.47-.748-.802-1.542-.96-2.442l.743-.099h0Z"/>
        <path d="m194.389,20.367c-.963-.783-1.991-1.99-3.247-2.126-.128.017-.375.185-.559.276l-.588.332c-.381.221-.793.451-1.053.746-.13.199-.111.111.083.413.402.936.768,2.454.194,3.358.235-.394.153-.875.101-1.309-.106-.789-.328-1.562-.767-2.215-.034-.668.838-.992,1.263-1.305,0,0,.605-.323.605-.323.226-.099.347-.223.671-.296.565-.026.971.263,1.348.523.745.552,1.38,1.213,1.949,1.925h0Z"/>
        <path d="m193.24,14.494s-2.33,1.133-2.074,3.527" fill="none" stroke="#000" stroke-miterlimit="10" stroke-width=".75"/>
        <path d="m182.288,25.362c.384-.102.374-.05.354-.194-.014-.088-.038-.346-.05-.439-.065-.602-.197-1.203-.114-1.831.027-.404.359-1.022.767-1.05,1.521-1.322,3.416-2.175,5.424-2.393,0,0,.045.547.045.547-2.826.045-6.348,1.957-6.068,5.166.008.144-.008.103.385.098,0,0-.744.097-.744.097h0Z"/>
        <path d="m176.532,22.872s1.941-1.207,6.41-.441" fill="none" stroke="#000" stroke-miterlimit="10" stroke-width=".75"/>
        <path d="m187.899,19.154c.539-.689-1.617-3.723-.064-6.936s5.827-2.506,5.827-2.506" fill="none" stroke="#000" stroke-miterlimit="10"/>
        <path d="m181.679,16.473s1.566-3.785,5.928-4.125" fill="none" stroke="#000" stroke-miterlimit="10"/>
        <g>
          <path d="m199.623,14.303s6.766,3.277,5.319,9.83c0,0-1.106,2.511-3.064,3.83" fill="none" stroke="#000" stroke-miterlimit="10" stroke-width=".5"/>
          <path d="m204.209,25.742c1.915,1.098,5.8,3.434,3.618,5.948-.55.656-1.023,1.506-1.926,1.728,0,0-.003-.103-.003-.103.686-.371,1.088-1.249,1.551-1.884.185-.328.466-.661.51-1.034.071-.34-.062-.707-.256-1.04-.869-1.355-2.365-2.331-3.731-3.174,0,0,.237-.44.237-.44h0Z"/>
          <path d="m208.381,30.528c1.841,1.245,5.689,3.817,3.605,6.31-.559.677-1.032,1.557-1.955,1.792,0,0-.003-.102-.003-.102.698-.386,1.106-1.293,1.575-1.947.219-.388.488-.703.486-1.061-.201-2.041-2.463-3.399-3.972-4.571,0,0,.264-.422.264-.422h0Z"/>
          <path d="m212.211,35.698c1.841,1.245,5.689,3.817,3.605,6.31-.559.677-1.032,1.557-1.955,1.792,0,0-.003-.102-.003-.102.698-.386,1.106-1.293,1.575-1.947.219-.388.488-.703.486-1.061-.201-2.041-2.463-3.399-3.972-4.571,0,0,.264-.422.264-.422h0Z"/>
          <path d="m216.009,41.22c1.841,1.245,5.689,3.817,3.605,6.31-.558.677-1.032,1.557-1.955,1.792,0,0-.004-.102-.004-.102.698-.386,1.106-1.293,1.575-1.947.219-.388.488-.703.486-1.061-.201-2.041-2.463-3.399-3.972-4.571,0,0,.264-.422.264-.422h0Z"/>
          <path d="m220.105,46.401c1.631,1.51,5.044,4.636,2.605,6.784-.655.584-1.256,1.383-2.204,1.475,0,0,.012-.102.012-.102.749-.275,1.29-1.11,1.853-1.686.276-.35.589-.621.642-.974.111-2.048-1.918-3.734-3.232-5.121,0,0,.325-.377.325-.377h0Z"/>
          <path d="m223.333,51.901c1.446,1.688,4.473,5.189,1.803,7.04-.718.504-1.408,1.228-2.36,1.21,0,0,.024-.1.024-.1.776-.187,1.409-.954,2.035-1.46.314-.316.657-.549.75-.894.348-2.021-1.474-3.931-2.618-5.46,0,0,.366-.336.366-.336h0Z"/>
          <path d="m226.077,57.805c1.446,1.688,4.473,5.189,1.803,7.04-.718.504-1.408,1.228-2.36,1.21,0,0,.024-.1.024-.1.776-.187,1.409-.954,2.035-1.46.314-.316.657-.549.75-.894.348-2.021-1.474-3.931-2.618-5.46,0,0,.366-.336.366-.336h0Z"/>
          <path d="m228.539,63.911c1.017,1.977,3.154,6.081.129,7.266-.815.325-1.653.87-2.576.632,0,0,.046-.091.046-.091.798-.002,1.591-.602,2.317-.951.379-.235.766-.382.936-.696.805-1.886-.526-4.165-1.287-5.917,0,0,.434-.243.434-.243h0Z"/>
          <path d="m229.688,70.23c1.017,1.977,3.154,6.081.129,7.266-.815.325-1.653.87-2.576.632,0,0,.046-.091.046-.091.798-.002,1.591-.602,2.317-.951.379-.235.766-.382.936-.696.805-1.886-.526-4.165-1.287-5.917,0,0,.434-.243.434-.243h0Z"/>
          <path d="m230.952,76.577c.719,2.104,2.237,6.475-.928,7.208-.853.203-1.762.62-2.64.251,0,0,.059-.084.059-.084.79.113,1.662-.365,2.431-.604.409-.177.813-.267,1.027-.553,1.07-1.749.085-4.197-.413-6.041,0,0,.465-.177.465-.177h0Z"/>
          <path d="m231.175,83.056c.719,2.104,2.237,6.475-.928,7.208-.853.203-1.762.62-2.64.251,0,0,.059-.084.059-.084.79.113,1.662-.365,2.431-.604.409-.177.813-.267,1.027-.553,1.07-1.749.085-4.197-.413-6.041,0,0,.465-.177.465-.177h0Z"/>
          <path d="m231.271,89.567c.719,2.104,2.237,6.475-.928,7.208-.853.203-1.762.62-2.64.251,0,0,.059-.084.059-.084.79.113,1.662-.365,2.431-.604.409-.177.813-.267,1.027-.553,1.07-1.749.085-4.197-.413-6.041,0,0,.465-.177.465-.177h0Z"/>
          <path d="m231.308,96.35c.184,2.215.589,6.825-2.659,6.763-.877-.011-1.86.172-2.622-.401,0,0,.078-.067.078-.067.738.303,1.701.052,2.505.008.44-.072.854-.06,1.131-.285,1.472-1.463,1.103-4.028,1.073-5.96,0,0,.494-.058.494-.058h0Z"/>
          <path d="m229.265,102.829c.184,2.215.589,6.825-2.659,6.763-.877-.011-1.86.172-2.622-.401,0,0,.078-.067.078-.067.738.303,1.701.052,2.505.008.44-.072.854-.06,1.131-.285,1.472-1.463,1.103-4.028,1.073-5.96,0,0,.494-.058.494-.058h0Z"/>
          <path d="m227.691,109.297c.184,2.215.589,6.825-2.659,6.763-.877-.011-1.86.172-2.622-.401,0,0,.078-.067.078-.067.738.303,1.701.052,2.505.008.44-.072.854-.06,1.131-.285,1.472-1.463,1.103-4.028,1.073-5.96,0,0,.494-.058.494-.058h0Z"/>
          <path d="m225.138,115.807c.184,2.215.589,6.825-2.659,6.763-.877-.011-1.86.172-2.622-.401,0,0,.078-.067.078-.067.738.303,1.701.052,2.505.008.44-.072.854-.06,1.131-.285,1.472-1.463,1.103-4.028,1.073-5.96,0,0,.494-.058.494-.058h0Z"/>
          <path d="m222.592,122.524c-.209,2.213-.622,6.822-3.809,6.189-.861-.166-1.861-.159-2.51-.856,0,0,.088-.052.088-.052.673.428,1.665.351,2.464.449.446.007.851.091,1.164-.082,1.707-1.181,1.795-3.771,2.106-5.678,0,0,.496.03.496.03h0Z"/>
          <path d="m218.762,128.439c-.209,2.213-.622,6.822-3.809,6.189-.861-.166-1.861-.159-2.51-.856,0,0,.088-.052.088-.052.673.428,1.665.351,2.464.449.446.007.851.091,1.164-.082,1.707-1.181,1.795-3.771,2.106-5.678,0,0,.497.03.497.03h0Z"/>
          <path d="m215.712,134.661c-.844,2.056-2.579,6.347-5.444,4.814-.776-.409-1.735-.693-2.153-1.549,0,0,.099-.024.099-.024.52.605,1.491.82,2.227,1.146.424.136.788.335,1.137.26,1.957-.612,2.827-3.103,3.667-4.819,0,0,.466.173.466.173h0Z"/>
          <path d="m211.584,139.81c-.844,2.056-2.579,6.347-5.444,4.814-.776-.409-1.735-.693-2.153-1.549,0,0,.099-.024.099-.024.52.605,1.491.82,2.227,1.146.424.136.788.335,1.137.26,1.957-.612,2.827-3.103,3.667-4.819,0,0,.466.173.466.173h0Z"/>
          <path d="m206.988,144.575c-.844,2.056-2.579,6.347-5.444,4.814-.776-.409-1.735-.693-2.153-1.549,0,0,.099-.024.099-.024.52.605,1.491.82,2.227,1.146.424.136.788.335,1.137.26,1.957-.612,2.827-3.103,3.667-4.819,0,0,.466.173.466.173h0Z"/>
          <path d="m202.463,149.387c-.504,2.165-1.53,6.678-4.603,5.623-.832-.28-1.823-.406-2.373-1.185,0,0,.094-.04.094-.04.61.514,1.603.57,2.382.775.441.066.831.204,1.164.075,1.834-.917,2.294-3.516,2.848-5.344,0,0,.488.096.488.096h0Z"/>
          <path d="m198.853,154.788c-.317,2.2-.954,6.784-4.106,5.996-.852-.208-1.851-.249-2.466-.978,0,0,.091-.048.091-.048.652.46,1.646.431,2.44.568.445.028.846.133,1.166-.025,1.762-1.096,1.977-3.678,2.381-5.568,0,0,.494.054.494.054h0Z"/>
          <path d="m195.829,160.257c.615,2.136,1.917,6.577-1.281,7.154-.862.161-1.79.533-2.65.122,0,0,.063-.081.063-.081.783.152,1.678-.283,2.458-.484.417-.157.826-.226,1.053-.502,1.155-1.695.29-4.188-.117-6.054,0,0,.473-.154.473-.154h0Z"/>
          <path d="m195.873,166.508c1.324,1.786,4.099,5.489,1.306,7.149-.751.453-1.49,1.126-2.439,1.042,0,0,.031-.098.031-.098.787-.132,1.473-.853,2.133-1.314.336-.293.694-.501.811-.839.488-1.992-1.195-4.024-2.23-5.63,0,0,.389-.31.389-.31h0Z"/>
          <path d="m197.774,172.244c1.58,1.564,4.886,4.802,2.377,6.868-.674.562-1.302,1.34-2.253,1.4,0,0,.015-.101.015-.101.758-.25,1.326-1.066,1.908-1.623.287-.341.61-.601.674-.952.18-2.043-1.792-3.796-3.059-5.226,0,0,.337-.366.337-.366h0Z"/>
          <path d="m200.723,177.589c2.412,1.364,7.063,4.035,5.068,7.349-.538.901-.971,2.116-2.005,2.526,0,0-.019-.122-.019-.122.763-.597,1.079-1.775,1.52-2.64.193-.507.451-.935.401-1.377-.491-2.491-3.257-3.909-5.241-5.204,0,0,.277-.532.277-.532h0Z"/>
        </g>
        <g>
          <path d="m196.974,20.59s-1.66,5.649,1.979,6.638" fill="none" stroke="#000" stroke-miterlimit="10" stroke-width=".5"/>
          <path d="m203.821,34.016c-.077-.208-.098-.151-.132-.151-.055.015-.234.036-.293.048-1.801.21-4.543.468-5.337-1.602-.707-2.006-.937-4.116-1.143-6.221,0,0,.5-.023.5-.023.078,2.062.22,4.192.864,6.163.699,2.02,3.568,1.695,5.287,1.497.116-.041.172.059.157-.202,0,0,.098.49.098.49h0Z"/>
          <path d="m208.24,39.452c-1.374.741-2.995,1.397-4.596,1.072-1.649-.449-2.14-2.425-2.805-3.78-.383-.974-.75-1.995-.975-3,.4.971.803,1.938,1.239,2.886.44.943.897,1.89,1.493,2.722,1.266,1.754,3.935.639,5.644.1h0Z"/>
          <path d="m213.09,44.77c-1.261.92-2.78,1.787-4.41,1.682-1.695-.223-2.447-2.115-3.289-3.368-.511-.914-1.012-1.876-1.37-2.841.527.909,1.056,1.812,1.616,2.693.563.876,1.143,1.752,1.846,2.496,1.491,1.567,3.985.103,5.606-.661h0Z"/>
          <path d="m217.398,50.563c-1.261.92-2.78,1.787-4.41,1.682-1.695-.223-2.447-2.115-3.289-3.368-.511-.914-1.012-1.876-1.37-2.841.527.909,1.056,1.812,1.616,2.693.563.876,1.143,1.752,1.846,2.496,1.491,1.567,3.985.103,5.606-.661h0Z"/>
          <path d="m222.09,56.499c-1.261.92-2.78,1.787-4.41,1.682-1.695-.223-2.447-2.115-3.289-3.368-.511-.914-1.012-1.876-1.37-2.841.527.909,1.056,1.812,1.616,2.693.563.876,1.143,1.752,1.846,2.496,1.491,1.567,3.985.103,5.606-.661h0Z"/>
          <path d="m224.951,63.199c-1.385.719-3.017,1.349-4.613.999-1.642-.475-2.101-2.459-2.744-3.825-.368-.98-.718-2.007-.927-3.015.384.978.772,1.95,1.193,2.906.425.95.866,1.904,1.45,2.745,1.238,1.774,3.924.701,5.642.19h0Z"/>
          <path d="m226.955,70.091c-1.46.553-3.154.988-4.698.455-1.575-.663-1.8-2.687-2.28-4.118-.251-1.016-.479-2.077-.57-3.103.268,1.016.539,2.027.846,3.025.311.993.639,1.992,1.12,2.895,1.023,1.906,3.816,1.154,5.581.846h0Z"/>
          <path d="m227.465,77.667c-1.538.268-3.284.375-4.699-.44-1.422-.949-1.261-2.978-1.462-4.474-.055-1.046-.079-2.13.026-3.154.071,1.048.147,2.092.26,3.13.118,1.034.251,2.076.554,3.055.645,2.065,3.53,1.853,5.322,1.884h0Z"/>
          <path d="m226.979,83.749c-1.838-.025-4.504-.11-5.336-2.085-.407-1.972-.164-3.959.206-5.903-.037.963-.115,1.963-.114,2.934.002.968.015,1.964.255,2.87.768,1.762,3.31,1.862,4.989,2.184h0Z"/>
          <path d="m227.138,91.887c-1.643.077-3.613-.052-4.81-1.363-1.024-1.457-.538-3.394-.496-5.041.12-1.11.267-2.256.536-3.322-.158,2.23-.401,4.468-.222,6.668.036.561.137,1.055.472,1.455,1.114,1.219,2.931,1.419,4.519,1.602h0Z"/>
          <path d="m225.907,99.486c-1.642-.096-3.587-.431-4.64-1.86-.866-1.556-.179-3.431.036-5.066.236-1.091.502-2.216.882-3.247-.391,2.201-.868,4.402-.92,6.608-.023.562.025,1.063.317,1.497.98,1.329,2.766,1.719,4.326,2.068h0Z"/>
          <path d="m225.014,107.018c-1.642-.096-3.587-.431-4.64-1.86-.866-1.557-.179-3.431.036-5.066.236-1.091.502-2.216.882-3.247-.391,2.201-.868,4.402-.92,6.608-.023.562.025,1.063.317,1.497.98,1.329,2.766,1.719,4.326,2.068h0Z"/>
          <path d="m222.282,114.718c-1.735-.505-3.985-1.41-4.348-3.421.019-1.395.608-2.686,1.102-3.947.43-.985.901-1.993,1.463-2.889-.411.997-.817,1.993-1.191,2.998-.368,1.005-.723,2.021-.918,3.057-.528,2.224,2.245,3.391,3.891,4.202h0Z"/>
          <path d="m220.085,121.367c-1.487-.436-3.082-1.1-4.006-2.428-.898-1.446.127-3.206.599-4.623.405-.957.856-1.934,1.396-2.801-.393.965-.78,1.929-1.13,2.904-.343.974-.677,1.962-.825,2.966-.266,2.11,2.384,3.167,3.966,3.983h0Z"/>
          <path d="m214.918,128.133c-1.242-.926-2.506-2.104-2.91-3.671-.338-1.668,1.235-2.961,2.171-4.126.713-.756,1.476-1.515,2.284-2.14-.705.768-1.403,1.537-2.07,2.329-.661.793-1.318,1.603-1.806,2.493-.984,1.886,1.132,3.798,2.331,5.115h0Z"/>
          <path d="m210.928,134.708c-1.242-.926-2.506-2.104-2.91-3.671-.338-1.668,1.235-2.961,2.171-4.126.713-.756,1.476-1.515,2.284-2.14-.705.768-1.403,1.537-2.07,2.329-.661.793-1.318,1.603-1.806,2.493-.984,1.886,1.132,3.798,2.331,5.115h0Z"/>
          <path d="m206.907,140.739c-1.242-.926-2.506-2.104-2.91-3.671-.338-1.668,1.235-2.961,2.171-4.126.713-.756,1.476-1.515,2.284-2.14-.705.768-1.403,1.537-2.07,2.329-.661.793-1.318,1.603-1.806,2.493-.984,1.886,1.132,3.798,2.331,5.115h0Z"/>
          <path d="m202.012,146.571c-1.163-1.024-2.328-2.3-2.603-3.895-.202-1.69,1.471-2.852,2.498-3.937.772-.696,1.593-1.39,2.449-1.948-.764.709-1.523,1.418-2.252,2.154-.723.737-1.443,1.491-2.002,2.339-1.134,1.8.821,3.878,1.91,5.287h0Z"/>
          <path d="m197.352,152.316c-1.163-1.024-2.328-2.3-2.603-3.895-.202-1.69,1.471-2.852,2.498-3.937.772-.696,1.593-1.39,2.449-1.948-.764.709-1.523,1.418-2.252,2.154-.723.737-1.443,1.491-2.002,2.339-1.133,1.8.821,3.878,1.91,5.287h0Z"/>
          <path d="m193.859,157.87c-1.278-.876-2.589-2.002-3.054-3.552-.405-1.653,1.116-3.008,2.004-4.209.682-.784,1.414-1.573,2.196-2.23-.673.796-1.34,1.592-1.975,2.41-.628.819-1.253,1.655-1.705,2.563-.908,1.924,1.283,3.75,2.534,5.018h0Z"/>
          <path d="m192.581,164.143c-1.466-.502-3.03-1.236-3.894-2.604-.833-1.484.27-3.197.804-4.592.447-.938.941-1.894,1.519-2.736-.436.947-.865,1.893-1.258,2.851-.386.957-.764,1.93-.956,2.926-.36,2.096,2.241,3.269,3.785,4.156h0Z"/>
          <path d="m192.919,170.338c-1.547-.085-3.252-.367-4.455-1.449-1.204-1.202-.609-3.15-.473-4.638.176-1.024.392-2.078.719-3.046-.162,1.03-.319,2.056-.437,3.085-.112,1.026-.211,2.065-.126,3.076.223,2.115,3.044,2.538,4.772,2.972h0Z"/>
          <path d="m195.887,176.618c-5.046,1.791-6.104-.053-7.03-4.734-.22-1.119-.429-2.281-.494-3.403.529,2.223.981,4.477,1.805,6.579.207.533.424,1.019.853,1.329,1.412.931,3.275.547,4.865.229h0Z"/>
          <path d="m200.649,182.247c-1.394.972-3.161,1.928-4.934,1.507-1.73-.631-2.382-2.624-3.258-4.069-.51-1.031-1.016-2.109-1.369-3.185,1.093,2.026,2.12,4.108,3.502,5.912.342.469.714.82,1.235.968,1.653.394,3.334-.418,4.824-1.134h0Z"/>
          <path d="m204.078,187.295c-1.628.989-3.94,2.361-5.798,1.2-1.487-1.46-2.356-3.332-3.115-5.225.499.857.985,1.769,1.524,2.611.54.834,1.104,1.702,1.825,2.326,1.629,1.022,3.93-.263,5.564-.912h0Z"/>
          <path d="m205.984,184.034c2.362.211,3.469,2.327,2.776,4.465-.169.621-.42,1.205-.68,1.782.203-.601.392-1.203.497-1.822.407-1.899-.557-3.681-2.614-3.676,0,0,.021-.75.021-.75h0Z"/>
          <path d="m200.576,188.851c-.579,3.882.987,5.357,4.557,3.296,0,0,.022.034.022.034-2.114,1.477-4.631,2.05-5.224-1.18-.138-.751-.158-1.49-.097-2.258l.742.108h0Z"/>
          <path d="m213.799,197.952c3.979,2.241,7.084,6.383,4.237,10.815-.935,1.69-2.487,4.649-4.825,4.173-.424-.182-.823-.427-1.03-.881.464.31.949.829,1.21,1.424.127.294.212.724-.039,1.1-.245.3-.509.459-.77.635-.779.529-2.353,1.265-2.813,2.07-.12.433-.279,1.239-.488,1.721-.214.755-.736,1.696-.301,2.379.648.432,1.69.359,2.486.439,2.498.018,5.204.024,7.513-.991.787-.605,1.984-1.654,1.885-2.699.004-.078-.025-.244.163-.384.177-.091.263-.052.346-.055.967.218,1.44-.529,2.084-1.198,1.524-1.79,3.196-3.737,4.135-5.876.364-1.202.904-2.278,1.273-3.433.582-1.807,1.053-3.88.168-5.646-.06-.106-.15-.315-.184-.338-.059-.112-.379.195-.616.332-1.554.994-2.842,2.293-4.259,3.444-1.159.544-2.457-.113-3.625-.347-.568-.203-1.208-.329-1.631-.858l.106-.058c.355.437,1.01.593,1.567.773,1.365.277,3.13,1.107,4.153-.263,1.271-1.234,2.648-2.378,4.137-3.328.214-.081.468.123.515.292.45.744.642,1.617.665,2.475.028,2.523-1.16,4.808-1.913,7.049-.999,2.314-2.606,4.146-4.196,6.046-.476.484-.781.945-1.43,1.283-.35.124-.81.067-1.076.049.051-.054.019-.038.027.028.122.841-.538,1.595-1.021,2.126-.415.472-.91.944-1.5,1.162-2.357.83-4.84.897-7.303.867-1.127-.101-3.32.08-3.095-1.607.194-1.334.712-2.298.982-3.6.622-1.046,2.037-1.622,2.973-2.271.244-.158.499-.339.638-.515.303-.711-.478-1.588-.761-2.235.825.189,1.43.746,2.267.3,2.156-1.226,3.359-3.878,4.184-6.124.862-3.496-2.236-6.477-4.84-8.278h0Z"/>
          <path d="m208.96,187.792c.966.34,1.783.942,2.669,1.423,2.533,1.487,5.293,3.133,7.765,4.685,2.556,1.614,5.114,3.239,7.512,5.086.773.64,1.649,1.241,2.116,2.159,0,0-.041.019-.041.019-1.24-1.559-3.023-2.638-4.631-3.801-3.332-2.26-6.782-4.344-10.247-6.394,0,0-2.609-1.522-2.609-1.522-.632-.459-2.256-1.093-2.534-1.654h0Z"/>
          <path d="m201.601,193.122s-2.585,3.606-.862,9.447,4.723,11.489,5.138,12.926,1.535,5.266,2.779,5.618" fill="none" stroke="#000" stroke-miterlimit="10" stroke-width=".75"/>
        </g>
      </g>
      <g id="corde_2" data-name="corde 2">
        <g>
          <path d="m194.651,22.598c1.056,2.311,1.771,4.852,1.806,7.408-.023.848-.172,1.784-.811,2.469-.49.287-.997.554-1.531.766,0,0-.043-.074-.043-.074.389-.317,1.052-.74,1.357-.909.545-.575.71-1.442.73-2.261.05-2.54-.859-5.007-1.508-7.4h0Z"/>
          <path d="m196.269,28.985c.776,2.419,1.188,5.026.921,7.57-.122.84-.381,1.751-1.096,2.356-.52.227-1.055.433-1.611.581,0,0-.034-.078-.034-.078.424-.269,1.132-.611,1.455-.743.609-.507.875-1.348.991-2.159.349-2.516-.263-5.073-.626-7.526h0Z"/>
          <path d="m196.872,37.042c.776,2.419,1.188,5.026.921,7.569-.122.84-.381,1.751-1.096,2.356-.52.227-1.055.433-1.611.581,0,0-.034-.078-.034-.078.424-.269,1.132-.611,1.455-.743.609-.507.875-1.348.991-2.159.349-2.516-.263-5.073-.626-7.526h0Z"/>
          <path d="m197.363,45.986c.349,2.517.306,5.156-.394,7.615-.265.806-.677,1.659-1.485,2.132-.551.134-1.114.245-1.687.295,0,0-.02-.083-.02-.083.464-.192,1.221-.408,1.561-.482.687-.395,1.093-1.178,1.347-1.957.777-2.419.613-5.043.677-7.521h0Z"/>
          <path d="m196.427,54.709c.349,2.517.306,5.156-.394,7.615-.265.806-.677,1.659-1.485,2.132-.551.134-1.114.245-1.687.295,0,0-.02-.083-.02-.083.464-.192,1.221-.407,1.561-.482.687-.395,1.093-1.178,1.347-1.957.777-2.419.613-5.043.677-7.521h0Z"/>
          <path d="m194.893,63.769c-.201,2.533-.811,5.101-2.024,7.352-.432.73-1.018,1.475-1.909,1.763-.567.013-1.14,0-1.711-.075,0,0-.002-.085-.002-.085.494-.087,1.28-.135,1.628-.135.756-.238,1.321-.915,1.737-1.621,1.279-2.195,1.684-4.793,2.28-7.199h0Z"/>
          <path d="m191.914,72.194c-.201,2.533-.811,5.101-2.024,7.352-.432.73-1.018,1.475-1.909,1.763-.567.013-1.14,0-1.711-.075,0,0-.002-.085-.002-.085.494-.087,1.28-.135,1.628-.135.756-.238,1.321-.915,1.737-1.621,1.279-2.195,1.684-4.793,2.28-7.199h0Z"/>
          <path d="m189.181,79.948c.084,2.539-.234,5.159-1.187,7.532-.348.774-.846,1.58-1.699,1.966-.562.076-1.133.127-1.708.118,0,0-.011-.084-.011-.084.481-.142,1.257-.278,1.603-.316.725-.321,1.21-1.057,1.544-1.805,1.025-2.324,1.136-4.951,1.459-7.41h0Z"/>
          <path d="m187.366,88.209c-.404,2.508-1.219,5.019-2.609,7.165-.49.693-1.133,1.388-2.045,1.603-.567-.033-1.136-.092-1.699-.212,0,0,.005-.085.005-.085.5-.047,1.287-.032,1.634-.003.773-.176,1.391-.805,1.862-1.476,1.451-2.085,2.065-4.642,2.852-6.992h0Z"/>
          <path d="m183.327,96.56c.372,1.884.759,5.84-1.575,6.554-.525.007-1.052-.012-1.577-.098,0,0,0-.07,0-.07.476-.075,1.15-.094,1.523-.077,2.255-.804,1.591-4.436,1.628-6.309h0Z"/>
          <path d="m181.849,102.906c.363,2.021.739,6.227-1.63,7.119-.531.033-1.065.039-1.601-.022,0,0-.003-.073-.003-.073.474-.1,1.167-.155,1.533-.157.583-.154.995-.67,1.227-1.237.726-1.775.487-3.783.473-5.631h0Z"/>
          <path d="m180.275,109.736c.363,2.021.739,6.227-1.63,7.119-.531.033-1.065.039-1.601-.022l-.003-.073c.474-.1,1.167-.155,1.533-.157.583-.154.995-.67,1.227-1.237.726-1.775.487-3.783.473-5.631h0Z"/>
          <path d="m179.035,116.422c.782,2.417,1.987,7.407-.438,9.155-.575.176-1.162.326-1.767.405,0,0-.024-.082-.024-.082.487-.234,1.254-.49,1.635-.588.641-.376.979-1.128,1.123-1.876.452-2.333-.174-4.736-.53-7.013h0Z"/>
          <path d="m179.209,123.985c1.057,2.31,2.832,7.127.627,9.144-.551.242-1.116.459-1.708.607,0,0-.033-.079-.033-.079.456-.289,1.189-.633,1.556-.774.593-.448.842-1.234.897-1.994.178-2.37-.722-4.684-1.339-6.904h0Z"/>
          <path d="m180.459,131.624c1.682,1.518,4.89,5.038,3.423,7.408-.441.39-.903.76-1.411,1.072,0,0-.052-.061-.052-.061.344-.409.914-.932,1.23-1.182.406-.537.411-1.275.228-1.933-.573-2.062-2.147-3.676-3.417-5.303h0Z"/>
          <path d="m183.709,138.742c1.893,1.244,5.6,4.235,4.511,6.8-.377.453-.777.889-1.232,1.274,0,0-.061-.053-.061-.053.278-.457.761-1.06,1.036-1.355.32-.593.212-1.323-.069-1.945-.881-1.95-2.682-3.306-4.185-4.721h0Z"/>
          <path d="m187.963,145.168c1.678.838,4.953,2.965,3.69,5.17-.399.405-.812.796-1.282,1.129l-.05-.051c.312-.427.806-.932,1.122-1.221,1.139-2.156-2.111-3.906-3.48-5.028h0Z"/>
          <path d="m191.819,148.865c.712-.24,1.442-.173,2.169-.058,0,0,.002.09.002.09-.72.151-1.446.254-2.169.05,0,0-.002-.082-.002-.082h0Z"/>
          <path d="m187.059,155.886c.908.007,1.747.314,2.57.666,0,0-.023.087-.023.087-.89-.095-1.772-.237-2.568-.674,0,0,.021-.079.021-.079h0Z"/>
          <path d="m201.774,151.547c1.069.221,2.117,1.034,2.14,2.189,0,0-.093.006-.093.006-.064-1.089-1.092-1.779-2.089-1.896,0,0,.043-.3.043-.3h0Z"/>
          <path d="m203.197,152.197c1.893-.754,6.653-1.826,6.271,1.558-.197-.553-.306-1.194-.854-1.503-1.694-.649-3.644-.447-5.417-.055h0Z"/>
          <path d="m208.232,151.94c1.763-1.022,6.316-2.774,6.431.629-.275-.518-.477-1.137-1.064-1.363-1.771-.396-3.67.088-5.368.734h0Z"/>
          <path d="m213.828,151.058c1.517-1.36,5.616-4.007,6.424-.699-.376-.451-.699-1.015-1.32-1.117-1.814-.026-3.575.837-5.104,1.816h0Z"/>
        </g>
        <g>
          <path d="m189.747,39.469c-.181.753.565,1.257,1.175,1.596.241.165.506.311.7.536-.246-.146-.537-.201-.812-.28-.998-.142-2.025-.778-2.059-1.94,0,0,.996.088.996.088h0Z"/>
          <path d="m189.657,40.816c-.265,1.799-.532,3.624-.513,5.436.033.613.046,1.326.442,1.788.998.472,2.088.777,3.021,1.418,0,0-.012.029-.012.029-1.04-.288-2.485-.533-3.355-1.099-.519-.597-.514-1.414-.536-2.131.026-1.86.429-3.672.953-5.442h0Z"/>
          <path d="m189.099,47.758c-.265,1.799-.532,3.624-.513,5.436.033.613.046,1.326.442,1.788.998.472,2.088.777,3.021,1.418,0,0-.012.029-.012.029-1.04-.288-2.485-.533-3.355-1.099-.519-.597-.514-1.414-.536-2.131.026-1.86.429-3.672.953-5.442h0Z"/>
          <path d="m188.469,54.353c-.679,1.686-1.368,3.398-1.773,5.164-.112.603-.266,1.3.01,1.842.86.693,1.848,1.245,2.604,2.087,0,0-.019.026-.019.026-.943-.524-2.291-1.101-3.004-1.855-.364-.702-.168-1.495-.021-2.197.462-1.802,1.278-3.469,2.203-5.066h0Z"/>
          <path d="m186.469,61.545c-.679,1.686-1.368,3.398-1.773,5.164-.112.603-.266,1.3.01,1.842.86.693,1.848,1.245,2.604,2.087,0,0-.019.026-.019.026-.943-.524-2.291-1.101-3.004-1.855-.364-.702-.168-1.495-.021-2.197.462-1.802,1.278-3.469,2.203-5.066h0Z"/>
          <path d="m184.614,68.378c-.874,1.594-1.759,3.213-2.37,4.919-.182.586-.418,1.259-.207,1.83.772.789,1.688,1.454,2.34,2.38,0,0-.022.023-.022.023-.875-.632-2.145-1.364-2.764-2.197-.279-.74.01-1.504.238-2.185.671-1.735,1.678-3.294,2.785-4.771h0Z"/>
          <path d="m181.933,75.442c-.874,1.594-1.759,3.213-2.37,4.919-.182.586-.418,1.259-.207,1.83.772.789,1.688,1.454,2.34,2.38,0,0-.022.023-.022.023-.875-.632-2.145-1.364-2.764-2.197-.279-.74.01-1.504.238-2.185.671-1.735,1.678-3.294,2.785-4.771h0Z"/>
          <path d="m178.92,82.396c-.686,1.476-1.403,2.988-1.761,4.569-.083.511-.216,1.164.214,1.493.874.542,1.734,1.136,2.482,1.852l-.017.024c-.939-.443-1.843-.955-2.722-1.492-1.484-1.381.95-5.083,1.803-6.446h0Z"/>
          <path d="m177.05,87.94c-1.053,1.532-2.117,3.085-2.928,4.75-.252.58-.573,1.235-.454,1.851.635.913,1.532,1.667,2.064,2.689,0,0-.025.021-.025.021-.848-.804-2.002-1.555-2.521-2.586-.149-.784.228-1.505.535-2.17.875-1.685,2.056-3.166,3.33-4.555h0Z"/>
          <path d="m173.589,94.991c-.331,1.829-.665,3.682-.721,5.534.008.633-.015,1.361.346,1.874.954.572,2.082.891,2.985,1.605,0,0-.014.029-.014.029-1.104-.386-2.464-.596-3.361-1.323-.458-.654-.41-1.466-.403-2.198.106-1.895.575-3.731,1.167-5.52h0Z"/>
          <path d="m173.036,102.098c-.331,1.829-.665,3.682-.721,5.534.008.633-.015,1.361.346,1.874.954.572,2.082.891,2.985,1.605,0,0-.014.029-.014.029-1.104-.386-2.464-.596-3.361-1.323-.458-.654-.41-1.466-.403-2.198.106-1.895.575-3.731,1.167-5.52h0Z"/>
          <path d="m172.313,108.821c-.331,1.829-.665,3.682-.721,5.534.008.633-.015,1.361.346,1.874.954.572,2.082.891,2.985,1.605,0,0-.014.029-.014.029-1.104-.386-2.464-.596-3.361-1.323-.458-.654-.41-1.466-.403-2.198.106-1.895.575-3.731,1.167-5.52h0Z"/>
          <path d="m172.277,126.241c.217,1.421.232,7.286,2.119,7.074.906.108,1.808.272,2.681.575l-.005.031c-1.128-.041-2.425.046-3.483-.284-.656-.438-.839-1.241-1.022-1.927-.394-1.802-.406-3.643-.29-5.469h0Z"/>
          <path d="m173.979,132.964c.309,2.508.46,5.113,1.341,7.49.199.438.451.879.825.882,1.019.165,2.03.397,2.991.813l-.008.034c-1.197-.104-2.408-.08-3.529-.473-.79-.61-.96-1.681-1.188-2.577-.406-2.034-.488-4.104-.433-6.168h0Z"/>
          <path d="m176.332,141.889c.774,2.406,1.41,4.936,2.722,7.106.277.393.608.779.976.711,1.032-.029,2.068.009,3.09.238v.035c-1.197.122-2.382.373-3.556.197-.89-.451-1.258-1.471-1.65-2.309-.78-1.922-1.249-3.94-1.582-5.978h0Z"/>
          <path d="m180.472,149.729c1.622,1.938,3.163,4.043,5.195,5.56.405.26.857.493,1.172.292.945-.415,1.92-.77,2.953-.942l.012.033c-1.062.563-2.065,1.241-3.22,1.52-.995-.083-1.719-.89-2.397-1.519-1.446-1.487-2.639-3.181-3.714-4.944h0Z"/>
          <path d="m171.859,116.194c-.129,2.546-.428,5.158.021,7.675.115.467.293.965.646,1.037.982.345,1.944.755,2.823,1.342l-.014.032c-1.028-.22-2.007-.535-2.984-.861-.314-.072-.593-.388-.705-.639-.933-2.761-.246-5.793.213-8.586h0Z"/>
          <path d="m197.864,158.398c1.2.03,2.424.123,3.579-.17.598-.329.95-1.082,1.276-1.679-.294.676-.567,1.409-1.19,1.862-1.159.45-2.479.135-3.664-.013h0Z"/>
          <path d="m200.97,158.114c1.514.01,3.03.077,4.524-.057.732-.099,1.53.037,2.079-.507.577-.47,1.063-1.061,1.475-1.694-.566.949-1.231,2.105-2.388,2.397-1.869.389-3.823.068-5.69-.138h0Z"/>
          <path d="m206.858,158.168c1.51-.115,3.026-.173,4.504-.431.721-.159,1.528-.089,2.03-.677.536-.516.972-1.145,1.33-1.81-.486.993-1.053,2.2-2.182,2.586-1.831.542-3.804.384-5.681.332h0Z"/>
          <path d="m212.922,157.338c1.51-.115,3.026-.173,4.504-.431.721-.159,1.528-.089,2.03-.677.536-.516.972-1.145,1.33-1.81-.486.993-1.053,2.2-2.182,2.586-1.831.542-3.804.384-5.681.332h0Z"/>
          <path d="m219.619,149.347c-.138-1.925.559-4.443,2.671-5.052,1.334-.321,2.636-.707,4.027-.52.869.12,1.647.458,2.421.8.437.126.723.56.402.959-.686.61-1.228,1.268-1.687,2.088.137-.91.636-1.762,1.279-2.425-.001-.007-.016-.015-.015-.007l-.206-.084c-1.342-.572-2.706-.955-4.169-.686-1.282.236-2.671.268-3.464,1.302-.858.954-1.047,2.438-1.258,3.625h0Z"/>
          <path d="m220.452,154.994c1.321,1.444,3.264,2.493,5.234,2.045.055-.019.082-.025.133-.1.392-.552.469-1.169.25-1.845-.213-.948-.307-1.941-.098-2.888.077.9.185,1.9.495,2.778.305.672.231,1.619-.243,2.241-.135.269-.526.333-.809.351-1.998.281-3.953-.926-4.963-2.582h0Z"/>
          <path d="m238.048,144.856s10.213-.936,10.851-2.34-.851-2.383.17-3.149,5.404-2.681,5.489-3.021,6.681-.255,7.447,5.021c0,0-1.532,5.404-.681,6.596s2.383,5.617,2.213,6.426,1.149,4.809-5.787,11.106c0,0-1.234.17-.809,2.723s-2.426,4.34-3.234,4.17-1.149-2.681-3.362-3.277-4.213-4.34-3.149-7.915c0,0,2.34-2.34,2.426-3.702s-.213-3.234-2.468-7.319c0,0,.511-4.894-.085-4.851s-9.021-.468-9.021-.468Z" fill="none" stroke="#000" stroke-miterlimit="10" stroke-width=".5"/>
          <path d="m229.077,145.489c1.206-4.36,9.191-4.326,12.757-6.118,2.877-1.058,5.468-2.678,8.201-4.044,1.827-.198,3.673.391,5.464.749-1.126-.027-2.433-.396-3.626-.481-.564-.043-1.233-.213-1.765-.064-.545.219-1.077.539-1.61.828-2.127,1.195-4.311,2.312-6.595,3.19-3.36,1.471-7.189,1.573-10.41,3.354-1.007.602-2.1,1.39-2.346,2.586h-.07Z"/>
          <path d="m226.668,156.716c-.06.092-.021.453.124.7,1.24,2.002,3.499,2.99,5.409,4.292,6.007,4.088,11.502,10.123,19.147,10.65.671.092,1.329-.097,2.015.025l.011.095c-8.501,1.043-14.935-6.068-21.442-10.363-1.5-1.046-6.499-3.504-5.651-5.714,0,0,.388.315.388.315h0Z"/>
        </g>
      </g>
    </g>
  </g>
</svg>